<svg width="48" height="48" viewBox="0 0 48 48" fill="none" xmlns="http://www.w3.org/2000/svg">
<rect x="2" y="2" width="44" height="44" rx="3" fill="#222222"/>
<path fill-rule="evenodd" clip-rule="evenodd" d="M8 7C7.44772 7 7 7.44772 7 8V16C7 16.5523 7.44772 17 8 17H22C22.5523 17 23 16.5523 23 16V8C23 7.44772 22.5523 7 22 7H8ZM12 9H10V15H12V9ZM16 9H14V15H16V9ZM18 9H20V15H18V9ZM8 19C7.44772 19 7 19.4477 7 20V28C7 28.5523 7.44772 29 8 29H22C22.5523 29 23 28.5523 23 28V20C23 19.4477 22.5523 19 22 19H8ZM12 21H10V27H12V21ZM16 21H14V27H16V21ZM18 21H20V27H18V21ZM7 32C7 31.4477 7.44772 31 8 31H22C22.5523 31 23 31.4477 23 32V40C23 40.5523 22.5523 41 22 41H8C7.44772 41 7 40.5523 7 40V32ZM10 33H12V39H10V33ZM14 33H16V39H14V33ZM20 33H18V39H20V33Z" fill="white"/>
<path fill-rule="evenodd" clip-rule="evenodd" d="M26 7C25.4477 7 25 7.44772 25 8V16C25 16.5523 25.4477 17 26 17H40C40.5523 17 41 16.5523 41 16V8C41 7.44772 40.5523 7 40 7H26ZM30 9H28V15H30V9ZM34 9H32V15H34V9ZM36 9H38V15H36V9ZM26 19C25.4477 19 25 19.4477 25 20V28C25 28.5523 25.4477 29 26 29H40C40.5523 29 41 28.5523 41 28V20C41 19.4477 40.5523 19 40 19H26ZM30 21H28V27H30V21ZM34 21H32V27H34V21ZM36 21H38V27H36V21ZM25 32C25 31.4477 25.4477 31 26 31H40C40.5523 31 41 31.4477 41 32V40C41 40.5523 40.5523 41 40 41H26C25.4477 41 25 40.5523 25 40V32ZM28 33H30V39H28V33ZM32 33H34V39H32V33ZM38 33H36V39H38V33Z" fill="white"/>
</svg>
