<svg width="60" height="60" viewBox="0 0 60 60" fill="none" xmlns="http://www.w3.org/2000/svg">
<circle cx="43.5" cy="46.5" r="6.75" transform="rotate(-90 43.5 46.5)" stroke="#222222" stroke-width="7.5"/>
<circle cx="10.5" cy="10.5" r="6.75" transform="matrix(0 -1 -1 0 27 57)" stroke="#222222" stroke-width="7.5"/>
<path fill-rule="evenodd" clip-rule="evenodd" d="M18.3666 11.5033L18.6479 11.25L41.2492 38.8966L35.0334 44.25L17.6242 22.9546C14.8958 19.6172 15.1493 14.8004 18.0994 11.7663L18.3666 11.5033ZM28.1924 32.4176C28.1924 33.5675 29.1006 34.4997 30.2209 34.4997C31.3413 34.4997 32.2495 33.5675 32.2495 32.4176C32.2495 31.2676 31.3413 30.3354 30.2209 30.3354C29.1006 30.3354 28.1924 31.2676 28.1924 32.4176Z" fill="#222222"/>
<path fill-rule="evenodd" clip-rule="evenodd" d="M29.7565 25.5015L30.938 27H39.0679L24.9658 44.25L18.75 38.8965L29.7015 25.5015H29.7565ZM30.2209 34.4997C29.1006 34.4997 28.1924 33.5675 28.1924 32.4176C28.1924 31.2676 29.1006 30.3354 30.2209 30.3354C31.3413 30.3354 32.2495 31.2676 32.2495 32.4176C32.2495 33.5675 31.3413 34.4997 30.2209 34.4997Z" fill="#222222"/>
<path fill-rule="evenodd" clip-rule="evenodd" d="M57 3V24H33.0429L27.1976 18H51V9H18.4298L18.3213 8.88867C18.3213 8.88867 18.2473 8.92775 18.1156 9H9V18H11.9136C12.1156 19.547 12.6139 21.078 13.3513 22.1137C13.8027 22.7475 14.2841 23.3948 14.7448 24H3V3H57Z" fill="#222222"/>
</svg>
