<svg width="60" height="60" viewBox="0 0 60 60" fill="none" xmlns="http://www.w3.org/2000/svg">
<path fill-rule="evenodd" clip-rule="evenodd" d="M24.7641 9H12C10.3431 9 9 10.3431 9 12V48C9 49.6569 10.3431 51 12 51H48C49.6569 51 51 49.6569 51 48V39.9791C48.2722 41.2749 45.2208 42 42 42C30.402 42 21 32.598 21 21C21 16.5383 22.3914 12.4015 24.7641 9Z" fill="#222222"/>
<path fill-rule="evenodd" clip-rule="evenodd" d="M39 9.37805V6H45V9.37805C46.0388 9.64542 47.0231 10.0484 47.9331 10.5669L51 7.5L55.2426 11.7426L52.2419 14.7434C52.8532 15.742 53.3226 16.8369 53.6219 18H57V24H53.6219C53.3546 25.0388 52.9516 26.0231 52.4331 26.9331L55.2426 29.7426L51 33.9853L48.2566 31.2419C47.258 31.8532 46.1631 32.3226 45 32.6219V36H39V32.6219C37.8369 32.3226 36.742 31.8532 35.7434 31.2419L33 33.9853L28.7574 29.7426L31.5669 26.9331C31.0484 26.0231 30.6454 25.0388 30.3781 24H27V18H30.3781C30.6774 16.8369 31.1468 15.742 31.7581 14.7434L28.7574 11.7426L33 7.5L36.0669 10.5669C36.9769 10.0484 37.9612 9.64542 39 9.37805ZM42 27C45.3137 27 48 24.3137 48 21C48 17.6863 45.3137 15 42 15C38.6863 15 36 17.6863 36 21C36 24.3137 38.6863 27 42 27Z" fill="#222222"/>
</svg>
