<svg width="60" height="60" viewBox="0 0 60 60" fill="none" xmlns="http://www.w3.org/2000/svg">
<path fill-rule="evenodd" clip-rule="evenodd" d="M43.9787 21.0083C41.51 14.0128 34.8404 9 27 9C17.0589 9 9 17.0589 9 27C9 27.3354 9.00917 27.6686 9.03006 27.9962C5.46644 29.6752 3 33.2996 3 37.5C3 43.299 7.70101 48 13.5 48H21.572C20.1821 47.7002 19.5 47.2834 19.5 47.2834L20.2838 42.3892C20.2838 42.3892 24.6244 43.0862 25.7378 42.3892C26.8511 41.6923 27.4098 39.2262 27.4098 39.2262L29.6885 25.5H36.22C36.22 25.5 34.4987 35.3593 34.2454 36.6568C34.2138 36.8186 34.1761 37.0218 34.1322 37.2582C33.8244 38.9176 33.212 42.2185 32.2619 44.4062C31.4698 46.23 29.5726 47.4654 27.2739 48H43.5C50.9558 48 57 41.9558 57 34.5C57 27.2044 51.2128 21.2604 43.9787 21.0083ZM43.9787 21.0083C43.8198 21.0028 43.6602 21 43.5 21L43.9793 21.01C43.9791 21.0095 43.9789 21.0089 43.9787 21.0083Z" fill="#222222"/>
</svg>
