<svg width="60" height="60" viewBox="0 0 60 60" fill="none" xmlns="http://www.w3.org/2000/svg">
<path fill-rule="evenodd" clip-rule="evenodd" d="M12 45V51H48V45H12Z" fill="#222222"/>
<path fill-rule="evenodd" clip-rule="evenodd" d="M15 30V45H45V30C45 21.7157 38.2843 15 30 15C21.7157 15 15 21.7157 15 30Z" fill="#222222"/>
<path fill-rule="evenodd" clip-rule="evenodd" d="M27 6V12H33V6H27Z" fill="#222222"/>
<path fill-rule="evenodd" clip-rule="evenodd" d="M45 11.0146L40.7574 15.2573L45 19.4999L49.2426 15.2573L45 11.0146Z" fill="#222222"/>
<path fill-rule="evenodd" clip-rule="evenodd" d="M48 24V30H54V24H48Z" fill="#222222"/>
<path fill-rule="evenodd" clip-rule="evenodd" d="M6 24V30H12V24H6Z" fill="#222222"/>
<path fill-rule="evenodd" clip-rule="evenodd" d="M15 11.0146L10.7574 15.2573L15 19.4999L19.2426 15.2573L15 11.0146Z" fill="#222222"/>
</svg>
