<svg width="60" height="60" viewBox="0 0 60 60" fill="none" xmlns="http://www.w3.org/2000/svg">
<path fill-rule="evenodd" clip-rule="evenodd" d="M29.9982 3.75C37.5978 3.75 44.6708 7.00166 49.6091 12.5502L50.1914 13.227L51.6299 14.9571L51.5783 15H45.7488C41.6848 10.7309 36.0462 8.25 29.9982 8.25C23.9488 8.25 18.3097 10.7326 14.2476 15H8.3531L9.67455 13.3853C14.6286 7.33186 22.0226 3.75 29.9982 3.75ZM8.25 42L9.67455 43.7407C14.6286 49.7941 22.0226 53.376 29.9982 53.376C37.5978 53.376 44.6708 50.1243 49.6091 44.5757L50.1914 43.8989L51.6299 42.1689L51.4268 42H45.8677C41.7953 46.3462 36.1054 48.876 29.9982 48.876C23.8895 48.876 18.1992 46.3445 14.1286 42H8.25Z" fill="#222222"/>
<path fill-rule="evenodd" clip-rule="evenodd" d="M48 21C46.3431 21 45 22.3431 45 24V27C45 28.6569 46.3431 30 48 30V33H45V36H48C49.6569 36 51 34.6569 51 33V30C51 28.3431 49.6569 27 48 27V24H51V21H48Z" fill="#222222"/>
<path fill-rule="evenodd" clip-rule="evenodd" d="M37.5 36C39.9853 36 42 33.9853 42 31.5V28.5C42 26.0147 39.9853 24 37.5 24C35.0147 24 33 26.0147 33 28.5V31.5C33 32.8327 33.5794 34.0302 34.5 34.8542C35.2961 35.5667 36.3475 36 37.5 36ZM39 31.5V28.5C39 27.6716 38.3284 27 37.5 27C36.6716 27 36 27.6716 36 28.5V31.5C36 32.3284 36.6716 33 37.5 33C38.3284 33 39 32.3284 39 31.5Z" fill="#222222"/>
<path fill-rule="evenodd" clip-rule="evenodd" d="M13.5 24H12V33H13.5C14.3284 33 15 32.3284 15 31.5V25.5C15 24.6716 14.3284 24 13.5 24ZM9 21V36H13.5C15.9853 36 18 33.9853 18 31.5V25.5C18 23.0147 15.9853 21 13.5 21H9Z" fill="#222222"/>
<path fill-rule="evenodd" clip-rule="evenodd" d="M25.5 24H24V33H25.5C26.3284 33 27 32.3284 27 31.5V25.5C27 24.6716 26.3284 24 25.5 24ZM21 21V36H25.5C27.9853 36 30 33.9853 30 31.5V25.5C30 23.0147 27.9853 21 25.5 21H21Z" fill="#222222"/>
</svg>
