<svg width="60" height="60" viewBox="0 0 60 60" fill="none" xmlns="http://www.w3.org/2000/svg">
<path fill-rule="evenodd" clip-rule="evenodd" d="M9 12V32.1597C9 45.0872 17.5698 50.4485 30 54C31.0273 53.7065 32.0281 53.4006 33 53.0792V42.0015C31.1163 39.4942 30 36.3775 30 33C30 24.7157 36.7157 18 45 18C47.1333 18 49.1626 18.4453 51 19.2481V12L30 6L9 12Z" fill="#222222"/>
<path fill-rule="evenodd" clip-rule="evenodd" d="M57 33C57 39.6274 51.6274 45 45 45C38.3726 45 33 39.6274 33 33C33 26.3726 38.3726 21 45 21C51.6274 21 57 26.3726 57 33ZM51 33C51 36.3137 48.3137 39 45 39C41.6863 39 39 36.3137 39 33C39 29.6863 41.6863 27 45 27C48.3137 27 51 29.6863 51 33ZM36 57V45.0011C38.507 46.8842 41.6232 48 45 48C48.3768 48 51.493 46.8842 54 45.0011V57L45 54L36 57Z" fill="#222222"/>
</svg>
