<svg width="60" height="60" viewBox="0 0 60 60" fill="none" xmlns="http://www.w3.org/2000/svg">
<path fill-rule="evenodd" clip-rule="evenodd" d="M12 9C10.3431 9 9 10.3431 9 12V24C9 25.6569 10.3431 27 12 27H26.999L26.499 24H51V12C51 10.3431 49.6569 9 48 9H12ZM27.999 33L28.999 39H31.4999V42V42.8039C30.4974 43.3828 29.6816 44.2406 29.154 45.2761C28.7391 46.0903 28.6069 46.8995 28.5509 47.5853C28.4998 48.2098 28.4999 48.9472 28.5 49.7043V49.7043L28.5 49.8V51H12C10.3431 51 9 49.6569 9 48V36C9 34.3431 10.3431 33 12 33H27.999ZM33 15V21H45V15H33Z" fill="#222222"/>
<path fill-rule="evenodd" clip-rule="evenodd" d="M30 27L31.5 36H34.5V45.0288C33.9117 45.0647 33.4943 45.1455 33.138 45.327C32.5735 45.6146 32.1146 46.0735 31.827 46.638C31.5 47.2798 31.5 48.1198 31.5 49.8V51H52.5V49.8C52.5 48.1198 52.5 47.2798 52.173 46.638C51.8854 46.0735 51.4265 45.6146 50.862 45.327C50.5057 45.1455 50.0883 45.0647 49.5 45.0288V36H52.5L54 27H48L47.5 30H45V27H39V30H36.5L36 27H30Z" fill="#222222"/>
</svg>
