<svg width="60" height="60" viewBox="0 0 60 60" fill="none" xmlns="http://www.w3.org/2000/svg">
<path fill-rule="evenodd" clip-rule="evenodd" d="M28.851 40.0106L19.1706 30.5014L23.3164 26.1524L28.8332 31.5698L37.1665 23.3075L41.3301 27.6414L28.851 40.0106ZM47.7351 32.4323L54 28.9882L52.9628 23.026L45.92 21.9667C45.6369 21.4038 45.3299 20.859 44.9931 20.3324L47.6099 13.6106L43.0439 9.71857L36.9906 13.4956C36.4184 13.2474 35.8312 13.0326 35.2292 12.8449L32.9819 5.99902H27.021L24.7738 12.8449C24.1717 13.0326 23.5816 13.2474 23.0094 13.4956L16.9561 9.71857L12.393 13.6106L15.0069 20.3324C14.6701 20.859 14.3661 21.4038 14.08 21.9667L7.03719 23.026L6 28.9882L12.2649 32.4323C12.3394 33.0618 12.4497 33.6792 12.5868 34.2845L7.86278 39.6959L10.8432 44.9377L17.8264 43.4881C18.2764 43.9148 18.7473 44.3143 19.2391 44.6896L19.0454 51.9289L24.6456 53.999L29.0805 48.3244C29.3875 48.3395 29.6915 48.3698 30.0015 48.3698C30.3115 48.3698 30.6125 48.3395 30.9195 48.3244L35.3544 53.999L40.9576 51.9289L40.7609 44.6896C41.2527 44.3143 41.7236 43.9148 42.1736 43.4881L49.1598 44.9377L52.1402 39.6959L47.4162 34.2845C47.5533 33.6792 47.6606 33.0618 47.7351 32.4323Z" fill="#222222"/>
</svg>
