<svg width="60" height="60" viewBox="0 0 60 60" fill="none" xmlns="http://www.w3.org/2000/svg">
<path fill-rule="evenodd" clip-rule="evenodd" d="M21.0002 31.5V36.6428H32.5714V31.5H21.0002ZM21 37.9289V43.0716H38.9996V37.9289H21ZM33.8572 36.6428V31.5H39V36.6428H33.8572ZM21 44.3572V49.5H26.1428V44.3572H21ZM27.4288 49.4998V44.357H39V49.4998H27.4288Z" fill="#222222"/>
<path fill-rule="evenodd" clip-rule="evenodd" d="M15.3333 43.5001C15.3698 43.5001 15.4061 43.4999 15.4425 43.4995H19.0496L19.0497 35.9783V29.5495H40.9495L40.9491 38.5923L40.9495 42.4065V43.4995H41.8399C41.8932 43.5002 41.9465 43.5006 42 43.5006C48.6274 43.5006 54 38.1538 54 31.5582C54 25.1045 48.856 19.8464 42.4257 19.6233C40.2315 13.4347 34.3028 9 27.3333 9C18.4968 9 11.3333 16.129 11.3333 24.9231C11.3333 25.2193 11.3415 25.5135 11.3575 25.8057C8.19121 27.2915 6 30.4969 6 34.2117C6 39.3416 10.1787 43.5001 15.3333 43.5001ZM32.5709 36.6423H20.9997V31.4995H32.5709V36.6423ZM38.9991 36.6423H33.8567V31.4995H38.9995L38.9991 36.6423ZM20.9995 43.0711L20.9997 37.9283H38.9991V43.0711H20.9995Z" fill="#222222"/>
</svg>
