<svg width="60" height="60" viewBox="0 0 60 60" fill="none" xmlns="http://www.w3.org/2000/svg">
<path fill-rule="evenodd" clip-rule="evenodd" d="M42 7.5L45 4.5L55.5 15L52.5 18L49.5 15L46.5 18L48 19.5L45.4286 22.9286L51 28.5L48 31.5L28.5 12L31.5 9L37.0714 14.5714L40.5 12L42 13.5L45 10.5L42 7.5ZM9.70711 35.2929L27.7929 17.2071C28.1834 16.8166 28.8166 16.8166 29.2071 17.2071L42.7929 30.7929C43.1834 31.1834 43.1834 31.8166 42.7929 32.2071L24.7071 50.2929C24.3166 50.6834 23.6834 50.6834 23.2929 50.2929L9.70711 36.7071C9.31658 36.3166 9.31658 35.6834 9.70711 35.2929ZM17.7071 33.2929C17.8946 33.1054 18.149 33 18.4142 33H33.5858C34.4767 33 34.9229 34.0771 34.2929 34.7071L24.7071 44.2929C24.3166 44.6834 23.6834 44.6834 23.2929 44.2929L15.7071 36.7071C15.3166 36.3166 15.3166 35.6834 15.7071 35.2929L17.7071 33.2929ZM15 52.5L12.7 50.2L1.5 60L0 58.5L9.8 47.3L7.5 45L10.5 42L18 49.5L15 52.5Z" fill="#222222"/>
</svg>
