<svg width="60" height="60" viewBox="0 0 60 60" fill="none" xmlns="http://www.w3.org/2000/svg">
<path fill-rule="evenodd" clip-rule="evenodd" d="M12 9C10.3431 9 9 10.3431 9 12V24C9 25.6569 10.3431 27 12 27H48C49.6569 27 51 25.6569 51 24V12C51 10.3431 49.6569 9 48 9H12ZM33 15V21H45V15H33Z" fill="#222222"/>
<path fill-rule="evenodd" clip-rule="evenodd" d="M26.6787 51L27.45 45.5246L39.9494 33H12C10.3431 33 9 34.3431 9 36V48C9 49.6569 10.3431 51 12 51H26.6787Z" fill="#222222"/>
<path fill-rule="evenodd" clip-rule="evenodd" d="M31.8578 48.3038L30.7654 56.6087L39.0708 55.5168L56.5405 38.0471L49.3275 30.8341L31.8578 48.3038Z" fill="#222222"/>
</svg>
