<svg width="60" height="60" viewBox="0 0 60 60" fill="none" xmlns="http://www.w3.org/2000/svg">
<path fill-rule="evenodd" clip-rule="evenodd" d="M9 12C9 10.3431 10.3431 9 12 9H48C49.6569 9 51 10.3431 51 12V42C51 43.6569 49.6569 45 48 45H33V48H39V51H33H27H21V48H27V45H12C10.3431 45 9 43.6569 9 42V12ZM36.2128 23.5423C35.1156 20.3136 32.1513 18 28.6667 18C24.2484 18 20.6667 21.7195 20.6667 26.3077C20.6667 26.4625 20.6707 26.6163 20.68 26.7675C19.0962 27.5424 18 29.2152 18 31.1538C18 33.8303 20.0893 36 22.6667 36H36C39.3137 36 42 33.2104 42 29.7692C42 26.402 39.4279 23.6587 36.2128 23.5423ZM36.2128 23.5423C36.1421 23.5398 36.0712 23.5385 36 23.5385L36.213 23.5431C36.2129 23.5428 36.2128 23.5426 36.2128 23.5423Z" fill="#222222"/>
</svg>
