<svg width="60" height="60" viewBox="0 0 60 60" fill="none" xmlns="http://www.w3.org/2000/svg">
<path d="M48 5.99987C51.3137 5.99987 53.9999 8.68622 54 11.9999V32.9989C51.493 31.1158 48.3768 29.9999 45 29.9999C36.7158 29.9999 30.0001 36.7157 30 44.9999C30 48.3767 31.116 51.4929 32.999 53.9999H12C8.68629 53.9999 6 51.3136 6 47.9999V11.9999C6.00007 8.68622 8.68633 5.99987 12 5.99987H48ZM35.9229 24.1034C32.8274 24.0324 29.7589 25.1411 27.4521 27.4471C25.1434 29.7552 24.0342 32.8256 24.1074 35.9227L27.4355 35.9999C27.3822 33.7541 28.1862 31.528 29.8604 29.8544C31.5325 28.1828 33.7562 27.3784 36 27.4296L35.9229 24.1034ZM35.7812 18.0546C31.1375 17.9476 26.5348 19.6117 23.0742 23.0712C19.6117 26.5327 17.9484 31.1371 18.0576 35.7821L21.3848 35.8592C21.2953 32.0654 22.6543 28.3046 25.4824 25.4774C28.3085 22.6524 32.0672 21.2945 35.8594 21.3817L35.7812 18.0546ZM35.6406 12.0067C29.4483 11.8637 23.3109 14.0812 18.6963 18.6942C14.0798 23.3092 11.8616 29.4476 12.0068 35.6405L15.334 35.7186C15.2085 30.3769 17.1225 25.0821 21.1045 21.1014C25.0844 17.123 30.3772 15.2097 35.7178 15.3329L35.6406 12.0067Z" fill="#222222"/>
<path d="M45 33C51.6274 33 57 38.3726 57 45C57 51.6274 51.6274 57 45 57C38.3726 57 33 51.6274 33 45C33 38.3726 38.3726 33 45 33ZM40.5 51L51 45L40.5 39V51Z" fill="#222222"/>
</svg>
