<svg width="48" height="48" viewBox="0 0 48 48" fill="none" xmlns="http://www.w3.org/2000/svg">
<path fill-rule="evenodd" clip-rule="evenodd" d="M13 30H12C7.58172 30 4 26.4183 4 22C4 18.6401 6.07132 15.7639 9.00669 14.5788C9.22902 7.59405 14.9612 2 22 2C27.4079 2 32.0446 5.3021 34.0037 10C39.5248 10.002 44 14.4784 44 20C44 25.1853 40.0533 29.4489 35 29.9506V23C35 21.8954 34.1046 21 33 21H15C13.8954 21 13 21.8954 13 23V30Z" fill="#6B9DF8"/>
<path fill-rule="evenodd" clip-rule="evenodd" d="M26 37H22V39.5351C21.3927 39.8864 20.8864 40.3927 20.5351 41H10V45H20.5351C21.2267 46.1956 22.5194 47 24 47C25.4806 47 26.7733 46.1956 27.4649 45H38V41H27.4649C27.1136 40.3927 26.6073 39.8864 26 39.5351V37Z" fill="#6B9DF8"/>
<circle cx="24" cy="43" r="2" fill="white"/>
<path fill-rule="evenodd" clip-rule="evenodd" d="M16.2857 23C15.5756 23 15 23.4477 15 24V28C15 28.5523 15.5756 29 16.2857 29H31.7143C32.4244 29 33 28.5523 33 28V24C33 23.4477 32.4244 23 31.7143 23H16.2857Z" fill="#6B9DF8"/>
<path fill-rule="evenodd" clip-rule="evenodd" d="M27 25V27H31V25H27Z" fill="white"/>
<path fill-rule="evenodd" clip-rule="evenodd" d="M16.2857 31C15.5756 31 15 31.4477 15 32V36C15 36.5523 15.5756 37 16.2857 37H31.7143C32.4244 37 33 36.5523 33 36V32C33 31.4477 32.4244 31 31.7143 31H16.2857Z" fill="#6B9DF8"/>
<path fill-rule="evenodd" clip-rule="evenodd" d="M27 33V35H31V33H27Z" fill="white"/>
</svg>
