<svg width="48" height="48" viewBox="0 0 48 48" fill="none" xmlns="http://www.w3.org/2000/svg">
<path fill-rule="evenodd" clip-rule="evenodd" d="M2 5C2 3.34315 3.34315 2 5 2H41C42.6569 2 44 3.34315 44 5V22.3714C42.0981 21.5147 39.6593 21 37 21C30.9249 21 26 23.6863 26 27V44H5C3.34315 44 2 42.6569 2 41V5Z" fill="#6B9DF8"/>
<path d="M6.5957 7.92969H9.36914C9.89974 7.92969 10.3538 8.02409 10.7314 8.21289C11.1123 8.40169 11.402 8.67025 11.6006 9.01855C11.7992 9.36361 11.8984 9.76888 11.8984 10.2344C11.8984 10.7161 11.791 11.1296 11.5762 11.4746C11.3613 11.8197 11.0521 12.0785 10.6484 12.251L12.1523 15H10.5312L9.17871 12.4902H8.06055V15H6.5957V7.92969ZM9.0957 11.2988C9.95508 11.2988 10.3848 10.944 10.3848 10.2344C10.3848 9.87305 10.2773 9.59961 10.0625 9.41406C9.84766 9.22526 9.52539 9.13086 9.0957 9.13086H8.06055V11.2988H9.0957ZM12.9141 15V7.92969H15.4336C16.14 7.92969 16.7503 8.07129 17.2646 8.35449C17.779 8.63444 18.1729 9.03971 18.4463 9.57031C18.723 10.1009 18.8613 10.7292 18.8613 11.4551C18.8613 12.1875 18.723 12.8206 18.4463 13.3545C18.1696 13.8851 17.7725 14.292 17.2549 14.5752C16.7373 14.8584 16.1204 15 15.4043 15H12.9141ZM15.3457 13.7402C16.0293 13.7402 16.542 13.5547 16.8838 13.1836C17.2256 12.8125 17.3965 12.2363 17.3965 11.4551C17.3965 10.6803 17.2256 10.109 16.8838 9.74121C16.5452 9.37337 16.0358 9.18945 15.3555 9.18945H14.3789V13.7402H15.3457ZM23.7637 9.95117C23.7344 9.67122 23.6123 9.45312 23.3975 9.29688C23.1826 9.14062 22.8978 9.0625 22.543 9.0625C22.2988 9.0625 22.0889 9.09831 21.9131 9.16992C21.7406 9.23828 21.6087 9.33431 21.5176 9.45801C21.4264 9.58171 21.3809 9.72331 21.3809 9.88281C21.3809 10.1107 21.4834 10.293 21.6885 10.4297C21.8936 10.5664 22.1686 10.6738 22.5137 10.752L23.1484 10.9082C23.8027 11.0547 24.3187 11.2972 24.6963 11.6357C25.0771 11.971 25.2676 12.4186 25.2676 12.9785C25.2676 13.4115 25.1585 13.7874 24.9404 14.1064C24.7223 14.4222 24.4082 14.6663 23.998 14.8389C23.5879 15.0114 23.0996 15.0977 22.5332 15.0977C21.9603 15.0977 21.4622 15.0098 21.0391 14.834C20.6191 14.6582 20.292 14.3994 20.0576 14.0576C19.8265 13.7126 19.7044 13.291 19.6914 12.793H21.1172C21.14 13.1413 21.2767 13.4082 21.5273 13.5938C21.7812 13.776 22.11 13.8672 22.5137 13.8672C22.7676 13.8672 22.9906 13.8298 23.1826 13.7549C23.3747 13.68 23.5228 13.5758 23.627 13.4424C23.7311 13.3089 23.7832 13.1543 23.7832 12.9785C23.7832 12.7507 23.6839 12.57 23.4854 12.4365C23.29 12.3031 22.9857 12.1842 22.5723 12.0801L21.8008 11.8945C20.5182 11.5788 19.877 10.9375 19.877 9.9707C19.877 9.54753 19.9909 9.1748 20.2188 8.85254C20.4499 8.52702 20.7689 8.27637 21.1758 8.10059C21.5827 7.92155 22.0417 7.83203 22.5527 7.83203C23.0671 7.83203 23.5212 7.92155 23.915 8.10059C24.3089 8.27962 24.6149 8.53027 24.833 8.85254C25.0511 9.17155 25.1634 9.53776 25.1699 9.95117H23.7637Z" fill="white"/>
<path fill-rule="evenodd" clip-rule="evenodd" d="M37 31C41.9706 31 46 29.2091 46 27C46 24.7909 41.9706 23 37 23C32.0294 23 28 24.7909 28 27C28 29.2091 32.0294 31 37 31ZM43.144 30.964C41.533 31.6149 39.36 32.0001 37 32.0001C34.64 32.0001 32.467 31.6149 30.856 30.964C29.3127 30.3404 28 29.3427 28 28.0001V32C28 34.2091 32.0294 36 37 36C41.9706 36 46 34.2091 46 32V28.0001C46 29.3427 44.6873 30.3404 43.144 30.964ZM37 37C39.36 37 41.533 36.6149 43.144 35.9639C44.6873 35.3404 46 34.3427 46 33V36.9999C46 39.209 41.9706 40.9999 37 40.9999C32.0294 40.9999 28 39.209 28 36.9999V33C28 34.3427 29.3127 35.3404 30.856 35.9639C32.467 36.6149 34.64 37 37 37ZM43.144 40.9639C41.533 41.6148 39.36 42 37 42C34.64 42 32.467 41.6148 30.856 40.9639C29.3127 40.3404 28 39.3427 28 38V41.9999C28 44.209 32.0294 45.9999 37 45.9999C41.9706 45.9999 46 44.209 46 41.9999V38C46 39.3427 44.6873 40.3404 43.144 40.9639Z" fill="#6B9DF8"/>
</svg>
