<svg width="60" height="60" viewBox="0 0 60 60" fill="none" xmlns="http://www.w3.org/2000/svg">
<path fill-rule="evenodd" clip-rule="evenodd" d="M48 9H12C10.3431 9 9 10.3431 9 12V42C9 43.6569 10.3431 45 12 45H27V48H21V51H27H33H34.1367C33.5499 50.1234 33.163 49.1016 33.0412 48H33V47.25V45H33.3841C34.1037 42.9639 35.7725 41.3762 37.8588 40.7685C39.061 36.2939 43.1458 33 48 33C49.0427 33 50.0496 33.1519 51 33.4346V12C51 10.3431 49.6569 9 48 9ZM22.3856 30.0833L25.3426 24.2163L31.6094 36.75H34.6073L40.3073 26.75H45V22.25H37.6927L33.2701 30.009L26.8906 17.25H23.8144L19.6144 25.5833H15V30.0833H22.3856ZM55.5 51C57.9853 51 60 48.9853 60 46.5C60 44.0147 57.9853 42 55.5 42C55.45 42 55.4001 42.0008 55.3505 42.0024C54.6565 38.5779 51.6293 36 48 36C43.8579 36 40.5 39.3579 40.5 43.5L40.5004 43.5751C40.2579 43.5258 40.007 43.5 39.75 43.5C37.6789 43.5 36 45.1789 36 47.25C36 49.3211 37.6789 51 39.75 51H48H55.5Z" fill="#125DE6"/>
</svg>
