<svg width="60" height="60" viewBox="0 0 60 60" fill="none" xmlns="http://www.w3.org/2000/svg">
<path fill-rule="evenodd" clip-rule="evenodd" d="M25 9C23.8954 9 23 9.89543 23 11V24H28V14H47V46H28V40H23V49C23 50.1046 23.8954 51 25 51H50C51.1046 51 52 50.1046 52 49V11C52 9.89543 51.1046 9 50 9H25ZM13 38C8.58172 38 5 34.4183 5 30C5 25.5817 8.58172 22 13 22C16.7277 22 19.8599 24.5495 20.748 28H25H29H33H37V32V36H33V32H29V36H25V32H20.748C19.8599 35.4505 16.7277 38 13 38ZM13 34C10.7909 34 9 32.2091 9 30C9 27.7909 10.7909 26 13 26C15.2091 26 17 27.7909 17 30C17 32.2091 15.2091 34 13 34Z" fill="#222222"/>
</svg>
