<svg width="60" height="60" viewBox="0 0 60 60" fill="none" xmlns="http://www.w3.org/2000/svg">
<path fill-rule="evenodd" clip-rule="evenodd" d="M10.6667 14C9.19391 14 8 15.1939 8 16.6667V38.3333C8 39.8061 9.19391 41 10.6667 41H24V43H19C17.3431 43 16 44.3431 16 46H24H30V43V41V40.5C30 39.6299 30.1999 38.7904 30.5714 38H11V17H43V20C44.0609 20 45.0736 20.2065 46 20.5815V16.6667C46 15.1939 44.8061 14 43.3333 14H10.6667ZM43 33C40.2386 33 38 30.7614 38 28C38 25.2386 40.2386 23 43 23C45.7614 23 48 25.2386 48 28C48 30.7614 45.7614 33 43 33ZM33 46V40.6667C33 37.7211 37.4772 35.3333 43 35.3333C48.5228 35.3333 53 37.7211 53 40.6667V46H43H33Z" fill="#222222"/>
</svg>
