<svg width="48" height="48" viewBox="0 0 48 48" fill="none" xmlns="http://www.w3.org/2000/svg">
<path fill-rule="evenodd" clip-rule="evenodd" d="M24.0876 31C19.0878 31 14.6593 28.5537 11.9338 24.7927L13.0009 24.4215L14.7128 23.8261H14.9903C17.1909 26.3819 20.4503 28.0002 24.0875 28.0002C27.7248 28.0002 30.9842 26.3819 33.1848 23.8261H33.4624L35.1743 24.4215L36.2414 24.7927C33.5159 28.5537 29.0874 31 24.0876 31ZM24.0875 3.99977C27.7248 3.99977 30.9841 5.61804 33.1848 8.17388H33.4624L35.1743 7.57843L36.2414 7.20727C33.5159 3.44629 29.0874 1 24.0876 1C19.0878 1 14.6594 3.44629 11.9338 7.20727L13.0009 7.57843L14.7128 8.17388H14.9903C17.191 5.61804 20.4503 3.99977 24.0875 3.99977ZM10 12C10 10.8954 10.8954 10 12 10H15C16.1046 10 17 10.8954 17 12L17 14H15V12H12L12 20H15V17H13V15H15C16.1046 15 17 15.8954 17 17V20C17 21.1003 16.1116 21.993 15.0129 22L15 22H12C10.8954 22 10 21.1046 10 20V12ZM18 12C18 10.8954 18.8954 10 20 10H24V12H20V15H22C23.1046 15 24 15.8954 24 17V20C24 21.1046 23.1046 22 22 22H18V20H22V17H20C18.8954 17 18 16.1046 18 15V12ZM25 10H27V20H31V22H27H25V20V10ZM34 10H36C37.1046 10 38 10.8954 38 12V15C38 15.3643 37.9026 15.7058 37.7324 16C37.9026 16.2942 38 16.6357 38 17V20C38 21.1046 37.1046 22 36 22H34H32V20V17V15V10H34ZM36 15V12H34V15H36ZM36 17V20H34V17H36Z" fill="#6B9DF8"/>
<rect x="5" y="35" width="3" height="10" fill="#6B9DF8"/>
<rect x="22.5" y="30" width="3" height="10" fill="#6B9DF8"/>
<rect x="40" y="34" width="3" height="10" fill="#6B9DF8"/>
<rect x="5" y="33" width="38" height="3" fill="#6B9DF8"/>
<circle cx="6.5" cy="43" r="4" fill="#6B9DF8"/>
<circle cx="24" cy="43" r="4" fill="#6B9DF8"/>
<circle cx="41.5" cy="43" r="4" fill="#6B9DF8"/>
</svg>
