<svg width="48" height="48" viewBox="0 0 48 48" fill="none" xmlns="http://www.w3.org/2000/svg">
<path fill-rule="evenodd" clip-rule="evenodd" d="M44.001 24C44.001 12.9543 35.0467 4 24.001 4C12.9553 4 4.00098 12.9543 4.00098 24C4.00098 35.0457 12.9553 44 24.001 44C35.0467 44 44.001 35.0457 44.001 24ZM8 24C8 15.1634 15.1634 8 24 8C32.8366 8 40 15.1634 40 24C40 32.8366 32.8366 40 24 40C15.1634 40 8 32.8366 8 24Z" fill="#6B9DF8"/>
<path fill-rule="evenodd" clip-rule="evenodd" d="M42.3333 38.6667C44.3583 38.6667 46 40.3083 46 42.3333C46 44.3584 44.3583 46 42.3333 46C40.3082 46 38.6666 44.3584 38.6666 42.3333C38.6666 41.7676 38.7947 41.2318 39.0235 40.7534L34.4163 36.1451C35.0354 35.6137 35.6134 35.0357 36.1448 34.4167L40.7516 39.0244C41.2305 38.7951 41.7669 38.6667 42.3333 38.6667ZM5.6663 2C7.69134 2 9.33297 3.64162 9.33297 5.66667C9.33297 6.23111 9.20543 6.76576 8.9776 7.24337L13.5858 11.8526C12.9666 12.3839 12.3886 12.9618 11.857 13.5807L7.25127 8.97401C6.77156 9.20432 6.23399 9.33333 5.6663 9.33333C3.64125 9.33333 1.99963 7.69171 1.99963 5.66667C1.99963 3.64162 3.64125 2 5.6663 2Z" fill="#6B9DF8"/>
<path fill-rule="evenodd" clip-rule="evenodd" d="M38.667 5.66667C38.667 3.64162 40.3086 2 42.3337 2C44.3587 2 46.0003 3.64162 46.0003 5.66667C46.0003 7.69171 44.3587 9.33333 42.3337 9.33333C41.7677 9.33333 41.2316 9.20509 40.753 8.97609L36.1449 13.5832C35.6134 12.9641 35.0355 12.3862 34.4164 11.8547L39.0244 7.24771C38.7953 6.76899 38.667 6.23281 38.667 5.66667ZM2 42.3333C2 40.3083 3.64162 38.6667 5.66667 38.6667C6.23101 38.6667 6.76558 38.7942 7.24314 39.0219L11.8524 34.4137C12.3837 35.0329 12.9615 35.611 13.5805 36.1426L8.9739 40.7481C9.20428 41.2279 9.33333 41.7655 9.33333 42.3333C9.33333 44.3584 7.69171 46 5.66667 46C3.64162 46 2 44.3584 2 42.3333Z" fill="#6B9DF8"/>
<path fill-rule="evenodd" clip-rule="evenodd" d="M17.8293 23C17.4175 21.8348 16.3062 21 15 21C13.3431 21 12 22.3431 12 24C12 25.6569 13.3431 27 15 27C16.3062 27 17.4175 26.1652 17.8293 25H30.1707C30.5825 26.1652 31.6938 27 33 27C34.6569 27 36 25.6569 36 24C36 22.3431 34.6569 21 33 21C31.6938 21 30.5825 21.8348 30.1707 23H17.8293Z" fill="#6B9DF8"/>
</svg>
