<svg width="48" height="48" viewBox="0 0 48 48" fill="none" xmlns="http://www.w3.org/2000/svg">
<path fill-rule="evenodd" clip-rule="evenodd" d="M24.0004 47C16.3339 47 9.54342 43.249 5.3642 37.4822L7.0004 36.913L9.34794 36.0965C12.8329 40.313 18.1029 43 24.0004 43C29.8979 43 35.1679 40.313 38.6528 36.0965L41.0004 36.913L42.6366 37.4822C38.4574 43.249 31.6669 47 24.0004 47ZM24.0004 5C29.8979 5 35.1679 7.68697 38.6529 11.9035L41.0004 11.087L42.6366 10.5178C38.4574 4.75099 31.6669 1 24.0004 1C16.3339 1 9.54342 4.75099 5.3642 10.5178L7.0004 11.087L9.34794 11.9035C12.8329 7.68697 18.1029 5 24.0004 5ZM7.49994 15H13.4999C15.1568 15 16.4999 16.3431 16.4999 18V30C16.4999 31.6569 15.1568 33 13.4999 33H7.49994V15ZM10.4999 18V30H13.4999V18H10.4999ZM19.4999 33V15H22.4999L25.4999 24V15H28.4999V33H25.4999L22.4999 24V33H19.4999ZM34.4999 15C32.8431 15 31.4999 16.3431 31.4999 18V22.5C31.4999 24.1569 32.8431 25.5 34.4999 25.5H37.4999V30H31.4999V33H37.4999C39.1568 33 40.4999 31.6569 40.4999 30V25.5C40.4999 23.8431 39.1568 22.5 37.4999 22.5H34.4999V18H40.4999V15H34.4999Z" fill="#6B9DF8"/>
</svg>
