<svg width="60" height="60" viewBox="0 0 60 60" fill="none" xmlns="http://www.w3.org/2000/svg">
<path fill-rule="evenodd" clip-rule="evenodd" d="M45 36H48V42H51V36C51 34.3431 49.6569 33 48 33H45V36ZM42 36V33H36V36H42ZM33 36V33H27V36H33ZM24 36V33H18V36H24ZM15 36V33H12C10.3431 33 9 34.3431 9 36V39H12V36H15ZM12 42H9V48C9 49.6569 10.3431 51 12 51H15V48H12V42ZM18 48V51H24V48H18ZM27 48V51H33V48H27ZM36 48V51H42V48H36ZM45 48V51H48C49.6569 51 51 49.6569 51 48V45H48V48H45Z" fill="#222222"/>
<path fill-rule="evenodd" clip-rule="evenodd" d="M33 39H45V45H33V39Z" fill="#222222"/>
<path fill-rule="evenodd" clip-rule="evenodd" d="M48 9H12C10.3431 9 9 10.3431 9 12V24C9 25.6569 10.3431 27 12 27H48C49.6569 27 51 25.6569 51 24V12C51 10.3431 49.6569 9 48 9ZM45 15H33V21H45V15Z" fill="#222222"/>
</svg>
