<svg width="60" height="60" viewBox="0 0 60 60" fill="none" xmlns="http://www.w3.org/2000/svg">
<path fill-rule="evenodd" clip-rule="evenodd" d="M51 9H9C7.34315 9 6 10.3431 6 12V45C6 46.6569 7.34315 48 9 48H27V51H21C19.3431 51 18 52.3431 18 54H27H33H42C42 52.3431 40.6569 51 39 51H33V48H51C52.6569 48 54 46.6569 54 45V12C54 10.3431 52.6569 9 51 9ZM30 18C25.0294 18 21 22.0294 21 27H24V33H21C19.3431 33 18 31.6569 18 30V27C18 20.3726 23.3726 15 30 15C36.6274 15 42 20.3726 42 27V30C42 31.6569 40.6569 33 39 33H36V27H39C39 22.0294 34.9706 18 30 18ZM30 42C31.6569 42 33 40.6569 33 39H36C37.6569 39 39 37.6569 39 36H33H30H27V39C27 40.6569 28.3431 42 30 42Z" fill="#222222"/>
</svg>
