<svg width="48" height="48" viewBox="0 0 48 48" fill="none" xmlns="http://www.w3.org/2000/svg">
<rect width="48" height="48" fill="white"/>
<path fill-rule="evenodd" clip-rule="evenodd" d="M7 23H23.5C27.6421 23 31 19.6421 31 15.5C31 11.3588 27.6436 8.00149 23.5028 8C22.0334 4.47657 18.5559 2 14.5 2C9.22092 2 4.92176 6.19554 4.75502 11.4341C2.55349 12.3229 1 14.4801 1 17C1 20.3137 3.68629 23 7 23Z" fill="#222222"/>
<path fill-rule="evenodd" clip-rule="evenodd" d="M23 46H39.5C43.6421 46 47 42.6421 47 38.5C47 34.3588 43.6436 31.0015 39.5028 31C38.0334 27.4766 34.5559 25 30.5 25C25.2209 25 20.9218 29.1955 20.755 34.4341C18.5535 35.3229 17 37.4801 17 40C17 43.3137 19.6863 46 23 46Z" fill="#222222"/>
<path fill-rule="evenodd" clip-rule="evenodd" d="M14 30L9 24L4 30L6.99999 30V35V39H11H15.0619C15.2493 37.4975 15.8533 36.1244 16.7546 35H11V30L14 30Z" fill="#222222"/>
<path fill-rule="evenodd" clip-rule="evenodd" d="M37 21L34 21L39 27L44 21L41 21L41 13L41 9H37L30.4282 9C31.4743 10.1146 32.2545 11.4817 32.6676 13H37V21Z" fill="#222222"/>
</svg>
