<svg width="48" height="48" viewBox="0 0 48 48" fill="none" xmlns="http://www.w3.org/2000/svg">
<rect x="5" y="2" width="38" height="44" rx="3" fill="#222222"/>
<rect x="9" y="6" width="30" height="10" fill="white"/>
<rect x="9" y="19" width="30" height="10" fill="white"/>
<rect x="9" y="32" width="30" height="10" fill="white"/>
<path fill-rule="evenodd" clip-rule="evenodd" d="M14.4142 8.17139L13 9.5856L14.4142 10.9998L13 12.414L14.4142 13.8282L15.8284 12.414L17.2426 13.8282L18.6569 12.414L17.2426 10.9998L18.6569 9.5856L17.2426 8.17139L15.8284 9.5856L14.4142 8.17139ZM22.4142 8.17139L21 9.5856L22.4142 10.9998L21 12.414L22.4142 13.8282L23.8284 12.414L25.2426 13.8282L26.6569 12.414L25.2426 10.9998L26.6569 9.5856L25.2426 8.17139L23.8284 9.5856L22.4142 8.17139ZM29 9.5856L30.4142 8.17139L31.8284 9.5856L33.2426 8.17139L34.6569 9.5856L33.2426 10.9998L34.6569 12.414L33.2426 13.8282L31.8284 12.414L30.4142 13.8282L29 12.414L30.4142 10.9998L29 9.5856Z" fill="#222222"/>
<path fill-rule="evenodd" clip-rule="evenodd" d="M14.4142 21.1714L13 22.5856L14.4142 23.9998L13 25.414L14.4142 26.8282L15.8284 25.414L17.2426 26.8282L18.6569 25.414L17.2426 23.9998L18.6569 22.5856L17.2426 21.1714L15.8284 22.5856L14.4142 21.1714ZM22.4142 21.1714L21 22.5856L22.4142 23.9998L21 25.414L22.4142 26.8282L23.8284 25.414L25.2426 26.8282L26.6569 25.414L25.2426 23.9998L26.6569 22.5856L25.2426 21.1714L23.8284 22.5856L22.4142 21.1714ZM29 22.5856L30.4142 21.1714L31.8284 22.5856L33.2426 21.1714L34.6569 22.5856L33.2426 23.9998L34.6569 25.414L33.2426 26.8282L31.8284 25.414L30.4142 26.8282L29 25.414L30.4142 23.9998L29 22.5856Z" fill="#222222"/>
<path fill-rule="evenodd" clip-rule="evenodd" d="M14.4142 34.1714L13 35.5856L14.4142 36.9998L13 38.414L14.4142 39.8282L15.8284 38.414L17.2426 39.8282L18.6569 38.414L17.2426 36.9998L18.6569 35.5856L17.2426 34.1714L15.8284 35.5856L14.4142 34.1714ZM22.4142 34.1714L21 35.5856L22.4142 36.9998L21 38.414L22.4142 39.8282L23.8284 38.414L25.2426 39.8282L26.6569 38.414L25.2426 36.9998L26.6569 35.5856L25.2426 34.1714L23.8284 35.5856L22.4142 34.1714ZM29 35.5856L30.4142 34.1714L31.8284 35.5856L33.2426 34.1714L34.6569 35.5856L33.2426 36.9998L34.6569 38.414L33.2426 39.8282L31.8284 38.414L30.4142 39.8282L29 38.414L30.4142 36.9998L29 35.5856Z" fill="#222222"/>
</svg>
