<svg width="48" height="48" viewBox="0 0 48 48" fill="none" xmlns="http://www.w3.org/2000/svg">
<path fill-rule="evenodd" clip-rule="evenodd" d="M24.0005 47C16.3339 47 9.54348 43.249 5.36426 37.4822L7.00046 36.913L9.34801 36.0965C12.833 40.313 18.1029 43 24.0005 43C29.898 43 35.168 40.313 38.6529 36.0965L41.0005 36.913L42.6367 37.4822C38.4574 43.249 31.667 47 24.0005 47ZM24.0005 5C29.898 5 35.168 7.68697 38.6529 11.9035L41.0005 11.087L42.6367 10.5178C38.4574 4.75099 31.667 1 24.0005 1C16.3339 1 9.54348 4.75099 5.36426 10.5178L7.00046 11.087L9.348 11.9035C12.833 7.68697 18.1029 5 24.0005 5ZM7.5 15H13.5C15.1569 15 16.5 16.3431 16.5 18V30C16.5 31.6569 15.1569 33 13.5 33H7.5V15ZM10.5 18V30H13.5V18H10.5ZM19.5 33V15H22.5L25.5 24V15H28.5V33H25.5L22.5 24V33H19.5ZM34.5 15C32.8431 15 31.5 16.3431 31.5 18V22.5C31.5 24.1569 32.8431 25.5 34.5 25.5H37.5V30H31.5V33H37.5C39.1569 33 40.5 31.6569 40.5 30V25.5C40.5 23.8431 39.1569 22.5 37.5 22.5H34.5V18H40.5V15H34.5Z" fill="#222222"/>
</svg>
