<svg width="48" height="48" viewBox="0 0 48 48" fill="none" xmlns="http://www.w3.org/2000/svg">
<path fill-rule="evenodd" clip-rule="evenodd" d="M44.001 24C44.001 12.9543 35.0467 4 24.001 4C12.9553 4 4.00098 12.9543 4.00098 24C4.00098 35.0457 12.9553 44 24.001 44C35.0467 44 44.001 35.0457 44.001 24ZM8 24C8 15.1634 15.1634 8 24 8C32.8366 8 40 15.1634 40 24C40 32.8366 32.8366 40 24 40C15.1634 40 8 32.8366 8 24Z" fill="#222222"/>
<path fill-rule="evenodd" clip-rule="evenodd" d="M42.3337 38.6667C44.3587 38.6667 46.0003 40.3083 46.0003 42.3333C46.0003 44.3584 44.3587 46 42.3337 46C40.3086 46 38.667 44.3584 38.667 42.3333C38.667 41.7676 38.7951 41.2318 39.0239 40.7534L34.4167 36.1451C35.0358 35.6137 35.6137 35.0357 36.1452 34.4167L40.7519 39.0244C41.2308 38.7951 41.7672 38.6667 42.3337 38.6667ZM5.66666 2C7.69171 2 9.33333 3.64162 9.33333 5.66667C9.33333 6.2311 9.20579 6.76576 8.97796 7.24337L13.5862 11.8526C12.967 12.3839 12.3889 12.9618 11.8573 13.5807L7.25163 8.97401C6.77192 9.20432 6.23436 9.33333 5.66666 9.33333C3.64162 9.33333 2 7.69171 2 5.66667C2 3.64162 3.64162 2 5.66666 2Z" fill="#222222"/>
<path fill-rule="evenodd" clip-rule="evenodd" d="M38.667 5.66667C38.667 3.64162 40.3086 2 42.3337 2C44.3587 2 46.0003 3.64162 46.0003 5.66667C46.0003 7.69171 44.3587 9.33333 42.3337 9.33333C41.7677 9.33333 41.2316 9.20509 40.753 8.97609L36.1449 13.5832C35.6134 12.9641 35.0355 12.3862 34.4164 11.8547L39.0244 7.24771C38.7953 6.76899 38.667 6.23281 38.667 5.66667ZM2 42.3333C2 40.3083 3.64162 38.6667 5.66667 38.6667C6.23101 38.6667 6.76558 38.7942 7.24314 39.0219L11.8524 34.4137C12.3837 35.0329 12.9615 35.611 13.5805 36.1426L8.9739 40.7481C9.20428 41.2279 9.33333 41.7655 9.33333 42.3333C9.33333 44.3584 7.69171 46 5.66667 46C3.64162 46 2 44.3584 2 42.3333Z" fill="#222222"/>
<path fill-rule="evenodd" clip-rule="evenodd" d="M18 27L12 31L18 35V32H30V35L36 31L30 27V30H18V27Z" fill="#222222"/>
<path fill-rule="evenodd" clip-rule="evenodd" d="M20 16C20 13.7909 21.7909 12 24 12C26.2091 12 28 13.7909 28 16V18H30V26H18V18H20V16ZM26 18V16C26 14.8954 25.1046 14 24 14C22.8954 14 22 14.8954 22 16V18H26Z" fill="#222222"/>
</svg>
