<svg width="60" height="60" viewBox="0 0 60 60" fill="none" xmlns="http://www.w3.org/2000/svg">
<path fill-rule="evenodd" clip-rule="evenodd" d="M3 7.5C3 5.01472 5.01472 3 7.5 3C9.98528 3 12 5.01472 12 7.5C12 8.19466 11.8426 8.85256 11.5615 9.43997L14.1232 12.0016C18.3542 8.26649 23.9124 6 30 6C36.0858 6 41.6426 8.26518 45.8732 11.9984L48.4363 9.43532C48.1566 8.84909 48 8.19283 48 7.5C48 5.01472 50.0147 3 52.5 3C54.9853 3 57 5.01472 57 7.5C57 9.98528 54.9853 12 52.5 12C51.8034 12 51.1437 11.8417 50.5551 11.5591L47.9949 14.1193C51.7321 18.3508 54 23.9106 54 30C54 36.0887 51.7327 41.6478 47.9963 45.8791L50.5571 48.4399C51.1452 48.1579 51.8042 48 52.5 48C54.9853 48 57 50.0147 57 52.5C57 54.9853 54.9853 57 52.5 57C50.0147 57 48 54.9853 48 52.5C48 51.8064 48.1569 51.1494 48.4372 50.5627L45.8747 48.0002C41.6439 51.7343 36.0866 54 30 54C23.9106 54 18.3508 51.7321 14.1193 47.9949L11.5591 50.5551C11.8417 51.1438 12 51.8034 12 52.5C12 54.9853 9.98528 57 7.5 57C5.01472 57 3 54.9853 3 52.5C3 50.0147 5.01472 48 7.5 48C8.19283 48 8.84909 48.1566 9.43532 48.4363L11.9984 45.8732C8.26518 41.6426 6 36.0858 6 30C6 23.9123 8.26657 18.354 12.0019 14.123L9.44028 11.5614C8.85279 11.8425 8.19478 12 7.5 12C5.01472 12 3 9.98528 3 7.5ZM10.7988 30.0003C10.7988 19.3964 19.395 10.8003 29.9988 10.8003C40.6027 10.8003 49.1988 19.3964 49.1988 30.0003C49.1988 40.6042 40.6027 49.2003 29.9988 49.2003C19.395 49.2003 10.7988 40.6042 10.7988 30.0003ZM15 30C15 25.0294 19.0294 21 24 21C26.4213 21 28.6193 21.9562 30.2369 23.5115L35.4107 20.4589C35.6196 20.3196 35.8286 20.25 36.1071 20.25C36.3161 20.25 36.4858 20.2892 36.6458 20.3675L43.7679 24.5679C44.1335 24.7507 44.3925 25.1468 44.4515 25.5695L44.4643 25.7518V34.2482C44.4643 34.6748 44.251 35.048 43.9178 35.3213L43.7679 35.4321L36.8036 39.5411C36.5946 39.6804 36.3161 39.75 36.1071 39.75C35.9504 39.75 35.7546 39.7108 35.5783 39.6325L35.4107 39.5411L30.2369 36.4885C28.6193 38.0439 26.4213 39 24 39C19.0294 39 15 34.9706 15 30ZM32.1429 33.8382L36.1064 36.1762L41.2138 33.1634V26.834L36.1064 23.8213L32.142 26.1599C32.6923 27.3246 33 28.6263 33 30C33 31.3729 32.6926 32.674 32.1429 33.8382Z" fill="#222222"/>
</svg>
