<svg width="60" height="60" viewBox="0 0 60 60" fill="none" xmlns="http://www.w3.org/2000/svg">
<path fill-rule="evenodd" clip-rule="evenodd" d="M3 7.5C3 5.01472 5.01472 3 7.5 3C9.98528 3 12 5.01472 12 7.5C12 8.19466 11.8426 8.85256 11.5615 9.43997L14.1232 12.0016C18.3542 8.26648 23.9124 6 30 6C36.0858 6 41.6426 8.26518 45.8732 11.9984L48.4363 9.43532C48.1566 8.84908 48 8.19283 48 7.5C48 5.01472 50.0147 3 52.5 3C54.9853 3 57 5.01472 57 7.5C57 9.98528 54.9853 12 52.5 12C51.8034 12 51.1437 11.8417 50.5551 11.5591L47.9949 14.1193C51.7321 18.3508 54 23.9106 54 30C54 36.0887 51.7327 41.6478 47.9963 45.8791L50.5571 48.4399C51.1452 48.1579 51.8042 48 52.5 48C54.9853 48 57 50.0147 57 52.5C57 54.9853 54.9853 57 52.5 57C50.0147 57 48 54.9853 48 52.5C48 51.8064 48.1569 51.1494 48.4372 50.5627L45.8747 48.0002C41.6439 51.7343 36.0866 54 30 54C23.9106 54 18.3508 51.7321 14.1193 47.9949L11.5591 50.5551C11.8417 51.1437 12 51.8034 12 52.5C12 54.9853 9.98528 57 7.5 57C5.01472 57 3 54.9853 3 52.5C3 50.0147 5.01472 48 7.5 48C8.19283 48 8.84908 48.1566 9.43532 48.4363L11.9984 45.8732C8.26518 41.6426 6 36.0858 6 30C6 23.9123 8.26657 18.354 12.0019 14.1229L9.44028 11.5614C8.85279 11.8425 8.19478 12 7.5 12C5.01472 12 3 9.98528 3 7.5ZM29.9988 10.8003C19.395 10.8003 10.7988 19.3964 10.7988 30.0003C10.7988 40.6042 19.395 49.2003 29.9988 49.2003C40.6027 49.2003 49.1988 40.6042 49.1988 30.0003C49.1988 19.3964 40.6027 10.8003 29.9988 10.8003ZM39.915 20.0836C37.1371 17.3057 32.617 17.3053 29.8388 20.0836L26.6888 23.2336L26.6887 23.2336C26.6831 23.2392 26.677 23.2453 26.6719 23.2509C23.9266 26.0115 23.8881 30.5063 26.6888 33.3098C26.9851 33.6062 27.307 33.8759 27.6507 34.1159C27.9508 34.3253 28.3568 34.2935 28.6156 34.0347L29.6025 33.0478C29.9939 32.6564 30.1694 32.146 30.1508 31.6506C30.1417 31.4133 30.021 31.1942 29.8252 31.0597C29.6887 30.9657 29.5139 30.8312 29.3404 30.6581C28.0245 29.3421 28.019 27.2062 29.3404 25.8848L32.4904 22.7352C33.8141 21.4115 35.9732 21.4195 37.2869 22.7591C38.5877 24.0857 38.5465 26.2248 37.2328 27.5385L36.6193 28.152C36.4154 28.3559 36.3489 28.6578 36.442 28.9307C36.7169 29.7366 36.8658 30.5712 36.8962 31.402C36.9201 32.0538 37.7144 32.3604 38.1756 31.8991L39.915 30.1598C42.6933 27.382 42.6933 22.8614 39.915 20.0836ZM33.31 26.6898C36.1106 29.4933 36.0722 33.9881 33.3268 36.7487L33.3193 36.7566L33.31 36.766L30.16 39.916C27.3817 42.6943 22.8616 42.6939 20.0837 39.916C17.3054 37.1382 17.3054 32.6176 20.0837 29.8398L21.8231 28.1004C22.2843 27.6392 23.0786 27.9457 23.1025 28.5976C23.1328 29.4283 23.2818 30.2629 23.5567 31.0689C23.6498 31.3418 23.5833 31.6437 23.3794 31.8476L22.7659 32.461C21.4522 33.7747 21.411 35.9138 22.7118 37.2404C24.0254 38.58 26.1845 38.588 27.5082 37.2643L30.6582 34.1148C31.9797 32.7933 31.9742 30.6574 30.6582 29.3415C30.4848 29.1683 30.31 29.0338 30.1735 28.9398C29.9777 28.8054 29.857 28.5863 29.8479 28.3489C29.8293 27.8536 30.0048 27.3432 30.3962 26.9518L31.3831 25.9648C31.6419 25.706 32.0479 25.6742 32.348 25.8837C32.6917 26.1236 33.0136 26.3934 33.31 26.6898Z" fill="#222222"/>
</svg>
