<svg width="60" height="60" viewBox="0 0 60 60" fill="none" xmlns="http://www.w3.org/2000/svg">
<path fill-rule="evenodd" clip-rule="evenodd" d="M24 6C22.3431 6 21 7.34315 21 9V21C21 22.6569 22.3431 24 24 24H27V30H9V36V39.8027C7.2066 40.8401 6 42.7792 6 45C6 48.3137 8.68629 51 12 51C15.3137 51 18 48.3137 18 45C18 42.7792 16.7934 40.8401 15 39.8027V36H27V39.8027C25.2066 40.8401 24 42.7792 24 45C24 48.3137 26.6863 51 30 51C33.3137 51 36 48.3137 36 45C36 42.7792 34.7934 40.8401 33 39.8027V36H45V39.8027C43.2066 40.8401 42 42.7792 42 45C42 48.3137 44.6863 51 48 51C51.3137 51 54 48.3137 54 45C54 42.7792 52.7934 40.8401 51 39.8027V36V30H33V24H36C37.6569 24 39 22.6569 39 21V9C39 7.34315 37.6569 6 36 6H24Z" fill="#222222"/>
</svg>
