<svg width="60" height="60" viewBox="0 0 60 60" fill="none" xmlns="http://www.w3.org/2000/svg">
<path fill-rule="evenodd" clip-rule="evenodd" d="M3 7.5C3 5.01472 5.01472 3 7.5 3C9.98528 3 12 5.01472 12 7.5C12 8.19466 11.8426 8.85256 11.5615 9.43997L14.1232 12.0016C18.3542 8.26648 23.9124 6 30 6C36.0858 6 41.6426 8.26518 45.8732 11.9984L48.4363 9.43532C48.1566 8.84908 48 8.19283 48 7.5C48 5.01472 50.0147 3 52.5 3C54.9853 3 57 5.01472 57 7.5C57 9.98528 54.9853 12 52.5 12C51.8034 12 51.1437 11.8417 50.5551 11.5591L47.9949 14.1193C51.7321 18.3508 54 23.9106 54 30C54 36.0887 51.7327 41.6478 47.9963 45.8791L50.5571 48.4399C51.1452 48.1579 51.8042 48 52.5 48C54.9853 48 57 50.0147 57 52.5C57 54.9853 54.9853 57 52.5 57C50.0147 57 48 54.9853 48 52.5C48 51.8064 48.1569 51.1494 48.4372 50.5627L45.8747 48.0002C41.6439 51.7343 36.0866 54 30 54C23.9106 54 18.3508 51.7321 14.1193 47.9949L11.5591 50.5551C11.8417 51.1437 12 51.8034 12 52.5C12 54.9853 9.98528 57 7.5 57C5.01472 57 3 54.9853 3 52.5C3 50.0147 5.01472 48 7.5 48C8.19283 48 8.84908 48.1566 9.43532 48.4363L11.9984 45.8732C8.26518 41.6426 6 36.0858 6 30C6 23.9123 8.26657 18.354 12.0019 14.1229L9.44028 11.5614C8.85279 11.8425 8.19478 12 7.5 12C5.01472 12 3 9.98528 3 7.5ZM29.9988 10.8003C19.395 10.8003 10.7988 19.3964 10.7988 30.0003C10.7988 40.6042 19.395 49.2003 29.9988 49.2003C40.6027 49.2003 49.1988 40.6042 49.1988 30.0003C49.1988 19.3964 40.6027 10.8003 29.9988 10.8003ZM34.0402 21.671C33.4544 21.0852 33.4544 20.1355 34.0402 19.5497C34.6259 18.9639 35.5757 18.9639 36.1615 19.5497L40.4041 23.7923C40.6959 24.0842 40.8424 24.4663 40.8434 24.8488C40.8447 25.2342 40.6982 25.6201 40.4041 25.9142L36.1615 30.1569C35.5757 30.7426 34.6259 30.7426 34.0402 30.1569C33.4544 29.5711 33.4544 28.6213 34.0402 28.0355L35.7231 26.3525H21C20.1716 26.3525 19.5 25.681 19.5 24.8525C19.5 24.0241 20.1716 23.3525 21 23.3525H35.7217L34.0402 21.671ZM26.3026 40.4459C26.8884 39.8601 26.8884 38.9104 26.3026 38.3246L24.6211 36.6431H39.3428C40.1712 36.6431 40.8428 35.9715 40.8428 35.1431C40.8428 34.3146 40.1712 33.6431 39.3428 33.6431H24.6196L26.3026 31.9601C26.8884 31.3743 26.8884 30.4245 26.3026 29.8388C25.7168 29.253 24.7671 29.253 24.1813 29.8388L19.9387 34.0814C19.6446 34.3755 19.4981 34.7614 19.4993 35.1468C19.5004 35.5293 19.6468 35.9115 19.9387 36.2033L24.1813 40.4459C24.7671 41.0317 25.7168 41.0317 26.3026 40.4459Z" fill="#222222"/>
</svg>
