<svg width="60" height="60" viewBox="0 0 60 60" fill="none" xmlns="http://www.w3.org/2000/svg">
<path fill-rule="evenodd" clip-rule="evenodd" d="M3 7.5C3 5.01472 5.01472 3 7.5 3C9.98528 3 12 5.01472 12 7.5C12 8.19466 11.8426 8.85256 11.5615 9.43997L14.1232 12.0016C18.3542 8.26649 23.9124 6 30 6C36.0858 6 41.6426 8.26518 45.8732 11.9984L48.4363 9.43532C48.1566 8.84909 48 8.19283 48 7.5C48 5.01472 50.0147 3 52.5 3C54.9853 3 57 5.01472 57 7.5C57 9.98528 54.9853 12 52.5 12C51.8034 12 51.1437 11.8417 50.5551 11.5591L47.9949 14.1193C51.7321 18.3508 54 23.9106 54 30C54 36.0887 51.7327 41.6478 47.9963 45.8791L50.5571 48.4399C51.1452 48.1579 51.8042 48 52.5 48C54.9853 48 57 50.0147 57 52.5C57 54.9853 54.9853 57 52.5 57C50.0147 57 48 54.9853 48 52.5C48 51.8064 48.1569 51.1494 48.4372 50.5627L45.8747 48.0002C41.6439 51.7343 36.0866 54 30 54C23.9106 54 18.3508 51.7321 14.1193 47.9949L11.5591 50.5551C11.8417 51.1438 12 51.8034 12 52.5C12 54.9853 9.98528 57 7.5 57C5.01472 57 3 54.9853 3 52.5C3 50.0147 5.01472 48 7.5 48C8.19283 48 8.84909 48.1566 9.43532 48.4363L11.9984 45.8732C8.26518 41.6426 6 36.0858 6 30C6 23.9123 8.26657 18.354 12.0019 14.123L9.44028 11.5614C8.85279 11.8425 8.19478 12 7.5 12C5.01472 12 3 9.98528 3 7.5ZM10.7988 30.0003C10.7988 19.3964 19.395 10.8003 29.9988 10.8003C40.6027 10.8003 49.1988 19.3964 49.1988 30.0003C49.1988 40.6042 40.6027 49.2003 29.9988 49.2003C19.395 49.2003 10.7988 40.6042 10.7988 30.0003Z" fill="#222222"/>
<rect x="36.75" y="26.25" width="7.5" height="7.5" rx="3.75" stroke="#222222" stroke-width="3"/>
<path d="M31.5 30.0591C32.805 30.0197 35.125 29.9803 36.43 29.9409" stroke="#222222" stroke-width="3"/>
<rect x="18" y="20.25" width="7.5" height="7.5" rx="3.75" stroke="#222222" stroke-width="3"/>
<rect x="18" y="32.25" width="7.5" height="7.5" rx="3.75" stroke="#222222" stroke-width="3"/>
<mask id="mask0_4597_232574" style="mask-type:luminance" maskUnits="userSpaceOnUse" x="25" y="19" width="10" height="20">
<rect x="25.5" y="19.5" width="9" height="19.5" fill="white"/>
</mask>
<g mask="url(#mask0_4597_232574)">
<rect x="18" y="24" width="13.5" height="12" rx="1.5" stroke="#222222" stroke-width="3"/>
</g>
</svg>
