<svg width="60" height="60" viewBox="0 0 60 60" fill="none" xmlns="http://www.w3.org/2000/svg">
<path fill-rule="evenodd" clip-rule="evenodd" d="M30.0121 54C21.8039 54 14.5581 49.8794 10.2305 43.5939L12.0121 43L14.7178 42.0981C18.2895 46.6073 23.813 49.5 30.0121 49.5C36.2112 49.5 41.7347 46.6073 45.3064 42.0981L48.0121 43L49.7938 43.5939C45.4661 49.8794 38.2203 54 30.0121 54ZM30.0121 10.5C36.2112 10.5 41.7347 13.3927 45.3064 17.9019L48.0121 17L49.7938 16.4061C45.4661 10.1206 38.2203 6 30.0121 6C21.8039 6 14.5581 10.1206 10.2305 16.4061L12.0121 17L14.7178 17.9019C18.2895 13.3927 23.813 10.5 30.0121 10.5ZM18.0121 21H12.0121V39H18.0121C19.669 39 21.0121 37.6569 21.0121 36V24C21.0121 22.3431 19.669 21 18.0121 21ZM15.0121 36V24H18.0121V36H15.0121ZM51.0121 21H48.0121V24H45.0121V21H39.0121C37.3553 21 36.0121 22.3431 36.0121 24V28.5C36.0121 30.1569 37.3553 31.5 39.0121 31.5H42.0121V36H36.0121V39H42.0121C43.669 39 45.0121 37.6569 45.0121 36V31.5C45.0121 29.8431 43.669 28.5 42.0121 28.5H39.0121V24H45.0121V27H48.0121V30H51.0121V27H54.0121V24H51.0121V21ZM24.0121 39V21H27.0121L30.0121 30V21H33.0121V39H30.0121L27.0121 30V39H24.0121Z" fill="#222222"/>
</svg>
