<svg width="60" height="60" viewBox="0 0 60 60" fill="none" xmlns="http://www.w3.org/2000/svg">
<path fill-rule="evenodd" clip-rule="evenodd" d="M33 42H27V45.8027C26.0891 46.3296 25.3296 47.0891 24.8027 48H9V54H24.8027C25.8401 55.7934 27.7792 57 30 57C32.2208 57 34.1599 55.7934 35.1973 54H51V48H35.1973C34.6704 47.0891 33.9109 46.3296 33 45.8027V42ZM30 48C31.6569 48 33 49.3431 33 51C33 52.6569 31.6569 54 30 54C28.3431 54 27 52.6569 27 51C27 49.3431 28.3431 48 30 48Z" fill="#222222"/>
<path fill-rule="evenodd" clip-rule="evenodd" d="M57 28.5C57 35.9558 50.9558 42 43.5 42H13.5C7.70101 42 3 37.299 3 31.5C3 27.3007 5.46511 23.6772 9.02718 21.9976C9.00914 21.6673 9 21.3347 9 21C9 11.0589 17.0589 3 27 3C34.8404 3 41.51 8.01282 43.9787 15.0083C51.2128 15.2604 57 21.2044 57 28.5ZM31.5 12H28.5V18H25.5L30 24L34.5 18H31.5V12ZM28.5 39V33H25.5L30 27L34.5 33H31.5V39H28.5ZM21 27H27V24H21V21L15 25.5L21 30V27ZM33 27H39V30L45 25.5L39 21V24H33V27Z" fill="#222222"/>
</svg>
