<svg width="60" height="60" viewBox="0 0 60 60" fill="none" xmlns="http://www.w3.org/2000/svg">
<path fill-rule="evenodd" clip-rule="evenodd" d="M6 9V12V48H9V44.7273H18V48H53C53.5523 48 54 47.5523 54 47V13C54 12.4477 53.5523 12 53 12H9V6H3V9H6ZM30 20.25H25.5V24.75H30V20.25ZM30 27.75H25.5V32.25H30V27.75ZM25.5 35.25H30V39.75H25.5V35.25ZM37.5 20.25H33V24.75H37.5V20.25ZM40.5 20.25H45V24.75H40.5V20.25ZM37.5 27.75H33V32.25H37.5V27.75ZM40.5 27.75H45V32.25H40.5V27.75ZM37.5 35.25H33V39.75H37.5V35.25ZM40.5 35.25H45V39.75H40.5V35.25Z" fill="#222222"/>
</svg>
