<svg width="60" height="60" viewBox="0 0 60 60" fill="none" xmlns="http://www.w3.org/2000/svg">
<path d="M36 9C37.6569 9 39 10.3431 39 12V24C39 25.6569 37.6569 27 36 27H33V33H47.8789C47.5377 34.3189 47.0524 35.5797 46.4385 36.7646L45.2793 39H33V42.8037C34.7932 43.8412 36 45.7793 36 48C36 51.3137 33.3137 54 30 54C26.6863 54 24 51.3137 24 48C24 45.7793 25.2068 43.8412 27 42.8037V39H15V42.8037C16.7932 43.8412 18 45.7793 18 48C18 51.3137 15.3137 54 12 54C8.68629 54 6 51.3137 6 48C6 45.7793 7.20684 43.8412 9 42.8037V33H27V27H24C22.3431 27 21 25.6569 21 24V12C21 10.3431 22.3431 9 24 9H36ZM48 42C51.3137 42 54 44.6863 54 48C54 51.3137 51.3137 54 48 54C44.6863 54 42 51.3137 42 48C42 44.6863 44.6863 42 48 42ZM51 33V38.8701L49.1016 38.1445C49.9334 36.539 50.5657 34.8133 50.9639 33H51Z" fill="#222222"/>
<path d="M56.4092 8.31445L51.7031 11.8516C55.3023 16.4384 57.4512 22.2172 57.4512 28.5C57.4512 33.2347 56.2307 37.6839 54.0898 41.5527L48.415 39.3809C50.3413 36.2075 51.4512 32.4835 51.4512 28.5C51.4512 23.5707 49.7508 19.0396 46.9072 15.457L42 19.1465V4.14648L56.4092 8.31445Z" fill="#222222"/>
</svg>
