<svg width="60" height="60" viewBox="0 0 60 60" fill="none" xmlns="http://www.w3.org/2000/svg">
<path fill-rule="evenodd" clip-rule="evenodd" d="M3 7.5C3 5.01472 5.01472 3 7.5 3C9.98528 3 12 5.01472 12 7.5C12 8.19466 11.8426 8.85256 11.5615 9.43997L14.1232 12.0016C18.3542 8.26648 23.9124 6 30 6C36.0858 6 41.6426 8.26518 45.8732 11.9984L48.4363 9.43532C48.1566 8.84908 48 8.19283 48 7.5C48 5.01472 50.0147 3 52.5 3C54.9853 3 57 5.01472 57 7.5C57 9.98528 54.9853 12 52.5 12C51.8034 12 51.1437 11.8417 50.5551 11.5591L47.9949 14.1193C51.7321 18.3508 54 23.9106 54 30C54 36.0887 51.7327 41.6478 47.9963 45.8791L50.5571 48.4399C51.1452 48.1579 51.8042 48 52.5 48C54.9853 48 57 50.0147 57 52.5C57 54.9853 54.9853 57 52.5 57C50.0147 57 48 54.9853 48 52.5C48 51.8064 48.1569 51.1494 48.4372 50.5627L45.8747 48.0002C41.6439 51.7343 36.0866 54 30 54C23.9106 54 18.3508 51.7321 14.1193 47.9949L11.5591 50.5551C11.8417 51.1437 12 51.8034 12 52.5C12 54.9853 9.98528 57 7.5 57C5.01472 57 3 54.9853 3 52.5C3 50.0147 5.01472 48 7.5 48C8.19283 48 8.84908 48.1566 9.43532 48.4363L11.9984 45.8732C8.26518 41.6426 6 36.0858 6 30C6 23.9123 8.26657 18.354 12.0019 14.1229L9.44028 11.5614C8.85279 11.8425 8.19478 12 7.5 12C5.01472 12 3 9.98528 3 7.5ZM10.7988 30.0003C10.7988 19.3964 19.395 10.8003 29.9988 10.8003C40.6027 10.8003 49.1988 19.3964 49.1988 30.0003C49.1988 40.6042 40.6027 49.2003 29.9988 49.2003C19.395 49.2003 10.7988 40.6042 10.7988 30.0003ZM43.5 30C43.5 22.5442 37.4558 16.5 30 16.5C22.5442 16.5 16.5 22.5442 16.5 30C16.5 37.4558 22.5442 43.5 30 43.5C37.4558 43.5 43.5 37.4558 43.5 30ZM40.2584 32.25C40.4166 31.5251 40.5 30.7723 40.5 30C40.5 29.2277 40.4166 28.4749 40.2584 27.75H36.6567C36.718 28.4817 36.75 29.2334 36.75 30C36.75 30.7666 36.718 31.5183 36.6567 32.25H40.2584ZM39.0953 35.25H36.2206C35.9025 36.7558 35.4517 38.1221 34.8975 39.2903C36.6483 38.3654 38.106 36.9602 39.0953 35.25ZM33.6394 32.25C33.7121 31.5197 33.75 30.7669 33.75 30C33.75 29.2331 33.7121 28.4803 33.6394 27.75H26.3606C26.2879 28.4803 26.25 29.2331 26.25 30C26.25 30.7669 26.2879 31.5197 26.3606 32.25H33.6394ZM26.8846 35.25H33.1154C32.8175 36.4057 32.4229 37.45 31.9492 38.3342C31.1213 39.8797 30.3356 40.5 30 40.5C29.6644 40.5 28.8787 39.8797 28.0508 38.3342C27.5771 37.45 27.1825 36.4057 26.8846 35.25ZM23.3433 32.25C23.2819 31.5183 23.25 30.7666 23.25 30C23.25 29.2334 23.2819 28.4817 23.3433 27.75H19.7416C19.5834 28.4749 19.5 29.2277 19.5 30C19.5 30.7723 19.5834 31.5251 19.7416 32.25H23.3433ZM20.9047 35.25H23.7794C24.0975 36.7558 24.5483 38.1221 25.1025 39.2903C23.3517 38.3654 21.894 36.9602 20.9047 35.25ZM34.8975 20.7097C36.6483 21.6346 38.106 23.0398 39.0953 24.75H36.2206C35.9025 23.2442 35.4517 21.8779 34.8975 20.7097ZM31.9492 21.6658C32.4229 22.55 32.8175 23.5943 33.1154 24.75H26.8846C27.1825 23.5943 27.5771 22.55 28.0508 21.6658C28.8787 20.1203 29.6644 19.5 30 19.5C30.3356 19.5 31.1213 20.1203 31.9492 21.6658ZM25.1025 20.7097C24.5483 21.8779 24.0975 23.2442 23.7794 24.75H20.9047C21.894 23.0398 23.3517 21.6346 25.1025 20.7097Z" fill="#222222"/>
</svg>
