<svg width="60" height="60" viewBox="0 0 60 60" fill="none" xmlns="http://www.w3.org/2000/svg">
<path fill-rule="evenodd" clip-rule="evenodd" d="M56.2351 6.00029C56.4262 5.99526 56.6125 6.05682 56.758 6.17311C56.9421 6.33729 57.1134 6.66911 56.9035 8.00332V8.04307C56.6292 9.8318 55.3753 10.791 54.1123 11.6223C54.0033 11.6979 53.8931 11.7679 53.7817 11.8387C53.7557 11.8552 53.7297 11.8717 53.7036 11.8884L53.69 11.8972C52.6908 12.546 51.6605 13.215 50.9842 14.2025C50.5515 14.8351 50.1741 16.4648 49.7359 18.3658L49.7231 18.421C49.3598 19.9889 48.9486 21.7638 48.3863 23.5506C47.0238 27.8902 45.2269 30.6796 42.896 32.0622L41.9294 32.5478C41.9294 32.5478 42.0675 31.4521 42.1135 30.9336C42.115 30.9036 42.1177 30.8737 42.1203 30.8438C42.1243 30.7996 42.1282 30.7557 42.1282 30.7124C42.131 30.675 42.1343 30.638 42.1376 30.6017C42.145 30.5191 42.1521 30.44 42.1521 30.3668C42.1798 30.009 41.9073 30.1369 41.8778 30.206C41.5461 31.0361 41.1675 31.8489 40.7437 32.6411C39.024 35.7278 36.66 37.6634 33.53 38.5413C32.672 38.8524 31.166 38.8524 31.166 38.8524L32.2596 37.7757C33.8706 35.6776 35.4669 33.3186 35.651 29.6011C35.6543 29.5922 35.6543 29.5825 35.651 29.5735C35.6399 29.562 35.6249 29.5544 35.6085 29.5518C35.5921 29.5493 35.5753 29.5521 35.5608 29.5597C35.5389 29.5732 35.5185 29.5888 35.5001 29.6063C35.211 29.9325 35.0217 30.4338 34.8088 30.9974C34.7938 31.0369 34.7788 31.0767 34.7636 31.1168C34.4046 32.0673 34.0327 33.0507 33.2373 33.5087L33.1121 33.5502C32.5856 33.6033 32.0564 33.6293 31.5268 33.6279C31.1292 33.6279 30.7223 33.6158 30.2822 33.5917C29.1499 33.5191 27.9974 33.3808 26.8816 33.246C25.3866 33.0663 23.8363 32.8813 22.3634 32.8813C21.1645 32.8622 19.9698 33.0197 18.8229 33.348C17.4327 33.7674 15.9965 34.6334 14.6081 35.4706L14.603 35.4737L14.5865 35.4836C13.5432 36.1125 12.5582 36.7062 11.6424 37.0792C11.1173 37.2863 10.6704 37.4901 10.2369 37.6879L10.1695 37.7187L10.1653 37.7206C8.59122 38.4352 7.34859 38.9993 5.03263 38.9993C4.84077 39.0059 4.6504 38.9654 4.48029 38.8818C4.12495 38.4325 4.74357 37.6081 5.80592 36.3033C5.83958 36.2617 5.87296 36.2207 5.90581 36.1803C6.06162 35.9886 6.20547 35.8117 6.3104 35.669C6.19331 35.5591 6.05276 35.4737 5.89798 35.4184C5.41727 35.1792 4.97219 34.8817 4.57419 34.5335C4.18985 34.1956 3.76106 33.9052 3.29827 33.6694L3 33.5433C3.30563 33.0334 4.02368 32.6394 4.02368 32.6394C4.45267 32.4078 5.02343 32.2937 5.77278 32.2937C6.64064 32.2937 7.66887 32.4581 8.62914 32.6116C8.68747 32.6209 8.74554 32.6302 8.80332 32.6394L8.82107 32.6422C9.82341 32.8019 10.7669 32.9522 11.5485 32.9522C12.2168 32.9522 12.6661 32.8381 12.9165 32.6066C13.7007 31.889 14.4024 31.096 15.0098 30.2406C15.7154 29.3143 16.5543 28.4843 17.5028 27.7744C17.8213 27.5324 18.2889 27.2093 18.7548 26.9103C19.9478 26.1377 20.7671 25.8733 21.8994 25.5277C22.3211 25.3963 22.7979 25.246 23.3595 25.0507C24.5804 24.6235 25.9077 24.2311 27.3099 23.8167L27.3916 23.7925C28.9584 23.3294 30.5768 22.8506 32.0626 22.3183C33.611 21.7618 35.5921 20.9824 37.17 19.8781C37.523 19.6318 37.8588 19.3646 38.1753 19.0779C39.6997 17.6832 40.8118 15.8824 41.887 14.1403C43.8644 10.9379 45.9173 7.62656 50.5202 7.18067C51.2972 7.10636 51.8937 7.06834 52.586 7.0476C53.2614 7.02106 53.9238 6.86459 54.5321 6.58789L54.6775 6.51876C55.0384 6.33211 55.7123 6.00029 56.2351 6.00029ZM12 39H48C49.6569 39 51 40.3431 51 42V54C51 55.6569 49.6569 57 48 57H12C10.3431 57 9 55.6569 9 54V42C9 40.3431 10.3431 39 12 39ZM33 45H45V51H33V45Z" fill="#222222"/>
</svg>
