<svg width="60" height="60" viewBox="0 0 60 60" fill="none" xmlns="http://www.w3.org/2000/svg">
<path fill-rule="evenodd" clip-rule="evenodd" d="M21 9H15V15H7C6.44772 15 6 15.4477 6 16V44C6 44.5523 6.44771 45 7 45H15V51H21V45H27V51H33V45H39V51H45V45H53C53.5523 45 54 44.5523 54 44V16C54 15.4477 53.5523 15 53 15H45V9H39V15H33V9H27V15H21V9ZM45 24L30 18L15 24L30 30L45 24ZM15 30L18.75 28.5L30 33L41.25 28.5L45 30L30 36L15 30ZM18.75 34.5L15 36L30 42L45 36L41.25 34.5L30 39L18.75 34.5Z" fill="#222222"/>
</svg>
