<svg width="60" height="60" viewBox="0 0 60 60" fill="none" xmlns="http://www.w3.org/2000/svg">
<path d="M45.7541 17.2478C44.8332 17.2983 43.9576 17.2695 43.1094 17.4069C40.3982 17.8463 39.0309 19.7191 39.2889 22.4928C39.4623 24.3567 40.028 26.1097 40.8518 27.7635C42.0085 30.0858 43.2557 32.363 44.4874 34.6467C44.7228 35.0834 45.0642 35.4625 45.3719 35.889C45.0358 36.0988 44.7104 36.2579 44.4368 36.4809C43.6503 37.1229 43.4104 38.0052 43.2974 38.9828C42.8323 43.005 42.7104 46.383 41.8197 51.0397C40.9289 55.6964 37.5647 55.8511 35.6777 55.8626C33.7908 55.8741 32.8056 55.0863 31.9929 53.3616C31.4307 52.1681 31.3199 50.8934 31.2853 49.6263C31.1931 46.2695 31.1332 42.9097 31.1625 39.5526C31.1767 37.9427 30.1623 35.8895 28.0009 35.8642C27.9556 35.8638 27.9109 35.8429 27.7854 35.8115C28.1565 34.8476 28.4491 33.8615 28.9004 32.9549C30.5653 29.6114 30.708 26.1115 30.0616 22.5247C29.9002 21.6304 29.7282 20.714 29.3797 19.8836C28.7555 18.3965 27.5109 17.6849 25.9272 17.5599C24.1955 17.4233 22.5896 17.8995 21.0338 18.6009C20.9345 18.6457 20.8352 18.6905 20.5869 18.8022C20.8711 17.4748 21.0857 16.2431 21.4045 15.0389C21.8425 13.3838 22.5377 11.8316 23.5699 10.4523C25.2999 8.14106 27.6626 6.98166 30.5045 6.86771C35.3984 6.6713 39.4264 8.51614 42.6558 12.1828C43.876 13.5678 44.8279 15.1085 45.5732 16.7867C45.6423 16.9418 45.6978 17.1032 45.7536 17.2473L45.7541 17.2478Z" fill="#222222"/>
<path d="M22.9203 7.97711C20.0748 10.9853 18.989 14.6817 18.6409 18.6245C18.4738 20.5155 18.6401 22.4343 18.5997 24.339C18.5727 25.6133 18.4836 26.8893 18.3607 28.1586C18.1009 30.8494 18.6884 33.2587 20.5949 35.2587C20.7669 35.4391 20.9651 35.5939 21.1686 35.7761C20.3723 36.6717 19.607 37.5238 18.8515 38.3839C18.1648 39.1656 17.513 39.9796 16.8023 40.7382C15.7289 41.8843 14.7646 41.9012 13.6172 40.8318C12.4755 39.7677 11.7528 38.4168 11.1082 37.0281C9.37684 33.2981 8.23784 29.3699 7.33204 25.3739C6.86961 23.333 6.43024 21.2781 6.15801 19.2062C5.83968 16.7832 5.97446 14.3585 6.81863 12.0228C7.81398 9.26908 9.79449 7.64326 12.6205 7.01678C15.8961 6.29055 19.7857 6.92501 22.9203 7.97711Z" fill="#222222"/>
<path d="M47.3179 33.8381C47.3556 33.6657 47.3689 33.483 47.4345 33.3216C48.1444 31.5734 48.1883 29.7454 47.9657 27.9214C47.6833 25.6084 47.5316 23.31 48.0193 21.0107C48.578 18.3758 47.7941 16.0433 46.4485 13.8211C44.9442 11.3365 43.0749 9.19549 40.6444 7.5812C39.9683 7.13207 39.2385 6.76496 38.4551 6.31539C39.0842 6.23603 39.6424 6.14824 40.2041 6.0977C43.2337 5.82547 46.1838 6.07775 48.9562 7.46193C50.5452 8.25511 51.8704 9.3715 53.0347 10.7069C53.7729 11.5529 53.9436 12.5575 53.9857 13.6061C54.0713 15.7338 53.7254 17.8158 53.2338 19.8753C52.0615 24.782 50.093 29.3628 47.5347 33.6994C47.4988 33.7601 47.4501 33.8138 47.4075 33.8705C47.3773 33.8599 47.3476 33.8492 47.3175 33.8381H47.3179Z" fill="#222222"/>
<path d="M28.3834 26.9156C28.4424 28.3552 27.7822 30.1837 27.0218 31.9953C26.5904 33.0239 26.2065 34.0737 25.8434 35.129C25.7241 35.4757 25.5818 35.5515 25.2355 35.4863C22.3182 34.9343 20.1191 32.1243 20.3678 29.1355C20.5496 26.9506 20.7358 24.7702 20.6245 22.576C20.6205 22.4975 20.6236 22.4181 20.6183 22.3397C20.5666 21.5907 20.8774 21.0465 21.5507 20.7072C22.6543 20.1485 23.803 19.742 25.0422 19.6165C26.3759 19.4813 27.3703 20.1171 27.7108 21.3979C28.1413 23.0176 28.3497 24.6718 28.3834 26.9165V26.9156ZM25.279 20.3161C24.8294 20.2988 24.4809 20.4048 24.2149 20.5822C23.9489 20.7595 23.9507 21.0787 24.0819 21.4245C24.4752 22.4629 25.846 22.7533 26.6091 21.9566C27.0001 21.5482 26.9305 20.9878 26.4761 20.7152C26.0934 20.4855 25.7285 20.3334 25.279 20.3161Z" fill="#222222"/>
<path d="M45.5389 32.2434C44.2518 29.7264 42.7598 27.3606 41.8904 24.6965C41.5636 23.6953 41.2622 22.6853 41.3477 21.6044C41.4351 20.5036 42.0314 19.8474 43.0658 19.553C44.0523 19.2723 45.0507 19.3322 46.1268 19.4186C46.0039 20.3896 45.9122 21.3109 45.7672 22.2234C45.4967 23.9259 45.6457 25.6155 45.8417 27.3101C46.0119 28.7816 46.1857 30.2576 45.7667 31.7211C45.7322 31.8422 45.6994 31.9641 45.6577 32.0825C45.643 32.1237 45.6045 32.1565 45.5389 32.2434ZM43.7228 22.0008C44.2996 21.9804 44.7146 21.7077 45.0086 21.2471C45.2338 20.8942 45.1221 20.4849 44.7222 20.3581C44.0221 20.1369 43.3571 20.3231 42.9691 20.5377C42.5812 20.7523 42.379 21.2475 42.6144 21.5131C42.8498 21.7787 43.146 22.0212 43.7228 22.0008Z" fill="#222222"/>
<path d="M21.1602 41.5579C21.761 41.4053 22.356 41.2178 22.9643 41.1065C24.5431 40.8174 25.8138 40.0695 26.7253 38.7283C26.9186 38.4437 27.1709 38.198 27.4041 37.9418C27.6999 37.6163 28.0408 37.5999 28.4332 37.7737C29.198 38.1129 29.605 39.3614 28.9945 40.0992C27.2973 42.1497 25.1452 42.7009 22.6335 42.1857C22.1276 42.0819 21.6386 41.8957 21.1416 41.7476C21.1478 41.6842 21.154 41.6208 21.1602 41.5574V41.5579Z" fill="#222222"/>
<path d="M53.7516 37.9367C52.8037 38.7064 51.8371 39.3284 50.7238 39.6396C49.1694 40.0741 47.5813 40.2821 45.9594 40.0569C45.1335 39.942 45.0031 39.8024 45.1104 38.9821C45.2554 37.8737 45.7551 37.7004 46.5952 37.4751C46.6843 37.4512 46.8134 37.4849 46.8954 37.5372C47.971 38.2209 49.1761 38.3326 50.3949 38.2696C51.4913 38.2129 52.5824 38.0568 53.752 37.9367H53.7516Z" fill="#222222"/>
</svg>
