<svg width="60" height="60" viewBox="0 0 60 60" fill="none" xmlns="http://www.w3.org/2000/svg">
<path d="M59.7311 9.20458C59.5694 9.06715 59.3624 8.99439 59.1502 9.00034C58.5692 9.00034 57.8204 9.39249 57.4195 9.61308L57.2579 9.69478C56.5819 10.0218 55.846 10.2067 55.0955 10.2381C54.3263 10.2626 53.6635 10.3075 52.8002 10.3953C47.6859 10.9223 45.4049 14.8357 43.2078 18.6204C42.0131 20.6792 40.7775 22.8074 39.0836 24.4557C38.732 24.7945 38.3589 25.1104 37.9666 25.4013C36.2135 26.7065 34.0123 27.6276 32.2918 28.2853C30.6409 28.9144 28.8427 29.4801 27.1018 30.0275C25.5102 30.5279 24.0046 30.9997 22.6217 31.5144C21.9977 31.7452 21.4679 31.9229 20.9994 32.0782C19.7413 32.4867 18.8309 32.7992 17.5053 33.7121C16.9877 34.0655 16.4681 34.4474 16.1142 34.7334C15.0604 35.5724 14.1282 36.5533 13.3443 37.648C12.6693 38.6589 11.8897 39.5961 11.0183 40.4441C10.7401 40.7178 10.2409 40.8526 9.49831 40.8526C8.62478 40.8526 7.56919 40.6729 6.44813 40.4829C5.32707 40.293 4.10373 40.0744 3.08087 40.0744C2.24825 40.0744 1.61408 40.2092 1.13742 40.4829C1.13742 40.4829 0.339591 40.9486 0 41.5511L0.331408 41.7002C0.845626 41.9789 1.32205 42.3221 1.7491 42.7215C2.19132 43.133 2.68586 43.4846 3.21997 43.7672C3.39195 43.8325 3.54812 43.9334 3.67822 44.0634C3.53706 44.2676 3.33249 44.5311 3.11769 44.8129C1.9373 46.355 1.24994 47.3293 1.64476 47.8603C1.83377 47.9591 2.0453 48.0069 2.25848 47.9992C4.83405 47.9992 6.21492 47.3313 7.96606 46.4857C8.47136 46.2406 8.98892 45.9874 9.60264 45.73C10.6255 45.2868 11.7261 44.5801 12.8922 43.8326C14.4367 42.842 16.0344 41.8166 17.581 41.3203C18.8554 40.9323 20.1828 40.7463 21.5149 40.7689C23.1515 40.7689 24.874 40.9874 26.5351 41.1998C27.7748 41.3591 29.0555 41.5225 30.3136 41.6083C30.8025 41.6369 31.2546 41.6512 31.6965 41.6512C32.2849 41.6528 32.8729 41.6221 33.4579 41.5593L33.597 41.5103C34.4807 40.969 34.894 39.8069 35.2929 38.6835C35.5506 37.9605 35.7675 37.311 36.1112 36.8984C36.1317 36.8777 36.1543 36.8592 36.1787 36.8432C36.1948 36.8343 36.2135 36.831 36.2317 36.834C36.2498 36.837 36.2665 36.846 36.2789 36.8596C36.2825 36.8702 36.2825 36.8817 36.2789 36.8923C36.0744 41.2856 34.3007 44.0736 32.5107 46.5531L31.2955 47.8256C31.2955 47.8256 32.9689 47.8256 33.9222 47.4579C37.4 46.4204 40.0267 44.1328 41.9374 40.485C42.4084 39.5487 42.829 38.5881 43.1976 37.6071C43.2303 37.5254 43.5331 37.3743 43.5024 37.7971C43.5024 37.9217 43.486 38.0605 43.4758 38.2056C43.4758 38.2913 43.4635 38.3792 43.4594 38.467C43.4083 39.0797 43.2549 40.3747 43.2549 40.3747L44.3289 39.8007C46.9188 38.1668 48.9154 34.8702 50.4292 29.7416C51.0613 27.6052 51.5216 25.483 51.9287 23.6142C52.4156 21.3675 52.835 19.4414 53.3157 18.6939C54.0706 17.5215 55.2224 16.729 56.3373 15.959C56.4907 15.8549 56.6421 15.7548 56.7914 15.6445C58.1948 14.6621 59.5879 13.5285 59.8928 11.4145V11.3676C60.126 9.79077 59.9357 9.39862 59.7311 9.20458Z" fill="#222222"/>
</svg>
