<svg width="60" height="60" viewBox="0 0 60 60" fill="none" xmlns="http://www.w3.org/2000/svg">
<path fill-rule="evenodd" clip-rule="evenodd" d="M9 42C9 40.3431 10.3431 39 12 39H48C49.6569 39 51 40.3431 51 42V54C51 55.6569 49.6569 57 48 57H12C10.3431 57 9 55.6569 9 54V42ZM33 51V45H45V51H33Z" fill="#222222"/>
<path fill-rule="evenodd" clip-rule="evenodd" d="M28.6503 6.09682C32.0494 7.73667 35.9996 7.90711 36.2063 7.90711L36.3354 7.89708C41.1934 7.13384 44.7217 7.9652 46.8211 10.3696C55.6667 18.0205 47.7271 28.3984 47.6847 28.5277L47.6477 28.7124L46.5 39H39V36.7996C39.0009 36.0021 39.4549 35.3408 40.231 35.2157L40.496 35.1944H41.313C41.6998 35.1944 42.0238 34.9304 42.1085 34.5759L42.1301 34.3919V31.9841C42.13 31.741 42.018 31.5144 41.8314 31.364L41.6781 31.2664C40.6682 30.7703 39.3616 28.7617 38.7751 27.6124C38.5978 27.263 38.1901 27.0902 37.8095 27.2027L36.8369 27.4912C35.3852 27.915 34.6382 28.0444 32.4683 27.7336C31.2213 27.4129 30.4821 26.937 30.1897 26.7186L30.044 26.6012C29.8908 26.4507 29.683 26.3662 29.4662 26.3662C29.0795 26.3662 28.7554 26.6302 28.6707 26.9847L28.6492 27.1687L25.6615 39H19.0476V37.3949C19.0485 36.5974 19.6408 35.3408 20.4168 35.2157L20.6817 35.1944C21.0685 35.1944 21.3925 34.9304 21.4772 34.5759L21.4988 34.3919L21.498 30.1411L21.1797 30.0178L20.8421 29.1538C26.9483 24.7097 30.0688 20.3023 30.0688 15.8502C30.0688 10.5513 26.6323 8.12426 20.5683 8.81582L19.9316 8.8985L18.5284 9.10232L18.9434 11.859L20.3466 11.6552L20.8979 11.5823C25.3859 11.0491 27.2318 12.3909 27.2318 15.8502C27.2318 19.1183 24.7842 22.6773 19.7721 26.4567L19.5851 25.9909C19.1127 26.1197 18.6318 26.2169 18.146 26.282L17.4137 26.3552V19.9456C17.4137 19.4847 17.0182 19.1146 16.5422 19.1448C16.17 19.1684 15.8756 19.4461 15.7991 19.7941L15.7796 19.9731V21.8474C15.7796 22.1429 15.6002 22.4032 15.3348 22.5182L15.166 22.5689L11.8183 23.1639C9.11738 28.7124 12.8861 34.3919 12.8861 34.3919L10.1218 36.0234C2.98278 27.1687 6.05146 12.9474 12.2418 8.93239C14.7752 7.28926 17.2507 6.75372 19.1982 6.75372C20.1724 6.74439 21.1441 6.85183 22.0918 7.07364C22.2883 7.12892 22.4989 7.10976 22.6816 7.01977C25.3818 5.69363 28.3253 6.00773 28.6503 6.09682ZM15.8836 13.4425C14.5299 13.4425 13.4324 14.5206 13.4324 15.8502C13.4324 17.1799 14.5299 18.258 15.8836 18.258C17.2373 18.258 18.3348 17.1799 18.3348 15.8502C18.3348 14.5206 17.2373 13.4425 15.8836 13.4425Z" fill="#222222"/>
</svg>
