<svg width="60" height="60" viewBox="0 0 60 60" fill="none" xmlns="http://www.w3.org/2000/svg">
<path fill-rule="evenodd" clip-rule="evenodd" d="M18.2727 5.89087L30.8182 2.54541C29.9818 3.66056 29.9818 5.0545 30.8182 6.72723L18.2727 5.89087ZM17.256 8.02698C41.5413 8.95941 49.6364 16.4189 49.6364 16.4189C33.4462 17.3513 14.9431 25.7432 14.9431 25.7432C23.0382 20.1486 24.1946 17.3513 24.1946 14.554C24.1946 11.7567 17.256 8.02698 17.256 8.02698ZM34.6026 22.0135C23.0382 25.1216 15.714 27.2973 12.6302 28.5405C9.16086 34.1351 20.7253 36 29.9768 36C33.0607 30.4054 34.6026 25.7432 34.6026 22.0135ZM12 39C10.3431 39 9 40.3431 9 42V54C9 55.6568 10.3431 57 12 57H48C49.6569 57 51 55.6568 51 54V42C51 40.3431 49.6569 39 48 39H12ZM33 51V45H45V51H33Z" fill="#222222"/>
</svg>
