<svg width="60" height="60" viewBox="0 0 60 60" fill="none" xmlns="http://www.w3.org/2000/svg">
<path fill-rule="evenodd" clip-rule="evenodd" d="M19.1909 15.9716C19.5167 15.6398 19.6796 15.3493 19.6796 15.1001C19.6796 14.8509 18.07 13.5582 14.851 11.222C18.4634 8.54528 22.9313 8.8856 28.2545 12.243C41.3289 12.243 47.9128 16.2972 48.0063 24.4056C50.8301 27.0448 51.6562 29.3597 50.4847 31.3504L39.2696 29.8298C37.1982 33.4702 34.5872 35.6375 31.4367 36.3318C31.7028 33.8302 31.7028 32.0945 31.4367 31.1247C25.8398 31.1247 22.101 34.4351 20.2202 41.056C23.8372 41.8634 26.756 44.176 28.9767 47.9938C26.0604 48.0705 23.1416 47.747 20.2202 47.0233C18.4886 48.8557 15.7485 50.1813 12 51.0002C12 47.9195 13.001 45.0085 15.0029 42.2671C10.0185 30.3595 11.4145 21.5943 19.1909 15.9716Z" fill="#222222"/>
</svg>
