<svg width="48" height="48" viewBox="0 0 48 48" fill="none" xmlns="http://www.w3.org/2000/svg">
<path fill-rule="evenodd" clip-rule="evenodd" d="M2 2H10V4H38V2H46V10H44.0001V38H46V46H38V44H10V46H2V38H4.00015V10H2V2ZM8.00015 10V38H10V40H38V38H40.0001V10H38V8H10V10H8.00015Z" fill="#222222"/>
<path d="M36 24C36 26.3734 35.2962 28.6935 33.9776 30.6668C32.6591 32.6402 30.7849 34.1783 28.5922 35.0866C26.3995 35.9948 23.9867 36.2324 21.6589 35.7694C19.3311 35.3064 17.1929 34.1635 15.5147 32.4853C13.8365 30.8071 12.6936 28.6689 12.2306 26.3411C11.7676 24.0133 12.0052 21.6005 12.9134 19.4078C13.8217 17.2151 15.3598 15.3409 17.3332 14.0224C19.3065 12.7038 21.6266 12 24 12V24H36Z" fill="#222222"/>
<path d="M27 11C28.3132 11 29.6136 11.2587 30.8268 11.7612C32.0401 12.2638 33.1425 13.0003 34.0711 13.9289C34.9997 14.8575 35.7362 15.9599 36.2388 17.1732C36.7413 18.3864 37 19.6868 37 21L27 21L27 11Z" fill="#222222"/>
</svg>
