<svg width="60" height="60" viewBox="0 0 60 60" fill="none" xmlns="http://www.w3.org/2000/svg">
<path fill-rule="evenodd" clip-rule="evenodd" d="M33.9551 22.0392C33.7866 21.7043 33.6384 21.3573 33.5121 21H26.4879C25.2524 24.4956 21.9187 27 18 27C13.0294 27 9 22.9706 9 18C9 13.0294 13.0294 9 18 9C21.9187 9 25.2524 11.5044 26.4879 15H33.5121C34.7476 11.5044 38.0813 9 42 9C46.9706 9 51 13.0294 51 18C51 22.9706 46.9706 27 42 27C40.5475 27 39.1754 26.6559 37.9608 26.0449L26.0449 37.9608C26.6559 39.1754 27 40.5475 27 42C27 46.9706 22.9706 51 18 51C13.0294 51 9 46.9706 9 42C9 37.0294 13.0294 33 18 33C19.4525 33 20.8246 33.3441 22.0392 33.9551L33.9551 22.0392ZM19.3022 39.2966C18.9084 39.1065 18.4666 39 18 39C16.3431 39 15 40.3431 15 42C15 43.6569 16.3431 45 18 45C19.6569 45 21 43.6569 21 42C21 41.5334 20.8935 41.0916 20.7034 40.6978L19.3022 39.2966ZM18 21C19.6569 21 21 19.6569 21 18C21 16.3431 19.6569 15 18 15C16.3431 15 15 16.3431 15 18C15 19.6569 16.3431 21 18 21ZM42 21C40.3431 21 39 19.6569 39 18C39 16.3431 40.3431 15 42 15C43.6569 15 45 16.3431 45 18C45 19.6569 43.6569 21 42 21ZM42 51C37.0294 51 33 46.9706 33 42C33 37.0294 37.0294 33 42 33C46.9706 33 51 37.0294 51 42C51 46.9706 46.9706 51 42 51ZM42 45C43.6569 45 45 43.6569 45 42C45 40.3431 43.6569 39 42 39C40.3431 39 39 40.3431 39 42C39 43.6569 40.3431 45 42 45Z" fill="#125DE6"/>
</svg>
