<svg width="48" height="48" viewBox="0 0 48 48" fill="none" xmlns="http://www.w3.org/2000/svg">
<path fill-rule="evenodd" clip-rule="evenodd" d="M24 27C29.769 27 35.0806 26.2297 39.0186 24.9279C42.7912 23.6807 46 21.6853 46 19V31C46 35.4183 36.1503 39 24 39C11.8497 39 2 35.4183 2 31V19C2 21.6853 5.20882 23.6807 8.98137 24.9279C12.9194 26.2297 18.231 27 24 27Z" fill="#222222"/>
<path d="M46 17C46 21.4183 36.1503 25 24 25C11.8497 25 2 21.4183 2 17C2 12.5817 11.8497 9 24 9C36.1503 9 46 12.5817 46 17Z" fill="#222222"/>
</svg>
