<svg width="48" height="48" viewBox="0 0 48 48" fill="none" xmlns="http://www.w3.org/2000/svg">
<path fill-rule="evenodd" clip-rule="evenodd" d="M23.1306 7.36C23.6941 7.07792 24.3576 7.07792 24.9211 7.36L41.7462 15.7823C42.4827 16.151 42.4827 17.202 41.7462 17.5707L24.9211 25.993C24.3576 26.2751 23.6941 26.2751 23.1306 25.993L6.30555 17.5707C5.56905 17.202 5.56905 16.151 6.30555 15.7823L23.1306 7.36ZM23.1306 30.8753L14.2725 26.4412L6.30555 30.4293C5.56905 30.7979 5.56905 31.849 6.30555 32.2177L23.1306 40.64C23.6941 40.9221 24.3576 40.9221 24.9211 40.64L41.7462 32.2177C42.4827 31.849 42.4827 30.7979 41.7462 30.4293L33.7792 26.4412L24.9211 30.8753C24.3576 31.1574 23.6941 31.1574 23.1306 30.8753Z" fill="#222222"/>
</svg>
