<svg width="48" height="48" viewBox="0 0 48 48" fill="none" xmlns="http://www.w3.org/2000/svg">
<rect x="2" y="2" width="44" height="42" rx="3" fill="#222222"/>
<rect x="8" y="44" width="8" height="3" fill="#222222"/>
<rect x="32" y="44" width="8" height="3" fill="#222222"/>
<path fill-rule="evenodd" clip-rule="evenodd" d="M13 23L9 29L5 23L8 23C8 14.1634 15.1634 7 24 7C32.8366 7 40 14.1634 40 23C40 31.8366 32.8366 39 24 39C19.5817 39 15.5817 37.2091 12.6863 34.3137L14.1005 32.8995C16.634 35.433 20.134 37 24 37C31.732 37 38 30.732 38 23C38 15.268 31.732 9 24 9C16.268 9 10 15.268 10 23L13 23Z" fill="white"/>
<path fill-rule="evenodd" clip-rule="evenodd" d="M16.9294 17.3431L18.3436 15.9289L20.5232 18.1085C22.598 16.6302 25.4023 16.6304 27.4768 18.1091L29.6571 15.9289L31.0713 17.3431L28.891 19.5234C30.3692 21.5979 30.3692 24.4019 28.891 26.4764L31.0714 28.6568L29.6572 30.071L27.4769 27.8907C25.4024 29.3695 22.5979 29.3697 20.5231 27.8913L18.3434 30.071L16.9292 28.6568L19.1088 26.4772C17.6299 24.4023 17.6299 21.5974 19.1089 19.5226L16.9294 17.3431ZM26.8281 25.8284C28.3901 24.2663 28.3901 21.7336 26.8281 20.1715C25.266 18.6094 22.7333 18.6094 21.1712 20.1715C19.6091 21.7336 19.6091 24.2663 21.1712 25.8284C22.7333 27.3905 25.266 27.3905 26.8281 25.8284Z" fill="white"/>
</svg>
