<svg width="48" height="48" viewBox="0 0 48 48" fill="none" xmlns="http://www.w3.org/2000/svg">
<path fill-rule="evenodd" clip-rule="evenodd" d="M2 1H38V4.27273H2V1ZM2 5.90909H38V9H8V37H4C2.89543 37 2 36.1046 2 35V5.90909Z" fill="#222222"/>
<path fill-rule="evenodd" clip-rule="evenodd" d="M46 11H10V14.2727H46V11ZM46 15.9091H10V45C10 46.1046 10.8954 47 12 47H44C45.1046 47 46 46.1046 46 45V15.9091Z" fill="#222222"/>
<path fill-rule="evenodd" clip-rule="evenodd" d="M27.9696 28.0001C27.9898 27.7907 28.0001 27.5785 28.0001 27.3638C28.0001 23.7489 25.0696 20.8184 21.4546 20.8184C17.8397 20.8184 14.9092 23.7489 14.9092 27.3638C14.9092 30.4789 17.0852 33.0857 20.0001 33.7471V29.2309C20.0001 28.5512 20.5512 28.0001 21.2309 28.0001H27.9696ZM28.0001 35.0001L34.5001 24.0001L41.0001 35.0001H28.0001ZM22.0002 30.0002H29.0784L26.192 34.9255C25.9454 35.3464 25.9359 35.8734 26.1673 36.3036C26.3987 36.7338 26.8348 37.0002 27.3079 37.0002H34.0002V42.0002H22.0002V30.0002Z" fill="white"/>
</svg>
