<svg width="48" height="48" viewBox="0 0 48 48" fill="none" xmlns="http://www.w3.org/2000/svg">
<path d="M43.5 18L39 24H48L43.5 18Z" fill="#6B9DF8"/>
<path d="M4.5 30L0 24H9L4.5 30Z" fill="#6B9DF8"/>
<path fill-rule="evenodd" clip-rule="evenodd" d="M19.5 12L24 14.625L28.5 12L33 14.625V19.625L36 21.375V26.625L33 28.375V33.375L28.5 36L24 33.375L19.5 36L15 33.375V28.375L12 26.625V21.375L15 19.625V14.625L19.5 12Z" fill="#6B9DF8"/>
<path fill-rule="evenodd" clip-rule="evenodd" d="M41.5904 12.5249C37.8414 6.78963 31.3633 3 24 3C19.3702 3 15.0904 4.49822 11.6189 7.03628C11.7422 7.01247 11.8697 7 12 7C13.1046 7 14 7.89543 14 9C14 9.01044 13.9999 9.02086 13.9998 9.03126C16.86 7.1166 20.2996 6 24 6C30.1069 6 35.5036 9.04124 38.7579 13.6918L41.5904 12.5249ZM11.5934 10.9586C10.6838 10.7708 10 9.96524 10 9C10 8.71548 10.0594 8.44484 10.1665 8.1998C5.77373 12.0489 3 17.7005 3 24C3 25.4546 3.1479 26.8747 3.42948 28.2461L6.26231 27.079C6.08986 26.0785 6 25.0498 6 24C6 18.868 8.14772 14.2376 11.5934 10.9586ZM8.87286 33.7595C12.0786 38.7181 17.656 42 24 42C27.7004 42 31.14 40.8834 34.0002 38.9687L34 39C34 40.1046 34.8954 41 36 41C36.1303 41 36.2578 40.9875 36.3811 40.9637C32.9096 43.5018 28.6298 45 24 45C16.4013 45 9.74516 40.9641 6.05832 34.919L8.87286 33.7595ZM38 39C38 38.0348 37.3162 37.2292 36.4066 37.0414C39.8523 33.7624 42 29.132 42 24C42 22.7216 41.8667 21.4744 41.6133 20.2714L44.4281 19.1118C44.802 20.6803 45 22.317 45 24C45 30.2995 42.2263 35.9511 37.8335 39.8002C37.9406 39.5552 38 39.2845 38 39Z" fill="#6B9DF8"/>
<mask id="path-5-inside-1_4935_63667" fill="white">
<path fill-rule="evenodd" clip-rule="evenodd" d="M36 44C38.7614 44 41 41.7614 41 39C41 36.2386 38.7614 34 36 34C33.2386 34 31 36.2386 31 39C31 41.7614 33.2386 44 36 44ZM36 41C37.1046 41 38 40.1046 38 39C38 37.8954 37.1046 37 36 37C34.8954 37 34 37.8954 34 39C34 40.1046 34.8954 41 36 41Z"/>
</mask>
<path fill-rule="evenodd" clip-rule="evenodd" d="M36 44C38.7614 44 41 41.7614 41 39C41 36.2386 38.7614 34 36 34C33.2386 34 31 36.2386 31 39C31 41.7614 33.2386 44 36 44ZM36 41C37.1046 41 38 40.1046 38 39C38 37.8954 37.1046 37 36 37C34.8954 37 34 37.8954 34 39C34 40.1046 34.8954 41 36 41Z" fill="white"/>
<path d="M38 39C38 40.1046 37.1046 41 36 41V47C40.4183 47 44 43.4183 44 39H38ZM36 37C37.1046 37 38 37.8954 38 39H44C44 34.5817 40.4183 31 36 31V37ZM34 39C34 37.8954 34.8954 37 36 37V31C31.5817 31 28 34.5817 28 39H34ZM36 41C34.8954 41 34 40.1046 34 39H28C28 43.4183 31.5817 47 36 47V41ZM35 39C35 38.4477 35.4477 38 36 38V44C38.7614 44 41 41.7614 41 39H35ZM36 40C35.4477 40 35 39.5523 35 39H41C41 36.2386 38.7614 34 36 34V40ZM37 39C37 39.5523 36.5523 40 36 40V34C33.2386 34 31 36.2386 31 39H37ZM36 38C36.5523 38 37 38.4477 37 39H31C31 41.7614 33.2386 44 36 44V38Z" fill="#6B9DF8" mask="url(#path-5-inside-1_4935_63667)"/>
<mask id="path-7-inside-2_4935_63667" fill="white">
<path fill-rule="evenodd" clip-rule="evenodd" d="M12 14C14.7614 14 17 11.7614 17 9C17 6.23858 14.7614 4 12 4C9.23858 4 7 6.23858 7 9C7 11.7614 9.23858 14 12 14ZM12 11C13.1046 11 14 10.1046 14 9C14 7.89543 13.1046 7 12 7C10.8954 7 10 7.89543 10 9C10 10.1046 10.8954 11 12 11Z"/>
</mask>
<path fill-rule="evenodd" clip-rule="evenodd" d="M12 14C14.7614 14 17 11.7614 17 9C17 6.23858 14.7614 4 12 4C9.23858 4 7 6.23858 7 9C7 11.7614 9.23858 14 12 14ZM12 11C13.1046 11 14 10.1046 14 9C14 7.89543 13.1046 7 12 7C10.8954 7 10 7.89543 10 9C10 10.1046 10.8954 11 12 11Z" fill="white"/>
<path d="M14 9C14 10.1046 13.1046 11 12 11V17C16.4183 17 20 13.4183 20 9H14ZM12 7C13.1046 7 14 7.89543 14 9H20C20 4.58172 16.4183 1 12 1V7ZM10 9C10 7.89543 10.8954 7 12 7V1C7.58172 1 4 4.58172 4 9H10ZM12 11C10.8954 11 10 10.1046 10 9H4C4 13.4183 7.58172 17 12 17V11ZM11 9C11 8.44772 11.4477 8 12 8V14C14.7614 14 17 11.7614 17 9H11ZM12 10C11.4477 10 11 9.55228 11 9H17C17 6.23858 14.7614 4 12 4V10ZM13 9C13 9.55228 12.5523 10 12 10V4C9.23858 4 7 6.23858 7 9H13ZM12 8C12.5523 8 13 8.44772 13 9H7C7 11.7614 9.23858 14 12 14V8Z" fill="#6B9DF8" mask="url(#path-7-inside-2_4935_63667)"/>
</svg>
