<svg width="48" height="48" viewBox="0 0 48 48" fill="none" xmlns="http://www.w3.org/2000/svg">
<path fill-rule="evenodd" clip-rule="evenodd" d="M4.09524 2C2.93807 2 2 2.93807 2 4.09524V43.9048C2 45.0619 2.93807 46 4.09524 46H43.9048C45.0619 46 46 45.0619 46 43.9048V4.09524C46 2.93807 45.0619 2 43.9048 2H4.09524ZM6 17C6 13.6863 8.68629 11 12 11C14.6124 11 16.8349 12.6696 17.6586 15H24H26H28V23H34V19L42 25L34 31V27H28V35H26H24H17.6586C16.8349 37.3304 14.6124 39 12 39C8.68629 39 6 36.3137 6 33C6 29.6863 8.68629 27 12 27C14.6124 27 16.8349 28.6696 17.6586 31H24V19H17.6586C16.8349 21.3304 14.6124 23 12 23C8.68629 23 6 20.3137 6 17ZM14 17C14 15.8954 13.1046 15 12 15C10.8954 15 10 15.8954 10 17C10 18.1046 10.8954 19 12 19C13.1046 19 14 18.1046 14 17ZM12 31C13.1046 31 14 31.8954 14 33C14 34.1046 13.1046 35 12 35C10.8954 35 10 34.1046 10 33C10 31.8954 10.8954 31 12 31ZM31.4121 5.92969H29.5957V13H31.0215V8.35156H31.0801L32.9258 12.9707H33.9023L35.748 8.37109H35.8066V13H37.2324V5.92969H35.416L33.4531 10.7246H33.375L31.4121 5.92969ZM38.4238 5.92969V13H42.9355V11.7891H39.8887V5.92969H38.4238Z" fill="#6B9DF8"/>
</svg>
