<svg width="48" height="48" viewBox="0 0 48 48" fill="none" xmlns="http://www.w3.org/2000/svg">
<path fill-rule="evenodd" clip-rule="evenodd" d="M5 4C5 2.89543 5.89543 2 7 2H41C42.1046 2 43 2.89543 43 4V44C43 45.1046 42.1046 46 41 46H7C5.89543 46 5 45.1046 5 44V38H1V34H5V30H1V26H5V22H1V18H5V14H1V10H5V4ZM24.6567 18H26.9567L22.9567 30H20.6567L24.6567 18ZM17.6569 18.3433L19.0711 19.7575L14.8284 24.0001L19.0711 28.2428L17.6569 29.657L12 24.0001L13.4142 22.5859L13.4142 22.5859L17.6569 18.3433ZM30.3442 18.3433L28.93 19.7575L33.1727 24.0001L28.93 28.2428L30.3442 29.657L36.0011 24.0001L34.5869 22.5859L30.3442 18.3433Z" fill="#6B9DF8"/>
</svg>
