<svg width="48" height="48" viewBox="0 0 48 48" fill="none" xmlns="http://www.w3.org/2000/svg">
<path fill-rule="evenodd" clip-rule="evenodd" d="M4 2C2.89543 2 2 2.89543 2 4V42C2 43.1046 2.89543 44 4 44H28.6738C25.8469 42.0093 24 38.7203 24 35C24 31.1342 25.9942 27.7341 29.01 25.7724L24.7051 17.8266L19.1191 30.8606L18.3002 32.7714L17.3185 30.9389L14.0493 24.8363L12.5927 26.7301L12.2924 27.1204H11.8H7V25.1204H11.3076L13.4073 22.3904L14.3507 21.1638L15.0815 22.5278L18.0998 28.1619L23.6809 15.1394L24.4949 13.2401L25.4793 15.057L30.7789 24.839C30.862 24.8044 30.9456 24.7709 31.0297 24.7383L33.2809 19.4857L33.5406 18.8796H34.2H39V20.8796H34.8594L33.4773 24.1045C33.975 24.0356 34.4833 24 35 24C38.7203 24 42.0093 25.8469 44 28.6738V4C44 2.89543 43.1046 2 42 2H4ZM42 44H41.3262C42.3638 43.2693 43.2693 42.3638 44 41.3262V42C44 43.1046 43.1046 44 42 44Z" fill="#6B9DF8"/>
<rect x="37.97" y="40.79" width="4" height="8.77561" transform="rotate(-45 37.97 40.79)" fill="#6B9DF8"/>
<path fill-rule="evenodd" clip-rule="evenodd" d="M35 44C39.9706 44 44 39.9706 44 35C44 30.0294 39.9706 26 35 26C30.0294 26 26 30.0294 26 35C26 39.9706 30.0294 44 35 44ZM35 40C37.7614 40 40 37.7614 40 35C40 32.2386 37.7614 30 35 30C32.2386 30 30 32.2386 30 35C30 37.7614 32.2386 40 35 40Z" fill="#6B9DF8"/>
</svg>
