<svg width="48" height="48" viewBox="0 0 48 48" fill="none" xmlns="http://www.w3.org/2000/svg">
<path fill-rule="evenodd" clip-rule="evenodd" d="M15 0L24 5.25L33 0L42 5.25V15.25L48 18.75V29.25L42 32.75V42.75L33 48L24 42.75L15 48L6 42.75V32.75L0 29.25V18.75L6 15.25V5.25L15 0ZM22.8058 19.27L22.7921 19.0969C22.7739 18.9831 22.7381 18.8732 22.6861 18.7711L22.5963 18.6243L22.4836 18.4922L19.0239 15.0313C19.0412 14.9067 19.0501 14.7794 19.0501 14.65C19.0501 13.1312 17.8189 11.9 16.3001 11.9C14.7813 11.9 13.5501 13.1312 13.5501 14.65C13.5501 16.1688 14.7813 17.4 16.3001 17.4C16.7506 17.4 17.1758 17.2917 17.551 17.0997L17.8227 16.9404L20.6058 19.7254L20.6077 22.9L14.9714 22.9003C14.5471 21.9289 13.5779 21.25 12.4501 21.25C10.9313 21.25 9.70012 22.4812 9.70012 24C9.70012 25.4239 10.7822 26.595 12.1689 26.7358L12.4501 26.75L12.7313 26.7358C13.6358 26.644 14.4108 26.1137 14.8403 25.3609L14.9704 25.102L20.6077 25.1L20.6058 28.2724L17.8206 31.0582C17.3851 30.7687 16.8623 30.6 16.3001 30.6C14.7813 30.6 13.5501 31.8312 13.5501 33.35C13.5501 34.8688 14.7813 36.1 16.3001 36.1C17.8189 36.1 19.0501 34.8688 19.0501 33.35L19.0435 33.1576L19.0239 32.9688L22.4836 29.5078L22.5963 29.3757C22.6639 29.2825 22.7163 29.1794 22.7518 29.0704L22.7921 28.9031L22.8058 28.73V19.27ZM35.8313 21.2642C37.218 21.4051 38.3001 22.5762 38.3001 24C38.3001 25.5188 37.0689 26.75 35.5501 26.75C34.4232 26.75 33.4546 26.0722 33.0298 25.102L27.8523 25.1L27.8501 28.2724L30.4694 30.8901L30.7557 30.7665C31.0502 30.6588 31.3683 30.6 31.7001 30.6C33.2189 30.6 34.4501 31.8312 34.4501 33.35C34.4501 34.8688 33.2189 36.1 31.7001 36.1C30.1813 36.1 28.9501 34.8688 28.9501 33.35C28.9501 33.0874 28.9869 32.8334 29.0557 32.5928L25.9723 29.5078L25.8596 29.3757C25.7581 29.2358 25.691 29.0738 25.6638 28.9031L25.6501 28.73V19.27L25.6638 19.0969C25.691 18.9262 25.7581 18.7642 25.8596 18.6243L25.9723 18.4922L29.0557 15.4072L28.9978 15.1624C28.9665 14.9964 28.9501 14.8251 28.9501 14.65C28.9501 13.1312 30.1813 11.9 31.7001 11.9C33.2189 11.9 34.4501 13.1312 34.4501 14.65C34.4501 16.1688 33.2189 17.4 31.7001 17.4C31.2568 17.4 30.8381 17.2951 30.4673 17.1089L27.8501 19.7254L27.8523 22.9L33.0288 22.9003L33.1588 22.641C33.5882 21.8872 34.3636 21.3562 35.2689 21.2642L35.5501 21.25L35.8313 21.2642Z" fill="#6B9DF8"/>
</svg>
