<svg width="32" height="32" viewBox="0 0 32 32" fill="none" xmlns="http://www.w3.org/2000/svg">
<rect width="32" height="32" fill="#222222"/>
<path fill-rule="evenodd" clip-rule="evenodd" d="M16 7C13.2386 7 11 9.23858 11 12V13H10C9.44772 13 9 13.4477 9 14V22C9 22.5523 9.44772 23 10 23H22C22.5523 23 23 22.5523 23 22V14C23 13.4477 22.5523 13 22 13H21V12C21 9.23858 18.7614 7 16 7ZM13 12C13 10.3431 14.3431 9 16 9C17.6569 9 19 10.3431 19 12V13H13V12ZM16 16C15.4477 16 15 16.4477 15 17V19C15 19.5523 15.4477 20 16 20C16.5523 20 17 19.5523 17 19V17C17 16.4477 16.5523 16 16 16Z" fill="white"/>
</svg>
