<svg width="32" height="32" viewBox="0 0 32 32" fill="none" xmlns="http://www.w3.org/2000/svg">
<rect width="32" height="32" fill="#222222"/>
<path fill-rule="evenodd" clip-rule="evenodd" d="M6 5C5.44772 5 5 5.44772 5 6V26C5 26.5523 5.44772 27 6 27H26C26.5523 27 27 26.5523 27 26V6C27 5.44772 26.5523 5 26 5H6ZM25 10H7V25H25V10ZM18.7273 22H12.8125C11.2592 22 10 20.7408 10 19.1875C10 17.6627 11.2134 16.4213 12.7273 16.3763C12.7273 16.3758 12.7273 16.3754 12.7273 16.375C12.7273 14.511 14.1925 13 16 13C17.4325 13 18.6501 13.9492 19.0936 15.2709C20.7286 15.4587 22 16.8887 22 18.625C22 20.3942 20.6799 21.8455 19 21.9884V22H18.7273Z" fill="white"/>
</svg>
