<svg width="32" height="32" viewBox="0 0 32 32" fill="none" xmlns="http://www.w3.org/2000/svg">
<rect width="32" height="32" fill="#222222"/>
<path fill-rule="evenodd" clip-rule="evenodd" d="M21 24H10C7.23858 24 5 21.7614 5 19C5 16.2386 7.23858 14 10 14C10 10.6863 12.6863 8 16 8C18.6263 8 20.8585 9.68739 21.6716 12.0372C24.6692 12.371 27 14.9133 27 18C27 21.1453 24.5798 23.7254 21.5 23.9795V24H21ZM14 16C14 14.8954 14.8954 14 16 14C17.1046 14 18 14.8954 18 16V17C18.5523 17 19 17.4477 19 18V20C19 20.5523 18.5523 21 18 21H14C13.4477 21 13 20.5523 13 20V18C13 17.4477 13.4477 17 14 17V16ZM16 15C15.4477 15 15 15.4477 15 16V17H17V16C17 15.4477 16.5523 15 16 15Z" fill="white"/>
</svg>
