<svg width="32" height="32" viewBox="0 0 32 32" fill="none" xmlns="http://www.w3.org/2000/svg">
<rect width="32" height="32" fill="#222222"/>
<path fill-rule="evenodd" clip-rule="evenodd" d="M7 16.0918C7 13.1559 7.94325 10.7445 9.83004 8.85719C11.7422 6.94364 14.0367 6 16.7393 6C20.1303 6 23.1897 7.599 24.847 10.0105L22.3229 12.5531C20.8441 10.6919 19.0595 9.74845 16.9433 9.74845C15.2351 9.74845 13.8073 10.3513 12.6599 11.5571C11.5126 12.7366 10.9263 14.2569 10.9263 16.0918C10.9263 17.8742 11.4871 19.3421 12.6345 20.5215C13.7819 21.7012 15.2096 22.2778 16.9179 22.2778C19.1105 22.2778 20.9462 21.3342 22.3994 19.4469L25 21.8846C23.2663 24.3224 20.1813 26 16.6882 26C13.9602 26 11.6401 25.0826 9.77896 23.2477C7.91785 21.3867 7 19.0013 7 16.0918Z" fill="white"/>
</svg>
