<svg width="32" height="32" viewBox="0 0 32 32" fill="none" xmlns="http://www.w3.org/2000/svg">
<rect width="32" height="32" fill="#222222"/>
<path fill-rule="evenodd" clip-rule="evenodd" d="M7 5.5C6.17157 5.5 5.5 6.17157 5.5 7V13C5.5 13.8284 6.17157 14.5 7 14.5H25C25.8284 14.5 26.5 13.8284 26.5 13V7C26.5 6.17157 25.8284 5.5 25 5.5H7ZM17.5 8.5V11.5H23.5V8.5H17.5Z" fill="white"/>
<path fill-rule="evenodd" clip-rule="evenodd" d="M7 17.5C6.17157 17.5 5.5 18.1716 5.5 19V25C5.5 25.8284 6.17157 26.5 7 26.5H25C25.8284 26.5 26.5 25.8284 26.5 25V19C26.5 18.1716 25.8284 17.5 25 17.5H7ZM17.5 20.5V23.5H23.5V20.5H17.5Z" fill="white"/>
</svg>
