<svg width="60" height="60" viewBox="0 0 60 60" fill="none" xmlns="http://www.w3.org/2000/svg">
<path fill-rule="evenodd" clip-rule="evenodd" d="M8 11H11H13H14V17H50.6667C51.403 17 52 17.597 52 18.3333V42.6667C52 43.403 51.403 44 50.6667 44H29V41H22V44H14V49H11V14H8V11ZM33 21V24H36V21H33ZM34.375 25C33.6156 25 33 25.6156 33 26.375V34.625C33 35.3844 33.6156 36 34.375 36H42.625C43.3844 36 44 35.3844 44 34.625V26.375C44 25.6156 43.3844 25 42.625 25H34.375ZM33 40V37H36V40H33ZM41 21V24H44V21H41ZM41 40V37H44V40H41ZM29 25.0714V28.0714H32V25.0714H29ZM45 28V25H48V28H45ZM29 33V36H32V33H29ZM45 36V33H48V36H45ZM45 29V32H48V29H45ZM29 32V29H32V32H29ZM37 37V40H40V37H37ZM37 24V21H40V24H37ZM16.6667 25H14V36H16.6667C17.403 36 18 35.403 18 34.6667V26.3333C18 25.597 17.403 25 16.6667 25Z" fill="#222222"/>
</svg>
