<svg width="60" height="60" viewBox="0 0 60 60" fill="none" xmlns="http://www.w3.org/2000/svg">
<path fill-rule="evenodd" clip-rule="evenodd" d="M11.4762 20.1224C11.2043 19.8893 10.8581 19.7613 10.5 19.7613C9.67157 19.7613 9 20.4328 9 21.2613L9 44.9999C9 46.6568 10.3431 47.9999 12 47.9999H48C49.6569 47.9999 51 46.6568 51 44.9999V21.2613C51 20.9032 50.8719 20.5569 50.6389 20.2851C50.0998 19.6561 49.1528 19.5832 48.5238 20.1224L30.9762 35.1632C30.4145 35.6447 29.5855 35.6447 29.0238 35.1632L11.4762 20.1224Z" fill="#222222"/>
<path fill-rule="evenodd" clip-rule="evenodd" d="M11.4332 12C11.1705 12 10.9209 12.1148 10.7499 12.3143C10.4264 12.6917 10.4701 13.2599 10.8475 13.5833L29.0241 29.1633C29.5858 29.6448 30.4147 29.6448 30.9765 29.1633L49.1531 13.5833C49.3525 13.4123 49.4674 13.1627 49.4674 12.9C49.4674 12.4029 49.0644 12 48.5674 12L11.4332 12Z" fill="#222222"/>
</svg>
