<svg width="60" height="60" viewBox="0 0 60 60" fill="none" xmlns="http://www.w3.org/2000/svg">
<path fill-rule="evenodd" clip-rule="evenodd" d="M30 9C41.598 9 51 18.402 51 30V51L44.8492 44.8492C41.049 48.6495 35.799 51 30 51C18.402 51 9 41.598 9 30C9 18.402 18.402 9 30 9ZM20.1138 33.1826C20.1138 32.6611 19.979 32.2685 19.7095 32.0048C19.4458 31.7353 18.9624 31.457 18.2593 31.1699C16.9761 30.6835 16.0532 30.1152 15.4907 29.4648C14.9282 28.8085 14.647 28.0351 14.647 27.1445C14.647 26.0663 15.0278 25.2021 15.7896 24.5517C16.5571 23.8954 17.5298 23.5673 18.7075 23.5673C19.4927 23.5673 20.1929 23.7343 20.8081 24.0683C21.4233 24.3964 21.895 24.8622 22.2231 25.4658C22.5571 26.0693 22.7241 26.7548 22.7241 27.5224H20.1489C20.1489 26.9247 20.02 26.4706 19.7622 26.1601C19.5103 25.8437 19.144 25.6855 18.6636 25.6855C18.2124 25.6855 17.8608 25.8203 17.6089 26.0898C17.3569 26.3535 17.231 26.7109 17.231 27.162C17.231 27.5136 17.3716 27.8329 17.6528 28.1201C17.9341 28.4013 18.4321 28.6943 19.147 28.999C20.395 29.4501 21.3003 30.0038 21.8628 30.6601C22.4312 31.3163 22.7153 32.1513 22.7153 33.165C22.7153 34.2783 22.3608 35.1484 21.6519 35.7753C20.9429 36.4023 19.979 36.7158 18.7603 36.7158C17.9341 36.7158 17.1812 36.5458 16.5015 36.206C15.8218 35.8661 15.2886 35.3798 14.9019 34.747C14.521 34.1142 14.3306 33.3671 14.3306 32.5058H16.9233C16.9233 33.2441 17.0669 33.7802 17.354 34.1142C17.6411 34.4482 18.1099 34.6152 18.7603 34.6152C19.6626 34.6152 20.1138 34.1376 20.1138 33.1826ZM27.375 23.7431L29.792 32.998L32.2002 23.7431H35.5752V36.54H32.9824V33.0771L33.2197 27.7421L30.6621 36.54H28.9043L26.3467 27.7421L26.584 33.0771V36.54H24V23.7431H27.375ZM42.0592 32.0048C42.3287 32.2685 42.4635 32.6611 42.4635 33.1826C42.4635 34.1376 42.0123 34.6152 41.11 34.6152C40.4596 34.6152 39.9908 34.4482 39.7037 34.1142C39.4166 33.7802 39.273 33.2441 39.273 32.5058H36.6803C36.6803 33.3671 36.8707 34.1142 37.2516 34.747C37.6383 35.3798 38.1715 35.8661 38.8512 36.206C39.5309 36.5458 40.2838 36.7158 41.11 36.7158C42.3287 36.7158 43.2926 36.4023 44.0016 35.7753C44.7105 35.1484 45.065 34.2783 45.065 33.165C45.065 32.1513 44.7809 31.3163 44.2125 30.6601C43.65 30.0038 42.7447 29.4501 41.4967 28.999C40.7818 28.6943 40.2838 28.4013 40.0025 28.1201C39.7213 27.8329 39.5807 27.5136 39.5807 27.162C39.5807 26.7109 39.7066 26.3535 39.9586 26.0898C40.2105 25.8203 40.5621 25.6855 41.0133 25.6855C41.4938 25.6855 41.86 25.8437 42.1119 26.1601C42.3697 26.4706 42.4986 26.9247 42.4986 27.5224H45.0738C45.0738 26.7548 44.9068 26.0693 44.5729 25.4658C44.2447 24.8622 43.773 24.3964 43.1578 24.0683C42.5426 23.7343 41.8424 23.5673 41.0572 23.5673C39.8795 23.5673 38.9068 23.8954 38.1393 24.5517C37.3775 25.2021 36.9967 26.0663 36.9967 27.1445C36.9967 28.0351 37.2779 28.8085 37.8404 29.4648C38.4029 30.1152 39.3258 30.6835 40.609 31.1699C41.3121 31.457 41.7955 31.7353 42.0592 32.0048Z" fill="#222222"/>
</svg>
