<svg width="60" height="60" viewBox="0 0 60 60" fill="none" xmlns="http://www.w3.org/2000/svg">
<path fill-rule="evenodd" clip-rule="evenodd" d="M12 9C12 7.34315 13.3431 6 15 6H45C46.6569 6 48 7.34315 48 9V51C48 52.6569 46.6569 54 45 54H15C13.3431 54 12 52.6569 12 51V9ZM30 18C25.0294 18 21 22.0294 21 27H24V33H21C19.3431 33 18 31.6569 18 30V27C18 20.3726 23.3726 15 30 15C36.6274 15 42 20.3726 42 27V30C42 31.6569 40.6569 33 39 33H36V27H39C39 22.0294 34.9706 18 30 18ZM30 42C31.6569 42 33 40.6569 33 39H36C37.6569 39 39 37.6569 39 36H33H30H27V39C27 40.6569 28.3431 42 30 42Z" fill="#125DE6"/>
</svg>
