<svg width="48" height="48" viewBox="0 0 48 48" fill="none" xmlns="http://www.w3.org/2000/svg">
<path fill-rule="evenodd" clip-rule="evenodd" d="M4.45455 2C3.09894 2 2 3.09894 2 4.45455V33.5455C2 34.9011 3.09894 36 4.45454 36H7V38H8V11C8 9.34314 9.34315 8 11 8H38V4.45455C38 3.09894 36.9011 2 35.5455 2H4.45455Z" fill="#6B9DF8"/>
<path fill-rule="evenodd" clip-rule="evenodd" d="M10 12.4545C10 11.0989 11.0989 10 12.4545 10H43.5455C44.9011 10 46 11.0989 46 12.4545V41.5455C46 42.9011 44.9011 44 43.5455 44H41V46H35V44H21V46H15V44H12.4545C11.0989 44 10 42.9011 10 41.5455V12.4545Z" fill="#6B9DF8"/>
<path fill-rule="evenodd" clip-rule="evenodd" d="M19.5 27L16 32L12.5 27L15 27C15 19.8203 20.8203 14 28 14C35.1797 14 41 19.8203 41 27C41 34.1797 35.1797 40 28 40C24.4101 40 21.1601 38.5449 18.8076 36.1924L20.2218 34.7782C22.2124 36.7688 24.9624 38 28 38C34.0751 38 39 33.0751 39 27C39 20.9249 34.0751 16 28 16C21.9248 16 17 20.9249 17 27H19.5Z" fill="white"/>
<path fill-rule="evenodd" clip-rule="evenodd" d="M22.3428 22.7573L23.757 21.3431L25.242 22.8281C26.9085 21.7239 29.0909 21.7239 30.7574 22.8279L32.2423 21.3431L33.6565 22.7573L32.1717 24.2421C33.2759 25.9086 33.2759 28.0911 32.1717 29.7576L33.6567 31.2426L32.2425 32.6568L30.7575 31.1718C29.0911 32.2759 26.909 32.276 25.2425 31.1721L23.7579 32.6568L22.3436 31.2426L23.8282 29.758C22.7238 28.0915 22.7237 25.909 23.8278 24.2423L22.3428 22.7573ZM30.1211 29.1212C31.2927 27.9497 31.2927 26.0502 30.1211 24.8786C28.9496 23.707 27.0501 23.707 25.8785 24.8786C24.7069 26.0502 24.7069 27.9497 25.8785 29.1212C27.0501 30.2928 28.9496 30.2928 30.1211 29.1212Z" fill="white"/>
</svg>
