<svg width="48" height="48" viewBox="0 0 48 48" fill="none" xmlns="http://www.w3.org/2000/svg">
<path fill-rule="evenodd" clip-rule="evenodd" d="M2 1H38V4.27273H2V1ZM2 5.90909H38V9H8V37H4C2.89543 37 2 36.1046 2 35V5.90909Z" fill="#6B9DF8"/>
<path fill-rule="evenodd" clip-rule="evenodd" d="M46 11H10V14.2727H46V11ZM46 15.9091H10V45C10 46.1046 10.8954 47 12 47H44C45.1046 47 46 46.1046 46 45V15.9091Z" fill="#6B9DF8"/>
<path fill-rule="evenodd" clip-rule="evenodd" d="M27.9694 28.0001C27.9896 27.7907 28 27.5785 28 27.3638C28 23.7489 25.0695 20.8184 21.4545 20.8184C17.8396 20.8184 14.9091 23.7489 14.9091 27.3638C14.9091 30.4789 17.0851 33.0857 20 33.7471V29.2309C20 28.5512 20.551 28.0001 21.2308 28.0001H27.9694ZM28 35.0001L34.5 24.0001L41 35.0001H28ZM22 30.0002H29.0783L26.1919 34.9255C25.9452 35.3464 25.9358 35.8734 26.1672 36.3036C26.3986 36.7338 26.8347 37.0002 27.3077 37.0002H34V42.0002H22V30.0002Z" fill="white"/>
</svg>
