<svg width="48" height="48" viewBox="0 0 48 48" fill="none" xmlns="http://www.w3.org/2000/svg">
<g clip-path="url(#clip0_4720_70783)">
<path fill-rule="evenodd" clip-rule="evenodd" d="M9 24L4.5 30L-9.17939e-07 24L3 24C3 12.402 12.402 3 24 3C35.598 3 45 12.402 45 24C45 35.598 35.598 45 24 45C18.201 45 12.951 42.6495 9.15075 38.8492L11.2721 36.7279C14.5294 39.9853 19.0294 42 24 42C33.9411 42 42 33.9411 42 24C42 14.0589 33.9411 6 24 6C14.0589 6 6 14.0589 6 24L9 24Z" fill="#6B9DF8"/>
<path fill-rule="evenodd" clip-rule="evenodd" d="M17 18C20.3137 18 23 16.6569 23 15C23 13.3431 20.3137 12 17 12C13.6863 12 11 13.3431 11 15C11 16.6569 13.6863 18 17 18ZM21.096 18.2229C20.022 18.7111 18.5734 19 17 19C15.4266 19 13.978 18.7111 12.904 18.2229C11.8751 17.7553 11 17.007 11 16V19C11 20.6569 13.6863 22 17 22C20.3137 22 23 20.6569 23 19V16C23 17.007 22.1249 17.7553 21.096 18.2229ZM21.096 22.2229C20.022 22.7111 18.5734 23 17 23C15.4266 23 13.978 22.7111 12.904 22.2229C11.8751 21.7553 11 21.007 11 20V23C11 24.6569 13.6863 26 17 26C20.3137 26 23 24.6569 23 23V20C23 21.007 22.1249 21.7553 21.096 22.2229ZM17 27C18.5734 27 20.022 26.7111 21.096 26.2229C22.1249 25.7553 23 25.007 23 24V27C23 28.6569 20.3137 30 17 30C13.6863 30 11 28.6569 11 27V24C11 25.007 11.8751 25.7553 12.904 26.2229C13.978 26.7111 15.4266 27 17 27Z" fill="#6B9DF8"/>
<path fill-rule="evenodd" clip-rule="evenodd" d="M31 24C34.3137 24 37 22.6569 37 21C37 19.3431 34.3137 18 31 18C27.6863 18 25 19.3431 25 21C25 22.6569 27.6863 24 31 24ZM35.096 24.2229C34.022 24.7111 32.5734 25 31 25C29.4266 25 27.978 24.7111 26.904 24.2229C25.8751 23.7553 25 23.007 25 22V25C25 26.6569 27.6863 28 31 28C34.3137 28 37 26.6569 37 25V22C37 23.007 36.1249 23.7553 35.096 24.2229ZM35.096 28.2229C34.022 28.7111 32.5734 29 31 29C29.4266 29 27.978 28.7111 26.904 28.2229C25.8751 27.7553 25 27.007 25 26V29C25 30.6569 27.6863 32 31 32C34.3137 32 37 30.6569 37 29V26C37 27.007 36.1249 27.7553 35.096 28.2229ZM31 33C32.5734 33 34.022 32.7111 35.096 32.2229C36.1249 31.7553 37 31.007 37 30V33C37 34.6569 34.3137 36 31 36C27.6863 36 25 34.6569 25 33V30C25 31.007 25.8751 31.7553 26.904 32.2229C27.978 32.7111 29.4266 33 31 33Z" fill="#6B9DF8"/>
<path fill-rule="evenodd" clip-rule="evenodd" d="M31 13H24V15H31V17H33V13H32H31Z" fill="#6B9DF8"/>
<path fill-rule="evenodd" clip-rule="evenodd" d="M17 31H15V35H16H17H24V33H17V31Z" fill="#6B9DF8"/>
</g>
<defs>
<clipPath id="clip0_4720_70783">
<rect width="48" height="48" rx="4" fill="white"/>
</clipPath>
</defs>
</svg>
