<svg width="48" height="48" viewBox="0 0 48 48" fill="none" xmlns="http://www.w3.org/2000/svg">
<path fill-rule="evenodd" clip-rule="evenodd" d="M3 16V22H23L18.7576 16H3Z" fill="#6B9DF8"/>
<rect x="3" y="20" width="42" height="27" fill="#6B9DF8"/>
<path fill-rule="evenodd" clip-rule="evenodd" d="M8 1H6.5V2.5H5.625C5.00368 2.5 4.5 3.00368 4.5 3.625V4.5H3V6H4.5V8H3V9.5H4.5V10.375C4.5 10.9963 5.00368 11.5 5.625 11.5H6.5V13H8V11.5H10V13H11.5V11.5H12.375C12.9963 11.5 13.5 10.9963 13.5 10.375V9.5H15V8H13.5V6H15V4.5H13.5V3.625C13.5 3.00368 12.9963 2.5 12.375 2.5H11.5V1H10V2.5H8V1Z" fill="#6B9DF8"/>
<path fill-rule="evenodd" clip-rule="evenodd" d="M11.5 4.5V9.5H6.5V4.5L11.5 4.5Z" fill="white"/>
<path fill-rule="evenodd" clip-rule="evenodd" d="M23 1H21.5V2.5H20.625C20.0037 2.5 19.5 3.00368 19.5 3.625V4.5H18V6H19.5V8H18V9.5H19.5V10.375C19.5 10.9963 20.0037 11.5 20.625 11.5H21.5V13H23V11.5H25V13H26.5V11.5H27.375C27.9963 11.5 28.5 10.9963 28.5 10.375V9.5H30V8H28.5V6H30V4.5H28.5V3.625C28.5 3.00368 27.9963 2.5 27.375 2.5H26.5V1H25V2.5H23V1Z" fill="#6B9DF8"/>
<path fill-rule="evenodd" clip-rule="evenodd" d="M26.5 4.5V9.5H21.5V4.5L26.5 4.5Z" fill="white"/>
<path fill-rule="evenodd" clip-rule="evenodd" d="M38 1H36.5V2.5H35.625C35.0037 2.5 34.5 3.00368 34.5 3.625V4.5H33V6H34.5V8H33V9.5H34.5V10.375C34.5 10.9963 35.0037 11.5 35.625 11.5H36.5V13H38V11.5H40V13H41.5V11.5H42.375C42.9963 11.5 43.5 10.9963 43.5 10.375V9.5H45V8H43.5V6H45V4.5H43.5V3.625C43.5 3.00368 42.9963 2.5 42.375 2.5H41.5V1H40V2.5H38V1Z" fill="#6B9DF8"/>
<path fill-rule="evenodd" clip-rule="evenodd" d="M41.5 4.5V9.5H36.5V4.5L41.5 4.5Z" fill="white"/>
</svg>
