<svg width="48" height="48" viewBox="0 0 48 48" fill="none" xmlns="http://www.w3.org/2000/svg">
<path fill-rule="evenodd" clip-rule="evenodd" d="M23.5528 7.42357C23.8344 7.2828 24.1657 7.2828 24.4473 7.42357L42.3056 16.3527C42.6742 16.537 42.6742 17.0629 42.3056 17.2472L24.4473 26.1764C24.1657 26.3171 23.8344 26.3171 23.5528 26.1764L5.69448 17.2472C5.32596 17.0629 5.32596 16.537 5.69448 16.3527L23.5528 7.42357ZM23.5528 30.9764L14.4001 26.4L5.69448 30.7527C5.32596 30.937 5.32596 31.4629 5.69448 31.6472L23.5528 40.5764C23.8344 40.7171 24.1657 40.7171 24.4473 40.5764L42.3056 31.6472C42.6742 31.4629 42.6742 30.937 42.3056 30.7527L33.6001 26.4L24.4473 30.9764C24.1657 31.1171 23.8344 31.1171 23.5528 30.9764Z" fill="#6B9DF8"/>
</svg>
