<svg width="48" height="48" viewBox="0 0 48 48" fill="none" xmlns="http://www.w3.org/2000/svg">
<path fill-rule="evenodd" clip-rule="evenodd" d="M46 2H2V6H46V2ZM46 8H2V43C2 44.6569 3.34315 46 5 46H43C44.6569 46 46 44.6569 46 43V8Z" fill="#6B9DF8"/>
<path fill-rule="evenodd" clip-rule="evenodd" d="M24 22C24 17.5817 20.4183 14 16 14C11.5817 14 8 17.5817 8 22C8 25.7277 10.5495 28.8599 14 29.748V23.5385C14 22.6888 14.6888 22 15.5385 22H24ZM24 32L32 19L40 32H24ZM16 24H26.8788L22.2257 31.6487C21.9355 32.1257 21.9244 32.7229 22.1966 33.2105C22.4688 33.6981 22.982 34 23.5385 34H32V40H16V24Z" fill="white"/>
</svg>
