<svg width="48" height="48" viewBox="0 0 48 48" fill="none" xmlns="http://www.w3.org/2000/svg">
<path fill-rule="evenodd" clip-rule="evenodd" d="M22.9444 22C24.8446 19.877 26 17.0734 26 14C26 7.37258 20.6274 2 14 2C7.37258 2 2 7.37258 2 14C2 19.5915 5.82432 24.2898 11 25.6219V24C11 22.8954 11.8954 22 13 22H22.9444Z" fill="#6B9DF8"/>
<path d="M24 28L35 10L46 28H24Z" fill="#6B9DF8"/>
<path fill-rule="evenodd" clip-rule="evenodd" d="M24.1006 24H13V46H35V30H24C23.2765 30 22.6095 29.6093 22.2556 28.9783C21.9017 28.3473 21.9162 27.5744 22.2934 26.9571L24.1006 24Z" fill="#6B9DF8"/>
</svg>
