<svg width="60" height="60" viewBox="0 0 60 60" fill="none" xmlns="http://www.w3.org/2000/svg">
<path fill-rule="evenodd" clip-rule="evenodd" d="M50.6471 3C54.1557 3 57 5.84431 57 9.35294V16.5H51V10.5C51 9.73075 50.4209 9.09674 49.6749 9.01009L49.5 9H43.5V3H50.6471ZM9 49.5V43.497L3 43.5V50.6471C3 54.1557 5.84431 57 9.35294 57H16.5V51H10.5L10.3251 50.9899C9.57906 50.9033 9 50.2693 9 49.5ZM50.6471 57C54.1557 57 57 54.1557 57 50.6471V43.5H51V49.5L50.9899 49.6749C50.9033 50.4209 50.2693 51 49.5 51H43.5V57H50.6471ZM9.35294 3C5.84431 3 3 5.84431 3 9.35294V16.5L9 16.497V10.5L9.01009 10.3251C9.09674 9.57906 9.73075 9 10.5 9H16.5V3H9.35294Z" fill="#222222"/>
<path d="M22.6523 32.0039C22.6523 34.293 22.1094 36.0703 21.0234 37.3359C19.9453 38.6016 18.4453 39.2344 16.5234 39.2344C14.6094 39.2344 13.1055 38.6094 12.0117 37.3594C10.918 36.1016 10.3633 34.3438 10.3477 32.0859V29.168C10.3477 26.8242 10.8906 24.9961 11.9766 23.6836C13.0625 22.3633 14.5703 21.7031 16.5 21.7031C18.3984 21.7031 19.8945 22.3516 20.9883 23.6484C22.082 24.9375 22.6367 26.75 22.6523 29.0859V32.0039ZM19.1953 29.1445C19.1953 27.6055 18.9766 26.4609 18.5391 25.7109C18.1016 24.9609 17.4219 24.5859 16.5 24.5859C15.5859 24.5859 14.9102 24.9492 14.4727 25.6758C14.0352 26.3945 13.8086 27.4922 13.793 28.9688V32.0039C13.793 33.4961 14.0156 34.5977 14.4609 35.3086C14.9062 36.0117 15.5938 36.3633 16.5234 36.3633C17.4219 36.3633 18.0898 36.0195 18.5273 35.332C18.9648 34.6367 19.1875 33.5625 19.1953 32.1094V29.1445Z" fill="#222222"/>
<path d="M36.6914 33.3164C36.6055 35.2617 36.0586 36.7344 35.0508 37.7344C34.043 38.7344 32.6211 39.2344 30.7852 39.2344C28.8555 39.2344 27.375 38.6016 26.3438 37.3359C25.3203 36.0625 24.8086 34.25 24.8086 31.8984V29.0273C24.8086 26.6836 25.3398 24.8789 26.4023 23.6133C27.4648 22.3398 28.9414 21.7031 30.832 21.7031C32.6914 21.7031 34.1016 22.2227 35.0625 23.2617C36.0312 24.3008 36.582 25.793 36.7148 27.7383H33.2578C33.2266 26.5352 33.0391 25.707 32.6953 25.2539C32.3594 24.793 31.7383 24.5625 30.832 24.5625C29.9102 24.5625 29.2578 24.8867 28.875 25.5352C28.4922 26.1758 28.2891 27.2344 28.2656 28.7109V31.9336C28.2656 33.6289 28.4531 34.793 28.8281 35.4258C29.2109 36.0586 29.8633 36.375 30.7852 36.375C31.6914 36.375 32.3164 36.1562 32.6602 35.7188C33.0039 35.2734 33.1992 34.4727 33.2461 33.3164H36.6914Z" fill="#222222"/>
<path d="M43.9805 32.7656H42.2695V39H38.8242V21.9375H44.3203C46.0469 21.9375 47.3789 22.3867 48.3164 23.2852C49.2617 24.1758 49.7344 25.4453 49.7344 27.0938C49.7344 29.3594 48.9102 30.9453 47.2617 31.8516L50.25 38.8359V39H46.5469L43.9805 32.7656ZM42.2695 29.8945H44.2266C44.9141 29.8945 45.4297 29.668 45.7734 29.2148C46.1172 28.7539 46.2891 28.1406 46.2891 27.375C46.2891 25.6641 45.6211 24.8086 44.2852 24.8086H42.2695V29.8945Z" fill="#222222"/>
</svg>
