<svg width="60" height="60" viewBox="0 0 60 60" fill="none" xmlns="http://www.w3.org/2000/svg">
<path fill-rule="evenodd" clip-rule="evenodd" d="M21 51H15C11.6863 51 9 48.3137 9 45V39H12V45C12 46.6569 13.3431 48 15 48H21L21 42L31.5 49.5L21 57L21 51Z" fill="#222222"/>
<path fill-rule="evenodd" clip-rule="evenodd" d="M45 24C41.6863 24 39 26.6863 39 30V42C39 45.3137 41.6863 48 45 48C48.3137 48 51 45.3137 51 42V30C51 26.6863 48.3137 24 45 24ZM33 42V39H36V42C36 46.9686 40.0262 50.9968 44.9941 51L45 51L45.0059 51C49.7963 50.9969 53.7111 47.2513 53.9847 42.5288L54 42V39H57V42C57 48.1194 52.4195 53.169 46.5 53.9072V57H49.5V60H46.5H43.5H40.5V57H43.5V53.9072C37.5805 53.169 33 48.1194 33 42Z" fill="#222222"/>
<path fill-rule="evenodd" clip-rule="evenodd" d="M30 3H3V36H30V3ZM24 12H9V15H24V12ZM9 18H24V21H9V18ZM15 24H9V27H15V24Z" fill="#222222"/>
</svg>
