<svg width="60" height="60" viewBox="0 0 60 60" fill="none" xmlns="http://www.w3.org/2000/svg">
<path fill-rule="evenodd" clip-rule="evenodd" d="M57 9.35294C57 5.84431 54.1557 3 50.6471 3H43.5V9H49.5L49.6749 9.01009C50.4209 9.09674 51 9.73075 51 10.5V16.5H57V9.35294ZM57 43.5H51V49.5L50.9899 49.6749C50.9033 50.4209 50.2693 51 49.5 51H43.5V57H50.6471C54.1557 57 57 54.1557 57 50.6471V43.5ZM9 16.5V10.5L9.01009 10.3251C9.09674 9.57906 9.73075 9 10.5 9H16.5V3H9.35294C5.84431 3 3 5.84431 3 9.35294V16.5H9ZM3 43.5V50.6471C3 54.1557 5.84431 57 9.35294 57H16.5V51H10.5L10.3251 50.9899C9.57906 50.9033 9 50.2693 9 49.5V43.5H3Z" fill="#222222"/>
<path fill-rule="evenodd" clip-rule="evenodd" d="M47.4677 24.9101C45.5176 15.7715 38.4366 9 30 9C21.5634 9 14.4824 15.7715 12.531 24.9061C10.4277 26.1764 9 28.653 9 31.5C9 34.7976 10.9153 37.5981 13.5749 38.603C16.3915 45.9112 22.6864 51 30 51C37.3136 51 43.6085 45.9112 46.4227 38.603C49.0847 37.5981 51 34.7976 51 31.5C51 28.653 49.5723 26.1764 47.4677 24.9101ZM18.5579 25.4788C20.1572 19.1986 24.8791 15 30 15C35.3042 15 40.179 19.5041 41.5998 26.1622L42.1432 28.7088L44.3743 30.0512L44.512 30.1564C44.7808 30.4073 45 30.8944 45 31.5C45 32.2974 44.6259 32.868 44.3036 32.9897L41.7893 33.9389L40.8235 36.4469L40.5581 37.0958C38.4366 41.99 34.345 45 30 45C25.466 45 21.2073 41.7224 19.1735 36.4453L18.2078 33.9396L15.6957 32.9904L15.556 32.9114C15.2751 32.7011 15 32.1836 15 31.5C15 30.792 15.3001 30.2431 15.633 30.0421L17.8561 28.6994L18.3987 26.1596L18.5579 25.4788Z" fill="#222222"/>
<path fill-rule="evenodd" clip-rule="evenodd" d="M21 26.25C21 25.8358 21.3358 25.5 21.75 25.5H24.75C25.1642 25.5 25.5 25.8358 25.5 26.25V30.75C25.5 31.1642 25.1642 31.5 24.75 31.5H21.75C21.3358 31.5 21 31.1642 21 30.75V26.25ZM34.5 26.25C34.5 25.8358 34.8358 25.5 35.25 25.5H38.25C38.6642 25.5 39 25.8358 39 26.25V30.75C39 31.1642 38.6642 31.5 38.25 31.5H35.25C34.8358 31.5 34.5 31.1642 34.5 30.75V26.25ZM36.6004 36.8064C37.0372 35.643 36.4482 34.3459 35.2849 33.9091C34.1215 33.4723 32.8243 34.0613 32.3876 35.2246L32.3067 35.4115C31.9171 36.2034 31.0266 36.756 29.9958 36.756C28.8835 36.756 27.935 36.1128 27.6023 35.2201L27.5169 35.0207C27.0163 33.9897 25.804 33.4892 24.7081 33.8977C23.5437 34.3317 22.9517 35.6275 23.3857 36.7919C24.3818 39.4642 27.0241 41.256 29.9958 41.256C32.9617 41.256 35.5999 39.4711 36.6004 36.8064Z" fill="#222222"/>
</svg>
