<svg width="60" height="60" viewBox="0 0 60 60" fill="none" xmlns="http://www.w3.org/2000/svg">
<path fill-rule="evenodd" clip-rule="evenodd" d="M50.5714 12H9.42857C7.53502 12 6 13.1513 6 14.5714V45.4286C6 46.8487 7.53502 48 9.42857 48H50.5714C52.465 48 54 46.8487 54 45.4286V14.5714C54 13.1513 52.465 12 50.5714 12ZM27 21H12V24H27V21ZM12 27H27V30H12V27ZM21 33H12V36H21V33ZM45 34.9896C43.6361 35.6375 42.1104 36 40.5 36C38.8896 36 37.3639 35.6375 36 34.9896V43.5L40.5 40.5L45 43.5V34.9896ZM40.5 33C44.6421 33 48 29.6421 48 25.5C48 21.3579 44.6421 18 40.5 18C36.3579 18 33 21.3579 33 25.5C33 29.6421 36.3579 33 40.5 33Z" fill="#222222"/>
</svg>
