<svg width="60" height="60" viewBox="0 0 60 60" fill="none" xmlns="http://www.w3.org/2000/svg">
<path fill-rule="evenodd" clip-rule="evenodd" d="M15 9V15H9V48H6V51H48V48H45V30H30V15H24V9H15Z" fill="#222222"/>
<path fill-rule="evenodd" clip-rule="evenodd" d="M51 15C51 16.3894 50.6851 17.7053 50.1229 18.8802L54.6213 23.3787L50.3787 27.6213L45.8802 23.1229C44.7053 23.6851 43.3894 24 42 24C37.0294 24 33 19.9706 33 15C33 10.0294 37.0294 6 42 6C46.9706 6 51 10.0294 51 15ZM42 18C43.6569 18 45 16.6569 45 15C45 13.3431 43.6569 12 42 12C40.3431 12 39 13.3431 39 15C39 16.6569 40.3431 18 42 18Z" fill="#222222"/>
</svg>
