<svg width="60" height="60" viewBox="0 0 60 60" fill="none" xmlns="http://www.w3.org/2000/svg">
<path fill-rule="evenodd" clip-rule="evenodd" d="M9 42C9 40.3431 10.3431 39 12 39H48C49.6569 39 51 40.3431 51 42V54C51 55.6569 49.6569 57 48 57H12C10.3431 57 9 55.6569 9 54V42ZM33 51V45H45V51H33Z" fill="#125DE6"/>
<path d="M28.6708 6.2028C28.274 5.80401 27.7204 5.55773 27.1049 5.55773C26.4917 5.55773 25.9423 5.80401 25.5501 6.2028H25.5389C25.1432 6.59965 24.8969 7.15368 24.8969 7.76685C24.8969 8.38236 25.1432 8.93172 25.5389 9.32623L25.5501 9.33518C25.9423 9.73203 26.4917 9.97598 27.1049 9.97598C27.7204 9.97598 28.274 9.73203 28.6708 9.33518L28.6767 9.32623C29.0743 8.93172 29.3183 8.38236 29.3183 7.76685C29.3183 7.15368 29.0743 6.59965 28.6767 6.2028H28.6708ZM27.1049 36.4423C27.7204 36.4423 28.274 36.1917 28.6708 35.7995L28.6767 35.7879C29.0743 35.3965 29.3183 34.8424 29.3183 34.2335C29.3183 33.618 29.0743 33.0663 28.6767 32.6675H28.6708C28.274 32.2641 27.7204 32.0201 27.1049 32.0201C26.4917 32.0201 25.9423 32.2641 25.5501 32.6675H25.5389C25.1432 33.0663 24.8969 33.618 24.8969 34.2335C24.8969 34.8424 25.1432 35.3965 25.5389 35.7879L25.5501 35.7995C25.9423 36.1917 26.4917 36.4423 27.1049 36.4423ZM39.141 29.7495C39.6885 29.606 40.1841 29.2546 40.4864 28.7236L40.5273 28.6461C40.7961 28.1423 40.8451 27.561 40.7016 27.0459C40.5569 26.4942 40.2012 26.0063 39.6713 25.7009L39.6406 25.6803C39.1243 25.3974 38.536 25.336 37.9956 25.4819C37.4463 25.6188 36.9529 25.9857 36.6522 26.5125C36.3475 27.0342 36.2837 27.6361 36.4296 28.1902C36.5802 28.7349 36.9323 29.2274 37.4587 29.5352H37.4622C37.9898 29.8382 38.5874 29.8931 39.141 29.7495ZM29.3719 18.7362C28.7915 18.1573 27.9915 17.7947 27.1049 17.7947C26.2217 17.7947 25.4237 18.1573 24.8444 18.7362C24.2678 19.3132 23.9122 20.1112 23.9122 20.9955C23.9122 21.8822 24.2678 22.6825 24.8444 23.2661C25.4237 23.8404 26.2217 24.2007 27.1049 24.2007C27.9915 24.2007 28.7915 23.8404 29.3719 23.2661C29.9497 22.6825 30.3053 21.8822 30.3053 20.9955C30.3053 20.1112 29.9497 19.3132 29.3719 18.7362ZM28.0974 14.9708C29.3821 15.1825 30.538 15.798 31.42 16.687H31.427C31.5671 16.8282 31.704 16.9811 31.8305 17.136L34.0361 15.8598C33.7396 14.9638 33.726 14.0269 33.9641 13.1492C34.2789 11.9727 35.0414 10.9195 36.1845 10.2584L36.2223 10.2359C37.3529 9.59508 38.6384 9.4628 39.7989 9.77755C40.9739 10.0919 42.0341 10.858 42.694 12.0003V12.0026C43.3507 13.1379 43.4842 14.4417 43.1706 15.6136C42.8582 16.7893 42.0921 17.8495 40.9502 18.5059L40.6491 18.6841H40.6183C39.562 19.1875 38.4003 19.2653 37.3334 18.9848C36.4573 18.7522 35.6534 18.2643 35.0243 17.569L32.8222 18.8413C33.0751 19.5112 33.2155 20.2341 33.2155 20.9955C33.2155 21.7546 33.0751 22.4864 32.8222 23.1611L35.0243 24.4287C35.6534 23.7244 36.4573 23.2455 37.3334 23.0128C38.5084 22.6915 39.8114 22.8284 40.9502 23.4918L41.023 23.526V23.5307C42.1232 24.196 42.8617 25.2266 43.1706 26.3892C43.4842 27.554 43.3507 28.8582 42.694 29.9958L42.6543 30.0756L42.6496 30.0686C41.9898 31.1654 40.9502 31.9085 39.8025 32.2228C38.6247 32.5329 37.3221 32.4006 36.1845 31.7466V31.7373C35.0414 31.0763 34.2789 30.0207 33.9641 28.8469C33.726 27.9715 33.7396 27.0342 34.0361 26.1386L31.8305 24.8664C31.704 25.0216 31.5671 25.1675 31.427 25.3087L31.42 25.3153C30.538 26.2001 29.3821 26.8156 28.0974 27.0206V29.5694C29.0128 29.7608 29.8334 30.2191 30.4765 30.8619L30.4796 30.8689C31.3414 31.726 31.8748 32.9204 31.8748 34.2335C31.8748 35.5424 31.3414 36.7294 30.4796 37.5912L30.4765 37.6048C29.6089 38.4666 28.418 39 27.1049 39C25.7988 39 24.6063 38.4666 23.741 37.6048H23.7379V37.5912C22.8749 36.7294 22.3403 35.5424 22.3403 34.2335C22.3403 32.9204 22.8749 31.726 23.7379 30.8689V30.8619H23.741C24.3829 30.2191 25.2046 29.7608 26.1178 29.5694V27.0206C24.8319 26.8156 23.6795 26.2001 22.7987 25.3153L22.7893 25.3087C21.6883 24.203 21 22.6825 21 20.9955C21 19.3132 21.6883 17.7927 22.7893 16.687H22.7987C23.6795 15.798 24.8319 15.1825 26.1178 14.9708V12.4333C25.2046 12.2349 24.3829 11.777 23.741 11.1385H23.7379V11.1315C22.8749 10.2654 22.3403 9.07995 22.3403 7.76685C22.3403 6.46036 22.8749 5.26359 23.7379 4.40181L23.741 4.39753C24.6063 3.53341 25.7988 3 27.1049 3C28.418 3 29.6089 3.53341 30.4765 4.39753V4.40181H30.4796C31.3414 5.26359 31.8748 6.46036 31.8748 7.76685C31.8748 9.07995 31.3414 10.2654 30.4796 11.1315L30.4765 11.1385C29.8334 11.777 29.0128 12.2349 28.0974 12.4333V14.9708ZM40.4864 13.2792L40.4681 13.2519C40.1635 12.7387 39.6779 12.3968 39.141 12.2485C38.5874 12.1026 37.9898 12.1645 37.4587 12.4676H37.4622C36.9323 12.7683 36.5779 13.2609 36.4296 13.8126C36.2837 14.3596 36.3475 14.9638 36.6522 15.4902L36.6623 15.5042C36.9677 16.0236 37.4533 16.3722 37.9956 16.5135C38.5407 16.6664 39.148 16.6026 39.6713 16.2972L39.6997 16.2835C40.2149 15.9758 40.558 15.4902 40.7016 14.9568C40.8475 14.4075 40.7895 13.8056 40.4864 13.2792Z" fill="#125DE6"/>
</svg>
