<svg width="60" height="60" viewBox="0 0 60 60" fill="none" xmlns="http://www.w3.org/2000/svg">
<path fill-rule="evenodd" clip-rule="evenodd" d="M24 6C25.6569 6 27 7.34315 27 9V13.5H35.0121C36.2476 10.0044 39.5813 7.5 43.5 7.5C48.4706 7.5 52.5 11.5294 52.5 16.5C52.5 21.4706 48.4706 25.5 43.5 25.5C39.5813 25.5 36.2476 22.9956 35.0121 19.5H27V24C27 25.6569 25.6569 27 24 27H19.5V35.0121C22.9956 36.2476 25.5 39.5813 25.5 43.5C25.5 48.4706 21.4706 52.5 16.5 52.5C11.5294 52.5 7.5 48.4706 7.5 43.5C7.5 39.5813 10.0044 36.2476 13.5 35.0121V27H9C7.34315 27 6 25.6569 6 24V9C6 7.34315 7.34315 6 9 6H24ZM21 12H12V21H21V12ZM52.5 42C52.5 36.201 47.799 31.5 42 31.5C36.201 31.5 31.5 36.201 31.5 42C31.5 47.799 36.201 52.5 42 52.5C43.807 52.5 45.5074 52.0435 46.9921 51.2397L51.8787 56.1213L56.1213 51.8787L51.2397 46.9921C52.0435 45.5074 52.5 43.807 52.5 42ZM37.5 42C37.5 39.5147 39.5147 37.5 42 37.5C44.4853 37.5 46.5 39.5147 46.5 42C46.5 44.4853 44.4853 46.5 42 46.5C39.5147 46.5 37.5 44.4853 37.5 42Z" fill="#125DE6"/>
</svg>
