<svg width="60" height="60" viewBox="0 0 60 60" fill="none" xmlns="http://www.w3.org/2000/svg">
<path fill-rule="evenodd" clip-rule="evenodd" d="M12 0H6V6V12V18H12H18H24V12H40.5L40.9931 12.016C44.9054 12.2699 48 15.5236 48 19.5C48 23.6421 44.6421 27 40.5 27H39V21H21L21 27H19.5C12.0442 27 6 33.0442 6 40.5C6 47.7428 11.7037 53.6535 18.8645 53.9853L19.5 54H36V60H42H48H54V54V48V42H48H42H36V48H19.5C15.3579 48 12 44.6421 12 40.5C12 36.5236 15.0946 33.2699 19.0069 33.016L19.5 33H21L21 39H39V33H40.5L41.1355 32.9853C48.2963 32.6535 54 26.7428 54 19.5C54 12.0442 47.9558 6 40.5 6L24 6V0H18H12ZM12 6H18V12H12V6ZM48 48H42V54H48V48Z" fill="#125DE6"/>
</svg>
