<svg width="60" height="60" viewBox="0 0 60 60" fill="none" xmlns="http://www.w3.org/2000/svg">
<path fill-rule="evenodd" clip-rule="evenodd" d="M12 9C12 7.34315 13.3431 6 15 6H45C46.6569 6 48 7.34315 48 9V51C48 52.6569 46.6569 54 45 54H15C13.3431 54 12 52.6569 12 51V9ZM21 48C19.3431 48 18 46.6569 18 45C18 43.3431 19.3431 42 21 42C22.6569 42 24 43.3431 24 45C24 46.6569 22.6569 48 21 48ZM21 12C19.3431 12 18 13.3431 18 15V18H42V15C42 13.3431 40.6569 12 39 12H21ZM18 27V24H42V27C42 28.6569 40.6569 30 39 30H21C19.3431 30 18 28.6569 18 27Z" fill="#222222"/>
</svg>
