<svg width="60" height="60" viewBox="0 0 60 60" fill="none" xmlns="http://www.w3.org/2000/svg">
<path fill-rule="evenodd" clip-rule="evenodd" d="M53.9999 30C53.9999 43.2548 43.2547 54 29.9999 54V48C39.941 48 47.9999 39.9411 47.9999 30C47.9999 20.0589 39.941 12 29.9999 12C21.0809 12 13.677 18.4869 12.2487 27H6.18555C7.66184 15.1611 17.761 6 29.9999 6C43.2547 6 53.9999 16.7452 53.9999 30Z" fill="#222222"/>
<path fill-rule="evenodd" clip-rule="evenodd" d="M9 39L0 27H18L9 39Z" fill="#222222"/>
<path fill-rule="evenodd" clip-rule="evenodd" d="M27 31.5V18H33V29.0147L40.0919 36.1066L35.8492 40.3492L27 31.5Z" fill="#222222"/>
</svg>
