<svg width="60" height="60" viewBox="0 0 60 60" fill="none" xmlns="http://www.w3.org/2000/svg">
<path fill-rule="evenodd" clip-rule="evenodd" d="M12 9C10.3431 9 9 10.3431 9 12V24C9 25.6569 10.3431 27 12 27H24C25.6569 27 27 25.6569 27 24V12C27 10.3431 25.6569 9 24 9H12Z" fill="#222222"/>
<path fill-rule="evenodd" clip-rule="evenodd" d="M36 33C34.3431 33 33 34.3431 33 36V48C33 49.6569 34.3431 51 36 51H48C49.6569 51 51 49.6569 51 48V36C51 34.3431 49.6569 33 48 33H36Z" fill="#222222"/>
<path fill-rule="evenodd" clip-rule="evenodd" d="M36 9C34.3431 9 33 10.3431 33 12V24C33 25.6569 34.3431 27 36 27H48C49.6569 27 51 25.6569 51 24V12C51 10.3431 49.6569 9 48 9H36Z" fill="#222222"/>
<path fill-rule="evenodd" clip-rule="evenodd" d="M12 33C10.3431 33 9 34.3431 9 36V48C9 49.6569 10.3431 51 12 51H24C25.6569 51 27 49.6569 27 48V36C27 34.3431 25.6569 33 24 33H12Z" fill="#222222"/>
</svg>
