<svg width="60" height="60" viewBox="0 0 60 60" fill="none" xmlns="http://www.w3.org/2000/svg">
<path fill-rule="evenodd" clip-rule="evenodd" d="M24 27C28.9706 27 33 22.9706 33 18C33 13.0294 28.9706 9 24 9C19.0294 9 15 13.0294 15 18C15 22.9706 19.0294 27 24 27ZM6 45C6 38.3726 14.0589 33 24 33C33.9411 33 42 38.3726 42 45V51H6V45Z" fill="#222222"/>
<path fill-rule="evenodd" clip-rule="evenodd" d="M34.8745 26.001C36.5247 23.7619 37.4998 20.9948 37.4998 18C37.4998 15.0052 36.5247 12.2381 34.8745 9.99903C36.1103 9.36057 37.513 9 38.9998 9C43.9704 9 47.9998 13.0294 47.9998 18C47.9998 22.9706 43.9704 27 38.9998 27C37.513 27 36.1103 26.6394 34.8745 26.001ZM47.9998 51H53.9998V45C53.9998 39.7075 48.8604 35.2152 41.7273 33.6202C45.5676 36.3712 47.9998 40.4489 47.9998 45V51Z" fill="#222222"/>
</svg>
