<svg width="60" height="60" viewBox="0 0 60 60" fill="none" xmlns="http://www.w3.org/2000/svg">
<path fill-rule="evenodd" clip-rule="evenodd" d="M30.3001 48H13.5C7.70101 48 3 43.299 3 37.5C3 33.3007 5.46511 29.6772 9.02718 27.9976C9.00914 27.6673 9 27.3347 9 27C9 17.0589 17.0589 9 27 9C34.8404 9 41.51 14.0128 43.9787 21.0083C51.2128 21.2604 57 27.2044 57 34.5C57 34.9739 56.9756 35.4421 56.9279 35.9034C54.1872 32.3151 49.8639 30 45 30C36.7157 30 30 36.7157 30 45C30 46.0274 30.1033 47.0307 30.3001 48Z" fill="#125DE6"/>
<path fill-rule="evenodd" clip-rule="evenodd" d="M45 57C51.6274 57 57 51.6274 57 45C57 38.3726 51.6274 33 45 33C38.3726 33 33 38.3726 33 45C33 51.6274 38.3726 57 45 57ZM43.2843 48.4286V48.4288H46.7129V48.4286H50.1414V45H46.7129V38.1431H43.2843V45V48.4286Z" fill="#125DE6"/>
</svg>
