<svg width="60" height="60" viewBox="0 0 60 60" fill="none" xmlns="http://www.w3.org/2000/svg">
<circle cx="43.5" cy="46.5" r="6.75" transform="rotate(-90 43.5 46.5)" stroke="#125DE6" stroke-width="7.5"/>
<circle cx="10.5" cy="10.5" r="6.75" transform="matrix(0 -1 -1 0 27 57)" stroke="#125DE6" stroke-width="7.5"/>
<path fill-rule="evenodd" clip-rule="evenodd" d="M18.3674 11.5033L18.6487 11.25L41.25 38.8966L35.0342 44.25L17.625 22.9546C14.8966 19.6172 15.1501 14.8004 18.1001 11.7663L18.3674 11.5033ZM28.1931 32.4176C28.1931 33.5675 29.1013 34.4997 30.2217 34.4997C31.342 34.4997 32.2502 33.5675 32.2502 32.4176C32.2502 31.2676 31.342 30.3354 30.2217 30.3354C29.1013 30.3354 28.1931 31.2676 28.1931 32.4176Z" fill="#125DE6"/>
<path fill-rule="evenodd" clip-rule="evenodd" d="M29.7565 25.5015L30.938 27H39.0679L24.9658 44.25L18.75 38.8965L29.7015 25.5015H29.7565ZM30.2217 34.4997C29.1013 34.4997 28.1931 33.5675 28.1931 32.4176C28.1931 31.2676 29.1013 30.3354 30.2217 30.3354C31.342 30.3354 32.2502 31.2676 32.2502 32.4176C32.2502 33.5675 31.342 34.4997 30.2217 34.4997Z" fill="#125DE6"/>
<path fill-rule="evenodd" clip-rule="evenodd" d="M57 3V24H33.0432L27.1979 18H51V9H18.43L18.3216 8.88867C18.3216 8.88867 18.2476 8.92775 18.1159 9H9V18H11.9139C12.1159 19.547 12.6141 21.078 13.3516 22.1137C13.8029 22.7475 14.2844 23.3948 14.745 24H3V3H57Z" fill="#125DE6"/>
</svg>
