<svg width="60" height="60" viewBox="0 0 60 60" fill="none" xmlns="http://www.w3.org/2000/svg">
<path fill-rule="evenodd" clip-rule="evenodd" d="M43.9787 21.0083C41.51 14.0128 34.8404 9 27 9C17.0589 9 9 17.0589 9 27C9 27.3354 9.00917 27.6686 9.03006 27.9962C5.46644 29.6752 3 33.2996 3 37.5C3 43.299 7.70101 48 13.5 48H19.0127L16.5 27H22.1262L23.3287 39.5631L28.7505 27H33.8631L34.7745 39.5631L39.9315 27H44.85L36.2158 48H43.5C50.9558 48 57 41.9558 57 34.5C57 27.2044 51.2128 21.2604 43.9787 21.0083ZM43.9787 21.0083C43.8198 21.0028 43.6602 21 43.5 21L43.9793 21.01C43.9791 21.0095 43.9789 21.0089 43.9787 21.0083ZM30.331 48L29.5244 35.5539L24.3959 48H30.331Z" fill="#125DE6"/>
</svg>
