<svg width="60" height="60" viewBox="0 0 60 60" fill="none" xmlns="http://www.w3.org/2000/svg">
<path fill-rule="evenodd" clip-rule="evenodd" d="M11.4762 20.1224C11.2043 19.8893 10.8581 19.7613 10.5 19.7613C9.67157 19.7613 9 20.4328 9 21.2613L9 44.9999C9 46.6568 10.3431 47.9999 12 47.9999H48C49.6569 47.9999 51 46.6568 51 44.9999V21.2613C51 20.9032 50.8719 20.5569 50.6389 20.2851C50.0998 19.6561 49.1528 19.5832 48.5238 20.1224L30.9762 35.1632C30.4145 35.6447 29.5855 35.6447 29.0238 35.1632L11.4762 20.1224Z" fill="#125DE6"/>
<path fill-rule="evenodd" clip-rule="evenodd" d="M11.433 12C11.1702 12 10.9206 12.1148 10.7496 12.3143C10.4262 12.6917 10.4699 13.2599 10.8473 13.5833L29.0239 29.1633C29.5856 29.6448 30.4145 29.6448 30.9762 29.1633L49.1528 13.5833C49.3523 13.4123 49.4671 13.1627 49.4671 12.9C49.4671 12.4029 49.0642 12 48.5671 12L11.433 12Z" fill="#125DE6"/>
</svg>
