<svg width="60" height="60" viewBox="0 0 60 60" fill="none" xmlns="http://www.w3.org/2000/svg">
<path fill-rule="evenodd" clip-rule="evenodd" d="M30 9C41.598 9 51 18.402 51 30V51L44.8492 44.8492C41.049 48.6495 35.799 51 30 51C18.402 51 9 41.598 9 30C9 18.402 18.402 9 30 9ZM32.1033 32.1398H34.6605C34.6254 33.1006 34.432 33.912 34.0805 34.574C33.729 35.2302 33.2281 35.7282 32.5778 36.068C31.9334 36.4078 31.1542 36.5776 30.2403 36.5776C29.5314 36.5776 28.9016 36.4605 28.3509 36.2261C27.8002 35.9859 27.3315 35.6344 26.9448 35.1716C26.5582 34.7088 26.2653 34.1376 26.0661 33.458C25.8727 32.7725 25.7761 31.9846 25.7761 31.0941V28.9235C25.7761 28.033 25.8786 27.245 26.0836 26.5596C26.2946 25.8741 26.5933 25.3 26.98 24.8372C27.3725 24.3685 27.8441 24.017 28.3948 23.7826C28.9514 23.5425 29.5783 23.4224 30.2754 23.4224C31.2069 23.4224 31.9861 23.5981 32.613 23.9496C33.2398 24.3011 33.7232 24.8137 34.063 25.4875C34.4086 26.1553 34.6166 26.9726 34.6869 27.9393H32.1121C32.1003 27.33 32.033 26.8525 31.9099 26.5069C31.7928 26.1553 31.6053 25.9093 31.3475 25.7687C31.0898 25.6222 30.7324 25.549 30.2754 25.549C29.9356 25.549 29.6427 25.6105 29.3966 25.7335C29.1506 25.8507 28.9485 26.0411 28.7903 26.3047C28.6321 26.5684 28.5149 26.914 28.4388 27.3417C28.3685 27.7694 28.3333 28.2908 28.3333 28.9059V31.0941C28.3333 31.6975 28.3655 32.2131 28.43 32.6407C28.4944 33.0625 28.597 33.4082 28.7376 33.6777C28.8782 33.9472 29.0686 34.1434 29.3088 34.2665C29.5548 34.3895 29.8653 34.451 30.2403 34.451C30.6738 34.451 31.0224 34.3866 31.286 34.2577C31.5555 34.1288 31.7547 33.8974 31.8836 33.5634C32.0125 33.2295 32.0857 32.755 32.1033 32.1398ZM16.048 23.6069H20.1519C21.0072 23.6069 21.7366 23.7534 22.34 24.0463C22.9435 24.3392 23.4063 24.7727 23.7285 25.3469C24.0507 25.921 24.2118 26.6299 24.2118 27.4735C24.2118 28.1648 24.1181 28.7565 23.9306 29.2486C23.7432 29.7349 23.4766 30.1421 23.131 30.4701C22.9013 30.6842 22.642 30.8698 22.3529 31.027L24.6073 36.2789V36.4019H21.8567L19.9261 31.7092H18.6228V36.4019H16.048V23.6069ZM20.0816 29.5738H18.6228V25.7423H20.1519C20.5034 25.7423 20.7875 25.8214 21.0043 25.9796C21.2269 26.1319 21.388 26.3545 21.4876 26.6475C21.5931 26.9345 21.6458 27.2802 21.6458 27.6844C21.6458 28.0652 21.5872 28.3992 21.4701 28.6862C21.3587 28.9674 21.1859 29.1871 20.9516 29.3453C20.7231 29.4976 20.4331 29.5738 20.0816 29.5738ZM41.6204 32.4122C41.6615 32.5997 41.682 32.8077 41.682 33.0362C41.682 33.3115 41.638 33.5576 41.5501 33.7743C41.4623 33.9911 41.3158 34.1639 41.1108 34.2928C40.9116 34.4217 40.6421 34.4862 40.3023 34.4862C40.0035 34.4862 39.7369 34.4481 39.5026 34.3719C39.2741 34.2899 39.0808 34.1698 38.9226 34.0116C38.7644 33.8476 38.6472 33.6308 38.5711 33.3613C38.4949 33.086 38.4568 32.755 38.4568 32.3683H35.882C35.882 33.0948 35.9963 33.7246 36.2247 34.2577C36.4532 34.7849 36.7667 35.2214 37.165 35.5671C37.5693 35.9068 38.035 36.1617 38.5623 36.3316C39.0896 36.4956 39.6491 36.5776 40.2408 36.5776C40.8501 36.5776 41.4008 36.4927 41.8929 36.3228C42.3908 36.1529 42.8156 35.9127 43.1671 35.6022C43.5186 35.2858 43.7852 34.9109 43.9668 34.4774C44.1543 34.038 44.248 33.5517 44.248 33.0186C44.248 32.4796 44.1718 31.9992 44.0195 31.5774C43.8672 31.1556 43.6416 30.7777 43.3429 30.4438C43.0441 30.104 42.6721 29.7993 42.2268 29.5299C41.7816 29.2545 41.2689 29.0026 40.6889 28.7741C40.3902 28.6569 40.1148 28.5368 39.8629 28.4138C39.6168 28.2908 39.403 28.1648 39.2214 28.0359C39.0398 27.9012 38.8962 27.7518 38.7908 27.5878C38.6912 27.4179 38.6414 27.2275 38.6414 27.0166C38.6414 26.7353 38.6912 26.4834 38.7908 26.2608C38.8962 26.0323 39.0544 25.8536 39.2653 25.7247C39.4821 25.59 39.7545 25.5226 40.0826 25.5226C40.4341 25.5226 40.7212 25.6017 40.9438 25.7599C41.1664 25.9181 41.3275 26.1378 41.4271 26.419C41.5326 26.6943 41.5853 27.0136 41.5853 27.3769H44.1513C44.1513 26.6094 43.9844 25.9298 43.6504 25.3381C43.3223 24.7464 42.8566 24.2806 42.2532 23.9408C41.6556 23.601 40.9467 23.4311 40.1265 23.4311C39.5231 23.4311 38.9753 23.5161 38.4832 23.686C37.997 23.8559 37.5722 24.099 37.209 24.4154C36.8458 24.7259 36.5645 25.1008 36.3654 25.5402C36.172 25.9796 36.0754 26.4688 36.0754 27.0078C36.0754 27.5585 36.1779 28.0389 36.3829 28.449C36.5938 28.8532 36.878 29.2047 37.2353 29.5035C37.5927 29.8023 37.994 30.0659 38.4393 30.2944C38.8845 30.517 39.3444 30.7279 39.819 30.9271C40.2173 31.097 40.5396 31.261 40.7856 31.4192C41.0375 31.5774 41.2279 31.7356 41.3568 31.8938C41.4916 32.0519 41.5794 32.2248 41.6204 32.4122Z" fill="#125DE6"/>
</svg>
