<svg width="60" height="60" viewBox="0 0 60 60" fill="none" xmlns="http://www.w3.org/2000/svg">
<path fill-rule="evenodd" clip-rule="evenodd" d="M56.7241 30.4903C56.8953 30.1859 56.8953 29.8142 56.7241 29.5097L43.7866 6.50974C43.6095 6.19486 43.2763 6 42.915 6H17.0847C16.7234 6 16.3903 6.19486 16.2131 6.50974L3.27564 29.5097C3.10441 29.8142 3.10441 30.1858 3.27564 30.4903L16.2131 53.4903C16.3903 53.8051 16.7234 54 17.0847 54H42.915C43.2763 54 43.6095 53.8051 43.7866 53.4903L56.7241 30.4903ZM19.8709 22.6688L30.0053 28.6674L40.2154 22.7194L29.9995 16.8L19.8709 22.6688ZM41.9991 25.1749L31.601 31.2324V43.684L41.9991 37.6589V25.1749ZM17.9999 25.07L28.601 31.3446V43.8015L17.9999 37.6589V25.07Z" fill="#125DE6"/>
</svg>
