<svg width="60" height="60" viewBox="0 0 60 60" fill="none" xmlns="http://www.w3.org/2000/svg">
<path fill-rule="evenodd" clip-rule="evenodd" d="M56.7243 30.4903C56.8956 30.1859 56.8956 29.8142 56.7243 29.5097L43.7868 6.50974C43.6097 6.19486 43.2765 6 42.9153 6H17.085C16.7237 6 16.3905 6.19486 16.2134 6.50974L3.27589 29.5097C3.10465 29.8142 3.10465 30.1858 3.27589 30.4903L16.2134 53.4903C16.3905 53.8051 16.7237 54 17.085 54H42.9153C43.2765 54 43.6097 53.8051 43.7868 53.4903L56.7243 30.4903ZM23.1819 18.6932V25.983L29.1534 29.4401V22.1408L23.1819 18.6932ZM36.8183 25.983L30.8675 29.4282V22.1456L36.8183 18.7099V25.983ZM35.6442 17.4085L30.0146 20.6587L24.3705 17.4001L30.0001 14.1409L35.6442 17.4085ZM15.0001 33.0523V40.3421L20.9716 43.7993V36.5L15.0001 33.0523ZM28.6365 40.3421L22.6857 43.7873V36.5048L28.6365 33.0691V40.3421ZM27.4624 31.7676L21.8328 35.0179L16.1887 31.7593L21.8183 28.5L27.4624 31.7676ZM38.1683 28.5L43.8124 31.7676L38.1828 35.0179L32.5387 31.7593L38.1683 28.5ZM31.3501 40.3421V33.0523L37.3216 36.5V43.7993L31.3501 40.3421ZM39.0357 43.7873L44.9865 40.3421V33.0691L39.0357 36.5048V43.7873Z" fill="#125DE6"/>
</svg>
