<svg width="60" height="60" viewBox="0 0 60 60" fill="none" xmlns="http://www.w3.org/2000/svg">
<path fill-rule="evenodd" clip-rule="evenodd" d="M3 7.5C3 5.01472 5.01472 3 7.5 3C9.98528 3 12 5.01472 12 7.5C12 8.19466 11.8426 8.85256 11.5615 9.43997L14.1232 12.0016C18.3542 8.26648 23.9124 6 30 6C36.0859 6 41.6427 8.26525 45.8734 11.9986L48.4364 9.43557C48.1566 8.84927 48 8.19292 48 7.5C48 5.01472 50.0147 3 52.5 3C54.9853 3 57 5.01472 57 7.5C57 9.98528 54.9853 12 52.5 12C51.8035 12 51.1439 11.8418 50.5553 11.5593L47.9951 14.1195C51.7322 18.351 54 23.9107 54 30C54 36.0891 51.7324 41.6485 47.9956 45.8799L50.5561 48.4404C51.1445 48.1581 51.8038 48 52.5 48C54.9853 48 57 50.0147 57 52.5C57 54.9853 54.9853 57 52.5 57C50.0147 57 48 54.9853 48 52.5C48 51.8068 48.1567 51.1502 48.4367 50.5637L45.8739 48.0009C41.6433 51.7345 36.0862 54 30 54C23.9104 54 18.3505 51.732 14.1189 47.9946L11.5589 50.5546C11.8416 51.1434 12 51.8032 12 52.5C12 54.9853 9.98528 57 7.5 57C5.01472 57 3 54.9853 3 52.5C3 50.0147 5.01472 48 7.5 48C8.19263 48 8.84871 48.1565 9.43482 48.436L11.9981 45.8728C8.26504 41.6422 6 36.0856 6 30C6 23.9123 8.26657 18.354 12.0019 14.1229L9.44028 11.5614C8.85279 11.8425 8.19478 12 7.5 12C5.01472 12 3 9.98528 3 7.5ZM10.7999 30.0003C10.7999 19.3964 19.3961 10.8003 29.9999 10.8003C40.6038 10.8003 49.1999 19.3964 49.1999 30.0003C49.1999 40.6042 40.6038 49.2003 29.9999 49.2003C19.3961 49.2003 10.7999 40.6042 10.7999 30.0003ZM43.5 30C43.5 22.5442 37.4558 16.5 30 16.5C22.5442 16.5 16.5 22.5442 16.5 30C16.5 37.4558 22.5442 43.5 30 43.5C37.4558 43.5 43.5 37.4558 43.5 30ZM40.2584 32.25C40.4166 31.5251 40.5 30.7723 40.5 30C40.5 29.2277 40.4166 28.4749 40.2584 27.75H36.6567C36.718 28.4817 36.75 29.2334 36.75 30C36.75 30.7666 36.718 31.5183 36.6567 32.25H40.2584ZM39.0953 35.25H36.2206C35.9025 36.7558 35.4517 38.1221 34.8975 39.2903C36.6483 38.3654 38.106 36.9602 39.0953 35.25ZM33.6394 32.25C33.7121 31.5197 33.75 30.7669 33.75 30C33.75 29.2331 33.7121 28.4803 33.6394 27.75H26.3606C26.2879 28.4803 26.25 29.2331 26.25 30C26.25 30.7669 26.2879 31.5197 26.3606 32.25H33.6394ZM26.8846 35.25H33.1154C32.8175 36.4057 32.4229 37.45 31.9492 38.3342C31.1213 39.8797 30.3356 40.5 30 40.5C29.6644 40.5 28.8787 39.8797 28.0508 38.3342C27.5771 37.45 27.1825 36.4057 26.8846 35.25ZM23.3433 32.25C23.2819 31.5183 23.25 30.7666 23.25 30C23.25 29.2334 23.2819 28.4817 23.3433 27.75H19.7416C19.5834 28.4749 19.5 29.2277 19.5 30C19.5 30.7723 19.5834 31.5251 19.7416 32.25H23.3433ZM20.9047 35.25H23.7794C24.0975 36.7558 24.5483 38.1221 25.1025 39.2903C23.3517 38.3654 21.894 36.9602 20.9047 35.25ZM34.8975 20.7097C36.6483 21.6346 38.106 23.0398 39.0953 24.75H36.2206C35.9025 23.2442 35.4517 21.8779 34.8975 20.7097ZM31.9492 21.6658C32.4229 22.55 32.8175 23.5943 33.1154 24.75H26.8846C27.1825 23.5943 27.5771 22.55 28.0508 21.6658C28.8787 20.1203 29.6644 19.5 30 19.5C30.3356 19.5 31.1213 20.1203 31.9492 21.6658ZM25.1025 20.7097C24.5483 21.8779 24.0975 23.2442 23.7794 24.75H20.9047C21.894 23.0398 23.3517 21.6346 25.1025 20.7097Z" fill="#125DE6"/>
</svg>
