<svg width="60" height="60" viewBox="0 0 60 60" fill="none" xmlns="http://www.w3.org/2000/svg">
<path fill-rule="evenodd" clip-rule="evenodd" d="M3 7.5C3 5.01472 5.01472 3 7.5 3C9.98528 3 12 5.01472 12 7.5C12 8.19463 11.8426 8.8525 11.5616 9.43989L14.1233 12.0016C18.3543 8.26646 23.9125 6 30 6C36.0859 6 41.6427 8.26525 45.8733 11.9986L48.4364 9.43555C48.1566 8.84926 48 8.19292 48 7.5C48 5.01472 50.0147 3 52.5 3C54.9853 3 57 5.01472 57 7.5C57 9.98528 54.9853 12 52.5 12C51.8035 12 51.1439 11.8418 50.5553 11.5593L47.9951 14.1195C51.7322 18.351 54 23.9107 54 30C54 36.089 51.7324 41.6484 47.9957 45.8799L50.5561 48.4403C51.1445 48.1581 51.8038 48 52.5 48C54.9853 48 57 50.0147 57 52.5C57 54.9853 54.9853 57 52.5 57C50.0147 57 48 54.9853 48 52.5C48 51.8068 48.1568 51.1501 48.4368 50.5636L45.874 48.0008C41.6433 51.7345 36.0862 54 30 54C23.9104 54 18.3505 51.732 14.1189 47.9946L11.5589 50.5546C11.8416 51.1434 12 51.8032 12 52.5C12 54.9853 9.98528 57 7.5 57C5.01472 57 3 54.9853 3 52.5C3 50.0147 5.01472 48 7.5 48C8.19265 48 8.84875 48.1565 9.43487 48.436L11.9981 45.8728C8.26506 41.6423 6 36.0857 6 30C6 23.9123 8.26659 18.354 12.0019 14.1229L9.44035 11.5613C8.85284 11.8425 8.19481 12 7.5 12C5.01472 12 3 9.98528 3 7.5ZM30 10.8003C19.3961 10.8003 10.8 19.3964 10.8 30.0003C10.8 40.6042 19.3961 49.2003 30 49.2003C40.6039 49.2003 49.2 40.6042 49.2 30.0003C49.2 19.3964 40.6039 10.8003 30 10.8003ZM39.9163 20.0836C37.1384 17.3057 32.6183 17.3053 29.84 20.0836L26.69 23.2336C26.6844 23.2392 26.6783 23.2453 26.6732 23.2509C23.9279 26.0115 23.8894 30.5063 26.69 33.3098C26.9864 33.6062 27.3083 33.8759 27.652 34.1159C27.9521 34.3253 28.3581 34.2935 28.6168 34.0347L29.6037 33.0478C29.9951 32.6564 30.1706 32.146 30.1521 31.6506C30.143 31.4133 30.0222 31.1942 29.8264 31.0597C29.6899 30.9657 29.5152 30.8312 29.3417 30.6581C28.0258 29.3421 28.0203 27.2062 29.3417 25.8848L32.4917 22.7352C33.8154 21.4115 35.9745 21.4195 37.2882 22.7591C38.589 24.0857 38.5478 26.2248 37.2341 27.5385L36.6206 28.152C36.4167 28.3559 36.3502 28.6578 36.4433 28.9307C36.7181 29.7366 36.8671 30.5712 36.8975 31.402C36.9213 32.0538 37.7156 32.3604 38.1769 31.8991L39.9162 30.1598C42.6946 27.382 42.6946 22.8614 39.9163 20.0836ZM33.31 26.6905C36.1106 29.4941 36.0722 33.9888 33.3268 36.7494C33.3217 36.755 33.3156 36.7611 33.31 36.7668L30.16 39.9168C27.3817 42.695 22.8616 42.6947 20.0837 39.9168C17.3054 37.1389 17.3054 32.6183 20.0837 29.8405L21.8231 28.1012C22.2843 27.6399 23.0786 27.9465 23.1025 28.5983C23.1328 29.429 23.2818 30.2636 23.5567 31.0696C23.6498 31.3425 23.5833 31.6444 23.3794 31.8483L22.7659 32.4618C21.4522 33.7755 21.411 35.9146 22.7118 37.2411C24.0254 38.5808 26.1845 38.5887 27.5082 37.265L30.6582 34.1155C31.9797 32.7941 31.9742 30.6581 30.6582 29.3422C30.4848 29.1691 30.31 29.0345 30.1735 28.9405C29.9777 28.8061 29.857 28.587 29.8479 28.3496C29.8293 27.8543 30.0048 27.3439 30.3962 26.9525L31.3831 25.9655C31.6419 25.7067 32.0479 25.675 32.348 25.8844C32.6917 26.1244 33.0136 26.3941 33.31 26.6905Z" fill="#125DE6"/>
</svg>
