<svg width="60" height="60" viewBox="0 0 60 60" fill="none" xmlns="http://www.w3.org/2000/svg">
<path fill-rule="evenodd" clip-rule="evenodd" d="M52 3C49.7909 3 48 4.79086 48 7V8C48 10.2091 49.7909 12 52 12H53C55.2091 12 57 10.2091 57 8V7C57 4.79086 55.2091 3 53 3H52ZM7 48C4.79086 48 3 49.7909 3 52V53C3 55.2091 4.79086 57 7 57H8C10.2091 57 12 55.2091 12 53V52C12 49.7909 10.2091 48 8 48H7Z" fill="#125DE6"/>
<path fill-rule="evenodd" clip-rule="evenodd" d="M57 52C57 49.7909 55.2091 48 53 48L52 48C49.7909 48 48 49.7909 48 52L48 53C48 55.2091 49.7909 57 52 57L53 57C55.2091 57 57 55.2091 57 53L57 52ZM12 7C12 4.79086 10.2091 3 8 3L7 3C4.79086 3 3 4.79086 3 7L3 8C3 10.2091 4.79086 12 7 12L8 12C10.2091 12 12 10.2091 12 8L12 7Z" fill="#125DE6"/>
<path fill-rule="evenodd" clip-rule="evenodd" d="M40.5 30C40.5 35.799 35.799 40.5 30 40.5C24.201 40.5 19.5 35.799 19.5 30C19.5 24.201 24.201 19.5 30 19.5C35.799 19.5 40.5 24.201 40.5 30ZM30 37.5C34.1421 37.5 37.5 34.1421 37.5 30C37.5 25.8579 34.1421 22.5 30 22.5C25.8579 22.5 22.5 25.8579 22.5 30C22.5 34.1421 25.8579 37.5 30 37.5Z" fill="#125DE6"/>
<path fill-rule="evenodd" clip-rule="evenodd" d="M51.1835 53.3086L53.3048 51.1872L36.2576 34.1362C35.7003 34.9777 34.9778 35.7002 34.1364 36.2576L51.1835 53.3086ZM23.7437 25.8626C24.3012 25.0213 25.024 24.299 25.8656 23.7419L8.12132 5.99365L6 8.11497L23.7437 25.8626Z" fill="#125DE6"/>
<path fill-rule="evenodd" clip-rule="evenodd" d="M53.3083 8.81614L51.187 6.69482L34.1359 23.7421C34.9774 24.2994 35.7 25.0219 36.2574 25.8633L53.3083 8.81614ZM25.8624 36.256C25.0211 35.6984 24.2987 34.9757 23.7416 34.1341L5.99341 51.8783L8.11473 53.9997L25.8624 36.256Z" fill="#125DE6"/>
<path fill-rule="evenodd" clip-rule="evenodd" d="M54 30C54 16.7452 43.2548 6 30 6C16.7452 6 6 16.7452 6 30C6 43.2548 16.7452 54 30 54C43.2548 54 54 43.2548 54 30ZM10.8 30C10.8 19.3961 19.3961 10.8 30 10.8C40.6039 10.8 49.2 19.3961 49.2 30C49.2 40.6039 40.6039 49.2 30 49.2C19.3961 49.2 10.8 40.6039 10.8 30Z" fill="#125DE6"/>
</svg>
