<svg width="60" height="60" viewBox="0 0 60 60" fill="none" xmlns="http://www.w3.org/2000/svg">
<path fill-rule="evenodd" clip-rule="evenodd" d="M30.0116 54C21.8034 54 14.5576 49.8794 10.23 43.5939L12.0116 43L14.7173 42.0981C18.289 46.6073 23.8125 49.5 30.0116 49.5C36.2108 49.5 41.7343 46.6073 45.306 42.0981L48.0116 43L49.7933 43.5939C45.4657 49.8794 38.2199 54 30.0116 54ZM30.0116 10.5C36.2108 10.5 41.7343 13.3927 45.306 17.9019L48.0116 17L49.7933 16.4061C45.4657 10.1206 38.2199 6 30.0116 6C21.8034 6 14.5576 10.1206 10.23 16.4061L12.0116 17L14.7173 17.9019C18.289 13.3927 23.8125 10.5 30.0116 10.5ZM18.0116 21H12.0116V39H18.0116C19.6685 39 21.0116 37.6569 21.0116 36V24C21.0116 22.3431 19.6685 21 18.0116 21ZM15.0116 36V24H18.0116V36H15.0116ZM51.0116 21H48.0116V24H45.0116V21H39.0116C37.3548 21 36.0116 22.3431 36.0116 24V28.5C36.0116 30.1569 37.3548 31.5 39.0116 31.5H42.0116V36H36.0116V39H42.0116C43.6685 39 45.0116 37.6569 45.0116 36V31.5C45.0116 29.8431 43.6685 28.5 42.0116 28.5H39.0116V24H45.0116V27H48.0116V30H51.0116V27H54.0116V24H51.0116V21ZM24.0116 39V21H27.0116L30.0116 30V21H33.0116V39H30.0116L27.0116 30V39H24.0116Z" fill="#125DE6"/>
</svg>
