<svg width="60" height="60" viewBox="0 0 60 60" fill="none" xmlns="http://www.w3.org/2000/svg">
<path fill-rule="evenodd" clip-rule="evenodd" d="M14.1973 33C13.1599 34.7934 11.2208 36 9 36C5.68629 36 3 33.3137 3 30C3 26.6863 5.68629 24 9 24C11.2208 24 13.1599 25.2066 14.1973 27H21V33H14.1973ZM45.8027 33C46.8401 34.7934 48.7792 36 51 36C54.3137 36 57 33.3137 57 30C57 26.6863 54.3137 24 51 24C48.7792 24 46.8401 25.2066 45.8027 27H39V33H45.8027Z" fill="#125DE6"/>
<path fill-rule="evenodd" clip-rule="evenodd" d="M27 14.1973C25.2066 13.1599 24 11.2208 24 9C24 5.68629 26.6863 3 30 3C33.3137 3 36 5.68629 36 9C36 11.2208 34.7934 13.1599 33 14.1973V21H27L27 14.1973ZM27 45.8027C25.2066 46.8401 24 48.7792 24 51C24 54.3137 26.6863 57 30 57C33.3137 57 36 54.3137 36 51C36 48.7792 34.7934 46.8401 33 45.8027V39H27V45.8027Z" fill="#125DE6"/>
<path fill-rule="evenodd" clip-rule="evenodd" d="M30 42C36.6274 42 42 36.6274 42 30C42 23.3726 36.6274 18 30 18C23.3726 18 18 23.3726 18 30C18 36.6274 23.3726 42 30 42ZM34.5 28.5C34.5 30.4593 33.2478 32.1262 31.5 32.7439V36H28.5V32.7439C26.7522 32.1262 25.5 30.4593 25.5 28.5C25.5 26.0147 27.5147 24 30 24C32.4853 24 34.5 26.0147 34.5 28.5Z" fill="#125DE6"/>
</svg>
