<svg width="60" height="60" viewBox="0 0 60 60" fill="none" xmlns="http://www.w3.org/2000/svg">
<path fill-rule="evenodd" clip-rule="evenodd" d="M3 7.5C3 5.01472 5.01472 3 7.5 3C9.98528 3 12 5.01472 12 7.5C12 8.19461 11.8426 8.85246 11.5616 9.43985L14.1233 12.0016C18.3543 8.26645 23.9125 6 30 6C36.0859 6 41.6428 8.26525 45.8734 11.9986L48.4364 9.43557C48.1566 8.84927 48 8.19293 48 7.5C48 5.01472 50.0147 3 52.5 3C54.9853 3 57 5.01472 57 7.5C57 9.98528 54.9853 12 52.5 12C51.8035 12 51.1439 11.8418 50.5553 11.5593L47.9951 14.1195C51.7322 18.351 54 23.9107 54 30C54 36.089 51.7324 41.6485 47.9957 45.8799L50.5561 48.4404C51.1445 48.1581 51.8038 48 52.5 48C54.9853 48 57 50.0147 57 52.5C57 54.9853 54.9853 57 52.5 57C50.0147 57 48 54.9853 48 52.5C48 51.8068 48.1568 51.1501 48.4368 50.5636L45.874 48.0009C41.6433 51.7345 36.0862 54 30 54C23.9104 54 18.3505 51.732 14.1189 47.9946L11.5589 50.5546C11.8416 51.1434 12 51.8032 12 52.5C12 54.9853 9.98528 57 7.5 57C5.01472 57 3 54.9853 3 52.5C3 50.0147 5.01472 48 7.5 48C8.19263 48 8.84872 48.1565 9.43482 48.436L11.9981 45.8728C8.26504 41.6422 6 36.0856 6 30C6 23.9123 8.26661 18.3539 12.0019 14.1229L9.4404 11.5613C8.85288 11.8425 8.19483 12 7.5 12C5.01472 12 3 9.98528 3 7.5ZM10.7999 30.0003C10.7999 19.3964 19.3961 10.8003 29.9999 10.8003C40.6038 10.8003 49.1999 19.3964 49.1999 30.0003C49.1999 40.6042 40.6038 49.2003 29.9999 49.2003C19.3961 49.2003 10.7999 40.6042 10.7999 30.0003Z" fill="#125DE6"/>
<rect x="36.75" y="26.25" width="7.5" height="7.5" rx="3.75" stroke="#125DE6" stroke-width="3"/>
<path d="M31.5 30.0591C32.805 30.0197 35.125 29.9803 36.43 29.9409" stroke="#125DE6" stroke-width="3"/>
<rect x="18" y="20.25" width="7.5" height="7.5" rx="3.75" stroke="#125DE6" stroke-width="3"/>
<rect x="18" y="32.25" width="7.5" height="7.5" rx="3.75" stroke="#125DE6" stroke-width="3"/>
<mask id="mask0_4494_45932" style="mask-type:luminance" maskUnits="userSpaceOnUse" x="25" y="19" width="10" height="20">
<rect x="25.5" y="19.5" width="9" height="19.5" fill="white"/>
</mask>
<g mask="url(#mask0_4494_45932)">
<rect x="18" y="24" width="13.5" height="12" rx="1.5" stroke="#125DE6" stroke-width="3"/>
</g>
</svg>
