<svg width="60" height="60" viewBox="0 0 60 60" fill="none" xmlns="http://www.w3.org/2000/svg">
<path fill-rule="evenodd" clip-rule="evenodd" d="M3 7.5C3 5.01472 5.01472 3 7.5 3C9.98528 3 12 5.01472 12 7.5C12 8.19461 11.8426 8.85246 11.5616 9.43985L14.1233 12.0016C18.3543 8.26645 23.9125 6 30 6C36.0859 6 41.6427 8.26525 45.8734 11.9986L48.4364 9.43557C48.1566 8.84927 48 8.19292 48 7.5C48 5.01472 50.0147 3 52.5 3C54.9853 3 57 5.01472 57 7.5C57 9.98528 54.9853 12 52.5 12C51.8035 12 51.1439 11.8418 50.5553 11.5593L47.9951 14.1195C51.7322 18.351 54 23.9107 54 30C54 36.089 51.7324 41.6484 47.9957 45.8798L50.5562 48.4403C51.1446 48.1581 51.8038 48 52.5 48C54.9853 48 57 50.0147 57 52.5C57 54.9853 54.9853 57 52.5 57C50.0147 57 48 54.9853 48 52.5C48 51.8067 48.1568 51.1501 48.4368 50.5636L45.874 48.0008C41.6433 51.7345 36.0862 54 30 54C23.9104 54 18.3505 51.732 14.1189 47.9946L11.5589 50.5546C11.8416 51.1434 12 51.8032 12 52.5C12 54.9853 9.98528 57 7.5 57C5.01472 57 3 54.9853 3 52.5C3 50.0147 5.01472 48 7.5 48C8.19263 48 8.84871 48.1565 9.43482 48.436L11.9981 45.8728C8.26504 41.6422 6 36.0856 6 30C6 23.9123 8.2666 18.3539 12.0019 14.1229L9.4404 11.5613C8.85288 11.8425 8.19483 12 7.5 12C5.01472 12 3 9.98528 3 7.5ZM29.9999 10.8003C19.3961 10.8003 10.7999 19.3964 10.7999 30.0003C10.7999 40.6042 19.3961 49.2003 29.9999 49.2003C40.6038 49.2003 49.1999 40.6042 49.1999 30.0003C49.1999 19.3964 40.6038 10.8003 29.9999 10.8003ZM34.0396 21.671C33.4538 21.0852 33.4538 20.1355 34.0396 19.5497C34.6253 18.9639 35.5751 18.9639 36.1609 19.5497L40.3897 23.7785L40.4035 23.7922C40.6976 24.0862 40.844 24.472 40.8428 24.8574C40.8417 25.2398 40.6953 25.6219 40.4035 25.9137L40.3897 25.9273L36.1609 30.1561C35.5751 30.7419 34.6253 30.7419 34.0396 30.1561C33.4538 29.5703 33.4538 28.6206 34.0396 28.0348L35.7211 26.3533H21.0001C20.1717 26.3533 19.5001 25.6817 19.5001 24.8533C19.5001 24.0248 20.1717 23.3533 21.0001 23.3533H35.7218L34.0396 21.671ZM26.3033 40.4466C26.8891 39.8609 26.8891 38.9111 26.3033 38.3253L24.621 36.6431H39.3427C40.1711 36.6431 40.8427 35.9715 40.8427 35.1431C40.8427 34.3146 40.1712 33.6431 39.3427 33.6431H24.6218L26.3033 31.9615C26.8891 31.3758 26.8891 30.426 26.3033 29.8402C25.7175 29.2544 24.7678 29.2544 24.182 29.8402L19.9532 34.069L19.9393 34.0827C19.6476 34.3745 19.5011 34.7565 19.5 35.1389C19.4988 35.5243 19.6453 35.9101 19.9393 36.2042L19.9531 36.2178L24.182 40.4466C24.7678 41.0324 25.7175 41.0324 26.3033 40.4466Z" fill="#125DE6"/>
</svg>
