<svg width="60" height="60" viewBox="0 0 60 60" fill="none" xmlns="http://www.w3.org/2000/svg">
<path fill-rule="evenodd" clip-rule="evenodd" d="M33 42H54V57H33V42Z" fill="#125DE6"/>
<path fill-rule="evenodd" clip-rule="evenodd" d="M42 33C38.6863 33 36 35.6863 36 39V45H39V39C39 37.3431 40.3431 36 42 36H45C46.6569 36 48 37.3431 48 39V45H51V39C51 35.6863 48.3137 33 45 33H42Z" fill="#125DE6"/>
<path fill-rule="evenodd" clip-rule="evenodd" d="M7.2301 40.5939C11.5577 46.8794 18.8035 51 27.0118 51C28.0237 51 29.021 50.9374 30 50.8158V46.2725C29.0258 46.4223 28.0279 46.5 27.0118 46.5C20.8126 46.5 15.2891 43.6073 11.7174 39.0981L7.2301 40.5939ZM39.0117 30.508V28.5C39.0117 26.8431 37.6686 25.5 36.0117 25.5H33.0117V21H39.0117V18H33.0117C31.3549 18 30.0117 19.3431 30.0117 21V25.5C30.0117 27.1569 31.3549 28.5 33.0117 28.5H36.0117V32.2812C36.8778 31.5087 37.8943 30.9012 39.0117 30.508ZM35.2917 33C34.5169 33.8656 33.9072 34.8821 33.5121 36H30.0117V33H35.2917ZM42.3061 14.9019C38.7344 10.3927 33.2109 7.5 27.0118 7.5C20.8126 7.5 15.2891 10.3927 11.7174 14.9019L7.2301 13.4061C11.5577 7.12062 18.8035 3 27.0118 3C35.22 3 42.4658 7.12062 46.7934 13.4061L42.3061 14.9019ZM12.0117 18H6.01172V36H12.0117C13.6686 36 15.0117 34.6569 15.0117 33V21C15.0117 19.3431 13.6686 18 12.0117 18ZM9.01172 33V21H12.0117V33H9.01172ZM18.0117 18V36H21.0117V27L24.0117 36H27.0117V18H24.0117V27L21.0117 18H18.0117Z" fill="#125DE6"/>
</svg>
