<svg width="60" height="60" viewBox="0 0 60 60" fill="none" xmlns="http://www.w3.org/2000/svg">
<path fill-rule="evenodd" clip-rule="evenodd" d="M3 7.5C3 5.01472 5.01472 3 7.5 3C9.98528 3 12 5.01472 12 7.5C12 8.19463 11.8426 8.85251 11.5615 9.43991L14.1232 12.0016C18.3543 8.26647 23.9125 6 30 6C36.0859 6 41.6427 8.26525 45.8734 11.9986L48.4364 9.43557C48.1566 8.84927 48 8.19292 48 7.5C48 5.01472 50.0147 3 52.5 3C54.9853 3 57 5.01472 57 7.5C57 9.98528 54.9853 12 52.5 12C51.8035 12 51.1439 11.8418 50.5553 11.5593L47.9951 14.1195C51.7322 18.351 54 23.9107 54 30C54 36.089 51.7324 41.6485 47.9957 45.8799L50.5561 48.4404C51.1445 48.1581 51.8038 48 52.5 48C54.9853 48 57 50.0147 57 52.5C57 54.9853 54.9853 57 52.5 57C50.0147 57 48 54.9853 48 52.5C48 51.8068 48.1568 51.1501 48.4368 50.5636L45.874 48.0008C41.6433 51.7345 36.0862 54 30 54C23.9104 54 18.3505 51.732 14.119 47.9946L11.5589 50.5546C11.8416 51.1434 12 51.8032 12 52.5C12 54.9853 9.98528 57 7.5 57C5.01472 57 3 54.9853 3 52.5C3 50.0147 5.01472 48 7.5 48C8.19266 48 8.84876 48.1565 9.43489 48.4361L11.9981 45.8728C8.26506 41.6423 6 36.0857 6 30C6 23.9123 8.26659 18.354 12.0019 14.1229L9.44034 11.5613C8.85283 11.8425 8.1948 12 7.5 12C5.01472 12 3 9.98528 3 7.5ZM30 10.8003C19.3962 10.8003 10.8 19.3964 10.8 30.0003C10.8 40.6042 19.3962 49.2003 30 49.2003C40.6039 49.2003 49.2 40.6042 49.2 30.0003C49.2 19.3964 40.6039 10.8003 30 10.8003ZM36 23C36 19.4101 33.3137 16.5 30 16.5C26.6863 16.5 24 19.4101 24 23V27.7002H21.75C20.9216 27.7002 20.25 28.3718 20.25 29.2002V39.0002C20.25 39.8286 20.9216 40.5002 21.75 40.5002H38.25C39.0784 40.5002 39.75 39.8286 39.75 39.0002V29.2002C39.75 28.3718 39.0784 27.7002 38.25 27.7002H36V23ZM27 22.875V27.7002H33V22.875C33 21.011 31.6569 19.5 30 19.5C28.4185 19.5 27.1228 20.8768 27.0082 22.6231L27 22.875Z" fill="#125DE6"/>
</svg>
