<svg width="48" height="48" viewBox="0 0 48 48" fill="none" xmlns="http://www.w3.org/2000/svg">
<path d="M2 5C2 3.34315 3.34315 2 5 2H43C44.6569 2 46 3.34315 46 5V43C46 44.6569 44.6569 46 43 46H5C3.34315 46 2 44.6569 2 43V5Z" fill="#6B9DF8"/>
<path d="M11.3223 10.3906C11.2832 10.1335 11.1937 9.91048 11.0537 9.72168C10.9137 9.52962 10.7347 9.38314 10.5166 9.28223C10.2985 9.18132 10.0527 9.13086 9.7793 9.13086C9.41146 9.13086 9.08919 9.22363 8.8125 9.40918C8.53906 9.59147 8.32747 9.8584 8.17773 10.21C8.02799 10.5583 7.95312 10.9766 7.95312 11.4648C7.95312 11.9629 8.02799 12.3877 8.17773 12.7393C8.32747 13.0876 8.53906 13.3512 8.8125 13.5303C9.08594 13.7093 9.40495 13.7988 9.76953 13.7988C10.1764 13.7988 10.5182 13.6914 10.7949 13.4766C11.0749 13.2617 11.2507 12.9655 11.3223 12.5879L12.8066 12.5977C12.7513 13.0436 12.5934 13.457 12.333 13.8379C12.0726 14.2188 11.721 14.5247 11.2783 14.7559C10.8356 14.9837 10.3262 15.0977 9.75 15.0977C9.11523 15.0977 8.54883 14.9544 8.05078 14.668C7.55273 14.3783 7.16211 13.96 6.87891 13.4131C6.59896 12.8662 6.45898 12.2168 6.45898 11.4648C6.45898 10.7161 6.60059 10.0684 6.88379 9.52148C7.17025 8.97135 7.5625 8.55306 8.06055 8.2666C8.56185 7.97689 9.125 7.83203 9.75 7.83203C10.2936 7.83203 10.7852 7.93294 11.2246 8.13477C11.6641 8.33659 12.0205 8.63118 12.2939 9.01855C12.5706 9.40267 12.7415 9.86003 12.8066 10.3906H11.3223ZM13.3047 15L15.7559 7.92969H17.6406L20.082 15H18.5098L17.9775 13.3691H15.4189L14.8867 15H13.3047ZM17.6064 12.2266L16.7227 9.52148H16.6738L15.79 12.2266H17.6064ZM25.2773 10.3906C25.2383 10.1335 25.1488 9.91048 25.0088 9.72168C24.8688 9.52962 24.6898 9.38314 24.4717 9.28223C24.2536 9.18132 24.0078 9.13086 23.7344 9.13086C23.3665 9.13086 23.0443 9.22363 22.7676 9.40918C22.4941 9.59147 22.2826 9.8584 22.1328 10.21C21.9831 10.5583 21.9082 10.9766 21.9082 11.4648C21.9082 11.9629 21.9831 12.3877 22.1328 12.7393C22.2826 13.0876 22.4941 13.3512 22.7676 13.5303C23.041 13.7093 23.36 13.7988 23.7246 13.7988C24.1315 13.7988 24.4733 13.6914 24.75 13.4766C25.0299 13.2617 25.2057 12.9655 25.2773 12.5879L26.7617 12.5977C26.7064 13.0436 26.5485 13.457 26.2881 13.8379C26.0277 14.2188 25.6761 14.5247 25.2334 14.7559C24.7907 14.9837 24.2812 15.0977 23.7051 15.0977C23.0703 15.0977 22.5039 14.9544 22.0059 14.668C21.5078 14.3783 21.1172 13.96 20.834 13.4131C20.554 12.8662 20.4141 12.2168 20.4141 11.4648C20.4141 10.7161 20.5557 10.0684 20.8389 9.52148C21.1253 8.97135 21.5176 8.55306 22.0156 8.2666C22.5169 7.97689 23.0801 7.83203 23.7051 7.83203C24.2487 7.83203 24.7402 7.93294 25.1797 8.13477C25.6191 8.33659 25.9756 8.63118 26.249 9.01855C26.5257 9.40267 26.6966 9.86003 26.7617 10.3906H25.2773ZM27.7871 7.92969H29.252V10.8594H32.3184V7.92969H33.793V15H32.3184V12.0703H29.252V15H27.7871V7.92969ZM34.9844 7.92969H39.7305V9.14062H36.4492V10.8594H39.4863V12.0703H36.4492V13.7891H39.7402V15H34.9844V7.92969Z" fill="white"/>
</svg>
