<svg width="60" height="60" viewBox="0 0 60 60" fill="none" xmlns="http://www.w3.org/2000/svg">
<path fill-rule="evenodd" clip-rule="evenodd" d="M27 9C34.8411 9 41.5111 14.0136 43.9793 21.01L43.5 21C50.9558 21 57 27.0442 57 34.5C57 41.9558 50.9558 48 43.5 48H13.5C7.70101 48 3 43.299 3 37.5C3 33.2996 5.46644 29.6752 9.03006 27.9962C9.00917 27.6686 9 27.3354 9 27C9 17.0589 17.0589 9 27 9ZM40.5 24H20.7123L19.5 29.9922H39.3L40.5 24ZM33.4651 30H25.3651L21.75 48H29.8367L33.4651 30Z" fill="#125DE6"/>
</svg>
