<svg width="60" height="60" viewBox="0 0 60 60" fill="none" xmlns="http://www.w3.org/2000/svg">
<path d="M45.7548 17.2478C44.8339 17.2983 43.9583 17.2695 43.1101 17.4069C40.399 17.8463 39.0316 19.7191 39.2897 22.4928C39.463 24.3567 40.0288 26.1097 40.8525 27.7635C42.0093 30.0858 43.2564 32.363 44.4881 34.6467C44.7235 35.0834 45.0649 35.4625 45.3726 35.889C45.0366 36.0988 44.7111 36.2579 44.4376 36.4809C43.651 37.1229 43.4112 38.0052 43.2981 38.9828C42.833 43.005 42.7111 46.383 41.8204 51.0397C40.9297 55.6964 37.5654 55.8511 35.6785 55.8626C33.7915 55.8741 32.8063 55.0863 31.9937 53.3616C31.4315 52.1681 31.3206 50.8934 31.286 49.6263C31.1938 46.2695 31.134 42.9097 31.1632 39.5526C31.1774 37.9427 30.163 35.8895 28.0016 35.8642C27.9564 35.8638 27.9116 35.8429 27.7861 35.8115C28.1572 34.8476 28.4498 33.8615 28.9012 32.9549C30.566 29.6114 30.7088 26.1115 30.0624 22.5247C29.901 21.6304 29.7289 20.714 29.3805 19.8836C28.7562 18.3965 27.5117 17.6849 25.928 17.5599C24.1962 17.4233 22.5903 17.8995 21.0346 18.6009C20.9352 18.6457 20.8359 18.6905 20.5876 18.8022C20.8718 17.4748 21.0864 16.2431 21.4052 15.0389C21.8433 13.3838 22.5385 11.8316 23.5706 10.4523C25.3006 8.14106 27.6633 6.98166 30.5053 6.86771C35.3991 6.6713 39.4271 8.51614 42.6566 12.1828C43.8767 13.5678 44.8286 15.1085 45.5739 16.7867C45.6431 16.9418 45.6985 17.1032 45.7544 17.2473L45.7548 17.2478Z" fill="#125DE6"/>
<path d="M22.9206 7.97711C20.075 10.9853 18.9892 14.6817 18.6412 18.6245C18.474 20.5155 18.6403 22.4343 18.6 24.339C18.5729 25.6133 18.4838 26.8893 18.361 28.1586C18.1012 30.8494 18.6886 33.2587 20.5951 35.2587C20.7671 35.4391 20.9653 35.5939 21.1688 35.7761C20.3725 36.6717 19.6073 37.5238 18.8518 38.3839C18.165 39.1656 17.5133 39.9796 16.8026 40.7382C15.7292 41.8843 14.7649 41.9012 13.6174 40.8318C12.4758 39.7677 11.7531 38.4168 11.1084 37.0281C9.37709 33.2981 8.23808 29.3699 7.33229 25.3739C6.86986 23.333 6.43048 21.2781 6.15826 19.2062C5.83992 16.7832 5.9747 14.3585 6.81887 12.0228C7.81422 9.26908 9.79474 7.64326 12.6207 7.01678C15.8963 6.29055 19.786 6.92501 22.9206 7.97711Z" fill="#125DE6"/>
<path d="M47.3184 33.8381C47.3561 33.6657 47.3694 33.483 47.435 33.3216C48.1449 31.5734 48.1888 29.7454 47.9662 27.9214C47.6838 25.6084 47.5321 23.31 48.0198 21.0107C48.5785 18.3758 47.7946 16.0433 46.449 13.8211C44.9447 11.3365 43.0754 9.19549 40.6449 7.5812C39.9688 7.13207 39.239 6.76496 38.4556 6.31539C39.0847 6.23603 39.6429 6.14824 40.2046 6.0977C43.2341 5.82547 46.1843 6.07775 48.9567 7.46193C50.5457 8.25511 51.8709 9.3715 53.0352 10.7069C53.7734 11.5529 53.9441 12.5575 53.9862 13.6061C54.0718 15.7338 53.7259 17.8158 53.2342 19.8753C52.062 24.782 50.0934 29.3628 47.5352 33.6994C47.4993 33.7601 47.4506 33.8138 47.408 33.8705C47.3778 33.8599 47.3481 33.8492 47.318 33.8381H47.3184Z" fill="#125DE6"/>
<path d="M28.3837 26.9156C28.4426 28.3552 27.7825 30.1837 27.0221 31.9953C26.5907 33.0239 26.2067 34.0737 25.8436 35.129C25.7244 35.4757 25.582 35.5515 25.2358 35.4863C22.3184 34.9343 20.1193 32.1243 20.3681 29.1355C20.5498 26.9506 20.7361 24.7702 20.6248 22.576C20.6208 22.4975 20.6239 22.4181 20.6186 22.3397C20.5668 21.5907 20.8776 21.0465 21.551 20.7072C22.6545 20.1485 23.8033 19.742 25.0425 19.6165C26.3761 19.4813 27.3706 20.1171 27.7111 21.3979C28.1416 23.0176 28.35 24.6718 28.3837 26.9165V26.9156ZM25.2792 20.3161C24.8296 20.2988 24.4812 20.4048 24.2151 20.5822C23.9491 20.7595 23.9509 21.0787 24.0821 21.4245C24.4754 22.4629 25.8463 22.7533 26.6093 21.9566C27.0004 21.5482 26.9308 20.9878 26.4763 20.7152C26.0937 20.4855 25.7288 20.3334 25.2792 20.3161Z" fill="#125DE6"/>
<path d="M45.5389 32.2434C44.2518 29.7264 42.7598 27.3606 41.8904 24.6965C41.5636 23.6953 41.2622 22.6853 41.3477 21.6044C41.4351 20.5036 42.0314 19.8474 43.0658 19.553C44.0523 19.2723 45.0507 19.3322 46.1268 19.4186C46.0039 20.3896 45.9122 21.3109 45.7672 22.2234C45.4967 23.9259 45.6457 25.6155 45.8417 27.3101C46.0119 28.7816 46.1857 30.2576 45.7667 31.7211C45.7322 31.8422 45.6994 31.9641 45.6577 32.0825C45.643 32.1237 45.6045 32.1565 45.5389 32.2434ZM43.7228 22.0008C44.2996 21.9804 44.7146 21.7077 45.0086 21.2471C45.2338 20.8942 45.1221 20.4849 44.7222 20.3581C44.0221 20.1369 43.3571 20.3231 42.9691 20.5377C42.5812 20.7523 42.379 21.2475 42.6144 21.5131C42.8498 21.7787 43.146 22.0212 43.7228 22.0008Z" fill="#125DE6"/>
<path d="M21.161 41.5579C21.7617 41.4053 22.3567 41.2178 22.965 41.1065C24.5438 40.8174 25.8145 40.0695 26.7261 38.7283C26.9194 38.4437 27.1717 38.198 27.4049 37.9418C27.7006 37.6163 28.0415 37.5999 28.4339 37.7737C29.1987 38.1129 29.6057 39.3614 28.9952 40.0992C27.298 42.1497 25.1459 42.7009 22.6343 42.1857C22.1284 42.0819 21.6393 41.8957 21.1423 41.7476C21.1485 41.6842 21.1547 41.6208 21.161 41.5574V41.5579Z" fill="#125DE6"/>
<path d="M53.7521 37.9367C52.8042 38.7064 51.8376 39.3284 50.7243 39.6396C49.1699 40.0741 47.5818 40.2821 45.9599 40.0569C45.1339 39.942 45.0036 39.8024 45.1109 38.9821C45.2559 37.8737 45.7555 37.7004 46.5957 37.4751C46.6848 37.4512 46.8139 37.4849 46.8959 37.5372C47.9715 38.2209 49.1765 38.3326 50.3954 38.2696C51.4918 38.2129 52.5829 38.0568 53.7525 37.9367H53.7521Z" fill="#125DE6"/>
</svg>
