<svg width="60" height="60" viewBox="0 0 60 60" fill="none" xmlns="http://www.w3.org/2000/svg">
<path fill-rule="evenodd" clip-rule="evenodd" d="M9 42C9 40.3431 10.3431 39 12 39H48C49.6569 39 51 40.3431 51 42V54C51 55.6569 49.6569 57 48 57H12C10.3431 57 9 55.6569 9 54V42ZM33 51V45H45V51H33Z" fill="#125DE6"/>
<path d="M50.986 16.9536C51.007 16.3686 50.4487 15.8555 49.3252 15.2896C47.1411 14.1939 35.5995 7.89984 33.3892 6.78969C31.1789 5.68194 30.2794 5.7275 27.6823 7.00309C25.0852 8.28107 12.7964 14.8844 10.6105 16.0569C9.51677 16.6467 8.98125 17.191 9.0005 17.7713V23.5881C9.0005 24.1684 9.58502 24.7822 10.6981 25.5111C12.9241 26.9689 25.2795 33.8096 27.2325 35.0876C29.1856 36.3656 30.5576 36.3824 33.0305 34.6177C35.5015 32.8529 47.1131 26.3095 49.3549 24.7103C50.4942 23.895 50.9982 23.262 50.9982 22.689C50.9982 22.1495 51 16.9536 51 16.9536H50.986ZM24.0369 22.4588L33.769 20.4111L30.8289 26.3167L24.0369 22.4588ZM45.5608 17.1407L39.8067 20.2553L39.1819 20.591L33.4295 17.4763L39.8032 14.0236L45.5608 17.1407ZM28.6641 11.4269L27.7226 9.04835L30.6591 10.6213L33.4277 9.37923L32.6787 11.8369L35.4998 13.2851L31.8614 13.803L31.0459 16.4885L29.7299 13.4937L25.528 12.9758L28.6641 11.4269ZM21.4136 14.7813C24.2872 14.7813 26.6148 16.0185 26.6148 17.5435C26.6148 19.0684 24.2855 20.3056 21.4136 20.3056C18.5418 20.3056 16.2107 19.066 16.2107 17.5435C16.2107 16.0185 18.54 14.7813 21.4136 14.7813Z" fill="#125DE6"/>
</svg>
