<svg width="60" height="60" viewBox="0 0 60 60" fill="none" xmlns="http://www.w3.org/2000/svg">
<path fill-rule="evenodd" clip-rule="evenodd" d="M19.6796 12.1001C19.6796 12.3493 19.5167 12.6398 19.1909 12.9716C11.4727 18.5522 10.0397 27.2284 14.892 39.0002H12C10.3431 39.0002 9 40.3433 9 42.0002V54.0002C9 55.657 10.3431 57.0002 12 57.0002H48C49.6569 57.0002 51 55.657 51 54.0002V42.0002C51 40.3433 49.6569 39.0002 48 39.0002H22.9186C22.0671 38.5822 21.1676 38.2674 20.2202 38.056C22.101 31.4351 25.8398 28.1247 31.4367 28.1247C31.7028 29.0945 31.7028 30.8302 31.4367 33.3318C34.5872 32.6375 37.1982 30.4702 39.2696 26.8298L50.4847 28.3504C51.6562 26.3597 50.8301 24.0448 48.0063 21.4056C47.9128 13.2972 41.3289 9.24298 28.2545 9.24298C22.9313 5.8856 18.4634 5.54528 14.851 8.22203C18.07 10.5582 19.6796 11.8509 19.6796 12.1001ZM45 51.0002H33V45.0002H45V51.0002Z" fill="#125DE6"/>
</svg>
