<svg width="60" height="60" viewBox="0 0 60 60" fill="none" xmlns="http://www.w3.org/2000/svg">
<path fill-rule="evenodd" clip-rule="evenodd" d="M38.9172 52.2888C36.1604 53.3927 33.1511 54 30 54C16.7452 54 6 43.2548 6 30C6 16.7452 16.7452 6 30 6C41.7009 6 51.4462 14.3735 53.5702 25.4551C51.5776 23.8768 49.1072 22.8375 46.3994 22.569C43.5703 16.3354 37.2914 12 30 12C20.0589 12 12 20.0589 12 30C12 39.9411 20.0589 48 30 48C32.0483 48 34.0167 47.6579 35.8511 47.0277C36.8287 48.8162 37.8835 50.6068 38.9172 52.2888Z" fill="#222222"/>
<path fill-rule="evenodd" clip-rule="evenodd" d="M24.1667 27C24.0556 28 24 29 24 30C24 31 24.0556 32 24.1667 33H31.7494C31.5857 33.809 31.5 34.6449 31.5 35.5C31.5 36.4768 31.7499 37.669 32.1816 39H25.5C26.5 42 28 45 30 48H24C22 45 20.5 42 19.5 39H12V33H18.1667C18.0556 32 18 31 18 30C18 29 18.0556 28 18.1667 27H12V21H19.5C20.5 18 22 15 24 12H30C28 15 26.5 18 25.5 21H34.5C33.5 18 32 15 30 12H36C38 15 39.5 18 40.5 21H48V22.8221C47.0352 22.6113 46.0311 22.5 45 22.5C40.9189 22.5 37.2607 24.2439 34.7852 27H24.1667ZM36.2112 47.6804C36.1414 47.7869 36.071 47.8935 36 48H30C31.3361 45.9959 32.4491 43.9917 33.3389 41.9876C34.1376 43.8052 35.1363 45.7494 36.2112 47.6804Z" fill="#222222"/>
<path fill-rule="evenodd" clip-rule="evenodd" d="M45 54C45 54 54 40.9706 54 36C54 31.0294 49.9706 27 45 27C40.0294 27 36 31.0294 36 36C36 40.9706 45 54 45 54ZM45 39C46.6569 39 48 37.6569 48 36C48 34.3431 46.6569 33 45 33C43.3431 33 42 34.3431 42 36C42 37.6569 43.3431 39 45 39Z" fill="#222222"/>
</svg>
