<svg width="60" height="60" viewBox="0 0 60 60" fill="none" xmlns="http://www.w3.org/2000/svg">
<path fill-rule="evenodd" clip-rule="evenodd" d="M12 6H48V51H54V54H48H12H6V51H12V6ZM20.2 27.7391C20.2 30.7944 21.1994 33.299 23.226 35.2531C25.2528 37.1797 27.779 38.1429 30.7494 38.1429C34.5528 38.1429 37.912 36.3815 39.8 33.8218L36.9681 31.2623C35.3858 33.2437 33.3869 34.2348 30.9993 34.2348C29.1395 34.2348 27.5846 33.6291 26.3352 32.3907C25.0861 31.1521 24.4754 29.6108 24.4754 27.7391C24.4754 25.8125 25.1138 24.2164 26.3631 22.9778C27.6123 21.7117 29.1671 21.0786 31.027 21.0786C33.3314 21.0786 35.2747 22.0694 36.8849 24.0237L39.6333 21.3538C37.8288 18.8217 34.4975 17.1429 30.805 17.1429C27.8622 17.1429 25.3637 18.1337 23.2816 20.1428C21.2271 22.1245 20.2 24.6566 20.2 27.7391Z" fill="#222222"/>
</svg>
