<svg width="60" height="60" viewBox="0 0 60 60" fill="none" xmlns="http://www.w3.org/2000/svg">
<path fill-rule="evenodd" clip-rule="evenodd" d="M10 6C9.44772 6 9 6.44772 9 7V53C9 53.5523 9.44772 54 10 54H42H50C50.5523 54 51 53.5523 51 53V7C51 6.44771 50.5523 6 50 6H10ZM19.5 42H40.5V39H19.5M19.5 48H40.5V45H19.5M19.5 15.375L30 12L40.5 15.375C40.5 17.125 40.5 20.25 40.5 24.75C40.5 29.25 37 33 30 36C23 32.8953 19.5 29.1453 19.5 24.75C19.5 20.3547 19.5 17.2297 19.5 15.375ZM29.2513 24.3035L34.1823 20L36.3 21.8482L29.2513 28L23.7 23.1552L25.8177 21.3069L29.2513 24.3035Z" fill="#125DE6"/>
</svg>
