<svg width="60" height="60" viewBox="0 0 60 60" fill="none" xmlns="http://www.w3.org/2000/svg">
<path fill-rule="evenodd" clip-rule="evenodd" d="M53.9989 29.7704C53.8757 16.6213 43.1782 6 30 6C16.7452 6 6 16.7452 6 30C6 43.2548 16.7452 54 30 54C31.0868 54 32.1566 53.9278 33.2051 53.7878C31.5588 51.9465 30.4924 50.0046 30.006 47.9911C30.004 47.994 30.002 47.997 30 48C28 45 26.5 42 25.5 39H29.7V33H24.1667C24.0556 32 24 31 24 30C24 29 24.0556 28 24.1667 27H35.8333C35.936 27.9237 35.9912 28.8474 35.999 29.771L41.922 27.9476C41.898 27.6317 41.8684 27.3159 41.8333 27H45H47.7511C47.8003 27.2929 47.8423 27.5882 47.8771 27.8858L53.9989 29.7704ZM45.5919 21C43.6163 17.5848 40.5509 14.8789 36.8712 13.358C38.4413 15.9053 39.6509 18.4527 40.5 21H45.5919ZM23.1288 13.358C19.4491 14.8789 16.3837 17.5848 14.4081 21H19.5C20.3491 18.4527 21.5587 15.9053 23.1288 13.358ZM18.1667 27H12.2489C12.0852 27.9756 12 28.9779 12 30C12 31.0221 12.0852 32.0244 12.2489 33H18.1667C18.0556 32 18 31 18 30C18 29 18.0556 28 18.1667 27ZM23.1288 46.642C19.4491 45.1211 16.3837 42.4152 14.4081 39H19.5C20.3491 41.5473 21.5587 44.0947 23.1288 46.642ZM30 12C32 15 33.5 18 34.5 21H25.5C26.5 18 28 15 30 12Z" fill="#125DE6"/>
<path fill-rule="evenodd" clip-rule="evenodd" d="M33 33.8571L45 30L57 33.8571C57 35.8571 57 39.4286 57 44.5714C57 49.7143 53 53.5714 45 57C37 53.4517 33 49.5946 33 44.5714C33 39.5483 33 35.9768 33 33.8571ZM44.1851 44.3071L49.5521 39.1429L51.8571 41.3608L44.1851 48.7429L38.1429 42.9291L40.4479 40.7112L44.1851 44.3071Z" fill="#125DE6"/>
</svg>
