<svg width="60" height="60" viewBox="0 0 60 60" fill="none" xmlns="http://www.w3.org/2000/svg">
<path fill-rule="evenodd" clip-rule="evenodd" d="M21.0002 31.5V36.6428H32.5714V31.5H21.0002ZM21 37.9289V43.0716H38.9996V37.9289H21ZM33.8572 36.6428V31.5H39V36.6428H33.8572ZM21 44.3572V49.5H26.1428V44.3572H21ZM27.4288 49.4998V44.357H39V49.4998H27.4288Z" fill="#125DE6"/>
<path fill-rule="evenodd" clip-rule="evenodd" d="M15.3333 43.4988C15.3698 43.4988 15.4061 43.4986 15.4425 43.4982H19.0499L19.05 35.9783V29.5495H40.9498L40.9495 38.5923L40.9498 42.4065V43.4982H41.8399C41.8683 43.4986 41.8967 43.4989 41.9252 43.499C41.9501 43.4992 41.975 43.4993 42 43.4993C48.6274 43.4993 54 38.1525 54 31.5569C54 25.1031 48.8559 19.845 42.4255 19.622C40.2309 13.434 34.3026 9 27.3337 9C18.4971 9 11.3337 16.129 11.3337 24.9231C11.3337 25.2188 11.3418 25.5126 11.3577 25.8042C8.19133 27.29 6 30.4955 6 34.2104C6 39.3403 10.1787 43.4988 15.3333 43.4988ZM32.5712 36.6423H21V31.4995H32.5712V36.6423ZM38.9995 36.6423H33.8571V31.4995H38.9998L38.9995 36.6423ZM20.9998 43.0711L21 37.9283H38.9995V43.0711H20.9998Z" fill="#125DE6"/>
</svg>
