<svg width="60" height="60" viewBox="0 0 60 60" fill="none" xmlns="http://www.w3.org/2000/svg">
<path fill-rule="evenodd" clip-rule="evenodd" d="M6 8C6 6.89543 6.89543 6 8 6H52C53.1046 6 54 6.89543 54 8V29.5236L45 26.4L29.7 31.7102V45.4223C29.7 48.5548 31.0299 51.3942 33.6898 54H8C6.89543 54 6 53.1046 6 52V8ZM30 16.6666H48V21.1666H30V16.6666ZM12 31.7676L15.179 28.5886L18.0895 31.4991L24.2552 25.3334L27.4342 28.5123L18.0894 37.857L12 31.7676ZM15.179 15.2552L12 18.4342L18.0894 24.5237L27.4342 15.1789L24.2552 12L18.0895 18.1657L15.179 15.2552Z" fill="#125DE6"/>
<path fill-rule="evenodd" clip-rule="evenodd" d="M33 33.8571L45 30L57 33.8571C57 35.8571 57 39.4286 57 44.5714C57 49.7143 53 53.5714 45 57C37 53.4517 33 49.5946 33 44.5714C33 39.5483 33 35.9768 33 33.8571Z" fill="#125DE6"/>
</svg>
