<svg width="60" height="60" viewBox="0 0 60 60" fill="none" xmlns="http://www.w3.org/2000/svg">
<path fill-rule="evenodd" clip-rule="evenodd" d="M30 6L9 13.9459V32.1081C9 44.5946 15.8108 50.9595 30 55.5C44.1892 50.9595 51 44.5946 51 32.1081V13.9459L30 6ZM34.5405 21.3243C34.5405 22.4749 34.1126 23.5256 33.4071 24.3257L37.765 31.7342C38.1816 31.6082 38.6234 31.5405 39.0811 31.5405C41.5888 31.5405 43.6216 33.5734 43.6216 36.0811C43.6216 38.5888 41.5888 40.6216 39.0811 40.6216C37.2858 40.6216 35.7339 39.5797 34.997 38.0676H25.003C24.2661 39.5797 22.7142 40.6216 20.9189 40.6216C18.4112 40.6216 16.3784 38.5888 16.3784 36.0811C16.3784 33.5734 18.4112 31.5405 20.9189 31.5405C21.3766 31.5405 21.8184 31.6082 22.235 31.7342L26.5929 24.3257C25.8874 23.5256 25.4595 22.4749 25.4595 21.3243C25.4595 18.8167 27.4923 16.7838 30 16.7838C32.5077 16.7838 34.5405 18.8167 34.5405 21.3243ZM35.0932 33.9083C34.9627 34.1474 34.853 34.3995 34.7666 34.6622H25.2334C25.147 34.3993 25.0372 34.147 24.9066 33.9078L29.6461 25.8513C29.7629 25.8603 29.8809 25.8649 30 25.8649C30.1191 25.8649 30.2371 25.8603 30.3539 25.8513L35.0932 33.9083Z" fill="#125DE6"/>
</svg>
