<svg width="60" height="60" viewBox="0 0 60 60" fill="none" xmlns="http://www.w3.org/2000/svg">
<path d="M27 9C34.8404 9 41.5089 14.0133 43.9775 21.0088C51.2122 21.2603 57 27.204 57 34.5C57 41.9558 50.9558 48 43.5 48H13.5C7.70101 48 3 43.299 3 37.5C3 33.3009 5.4655 29.6787 9.02734 27.999C9.00925 27.6683 9 27.3352 9 27C9 17.0589 17.0589 9 27 9ZM30 22.5C26.6863 22.5 24 25.1863 24 28.5C24 30.7205 25.2071 32.6578 27 33.6953V40.5H33V33.6953C34.7929 32.6578 36 30.7205 36 28.5C36 25.1863 33.3137 22.5 30 22.5Z" fill="#125DE6"/>
</svg>
