<svg width="60" height="60" viewBox="0 0 60 60" fill="none" xmlns="http://www.w3.org/2000/svg">
<path fill-rule="evenodd" clip-rule="evenodd" d="M21 6V27H6V54H21H39H54V27H39V6H21ZM15 42V45H21V48H12V42C12 40.335 13.35 39 15 39H18V36H12V33H18C19.65 33 21 34.335 21 36V39C21 40.665 19.65 42 18 42H15ZM30 27H33V12H27V15H30V27ZM48 42.75V45C48 46.665 46.65 48 45 48H39V45H45V42H42V39H45V36H39V33H45C46.65 33 48 34.335 48 36V38.25C48 39.495 46.995 40.5 45.75 40.5C46.995 40.5 48 41.505 48 42.75Z" fill="#222222"/>
</svg>
