<svg width="60" height="60" viewBox="0 0 60 60" fill="none" xmlns="http://www.w3.org/2000/svg">
<path fill-rule="evenodd" clip-rule="evenodd" d="M53.1429 6H6.85714C4.7269 6 3 7.67893 3 9.75V44.25C3 46.3211 4.7269 48 6.85714 48H27V51H21V54H27H33H39V51H33V48H53.1429C55.2731 48 57 46.3211 57 44.25V9.75C57 7.67893 55.2731 6 53.1429 6ZM12 24C12 19.0294 16.0294 15 21 15H39C43.9706 15 48 19.0294 48 24V36C48 37.6569 46.6569 39 45 39H43.6939C42.6399 39 41.6632 38.4468 41.1211 37.5428L38.3969 33H21.6031L18.8789 37.5428C18.3368 38.4468 17.3601 39 16.3061 39H15C13.3431 39 12 37.6569 12 36V24ZM24 21H21V24H18V27H21V30H24V27H27V24H24V21ZM37.5 30C39.9853 30 42 27.9853 42 25.5C42 23.0147 39.9853 21 37.5 21C35.0147 21 33 23.0147 33 25.5C33 27.9853 35.0147 30 37.5 30ZM36 24H39V27H36V24Z" fill="#222222"/>
</svg>
