<svg width="60" height="60" viewBox="0 0 60 60" fill="none" xmlns="http://www.w3.org/2000/svg">
<path fill-rule="evenodd" clip-rule="evenodd" d="M16.3931 31.5C19.7068 31.5 22.3931 28.8137 22.3931 25.5C22.3931 22.1863 19.7068 19.5 16.3931 19.5C13.0794 19.5 10.3931 22.1863 10.3931 25.5C10.3931 28.8137 13.0794 31.5 16.3931 31.5ZM28.5 42C28.5 37.8579 23.1274 34.5 16.5 34.5C9.87258 34.5 4.5 37.8579 4.5 42V45.75H28.5V42Z" fill="#125DE6"/>
<path fill-rule="evenodd" clip-rule="evenodd" d="M23.3571 10.5C22.0553 10.5 21 11.5074 21 12.75V17.7669C23.631 19.3377 25.3931 22.2131 25.3931 25.5C25.3931 28.2093 24.1959 30.6391 22.3017 32.289C23.8672 32.7356 25.3129 33.3637 26.5753 34.1527C27.9477 35.0105 29.2074 36.137 30.1091 37.5H51.6429C52.9447 37.5 54 36.4926 54 35.25V12.75C54 11.5074 52.9447 10.5 51.6429 10.5H23.3571ZM26.1009 37.5C24.799 36.4167 23.0387 35.5609 21 35.0452V35.25C21 36.4926 22.0553 37.5 23.3571 37.5H26.1009ZM21 29.3442C21.8697 28.3031 22.3931 26.9627 22.3931 25.5C22.3931 24.0373 21.8697 22.6969 21 21.6558V29.3442ZM29.214 30L34.369 25.1101L38.5437 29.0701L48 20.1001L45.786 18L38.5437 24.8699L34.369 20.9099L27 27.8999L29.214 30Z" fill="#125DE6"/>
</svg>
