<svg width="60" height="60" viewBox="0 0 60 60" fill="none" xmlns="http://www.w3.org/2000/svg">
<path fill-rule="evenodd" clip-rule="evenodd" d="M56.7243 30.4903C56.8956 30.1859 56.8956 29.8142 56.7243 29.5097L43.7868 6.50974C43.6097 6.19486 43.2765 6 42.9153 6H17.085C16.7237 6 16.3905 6.19486 16.2134 6.50974L3.27589 29.5097C3.10465 29.8142 3.10465 30.1858 3.27589 30.4903L16.2134 53.4903C16.3905 53.8051 16.7237 54 17.085 54H42.9153C43.2765 54 43.6097 53.8051 43.7868 53.4903L56.7243 30.4903ZM19.8712 22.6688L30.0055 28.6674L40.2156 22.7194L29.9997 16.8L19.8712 22.6688ZM41.9994 25.1749L31.6012 31.2324V43.684L41.9994 37.6589V25.1749ZM18.0001 25.07L28.6012 31.3446V43.8015L18.0001 37.6589V25.07Z" fill="#222222"/>
</svg>
