<svg width="60" height="60" viewBox="0 0 60 60" fill="none" xmlns="http://www.w3.org/2000/svg">
<path fill-rule="evenodd" clip-rule="evenodd" d="M24 27C28.9706 27 33 22.9706 33 18C33 13.0294 28.9706 9 24 9C19.0294 9 15 13.0294 15 18C15 22.9706 19.0294 27 24 27ZM6 45C6 38.3726 14.0589 33 24 33C33.9411 33 42 38.3726 42 45V51H6V45Z" fill="#125DE6"/>
<path fill-rule="evenodd" clip-rule="evenodd" d="M34.874 26.001C36.5242 23.7619 37.4993 20.9948 37.4993 18C37.4993 15.0052 36.5242 12.2381 34.874 9.99903C36.1098 9.36057 37.5125 9 38.9993 9C43.9699 9 47.9993 13.0294 47.9993 18C47.9993 22.9706 43.9699 27 38.9993 27C37.5125 27 36.1098 26.6394 34.874 26.001ZM48.0001 51H54.0001V45C54.0001 39.7075 48.8607 35.2152 41.7275 33.6202C45.5679 36.3712 48.0001 40.4489 48.0001 45V51Z" fill="#125DE6"/>
</svg>
