<svg width="60" height="60" viewBox="0 0 60 60" fill="none" xmlns="http://www.w3.org/2000/svg">
<path fill-rule="evenodd" clip-rule="evenodd" d="M22.5469 10.783C21.6408 10.783 20.9062 11.5179 20.9062 12.4245C20.9062 13.3311 21.6408 14.066 22.5469 14.066C23.453 14.066 24.1875 13.3311 24.1875 12.4245C24.1875 11.5179 23.453 10.783 22.5469 10.783ZM27.4688 12.4245C27.4688 15.1443 25.2652 17.3491 22.5469 17.3491C19.8286 17.3491 17.625 15.1443 17.625 12.4245C17.625 9.70479 19.8286 7.5 22.5469 7.5C25.2652 7.5 27.4688 9.70479 27.4688 12.4245Z" fill="#125DE6"/>
<path fill-rule="evenodd" clip-rule="evenodd" d="M50.5781 32.1226C49.672 32.1226 48.9375 32.8576 48.9375 33.7642C48.9375 34.6707 49.672 35.4057 50.5781 35.4057C51.4842 35.4057 52.2188 34.6707 52.2188 33.7642C52.2188 32.8576 51.4842 32.1226 50.5781 32.1226ZM55.5 33.7642C55.5 36.4839 53.2964 38.6887 50.5781 38.6887C47.8598 38.6887 45.6562 36.4839 45.6562 33.7642C45.6562 31.0444 47.8598 28.8396 50.5781 28.8396C53.2964 28.8396 55.5 31.0444 55.5 33.7642Z" fill="#125DE6"/>
<path fill-rule="evenodd" clip-rule="evenodd" d="M18.4219 48.934C17.5158 48.934 16.7812 49.6689 16.7812 50.5755C16.7812 51.4821 17.5158 52.217 18.4219 52.217C19.328 52.217 20.0625 51.4821 20.0625 50.5755C20.0625 49.6689 19.328 48.934 18.4219 48.934ZM23.3438 50.5755C23.3438 53.2952 21.1402 55.5 18.4219 55.5C15.7036 55.5 13.5 53.2952 13.5 50.5755C13.5 47.8557 15.7036 45.6509 18.4219 45.6509C21.1402 45.6509 23.3438 47.8557 23.3438 50.5755Z" fill="#125DE6"/>
<path fill-rule="evenodd" clip-rule="evenodd" d="M17.6443 17.2417C17.1157 17.4738 16.6511 17.8692 16.2912 18.3665L9.98664 27.0416C8.93131 28.4675 9.24653 30.613 10.6171 31.6391C11.1379 32.0522 11.878 32.2521 12.5085 32.2521C13.5638 32.2521 14.5095 31.7457 15.14 30.9195L20.5948 23.3637L23.8019 22.9239L6.62876 48.683C5.57342 50.1088 5.88865 52.2543 7.25922 53.2804C7.78003 53.6935 8.52014 54 9.26024 54C10.3087 54 11.2489 53.5002 11.8793 52.6835C11.6657 52.0193 11.5503 51.311 11.5503 50.5758C11.5503 46.9176 14.4071 43.9253 18.0124 43.7133L22.2669 37.4892L32.368 40.221L28.6948 47.9767C27.9547 49.6158 28.5852 51.548 30.1613 52.3609C30.5862 52.5608 31.107 52.6674 31.5319 52.6674C32.7928 52.6674 33.8482 51.9478 34.4786 50.8284L39.9335 39.2882C40.3583 38.3687 40.3583 37.3426 39.9335 36.4364C39.5086 35.5169 38.6726 34.9039 37.7269 34.5974L33.1081 33.7579L37.069 27.0416L51.8026 24.2965C53.4883 23.6835 54.434 21.8445 53.8036 20.1122L53.7762 20.0988C53.4609 19.286 52.9401 18.5664 52.0904 18.1532C51.3503 17.7401 50.5142 17.7401 49.6782 17.9534L38.234 19.8323L30.2573 16.1144C29.7932 15.8103 29.2177 15.6217 28.651 15.5859C27.5072 17.7918 25.2036 19.2993 22.5472 19.2993C20.6269 19.2993 18.891 18.5116 17.6443 17.2417ZM20.2176 16.7639C20.9111 17.1374 21.7044 17.3493 22.5472 17.3493C23.9066 17.3493 25.1372 16.7979 26.028 15.9065L20.2176 16.7639ZM16.3875 46.0904C14.7625 46.8295 13.61 48.4266 13.5077 50.3033L16.3875 46.0904ZM43.3736 11.2104C43.3736 14.0888 41.071 16.4209 38.234 16.4209C35.3969 16.4209 33.0944 14.0888 33.0944 11.2104C33.0944 8.33204 35.3969 6 38.234 6C41.071 6 43.3736 8.33204 43.3736 11.2104Z" fill="#125DE6"/>
</svg>
