<svg width="60" height="60" viewBox="0 0 60 60" fill="none" xmlns="http://www.w3.org/2000/svg">
<path fill-rule="evenodd" clip-rule="evenodd" d="M30 12C25.0294 12 21 16.0294 21 21C21 25.9706 25.0294 30 30 30C34.9706 30 39 25.9706 39 21C39 16.0294 34.9706 12 30 12ZM36.586 33.5179L33 34.6705V47.5717C33 47.7155 33.0024 47.8583 33.0072 48H30H12V40.5C12 36.3579 20.0589 33 30 33C32.3246 33 34.5462 33.1836 36.586 33.5179Z" fill="#125DE6"/>
<path fill-rule="evenodd" clip-rule="evenodd" d="M50.6471 3C54.1557 3 57 5.84431 57 9.35294V16.5H51V10.5C51 9.73075 50.4209 9.09674 49.6749 9.01009L49.5 9H43.5V3H50.6471ZM9 10.5V16.5H3V9.35294C3 5.84431 5.84431 3 9.35294 3H16.5V9H10.5C9.73075 9 9.09674 9.57906 9.01009 10.3251L9 10.5ZM3 50.6471V43.5H9V49.5C9 50.2693 9.57906 50.9033 10.3251 50.9899L10.5 51H16.5V57H9.35294C5.84431 57 3 54.1557 3 50.6471Z" fill="#125DE6"/>
<path fill-rule="evenodd" clip-rule="evenodd" d="M36 36.8571L48 33L60 36.8571C60 38.8571 60 42.4286 60 47.5714C60 52.7143 56 56.5714 48 60C40 56.4517 36 52.5946 36 47.5714C36 42.5483 36 38.9768 36 36.8571ZM46.5 46.5L52.5 40.5L54.75 42.75L46.5 51L41.25 45.75L43.5 43.5L46.5 46.5Z" fill="#125DE6"/>
</svg>
