<svg width="60" height="60" viewBox="0 0 60 60" fill="none" xmlns="http://www.w3.org/2000/svg">
<path fill-rule="evenodd" clip-rule="evenodd" d="M60 27H33V60H60V27ZM54 36H39V39H54V36ZM39 42H54V45H39V42ZM45 48H39V51H45V48Z" fill="#125DE6"/>
<path fill-rule="evenodd" clip-rule="evenodd" d="M21 51H15C11.6863 51 9 48.3137 9 45V39H12V45C12 46.6569 13.3431 48 15 48H21V42L31.5 49.5L21 57V51Z" fill="#125DE6"/>
<path fill-rule="evenodd" clip-rule="evenodd" d="M15 3C11.6863 3 9 5.68629 9 9V18C9 21.3137 11.6863 24 15 24C18.3137 24 21 21.3137 21 18V9C21 5.68629 18.3137 3 15 3ZM24 15H27V18C27 24.1194 22.4195 29.169 16.5 29.9072V33H19.5V36H16.5H13.5H10.5V33H13.5V29.9072C7.58053 29.169 3 24.1194 3 18V15H6V18C6 22.9706 10.0294 27 15 27C19.793 27 23.711 23.2532 23.9847 18.5288L24 18V15Z" fill="#125DE6"/>
</svg>
