<svg width="60" height="60" viewBox="0 0 60 60" fill="none" xmlns="http://www.w3.org/2000/svg">
<path fill-rule="evenodd" clip-rule="evenodd" d="M34.7101 8.82605C41.0939 12.6564 45 19.5552 45 27V38L46.0077 38.6718C49.1266 40.7511 51 44.2515 51 48H45H42H39L36 54H24L21 48H18H15H9C9 44.2515 10.8734 40.7511 13.9923 38.6718L15 38V27C15 19.5552 18.9061 12.6564 25.2899 8.82605L30 6L34.7101 8.82605ZM30 33C33.3137 33 36 30.3137 36 27C36 23.6863 33.3137 21 30 21C26.6863 21 24 23.6863 24 27C24 30.3137 26.6863 33 30 33Z" fill="#125DE6"/>
</svg>
