<svg width="60" height="60" viewBox="0 0 60 60" fill="none" xmlns="http://www.w3.org/2000/svg">
<path fill-rule="evenodd" clip-rule="evenodd" d="M33 9H27V21H33V9ZM43.8938 48C51.1343 48 57 41.952 57 34.5C57 27.2145 51.3885 21.2767 44.373 21.0157L16.1063 21C8.868 21 3 27.048 3 34.5C3 41.952 8.868 48 16.1063 48C19.4587 48 22.5165 46.6973 24.834 44.5643C27.696 41.9318 32.1217 41.7135 35.0715 44.4788C37.4002 46.6613 40.494 48 43.8938 48ZM18 30H15V33H12V36H15V39H18V36H21V33H18V30ZM43.5 30C45.9853 30 48 32.0147 48 34.5C48 36.9853 45.9853 39 43.5 39C41.0147 39 39 36.9853 39 34.5C39 32.0147 41.0147 30 43.5 30ZM45 33H42V36H45V33Z" fill="#125DE6"/>
</svg>
