<svg width="60" height="60" viewBox="0 0 60 60" fill="none" xmlns="http://www.w3.org/2000/svg">
<path fill-rule="evenodd" clip-rule="evenodd" d="M42 25.5C42 34.6127 34.6127 42 25.5 42C16.3873 42 9 34.6127 9 25.5C9 16.3873 16.3873 9 25.5 9C34.6127 9 42 16.3873 42 25.5ZM15 25.5C15 31.299 19.701 36 25.5 36C31.299 36 36 31.299 36 25.5C36 19.701 31.299 15 25.5 15C19.701 15 15 19.701 15 25.5Z" fill="#125DE6"/>
<path fill-rule="evenodd" clip-rule="evenodd" d="M33.8787 38.1215L48.8787 53.1215L53.1213 48.8789L38.1213 33.8789L33.8787 38.1215Z" fill="#125DE6"/>
</svg>
