<svg width="32" height="32" viewBox="0 0 32 32" fill="none" xmlns="http://www.w3.org/2000/svg">
<rect width="32" height="32" fill="#555555"/>
<path fill-rule="evenodd" clip-rule="evenodd" d="M13 13H4V26H13V13ZM6 15H8V17H6V15ZM6 18H8V20H6V18ZM8 21H6V23H8V21ZM9 15H11V17H9V15ZM11 18H9V20H11V18ZM9 21H11V23H9V21Z" fill="white"/>
<path fill-rule="evenodd" clip-rule="evenodd" d="M28 6H14V26H19V21H23V26H28V6ZM16 13.5505C16 11.9358 16.524 10.6095 17.5722 9.57145C18.6346 8.519 19.9093 8 21.4107 8C23.2946 8 24.9943 8.87945 25.915 10.2058L24.5127 11.6042C23.6912 10.5806 22.6997 10.0616 21.524 10.0616C20.5751 10.0616 19.7818 10.3932 19.1444 11.0564C18.507 11.7052 18.1813 12.5413 18.1813 13.5505C18.1813 14.5308 18.4928 15.3382 19.1303 15.9868C19.7677 16.6357 20.5609 16.9528 21.5099 16.9528C22.728 16.9528 23.7479 16.4338 24.5552 15.3958L26 16.7365C25.0368 18.0773 23.3229 19 21.3824 19C19.8668 19 18.5778 18.4954 17.5439 17.4862C16.5099 16.4627 16 15.1507 16 13.5505Z" fill="white"/>
</svg>
