<svg width="194" height="60" viewBox="0 0 194 60" fill="none" xmlns="http://www.w3.org/2000/svg">
<rect width="194" height="60" fill="#DDDDDD"/>
<path d="M79.8711 22.8594L83.7969 34.3633H83.9531L87.8789 22.8594H90.2031L85.1055 37H82.625L77.5469 22.8594H79.8711ZM92 37V22.8594H97.0391C100.32 22.8594 101.941 24.832 101.941 27.4492C101.941 30.0469 100.32 32.0391 97.0391 32.0391H94.1484V37H92ZM94.1484 30.2031H96.8242C98.9141 30.2031 99.7734 29.0312 99.7734 27.4492C99.7734 25.8477 98.9141 24.6953 96.8242 24.6953H94.1484V30.2031ZM113.777 27.4688C113.426 25.6523 111.922 24.6367 110.125 24.6367C107.684 24.6367 105.867 26.5117 105.867 29.9297C105.867 33.3672 107.703 35.2227 110.125 35.2227C111.902 35.2227 113.406 34.2266 113.777 32.4297L115.945 32.4492C115.496 35.2422 113.211 37.1953 110.105 37.1953C106.414 37.1953 103.738 34.4414 103.738 29.9297C103.738 25.3984 106.434 22.6641 110.105 22.6641C113.094 22.6641 115.457 24.4219 115.945 27.4688H113.777Z" fill="#111111"/>
</svg>
