<svg width="64" height="64" viewBox="0 0 64 64" fill="none" xmlns="http://www.w3.org/2000/svg">
<rect width="64" height="64" fill="#125DE6"/>
<path fill-rule="evenodd" clip-rule="evenodd" d="M23 53H17C13.6863 53 11 50.3137 11 47V41H14V47C14 48.6569 15.3431 50 17 50H23L23 44L33.5 51.5L23 59L23 53Z" fill="white"/>
<path fill-rule="evenodd" clip-rule="evenodd" d="M47 26C43.6863 26 41 28.6863 41 32V44C41 47.3137 43.6863 50 47 50C50.3137 50 53 47.3137 53 44V32C53 28.6863 50.3137 26 47 26ZM35 44V41H38V44C38 48.9686 42.0262 52.9968 46.9941 53L47 53L47.0059 53C51.7963 52.9969 55.7111 49.2513 55.9847 44.5288L56 44V41H59V44C59 50.1194 54.4195 55.169 48.5 55.9072V59H51.5V62H48.5H45.5H42.5V59H45.5V55.9072C39.5805 55.169 35 50.1194 35 44Z" fill="white"/>
<path fill-rule="evenodd" clip-rule="evenodd" d="M32 5H5V38H32V5ZM26 14H11V17H26V14ZM11 20H26V23H11V20ZM17 26H11V29H17V26Z" fill="white"/>
</svg>
