<svg width="64" height="64" viewBox="0 0 64 64" fill="none" xmlns="http://www.w3.org/2000/svg">
<rect width="64" height="64" fill="#125DE6"/>
<path fill-rule="evenodd" clip-rule="evenodd" d="M45.9787 23.0083C43.51 16.0128 36.8404 11 29 11C19.0589 11 11 19.0589 11 29C11 29.3354 11.0092 29.6686 11.0301 29.9962C7.46644 31.6752 5 35.2996 5 39.5C5 45.299 9.70101 50 15.5 50H21.0127L18.5 29H24.1262L25.3287 41.5631L30.7505 29H35.8631L36.7745 41.5631L41.9315 29H46.85L38.2158 50H45.5C52.9558 50 59 43.9558 59 36.5C59 29.2044 53.2128 23.2604 45.9787 23.0083ZM45.9787 23.0083C45.8198 23.0028 45.6602 23 45.5 23L45.9793 23.01C45.9791 23.0095 45.9789 23.0089 45.9787 23.0083ZM32.331 50L31.5244 37.5539L26.3959 50H32.331Z" fill="white"/>
</svg>
