<svg width="64" height="64" viewBox="0 0 64 64" fill="none" xmlns="http://www.w3.org/2000/svg">
<rect width="64" height="64" fill="#125DE6"/>
<path fill-rule="evenodd" clip-rule="evenodd" d="M45.9787 23.0083C43.51 16.0128 36.8404 11 29 11C19.0589 11 11 19.0589 11 29C11 29.3354 11.0092 29.6686 11.0301 29.9962C7.46644 31.6752 5 35.2996 5 39.5C5 45.299 9.70101 50 15.5 50H23.572C22.1821 49.7002 21.5 49.2834 21.5 49.2834L22.2838 44.3892C22.2838 44.3892 26.6244 45.0862 27.7378 44.3892C28.8511 43.6923 29.4098 41.2262 29.4098 41.2262L31.6885 27.5H38.22C38.22 27.5 36.4987 37.3593 36.2454 38.6568C36.2138 38.8186 36.1761 39.0218 36.1322 39.2582C35.8244 40.9176 35.212 44.2185 34.2619 46.4062C33.4698 48.23 31.5726 49.4654 29.2739 50H45.5C52.9558 50 59 43.9558 59 36.5C59 29.2044 53.2128 23.2604 45.9787 23.0083ZM45.9787 23.0083C45.8198 23.0028 45.6602 23 45.5 23L45.9793 23.01C45.9791 23.0095 45.9789 23.0089 45.9787 23.0083Z" fill="white"/>
</svg>
