<svg width="64" height="64" viewBox="0 0 64 64" fill="none" xmlns="http://www.w3.org/2000/svg">
<rect width="64" height="64" fill="#125DE6"/>
<path fill-rule="evenodd" clip-rule="evenodd" d="M62 29H35V62H62V29ZM56 38H41V41H56V38ZM41 44H56V47H41V44ZM47 50H41V53H47V50Z" fill="white"/>
<path fill-rule="evenodd" clip-rule="evenodd" d="M23 53H17C13.6863 53 11 50.3137 11 47V41H14V47C14 48.6569 15.3431 50 17 50H23V44L33.5 51.5L23 59V53Z" fill="white"/>
<path fill-rule="evenodd" clip-rule="evenodd" d="M17 5C13.6863 5 11 7.68629 11 11V20C11 23.3137 13.6863 26 17 26C20.3137 26 23 23.3137 23 20V11C23 7.68629 20.3137 5 17 5ZM26 17H29V20C29 26.1194 24.4195 31.169 18.5 31.9072V35H21.5V38H18.5H15.5H12.5V35H15.5V31.9072C9.58053 31.169 5 26.1194 5 20V17H8V20C8 24.9706 12.0294 29 17 29C21.793 29 25.711 25.2532 25.9847 20.5288L26 20V17Z" fill="white"/>
</svg>
