<svg width="64" height="64" viewBox="0 0 64 64" fill="none" xmlns="http://www.w3.org/2000/svg">
<rect width="64" height="64" fill="#125DE6"/>
<path fill-rule="evenodd" clip-rule="evenodd" d="M52.6471 5C56.1557 5 59 7.84431 59 11.3529V18.5H53V12.5C53 11.7307 52.4209 11.0967 51.6749 11.0101L51.5 11H45.5V5H52.6471ZM11 51.5V45.497L5 45.5V52.6471C5 56.1557 7.84431 59 11.3529 59H18.5V53H12.5L12.3251 52.9899C11.5791 52.9033 11 52.2693 11 51.5ZM52.6471 59C56.1557 59 59 56.1557 59 52.6471V45.5H53V51.5L52.9899 51.6749C52.9033 52.4209 52.2693 53 51.5 53H45.5V59H52.6471ZM11.3529 5C7.84431 5 5 7.84431 5 11.3529V18.5L11 18.497V12.5L11.0101 12.3251C11.0967 11.5791 11.7307 11 12.5 11H18.5V5H11.3529Z" fill="white"/>
<path d="M24.6523 34.0039C24.6523 36.293 24.1094 38.0703 23.0234 39.3359C21.9453 40.6016 20.4453 41.2344 18.5234 41.2344C16.6094 41.2344 15.1055 40.6094 14.0117 39.3594C12.918 38.1016 12.3633 36.3438 12.3477 34.0859V31.168C12.3477 28.8242 12.8906 26.9961 13.9766 25.6836C15.0625 24.3633 16.5703 23.7031 18.5 23.7031C20.3984 23.7031 21.8945 24.3516 22.9883 25.6484C24.082 26.9375 24.6367 28.75 24.6523 31.0859V34.0039ZM21.1953 31.1445C21.1953 29.6055 20.9766 28.4609 20.5391 27.7109C20.1016 26.9609 19.4219 26.5859 18.5 26.5859C17.5859 26.5859 16.9102 26.9492 16.4727 27.6758C16.0352 28.3945 15.8086 29.4922 15.793 30.9688V34.0039C15.793 35.4961 16.0156 36.5977 16.4609 37.3086C16.9062 38.0117 17.5938 38.3633 18.5234 38.3633C19.4219 38.3633 20.0898 38.0195 20.5273 37.332C20.9648 36.6367 21.1875 35.5625 21.1953 34.1094V31.1445Z" fill="white"/>
<path d="M38.6914 35.3164C38.6055 37.2617 38.0586 38.7344 37.0508 39.7344C36.043 40.7344 34.6211 41.2344 32.7852 41.2344C30.8555 41.2344 29.375 40.6016 28.3438 39.3359C27.3203 38.0625 26.8086 36.25 26.8086 33.8984V31.0273C26.8086 28.6836 27.3398 26.8789 28.4023 25.6133C29.4648 24.3398 30.9414 23.7031 32.832 23.7031C34.6914 23.7031 36.1016 24.2227 37.0625 25.2617C38.0312 26.3008 38.582 27.793 38.7148 29.7383H35.2578C35.2266 28.5352 35.0391 27.707 34.6953 27.2539C34.3594 26.793 33.7383 26.5625 32.832 26.5625C31.9102 26.5625 31.2578 26.8867 30.875 27.5352C30.4922 28.1758 30.2891 29.2344 30.2656 30.7109V33.9336C30.2656 35.6289 30.4531 36.793 30.8281 37.4258C31.2109 38.0586 31.8633 38.375 32.7852 38.375C33.6914 38.375 34.3164 38.1562 34.6602 37.7188C35.0039 37.2734 35.1992 36.4727 35.2461 35.3164H38.6914Z" fill="white"/>
<path d="M45.9805 34.7656H44.2695V41H40.8242V23.9375H46.3203C48.0469 23.9375 49.3789 24.3867 50.3164 25.2852C51.2617 26.1758 51.7344 27.4453 51.7344 29.0938C51.7344 31.3594 50.9102 32.9453 49.2617 33.8516L52.25 40.8359V41H48.5469L45.9805 34.7656ZM44.2695 31.8945H46.2266C46.9141 31.8945 47.4297 31.668 47.7734 31.2148C48.1172 30.7539 48.2891 30.1406 48.2891 29.375C48.2891 27.6641 47.6211 26.8086 46.2852 26.8086H44.2695V31.8945Z" fill="white"/>
</svg>
