<svg width="64" height="64" viewBox="0 0 64 64" fill="none" xmlns="http://www.w3.org/2000/svg">
<rect width="64" height="64" fill="#125DE6"/>
<path fill-rule="evenodd" clip-rule="evenodd" d="M59 11.3529C59 7.84431 56.1557 5 52.6471 5H45.5V11H51.5L51.6749 11.0101C52.4209 11.0967 53 11.7307 53 12.5V18.5H59V11.3529ZM59 45.5H53V51.5L52.9899 51.6749C52.9033 52.4209 52.2693 53 51.5 53H45.5V59H52.6471C56.1557 59 59 56.1557 59 52.6471V45.5ZM11 18.5V12.5L11.0101 12.3251C11.0967 11.5791 11.7307 11 12.5 11H18.5V5H11.3529C7.84431 5 5 7.84431 5 11.3529V18.5H11ZM5 45.5V52.6471C5 56.1557 7.84431 59 11.3529 59H18.5V53H12.5L12.3251 52.9899C11.5791 52.9033 11 52.2693 11 51.5V45.5H5Z" fill="white"/>
<path fill-rule="evenodd" clip-rule="evenodd" d="M49.4677 26.9101C47.5176 17.7715 40.4366 11 32 11C23.5634 11 16.4824 17.7715 14.531 26.9061C12.4277 28.1764 11 30.653 11 33.5C11 36.7976 12.9153 39.5981 15.5749 40.603C18.3915 47.9112 24.6864 53 32 53C39.3136 53 45.6085 47.9112 48.4227 40.603C51.0847 39.5981 53 36.7976 53 33.5C53 30.653 51.5723 28.1764 49.4677 26.9101ZM20.5579 27.4788C22.1572 21.1986 26.8791 17 32 17C37.3042 17 42.179 21.5041 43.5998 28.1622L44.1432 30.7088L46.3743 32.0512L46.512 32.1564C46.7808 32.4073 47 32.8944 47 33.5C47 34.2974 46.6259 34.868 46.3036 34.9897L43.7893 35.9389L42.8235 38.4469L42.5581 39.0958C40.4366 43.99 36.345 47 32 47C27.466 47 23.2073 43.7224 21.1735 38.4453L20.2078 35.9396L17.6957 34.9904L17.556 34.9114C17.2751 34.7011 17 34.1836 17 33.5C17 32.792 17.3001 32.2431 17.633 32.0421L19.8561 30.6994L20.3987 28.1596L20.5579 27.4788Z" fill="white"/>
<path fill-rule="evenodd" clip-rule="evenodd" d="M23 28.25C23 27.8358 23.3358 27.5 23.75 27.5H26.75C27.1642 27.5 27.5 27.8358 27.5 28.25V32.75C27.5 33.1642 27.1642 33.5 26.75 33.5H23.75C23.3358 33.5 23 33.1642 23 32.75V28.25ZM36.5 28.25C36.5 27.8358 36.8358 27.5 37.25 27.5H40.25C40.6642 27.5 41 27.8358 41 28.25V32.75C41 33.1642 40.6642 33.5 40.25 33.5H37.25C36.8358 33.5 36.5 33.1642 36.5 32.75V28.25ZM38.6004 38.8064C39.0372 37.643 38.4482 36.3459 37.2849 35.9091C36.1215 35.4723 34.8243 36.0613 34.3876 37.2246L34.3067 37.4115C33.9171 38.2034 33.0266 38.756 31.9958 38.756C30.8835 38.756 29.935 38.1128 29.6023 37.2201L29.5169 37.0207C29.0163 35.9897 27.804 35.4892 26.7081 35.8977C25.5437 36.3317 24.9517 37.6275 25.3857 38.7919C26.3818 41.4642 29.0241 43.256 31.9958 43.256C34.9617 43.256 37.5999 41.4711 38.6004 38.8064Z" fill="white"/>
</svg>
