<svg width="64" height="64" viewBox="0 0 64 64" fill="none" xmlns="http://www.w3.org/2000/svg">
<rect width="64" height="64" fill="#125DE6"/>
<circle cx="45.5" cy="48.5" r="6.75" transform="rotate(-90 45.5 48.5)" stroke="white" stroke-width="7.5"/>
<circle cx="10.5" cy="10.5" r="6.75" transform="matrix(0 -1 -1 0 29 59)" stroke="white" stroke-width="7.5"/>
<path fill-rule="evenodd" clip-rule="evenodd" d="M20.3674 13.5033L20.6486 13.25L43.2499 40.8966L37.0341 46.25L19.6249 24.9546C16.8966 21.6172 17.1501 16.8004 20.1001 13.7663L20.3674 13.5033ZM30.1931 34.4176C30.1931 35.5675 31.1013 36.4997 32.2217 36.4997C33.342 36.4997 34.2502 35.5675 34.2502 34.4176C34.2502 33.2676 33.342 32.3354 32.2217 32.3354C31.1013 32.3354 30.1931 33.2676 30.1931 34.4176Z" fill="white"/>
<path fill-rule="evenodd" clip-rule="evenodd" d="M31.7565 27.5015L32.938 29H41.0679L26.9658 46.25L20.75 40.8965L31.7015 27.5015H31.7565ZM32.2217 36.4997C31.1013 36.4997 30.1931 35.5675 30.1931 34.4176C30.1931 33.2676 31.1013 32.3354 32.2217 32.3354C33.342 32.3354 34.2502 33.2676 34.2502 34.4176C34.2502 35.5675 33.342 36.4997 32.2217 36.4997Z" fill="white"/>
<path fill-rule="evenodd" clip-rule="evenodd" d="M59 5V26H35.0432L29.198 20H53V11H20.4301L20.3217 10.8887C20.3217 10.8887 20.2477 10.9277 20.116 11H11V20H13.914C14.1159 21.547 14.6142 23.078 15.3517 24.1137C15.803 24.7475 16.2845 25.3948 16.7451 26H5V5H59Z" fill="white"/>
</svg>
