<svg width="64" height="64" viewBox="0 0 64 64" fill="none" xmlns="http://www.w3.org/2000/svg">
<rect width="64" height="64" fill="#125DE6"/>
<path fill-rule="evenodd" clip-rule="evenodd" d="M24.5469 12.783C23.6408 12.783 22.9062 13.5179 22.9062 14.4245C22.9062 15.3311 23.6408 16.066 24.5469 16.066C25.453 16.066 26.1875 15.3311 26.1875 14.4245C26.1875 13.5179 25.453 12.783 24.5469 12.783ZM29.4688 14.4245C29.4688 17.1443 27.2652 19.3491 24.5469 19.3491C21.8286 19.3491 19.625 17.1443 19.625 14.4245C19.625 11.7048 21.8286 9.5 24.5469 9.5C27.2652 9.5 29.4688 11.7048 29.4688 14.4245Z" fill="white"/>
<path fill-rule="evenodd" clip-rule="evenodd" d="M52.5781 34.1226C51.672 34.1226 50.9375 34.8576 50.9375 35.7642C50.9375 36.6707 51.672 37.4057 52.5781 37.4057C53.4842 37.4057 54.2188 36.6707 54.2188 35.7642C54.2188 34.8576 53.4842 34.1226 52.5781 34.1226ZM57.5 35.7642C57.5 38.4839 55.2964 40.6887 52.5781 40.6887C49.8598 40.6887 47.6562 38.4839 47.6562 35.7642C47.6562 33.0444 49.8598 30.8396 52.5781 30.8396C55.2964 30.8396 57.5 33.0444 57.5 35.7642Z" fill="white"/>
<path fill-rule="evenodd" clip-rule="evenodd" d="M20.4219 50.934C19.5158 50.934 18.7812 51.6689 18.7812 52.5755C18.7812 53.4821 19.5158 54.217 20.4219 54.217C21.328 54.217 22.0625 53.4821 22.0625 52.5755C22.0625 51.6689 21.328 50.934 20.4219 50.934ZM25.3438 52.5755C25.3438 55.2952 23.1402 57.5 20.4219 57.5C17.7036 57.5 15.5 55.2952 15.5 52.5755C15.5 49.8557 17.7036 47.6509 20.4219 47.6509C23.1402 47.6509 25.3438 49.8557 25.3438 52.5755Z" fill="white"/>
<path fill-rule="evenodd" clip-rule="evenodd" d="M19.6443 19.2417C19.1157 19.4738 18.6511 19.8692 18.2912 20.3665L11.9866 29.0416C10.9313 30.4675 11.2465 32.613 12.6171 33.6391C13.1379 34.0522 13.878 34.2521 14.5085 34.2521C15.5638 34.2521 16.5095 33.7457 17.14 32.9195L22.5948 25.3637L25.8019 24.9239L8.62876 50.683C7.57342 52.1088 7.88865 54.2543 9.25922 55.2804C9.78003 55.6935 10.5201 56 11.2602 56C12.3087 56 13.2489 55.5002 13.8793 54.6835C13.6657 54.0193 13.5503 53.311 13.5503 52.5758C13.5503 48.9176 16.4071 45.9253 20.0124 45.7133L24.2669 39.4892L34.368 42.221L30.6948 49.9767C29.9547 51.6158 30.5852 53.548 32.1613 54.3609C32.5862 54.5608 33.107 54.6674 33.5319 54.6674C34.7928 54.6674 35.8482 53.9478 36.4786 52.8284L41.9335 41.2882C42.3583 40.3687 42.3583 39.3426 41.9335 38.4364C41.5086 37.5169 40.6726 36.9039 39.7269 36.5974L35.1081 35.7579L39.069 29.0416L53.8026 26.2965C55.4883 25.6835 56.434 23.8445 55.8036 22.1122L55.7762 22.0988C55.4609 21.286 54.9401 20.5664 54.0904 20.1532C53.3503 19.7401 52.5142 19.7401 51.6782 19.9534L40.234 21.8323L32.2573 18.1144C31.7932 17.8103 31.2177 17.6217 30.651 17.5859C29.5072 19.7918 27.2036 21.2993 24.5472 21.2993C22.6269 21.2993 20.891 20.5116 19.6443 19.2417ZM22.2176 18.7639C22.9111 19.1374 23.7044 19.3493 24.5472 19.3493C25.9066 19.3493 27.1372 18.7979 28.028 17.9065L22.2176 18.7639ZM18.3875 48.0904C16.7625 48.8295 15.61 50.4266 15.5077 52.3033L18.3875 48.0904ZM45.3736 13.2104C45.3736 16.0888 43.071 18.4209 40.234 18.4209C37.3969 18.4209 35.0944 16.0888 35.0944 13.2104C35.0944 10.332 37.3969 8 40.234 8C43.071 8 45.3736 10.332 45.3736 13.2104Z" fill="white"/>
</svg>
