<svg width="64" height="64" viewBox="0 0 64 64" fill="none" xmlns="http://www.w3.org/2000/svg">
<rect width="64" height="64" fill="#125DE6"/>
<path fill-rule="evenodd" clip-rule="evenodd" d="M26.7641 11H14C12.3431 11 11 12.3431 11 14V50C11 51.6569 12.3431 53 14 53H50C51.6569 53 53 51.6569 53 50V41.9791C50.2722 43.2749 47.2208 44 44 44C32.402 44 23 34.598 23 23C23 18.5383 24.3914 14.4015 26.7641 11Z" fill="white"/>
<path fill-rule="evenodd" clip-rule="evenodd" d="M41 11.3781V8H47V11.3781C48.0388 11.6454 49.0231 12.0484 49.9331 12.5669L53 9.5L57.2426 13.7426L54.2419 16.7434C54.8532 17.742 55.3226 18.8369 55.6219 20H59V26H55.6219C55.3546 27.0388 54.9516 28.0231 54.4331 28.9331L57.2426 31.7426L53 35.9853L50.2566 33.2419C49.258 33.8532 48.1631 34.3226 47 34.6219V38H41V34.6219C39.8369 34.3226 38.742 33.8532 37.7434 33.2419L35 35.9853L30.7574 31.7426L33.5669 28.9331C33.0484 28.0231 32.6454 27.0388 32.3781 26H29V20H32.3781C32.6774 18.8369 33.1468 17.742 33.7581 16.7434L30.7574 13.7426L35 9.5L38.0669 12.5669C38.9769 12.0484 39.9612 11.6454 41 11.3781ZM44 29C47.3137 29 50 26.3137 50 23C50 19.6863 47.3137 17 44 17C40.6863 17 38 19.6863 38 23C38 26.3137 40.6863 29 44 29Z" fill="white"/>
</svg>
