<svg width="64" height="64" viewBox="0 0 64 64" fill="none" xmlns="http://www.w3.org/2000/svg">
<rect width="64" height="64" fill="#125DE6"/>
<path fill-rule="evenodd" clip-rule="evenodd" d="M32.3001 50H15.5C9.70101 50 5 45.299 5 39.5C5 35.3007 7.46511 31.6772 11.0272 29.9976C11.0091 29.6673 11 29.3347 11 29C11 19.0589 19.0589 11 29 11C36.8404 11 43.51 16.0128 45.9787 23.0083C53.2128 23.2604 59 29.2044 59 36.5C59 36.9739 58.9756 37.4421 58.9279 37.9034C56.1872 34.3151 51.8639 32 47 32C38.7157 32 32 38.7157 32 47C32 48.0274 32.1033 49.0307 32.3001 50Z" fill="white"/>
<path fill-rule="evenodd" clip-rule="evenodd" d="M47 59C53.6274 59 59 53.6274 59 47C59 40.3726 53.6274 35 47 35C40.3726 35 35 40.3726 35 47C35 53.6274 40.3726 59 47 59ZM45.2843 50.4286V50.4288H48.7129V50.4286H52.1414V47H48.7129V40.1431H45.2843V47V50.4286Z" fill="white"/>
</svg>
