<svg width="64" height="64" viewBox="0 0 64 64" fill="none" xmlns="http://www.w3.org/2000/svg">
<rect width="64" height="64" fill="#125DE6"/>
<path fill-rule="evenodd" clip-rule="evenodd" d="M32 14C27.0294 14 23 18.0294 23 23C23 27.9706 27.0294 32 32 32C36.9706 32 41 27.9706 41 23C41 18.0294 36.9706 14 32 14ZM38.586 35.5179L35 36.6705V49.5717C35 49.7155 35.0024 49.8583 35.0072 50H32H14V42.5C14 38.3579 22.0589 35 32 35C34.3246 35 36.5462 35.1836 38.586 35.5179Z" fill="white"/>
<path fill-rule="evenodd" clip-rule="evenodd" d="M52.6471 5C56.1557 5 59 7.84431 59 11.3529V18.5H53V12.5C53 11.7307 52.4209 11.0967 51.6749 11.0101L51.5 11H45.5V5H52.6471ZM11 12.5V18.5H5V11.3529C5 7.84431 7.84431 5 11.3529 5H18.5V11H12.5C11.7307 11 11.0967 11.5791 11.0101 12.3251L11 12.5ZM5 52.6471V45.5H11V51.5C11 52.2693 11.5791 52.9033 12.3251 52.9899L12.5 53H18.5V59H11.3529C7.84431 59 5 56.1557 5 52.6471Z" fill="white"/>
<path fill-rule="evenodd" clip-rule="evenodd" d="M38 38.8571L50 35L62 38.8571C62 40.8571 62 44.4286 62 49.5714C62 54.7143 58 58.5714 50 62C42 58.4517 38 54.5946 38 49.5714C38 44.5483 38 40.9768 38 38.8571ZM48.5 48.5L54.5 42.5L56.75 44.75L48.5 53L43.25 47.75L45.5 45.5L48.5 48.5Z" fill="white"/>
</svg>
