<svg width="100" height="100" viewBox="0 0 100 100" fill="none" xmlns="http://www.w3.org/2000/svg">
<rect width="64" height="64" transform="translate(21 21)" fill="#125DE6"/>
<path fill-rule="evenodd" clip-rule="evenodd" d="M32 50V32H50L43.1213 38.8787L49.8492 45.6066L45.6066 49.8492L38.8787 43.1213L32 50ZM50 74H32V56L38.8033 62.8033L45.6066 56L49.8492 60.2426L43.0459 67.0459L50 74ZM74 32H56L62.8033 38.8033L56 45.6066L60.2426 49.8492L67.0459 43.0459L74 50V32ZM74 56V74H56L62.8787 67.1213L56 60.2426L60.2426 56L67.1213 62.8787L74 56Z" fill="white"/>
</svg>
