<svg width="64" height="64" viewBox="0 0 64 64" fill="none" xmlns="http://www.w3.org/2000/svg">
<rect width="64" height="64" fill="#125DE6"/>
<g clip-path="url(#clip0_4954_56721)">
<path fill-rule="evenodd" clip-rule="evenodd" d="M13 11C11.8954 11 11 11.8954 11 13V51C11 52.1046 11.8954 53 13 53H51C52.1046 53 53 52.1046 53 51V13C53 11.8954 52.1046 11 51 11H13ZM18 17C17.4477 17 17 17.4477 17 18V46C17 46.5523 17.4477 47 18 47H46C46.5523 47 47 46.5523 47 46V18C47 17.4477 46.5523 17 46 17H18Z" fill="white"/>
<rect x="20" y="20" width="24" height="24" rx="0.5" fill="white"/>
<path fill-rule="evenodd" clip-rule="evenodd" d="M50 23V17H59V23H50ZM50 29V35H59V29H50ZM50 41V47H59V41H50Z" fill="white"/>
<path fill-rule="evenodd" clip-rule="evenodd" d="M5 17V23H14V17H5ZM5 41V47H14V41H5ZM5 35V29H14V35H5Z" fill="white"/>
<path fill-rule="evenodd" clip-rule="evenodd" d="M17 5V14H23V5H17ZM41 5V14H47V5H41ZM29 14V5H35V14H29Z" fill="white"/>
</g>
<path fill-rule="evenodd" clip-rule="evenodd" d="M14 38C12.3431 38 11 39.3431 11 41V53C11 54.6569 12.3431 56 14 56H50C51.6569 56 53 54.6569 53 53V41C53 39.3431 51.6569 38 50 38H14ZM35 44V50H47V44H35Z" fill="white"/>
<defs>
<clipPath id="clip0_4954_56721">
<rect width="60" height="33" fill="white" transform="translate(2 2)"/>
</clipPath>
</defs>
</svg>
