<svg width="64" height="64" viewBox="0 0 64 64" fill="none" xmlns="http://www.w3.org/2000/svg">
<rect width="64" height="64" fill="#125DE6"/>
<path fill-rule="evenodd" clip-rule="evenodd" d="M40.9172 54.2888C38.1604 55.3927 35.1511 56 32 56C18.7452 56 8 45.2548 8 32C8 18.7452 18.7452 8 32 8C43.7009 8 53.4462 16.3735 55.5702 27.4551C53.5776 25.8768 51.1072 24.8375 48.3994 24.569C45.5703 18.3354 39.2914 14 32 14C22.0589 14 14 22.0589 14 32C14 41.9411 22.0589 50 32 50C34.0483 50 36.0167 49.6579 37.8511 49.0277C38.8287 50.8162 39.8835 52.6068 40.9172 54.2888Z" fill="white"/>
<path fill-rule="evenodd" clip-rule="evenodd" d="M26.1667 29C26.0556 30 26 31 26 32C26 33 26.0556 34 26.1667 35H33.7494C33.5857 35.809 33.5 36.6449 33.5 37.5C33.5 38.4768 33.7499 39.669 34.1816 41H27.5C28.5 44 30 47 32 50H26C24 47 22.5 44 21.5 41H14V35H20.1667C20.0556 34 20 33 20 32C20 31 20.0556 30 20.1667 29H14V23H21.5C22.5 20 24 17 26 14H32C30 17 28.5 20 27.5 23H36.5C35.5 20 34 17 32 14H38C40 17 41.5 20 42.5 23H50V24.8221C49.0352 24.6113 48.0311 24.5 47 24.5C42.9189 24.5 39.2607 26.2439 36.7852 29H26.1667ZM38.2112 49.6804C38.1414 49.7869 38.071 49.8935 38 50H32C33.3361 47.9959 34.4491 45.9917 35.3389 43.9876C36.1376 45.8052 37.1363 47.7494 38.2112 49.6804Z" fill="white"/>
<path fill-rule="evenodd" clip-rule="evenodd" d="M47 56C47 56 56 42.9706 56 38C56 33.0294 51.9706 29 47 29C42.0294 29 38 33.0294 38 38C38 42.9706 47 56 47 56ZM47 41C48.6569 41 50 39.6569 50 38C50 36.3431 48.6569 35 47 35C45.3431 35 44 36.3431 44 38C44 39.6569 45.3431 41 47 41Z" fill="white"/>
</svg>
