<svg width="64" height="64" viewBox="0 0 64 64" fill="none" xmlns="http://www.w3.org/2000/svg">
<rect width="64" height="64" fill="#125DE6"/>
<path fill-rule="evenodd" clip-rule="evenodd" d="M58.7243 32.4903C58.8956 32.1859 58.8956 31.8142 58.7243 31.5097L45.7868 8.50974C45.6097 8.19486 45.2765 8 44.9153 8H19.085C18.7237 8 18.3905 8.19486 18.2134 8.50974L5.27589 31.5097C5.10465 31.8142 5.10465 32.1858 5.27589 32.4903L18.2134 55.4903C18.3905 55.8051 18.7237 56 19.085 56H44.9153C45.2765 56 45.6097 55.8051 45.7868 55.4903L58.7243 32.4903ZM25.1819 20.6932V27.983L31.1534 31.4401V24.1408L25.1819 20.6932ZM38.8183 27.983L32.8675 31.4282V24.1456L38.8183 20.7099V27.983ZM37.6442 19.4085L32.0146 22.6587L26.3705 19.4001L32.0001 16.1409L37.6442 19.4085ZM17.0001 35.0523V42.3421L22.9716 45.7993V38.5L17.0001 35.0523ZM30.6365 42.3421L24.6857 45.7873V38.5048L30.6365 35.0691V42.3421ZM29.4624 33.7676L23.8328 37.0179L18.1887 33.7593L23.8183 30.5L29.4624 33.7676ZM40.1683 30.5L45.8124 33.7676L40.1828 37.0179L34.5387 33.7593L40.1683 30.5ZM33.3501 42.3421V35.0523L39.3216 38.5V45.7993L33.3501 42.3421ZM41.0357 45.7873L46.9865 42.3421V35.0691L41.0357 38.5048V45.7873Z" fill="white"/>
</svg>
