<svg width="64" height="64" viewBox="0 0 64 64" fill="none" xmlns="http://www.w3.org/2000/svg">
<rect width="64" height="64" fill="#125DE6"/>
<path fill-rule="evenodd" clip-rule="evenodd" d="M14 11C14 9.34315 15.3431 8 17 8H47C48.6569 8 50 9.34315 50 11V53C50 54.6569 48.6569 56 47 56H17C15.3431 56 14 54.6569 14 53V11ZM32 20C27.0294 20 23 24.0294 23 29H26V35H23C21.3431 35 20 33.6569 20 32V29C20 22.3726 25.3726 17 32 17C38.6274 17 44 22.3726 44 29V32C44 33.6569 42.6569 35 41 35H38V29H41C41 24.0294 36.9706 20 32 20ZM32 44C33.6569 44 35 42.6569 35 41H38C39.6569 41 41 39.6569 41 38H35H32H29V41C29 42.6569 30.3431 44 32 44Z" fill="white"/>
</svg>
