<svg width="64" height="64" viewBox="0 0 64 64" fill="none" xmlns="http://www.w3.org/2000/svg">
<rect width="64" height="64" fill="#125DE6"/>
<path fill-rule="evenodd" clip-rule="evenodd" d="M14 11C12.3431 11 11 12.3431 11 14V26C11 27.6569 12.3431 29 14 29H50C51.6569 29 53 27.6569 53 26V14C53 12.3431 51.6569 11 50 11H14ZM35 17V23H47V17H35Z" fill="white"/>
<path fill-rule="evenodd" clip-rule="evenodd" d="M14 35C12.3431 35 11 36.3431 11 38V50C11 51.6569 12.3431 53 14 53H50C51.6569 53 53 51.6569 53 50V38C53 36.3431 51.6569 35 50 35H14ZM35 41V47H47V41H35Z" fill="white"/>
</svg>
