<svg width="64" height="64" viewBox="0 0 64 64" fill="none" xmlns="http://www.w3.org/2000/svg">
<rect width="64" height="64" fill="#125DE6"/>
<path fill-rule="evenodd" clip-rule="evenodd" d="M17 9.03125C17 7.63328 18.1193 6.5 19.5 6.5H44.5C45.8807 6.5 47 7.63328 47 9.03125V44.4688C47 45.8667 45.8807 47 44.5 47H36.5V43.9997C38.3201 42.6328 39.5 40.4564 39.5 38C39.5 33.8579 36.1421 30.5 32 30.5C27.8579 30.5 24.5 33.8579 24.5 38C24.5 40.4564 25.6799 42.6328 27.5 43.9997V47H19.5C18.1193 47 17 45.8667 17 44.4688V9.03125ZM33.5 47H30.5V42.2439C28.7522 41.6262 27.5 39.9593 27.5 38C27.5 35.5147 29.5147 33.5 32 33.5C34.4853 33.5 36.5 35.5147 36.5 38C36.5 39.9593 35.2478 41.6262 33.5 42.2439V47ZM22 14.0938C22 12.6958 23.1193 11.5625 24.5 11.5625H39.5C40.8807 11.5625 42 12.6958 42 14.0938V16.625H22V14.0938ZM22 21.6875V24.2188C22 25.6167 23.1193 26.75 24.5 26.75H39.5C40.8807 26.75 42 25.6167 42 24.2188V21.6875H22Z" fill="white"/>
<path fill-rule="evenodd" clip-rule="evenodd" d="M33.5 42.2439C35.2478 41.6262 36.5 39.9593 36.5 38C36.5 35.5147 34.4853 33.5 32 33.5C29.5147 33.5 27.5 35.5147 27.5 38C27.5 39.9593 28.7522 41.6262 30.5 42.2439V53H18.2439C17.6262 51.2522 15.9593 50 14 50C11.5147 50 9.5 52.0147 9.5 54.5C9.5 56.9853 11.5147 59 14 59C15.9593 59 17.6262 57.7478 18.2439 56H30.5H33.5H45.7561C46.3738 57.7478 48.0407 59 50 59C52.4853 59 54.5 56.9853 54.5 54.5C54.5 52.0147 52.4853 50 50 50C48.0407 50 46.3738 51.2522 45.7561 53H33.5V42.2439Z" fill="white"/>
</svg>
