<svg width="64" height="64" viewBox="0 0 64 64" fill="none" xmlns="http://www.w3.org/2000/svg">
<rect width="64" height="64" fill="#125DE6"/>
<path fill-rule="evenodd" clip-rule="evenodd" d="M11 14C11 12.3431 12.3431 11 14 11H50C51.6569 11 53 12.3431 53 14V44C53 45.6569 51.6569 47 50 47H35V50H41V53H35H29H23V50H29V47H14C12.3431 47 11 45.6569 11 44V14ZM38.2128 25.5423C37.1156 22.3136 34.1513 20 30.6667 20C26.2484 20 22.6667 23.7195 22.6667 28.3077C22.6667 28.4625 22.6707 28.6163 22.68 28.7675C21.0962 29.5424 20 31.2152 20 33.1538C20 35.8303 22.0893 38 24.6667 38H38C41.3137 38 44 35.2104 44 31.7692C44 28.402 41.4279 25.6587 38.2128 25.5423ZM38.2128 25.5423C38.1421 25.5398 38.0712 25.5385 38 25.5385L38.213 25.5431C38.2129 25.5428 38.2128 25.5426 38.2128 25.5423Z" fill="white"/>
</svg>
