<svg width="64" height="64" viewBox="0 0 64 64" fill="none" xmlns="http://www.w3.org/2000/svg">
<rect width="64" height="64" fill="#125DE6"/>
<path fill-rule="evenodd" clip-rule="evenodd" d="M58.7241 32.4903C58.8953 32.1859 58.8953 31.8142 58.7241 31.5097L45.7866 8.50974C45.6095 8.19486 45.2763 8 44.915 8H19.0847C18.7234 8 18.3903 8.19486 18.2131 8.50974L5.27564 31.5097C5.10441 31.8142 5.10441 32.1858 5.27564 32.4903L18.2131 55.4903C18.3903 55.8051 18.7234 56 19.0847 56H44.915C45.2763 56 45.6095 55.8051 45.7866 55.4903L58.7241 32.4903ZM21.8709 24.6688L32.0053 30.6674L42.2154 24.7194L31.9995 18.8L21.8709 24.6688ZM43.9991 27.1749L33.601 33.2324V45.684L43.9991 39.6589V27.1749ZM19.9999 27.07L30.601 33.3446V45.8015L19.9999 39.6589V27.07Z" fill="white"/>
</svg>
