<svg width="64" height="64" viewBox="0 0 64 64" fill="none" xmlns="http://www.w3.org/2000/svg">
<rect width="64" height="64" fill="#125DE6"/>
<path fill-rule="evenodd" clip-rule="evenodd" d="M11 11V53H23V47H17V17H23V11H11ZM23 29V23H29V29H23ZM23 41V35H29V41H23ZM35 29V23H41V29H35ZM53 29V11H41V17H47V29H53Z" fill="white"/>
<path fill-rule="evenodd" clip-rule="evenodd" d="M56 43.4942L52.8681 45.2163C52.8308 45.5311 52.7765 45.8398 52.7079 46.1432L55.07 48.849L53.5797 51.47L50.0872 50.7444C49.8621 50.957 49.6267 51.1575 49.3808 51.3459L49.4784 54.9649L46.6773 56L44.4598 53.1626C44.4069 53.1652 44.3543 53.1688 44.3018 53.1724C44.2017 53.1792 44.1016 53.186 44 53.186C43.8979 53.186 43.798 53.1792 43.698 53.1724C43.6456 53.1688 43.5931 53.1652 43.5402 53.1626L41.3227 56L38.5216 54.9649L38.6192 51.3459C38.3733 51.1575 38.1379 50.957 37.9128 50.7444L34.4203 51.47L32.93 48.849L35.2921 46.1432C35.2235 45.8398 35.1692 45.5311 35.1319 45.2163L32 43.4942L32.5171 40.5138L36.0402 39.9834C36.1811 39.7026 36.3346 39.4295 36.503 39.1669L35.1945 35.8052L37.4784 33.8591L40.5045 35.7477C40.7906 35.6236 41.0849 35.5161 41.386 35.4231L42.5097 32H45.4903L46.614 35.4231C46.9151 35.5161 47.2094 35.6236 47.4955 35.7477L50.5216 33.8591L52.8048 35.8052L51.497 39.1669C51.6654 39.4295 51.8182 39.7026 51.9598 39.9834L55.4829 40.5138L56 43.4942ZM44 47C42.3431 47 41 45.6569 41 44C41 42.3431 42.3431 41 44 41C45.6569 41 47 42.3431 47 44C47 45.6569 45.6569 47 44 47Z" fill="white"/>
</svg>
