<svg width="64" height="64" viewBox="0 0 64 64" fill="none" xmlns="http://www.w3.org/2000/svg">
<rect width="64" height="64" fill="#125DE6"/>
<path fill-rule="evenodd" clip-rule="evenodd" d="M35.9551 24.0392C35.7866 23.7043 35.6384 23.3573 35.5121 23H28.4879C27.2524 26.4956 23.9187 29 20 29C15.0294 29 11 24.9706 11 20C11 15.0294 15.0294 11 20 11C23.9187 11 27.2524 13.5044 28.4879 17H35.5121C36.7476 13.5044 40.0813 11 44 11C48.9706 11 53 15.0294 53 20C53 24.9706 48.9706 29 44 29C42.5475 29 41.1754 28.6559 39.9608 28.0449L28.0449 39.9608C28.6559 41.1754 29 42.5475 29 44C29 48.9706 24.9706 53 20 53C15.0294 53 11 48.9706 11 44C11 39.0294 15.0294 35 20 35C21.4525 35 22.8246 35.3441 24.0392 35.9551L35.9551 24.0392ZM21.3022 41.2966C20.9084 41.1065 20.4666 41 20 41C18.3431 41 17 42.3431 17 44C17 45.6569 18.3431 47 20 47C21.6569 47 23 45.6569 23 44C23 43.5334 22.8935 43.0916 22.7034 42.6978L21.3022 41.2966ZM20 23C21.6569 23 23 21.6569 23 20C23 18.3431 21.6569 17 20 17C18.3431 17 17 18.3431 17 20C17 21.6569 18.3431 23 20 23ZM44 23C42.3431 23 41 21.6569 41 20C41 18.3431 42.3431 17 44 17C45.6569 17 47 18.3431 47 20C47 21.6569 45.6569 23 44 23ZM44 53C39.0294 53 35 48.9706 35 44C35 39.0294 39.0294 35 44 35C48.9706 35 53 39.0294 53 44C53 48.9706 48.9706 53 44 53ZM44 47C45.6569 47 47 45.6569 47 44C47 42.3431 45.6569 41 44 41C42.3431 41 41 42.3431 41 44C41 45.6569 42.3431 47 44 47Z" fill="white"/>
</svg>
