<svg width="64" height="64" viewBox="0 0 64 64" fill="none" xmlns="http://www.w3.org/2000/svg">
<rect width="64" height="64" fill="#125DE6"/>
<path fill-rule="evenodd" clip-rule="evenodd" d="M47 38H50V44H53V38C53 36.3431 51.6569 35 50 35H47V38ZM44 38V35H38V38H44ZM35 38V35H29V38H35ZM26 38V35H20V38H26ZM17 38V35H14C12.3431 35 11 36.3431 11 38V41H14V38H17ZM14 44H11V50C11 51.6569 12.3431 53 14 53H17V50H14V44ZM20 50V53H26V50H20ZM29 50V53H35V50H29ZM38 50V53H44V50H38ZM47 50V53H50C51.6569 53 53 51.6569 53 50V47H50V50H47Z" fill="white"/>
<path fill-rule="evenodd" clip-rule="evenodd" d="M35 41H47V47H35V41Z" fill="white"/>
<path fill-rule="evenodd" clip-rule="evenodd" d="M50 11H14C12.3431 11 11 12.3431 11 14V26C11 27.6569 12.3431 29 14 29H50C51.6569 29 53 27.6569 53 26V14C53 12.3431 51.6569 11 50 11ZM47 17H35V23H47V17Z" fill="white"/>
</svg>
