<svg width="64" height="64" viewBox="0 0 64 64" fill="none" xmlns="http://www.w3.org/2000/svg">
<rect width="64" height="64" fill="#125DE6"/>
<path fill-rule="evenodd" clip-rule="evenodd" d="M26 29C30.9706 29 35 24.9706 35 20C35 15.0294 30.9706 11 26 11C21.0294 11 17 15.0294 17 20C17 24.9706 21.0294 29 26 29ZM8 47C8 40.3726 16.0589 35 26 35C35.9411 35 44 40.3726 44 47V53H8V47Z" fill="white"/>
<path fill-rule="evenodd" clip-rule="evenodd" d="M36.874 28.001C38.5242 25.7619 39.4993 22.9948 39.4993 20C39.4993 17.0052 38.5242 14.2381 36.874 11.999C38.1098 11.3606 39.5125 11 40.9993 11C45.9699 11 49.9993 15.0294 49.9993 20C49.9993 24.9706 45.9699 29 40.9993 29C39.5125 29 38.1098 28.6394 36.874 28.001ZM50.0001 53H56.0001V47C56.0001 41.7075 50.8607 37.2152 43.7275 35.6202C47.5679 38.3712 50.0001 42.4489 50.0001 47V53Z" fill="white"/>
</svg>
