<svg width="64" height="64" viewBox="0 0 64 64" fill="none" xmlns="http://www.w3.org/2000/svg">
<rect width="64" height="64" fill="#125DE6"/>
<path fill-rule="evenodd" clip-rule="evenodd" d="M11 44C11 42.3431 12.3431 41 14 41H50C51.6569 41 53 42.3431 53 44V56C53 57.6569 51.6569 59 50 59H14C12.3431 59 11 57.6569 11 56V44ZM35 53V47H47V53H35Z" fill="white"/>
<path d="M52.986 18.9536C53.007 18.3686 52.4487 17.8555 51.3252 17.2896C49.1411 16.1939 37.5995 9.89984 35.3892 8.78969C33.1789 7.68194 32.2794 7.7275 29.6823 9.00309C27.0852 10.2811 14.7964 16.8844 12.6105 18.0569C11.5168 18.6467 10.9813 19.191 11.0005 19.7713V25.5881C11.0005 26.1684 11.585 26.7822 12.6981 27.5111C14.9241 28.9689 27.2795 35.8096 29.2325 37.0876C31.1856 38.3656 32.5576 38.3824 35.0305 36.6177C37.5015 34.8529 49.1131 28.3095 51.3549 26.7103C52.4942 25.895 52.9982 25.262 52.9982 24.689C52.9982 24.1495 53 18.9536 53 18.9536H52.986ZM26.0369 24.4588L35.769 22.4111L32.8289 28.3167L26.0369 24.4588ZM47.5608 19.1407L41.8067 22.2553L41.1819 22.591L35.4295 19.4763L41.8032 16.0236L47.5608 19.1407ZM30.6641 13.4269L29.7226 11.0483L32.6591 12.6213L35.4277 11.3792L34.6787 13.8369L37.4998 15.2851L33.8614 15.803L33.0459 18.4885L31.7299 15.4937L27.528 14.9758L30.6641 13.4269ZM23.4136 16.7813C26.2872 16.7813 28.6148 18.0185 28.6148 19.5435C28.6148 21.0684 26.2855 22.3056 23.4136 22.3056C20.5418 22.3056 18.2107 21.066 18.2107 19.5435C18.2107 18.0185 20.54 16.7813 23.4136 16.7813Z" fill="white"/>
</svg>
