<svg width="64" height="64" viewBox="0 0 64 64" fill="none" xmlns="http://www.w3.org/2000/svg">
<rect width="64" height="64" fill="#125DE6"/>
<path fill-rule="evenodd" clip-rule="evenodd" d="M11 44C11 42.3431 12.3431 41 14 41H50C51.6569 41 53 42.3431 53 44V56C53 57.6569 51.6569 59 50 59H14C12.3431 59 11 57.6569 11 56V44ZM35 53V47H47V53H35Z" fill="white"/>
<path d="M30.6708 8.2028C30.274 7.80401 29.7204 7.55773 29.1049 7.55773C28.4917 7.55773 27.9423 7.80401 27.5501 8.2028H27.5389C27.1432 8.59965 26.8969 9.15368 26.8969 9.76685C26.8969 10.3824 27.1432 10.9317 27.5389 11.3262L27.5501 11.3352C27.9423 11.732 28.4917 11.976 29.1049 11.976C29.7204 11.976 30.274 11.732 30.6708 11.3352L30.6767 11.3262C31.0743 10.9317 31.3183 10.3824 31.3183 9.76685C31.3183 9.15368 31.0743 8.59965 30.6767 8.2028H30.6708ZM29.1049 38.4423C29.7204 38.4423 30.274 38.1917 30.6708 37.7995L30.6767 37.7879C31.0743 37.3965 31.3183 36.8424 31.3183 36.2335C31.3183 35.618 31.0743 35.0663 30.6767 34.6675H30.6708C30.274 34.2641 29.7204 34.0201 29.1049 34.0201C28.4917 34.0201 27.9423 34.2641 27.5501 34.6675H27.5389C27.1432 35.0663 26.8969 35.618 26.8969 36.2335C26.8969 36.8424 27.1432 37.3965 27.5389 37.7879L27.5501 37.7995C27.9423 38.1917 28.4917 38.4423 29.1049 38.4423ZM41.141 31.7495C41.6885 31.606 42.1841 31.2546 42.4864 30.7236L42.5273 30.6461C42.7961 30.1423 42.8451 29.561 42.7016 29.0459C42.5569 28.4942 42.2012 28.0063 41.6713 27.7009L41.6406 27.6803C41.1243 27.3974 40.536 27.336 39.9956 27.4819C39.4463 27.6188 38.9529 27.9857 38.6522 28.5125C38.3475 29.0342 38.2837 29.6361 38.4296 30.1902C38.5802 30.7349 38.9323 31.2274 39.4587 31.5352H39.4622C39.9898 31.8382 40.5874 31.8931 41.141 31.7495ZM31.3719 20.7362C30.7915 20.1573 29.9915 19.7947 29.1049 19.7947C28.2217 19.7947 27.4237 20.1573 26.8444 20.7362C26.2678 21.3132 25.9122 22.1112 25.9122 22.9955C25.9122 23.8822 26.2678 24.6825 26.8444 25.2661C27.4237 25.8404 28.2217 26.2007 29.1049 26.2007C29.9915 26.2007 30.7915 25.8404 31.3719 25.2661C31.9497 24.6825 32.3053 23.8822 32.3053 22.9955C32.3053 22.1112 31.9497 21.3132 31.3719 20.7362ZM30.0974 16.9708C31.3821 17.1825 32.538 17.798 33.42 18.687H33.427C33.5671 18.8282 33.704 18.9811 33.8305 19.136L36.0361 17.8598C35.7396 16.9638 35.726 16.0269 35.9641 15.1492C36.2789 13.9727 37.0414 12.9195 38.1845 12.2584L38.2223 12.2359C39.3529 11.5951 40.6384 11.4628 41.7989 11.7776C42.9739 12.0919 44.0341 12.858 44.694 14.0003V14.0026C45.3507 15.1379 45.4842 16.4417 45.1706 17.6136C44.8582 18.7893 44.0921 19.8495 42.9502 20.5059L42.6491 20.6841H42.6183C41.562 21.1875 40.4003 21.2653 39.3334 20.9848C38.4573 20.7522 37.6534 20.2643 37.0243 19.569L34.8222 20.8413C35.0751 21.5112 35.2155 22.2341 35.2155 22.9955C35.2155 23.7546 35.0751 24.4864 34.8222 25.1611L37.0243 26.4287C37.6534 25.7244 38.4573 25.2455 39.3334 25.0128C40.5084 24.6915 41.8114 24.8284 42.9502 25.4918L43.023 25.526V25.5307C44.1232 26.196 44.8617 27.2266 45.1706 28.3892C45.4842 29.554 45.3507 30.8582 44.694 31.9958L44.6543 32.0756L44.6496 32.0686C43.9898 33.1654 42.9502 33.9085 41.8025 34.2228C40.6247 34.5329 39.3221 34.4006 38.1845 33.7466V33.7373C37.0414 33.0763 36.2789 32.0207 35.9641 30.8469C35.726 29.9715 35.7396 29.0342 36.0361 28.1386L33.8305 26.8664C33.704 27.0216 33.5671 27.1675 33.427 27.3087L33.42 27.3153C32.538 28.2001 31.3821 28.8156 30.0974 29.0206V31.5694C31.0128 31.7608 31.8334 32.2191 32.4765 32.8619L32.4796 32.8689C33.3414 33.726 33.8748 34.9204 33.8748 36.2335C33.8748 37.5424 33.3414 38.7294 32.4796 39.5912L32.4765 39.6048C31.6089 40.4666 30.418 41 29.1049 41C27.7988 41 26.6063 40.4666 25.741 39.6048H25.7379V39.5912C24.8749 38.7294 24.3403 37.5424 24.3403 36.2335C24.3403 34.9204 24.8749 33.726 25.7379 32.8689V32.8619H25.741C26.3829 32.2191 27.2046 31.7608 28.1178 31.5694V29.0206C26.8319 28.8156 25.6795 28.2001 24.7987 27.3153L24.7893 27.3087C23.6883 26.203 23 24.6825 23 22.9955C23 21.3132 23.6883 19.7927 24.7893 18.687H24.7987C25.6795 17.798 26.8319 17.1825 28.1178 16.9708V14.4333C27.2046 14.2349 26.3829 13.777 25.741 13.1385H25.7379V13.1315C24.8749 12.2654 24.3403 11.08 24.3403 9.76685C24.3403 8.46036 24.8749 7.26359 25.7379 6.40181L25.741 6.39753C26.6063 5.53341 27.7988 5 29.1049 5C30.418 5 31.6089 5.53341 32.4765 6.39753V6.40181H32.4796C33.3414 7.26359 33.8748 8.46036 33.8748 9.76685C33.8748 11.08 33.3414 12.2654 32.4796 13.1315L32.4765 13.1385C31.8334 13.777 31.0128 14.2349 30.0974 14.4333V16.9708ZM42.4864 15.2792L42.4681 15.2519C42.1635 14.7387 41.6779 14.3968 41.141 14.2485C40.5874 14.1026 39.9898 14.1645 39.4587 14.4676H39.4622C38.9323 14.7683 38.5779 15.2609 38.4296 15.8126C38.2837 16.3596 38.3475 16.9638 38.6522 17.4902L38.6623 17.5042C38.9677 18.0236 39.4533 18.3722 39.9956 18.5135C40.5407 18.6664 41.148 18.6026 41.6713 18.2972L41.6997 18.2835C42.2149 17.9758 42.558 17.4902 42.7016 16.9568C42.8475 16.4075 42.7895 15.8056 42.4864 15.2792Z" fill="white"/>
</svg>
