<svg width="64" height="64" viewBox="0 0 64 64" fill="none" xmlns="http://www.w3.org/2000/svg">
<rect width="64" height="64" fill="#125DE6"/>
<path fill-rule="evenodd" clip-rule="evenodd" d="M21.1909 17.9716C21.5167 17.6398 21.6796 17.3493 21.6796 17.1001C21.6796 16.8509 20.07 15.5582 16.851 13.222C20.4634 10.5453 24.9313 10.8856 30.2545 14.243C43.3289 14.243 49.9128 18.2972 50.0063 26.4056C52.8301 29.0448 53.6562 31.3597 52.4847 33.3504L41.2696 31.8298C39.1982 35.4702 36.5872 37.6375 33.4367 38.3318C33.7028 35.8302 33.7028 34.0945 33.4367 33.1247C27.8398 33.1247 24.101 36.4351 22.2202 43.056C25.8372 43.8634 28.756 46.176 30.9767 49.9938C28.0604 50.0705 25.1416 49.747 22.2202 49.0233C20.4886 50.8557 17.7485 52.1813 14 53.0002C14 49.9195 15.001 47.0085 17.0029 44.2671C12.0185 32.3595 13.4145 23.5943 21.1909 17.9716Z" fill="white"/>
</svg>
