<svg width="64" height="64" viewBox="0 0 64 64" fill="none" xmlns="http://www.w3.org/2000/svg">
<rect width="64" height="64" fill="#125DE6"/>
<path fill-rule="evenodd" clip-rule="evenodd" d="M26 8C27.6569 8 29 9.34315 29 11V15.5H37.0121C38.2476 12.0044 41.5813 9.5 45.5 9.5C50.4706 9.5 54.5 13.5294 54.5 18.5C54.5 23.4706 50.4706 27.5 45.5 27.5C41.5813 27.5 38.2476 24.9956 37.0121 21.5H29V26C29 27.6569 27.6569 29 26 29H21.5V37.0121C24.9956 38.2476 27.5 41.5813 27.5 45.5C27.5 50.4706 23.4706 54.5 18.5 54.5C13.5294 54.5 9.5 50.4706 9.5 45.5C9.5 41.5813 12.0044 38.2476 15.5 37.0121V29H11C9.34315 29 8 27.6569 8 26V11C8 9.34315 9.34315 8 11 8H26ZM23 14H14V23H23V14ZM54.5 44C54.5 38.201 49.799 33.5 44 33.5C38.201 33.5 33.5 38.201 33.5 44C33.5 49.799 38.201 54.5 44 54.5C45.807 54.5 47.5074 54.0435 48.9921 53.2397L53.8787 58.1213L58.1213 53.8787L53.2397 48.9921C54.0435 47.5074 54.5 45.807 54.5 44ZM39.5 44C39.5 41.5147 41.5147 39.5 44 39.5C46.4853 39.5 48.5 41.5147 48.5 44C48.5 46.4853 46.4853 48.5 44 48.5C41.5147 48.5 39.5 46.4853 39.5 44Z" fill="white"/>
</svg>
