<svg width="64" height="64" viewBox="0 0 64 64" fill="none" xmlns="http://www.w3.org/2000/svg">
<rect width="64" height="64" fill="#125DE6"/>
<path fill-rule="evenodd" clip-rule="evenodd" d="M21.6796 14.1001C21.6796 14.3493 21.5167 14.6398 21.1909 14.9716C13.4727 20.5522 12.0397 29.2284 16.892 41.0002H14C12.3431 41.0002 11 42.3433 11 44.0002V56.0002C11 57.657 12.3431 59.0002 14 59.0002H50C51.6569 59.0002 53 57.657 53 56.0002V44.0002C53 42.3433 51.6569 41.0002 50 41.0002H24.9186C24.0671 40.5822 23.1676 40.2674 22.2202 40.056C24.101 33.4351 27.8398 30.1247 33.4367 30.1247C33.7028 31.0945 33.7028 32.8302 33.4367 35.3318C36.5872 34.6375 39.1982 32.4702 41.2696 28.8298L52.4847 30.3504C53.6562 28.3597 52.8301 26.0448 50.0063 23.4056C49.9128 15.2972 43.3289 11.243 30.2545 11.243C24.9313 7.8856 20.4634 7.54528 16.851 10.222C20.07 12.5582 21.6796 13.8509 21.6796 14.1001ZM47 53.0002H35V47.0002H47V53.0002Z" fill="white"/>
</svg>
