<svg width="64" height="64" viewBox="0 0 64 64" fill="none" xmlns="http://www.w3.org/2000/svg">
<rect width="64" height="64" fill="#125DE6"/>
<path fill-rule="evenodd" clip-rule="evenodd" d="M14 2H8V8V14V20H14H20H26V14H42.5L42.9931 14.016C46.9054 14.2699 50 17.5236 50 21.5C50 25.6421 46.6421 29 42.5 29H41V23H23L23 29H21.5C14.0442 29 8 35.0442 8 42.5C8 49.7428 13.7037 55.6535 20.8645 55.9853L21.5 56H38V62H44H50H56V56V50V44H50H44H38V50H21.5C17.3579 50 14 46.6421 14 42.5C14 38.5236 17.0946 35.2699 21.0069 35.016L21.5 35H23L23 41H41V35H42.5L43.1355 34.9853C50.2963 34.6535 56 28.7428 56 21.5C56 14.0442 49.9558 8 42.5 8L26 8V2H20H14ZM14 8H20V14H14V8ZM50 50H44V56H50V50Z" fill="white"/>
</svg>
