<svg width="64" height="64" viewBox="0 0 64 64" fill="none" xmlns="http://www.w3.org/2000/svg">
<rect width="64" height="64" fill="#125DE6"/>
<path fill-rule="evenodd" clip-rule="evenodd" d="M23 11H17V17H9C8.44772 17 8 17.4477 8 18V46C8 46.5523 8.44771 47 9 47H17V53H23V47H29V53H35V47H41V53H47V47H55C55.5523 47 56 46.5523 56 46V18C56 17.4477 55.5523 17 55 17H47V11H41V17H35V11H29V17H23V11ZM47 26L32 20L17 26L32 32L47 26ZM17 32L20.75 30.5L32 35L43.25 30.5L47 32L32 38L17 32ZM20.75 36.5L17 38L32 44L47 38L43.25 36.5L32 41L20.75 36.5Z" fill="white"/>
</svg>
