<svg width="64" height="64" viewBox="0 0 64 64" fill="none" xmlns="http://www.w3.org/2000/svg">
<rect width="64" height="64" fill="#125DE6"/>
<path fill-rule="evenodd" clip-rule="evenodd" d="M58.2351 8.00029C58.4262 7.99526 58.6125 8.05682 58.758 8.17311C58.9421 8.33729 59.1134 8.66911 58.9035 10.0033V10.0431C58.6292 11.8318 57.3753 12.791 56.1123 13.6223C56.0033 13.6979 55.8931 13.7679 55.7817 13.8387C55.7557 13.8552 55.7297 13.8717 55.7036 13.8884L55.69 13.8972C54.6908 14.546 53.6605 15.215 52.9842 16.2025C52.5515 16.8351 52.1741 18.4648 51.7359 20.3658L51.7231 20.421C51.3598 21.9889 50.9486 23.7638 50.3863 25.5506C49.0238 29.8902 47.2269 32.6796 44.896 34.0622L43.9294 34.5478C43.9294 34.5478 44.0675 33.4521 44.1135 32.9336C44.115 32.9036 44.1177 32.8737 44.1203 32.8438C44.1243 32.7996 44.1282 32.7557 44.1282 32.7124C44.131 32.675 44.1343 32.638 44.1376 32.6017C44.145 32.5191 44.1521 32.44 44.1521 32.3668C44.1798 32.009 43.9073 32.1369 43.8778 32.206C43.5461 33.0361 43.1675 33.8489 42.7437 34.6411C41.024 37.7278 38.66 39.6634 35.53 40.5413C34.672 40.8524 33.166 40.8524 33.166 40.8524L34.2596 39.7757C35.8706 37.6776 37.4669 35.3186 37.651 31.6011C37.6543 31.5922 37.6543 31.5825 37.651 31.5735C37.6399 31.562 37.6249 31.5544 37.6085 31.5518C37.5921 31.5493 37.5753 31.5521 37.5608 31.5597C37.5389 31.5732 37.5185 31.5888 37.5001 31.6063C37.211 31.9325 37.0217 32.4338 36.8088 32.9974C36.7938 33.0369 36.7788 33.0767 36.7636 33.1168C36.4046 34.0673 36.0327 35.0507 35.2373 35.5087L35.1121 35.5502C34.5856 35.6033 34.0564 35.6293 33.5268 35.6279C33.1292 35.6279 32.7223 35.6158 32.2822 35.5917C31.1499 35.5191 29.9974 35.3808 28.8816 35.246C27.3866 35.0663 25.8363 34.8813 24.3634 34.8813C23.1645 34.8622 21.9698 35.0197 20.8229 35.348C19.4327 35.7674 17.9965 36.6334 16.6081 37.4706L16.603 37.4737L16.5865 37.4836C15.5432 38.1125 14.5582 38.7062 13.6424 39.0792C13.1173 39.2863 12.6704 39.4901 12.2369 39.6879L12.1695 39.7187L12.1653 39.7206C10.5912 40.4352 9.34859 40.9993 7.03263 40.9993C6.84077 41.0059 6.6504 40.9654 6.48029 40.8818C6.12495 40.4325 6.74357 39.6081 7.80592 38.3033C7.83958 38.2617 7.87296 38.2207 7.90581 38.1803C8.06162 37.9886 8.20547 37.8117 8.3104 37.669C8.19331 37.5591 8.05276 37.4737 7.89798 37.4184C7.41727 37.1792 6.97219 36.8817 6.57419 36.5335C6.18985 36.1956 5.76106 35.9052 5.29827 35.6694L5 35.5433C5.30563 35.0334 6.02368 34.6394 6.02368 34.6394C6.45267 34.4078 7.02343 34.2937 7.77278 34.2937C8.64064 34.2937 9.66887 34.4581 10.6291 34.6116C10.6875 34.6209 10.7455 34.6302 10.8033 34.6394L10.8211 34.6422C11.8234 34.8019 12.7669 34.9522 13.5485 34.9522C14.2168 34.9522 14.6661 34.8381 14.9165 34.6066C15.7007 33.889 16.4024 33.096 17.0098 32.2406C17.7154 31.3143 18.5543 30.4843 19.5028 29.7744C19.8213 29.5324 20.2889 29.2093 20.7548 28.9103C21.9478 28.1377 22.7671 27.8733 23.8994 27.5277C24.3211 27.3963 24.7979 27.246 25.3595 27.0507C26.5804 26.6235 27.9077 26.2311 29.3099 25.8167L29.3916 25.7925C30.9584 25.3294 32.5768 24.8506 34.0626 24.3183C35.611 23.7618 37.5921 22.9824 39.17 21.8781C39.523 21.6318 39.8588 21.3646 40.1753 21.0779C41.6997 19.6832 42.8118 17.8824 43.887 16.1403C45.8644 12.9379 47.9173 9.62656 52.5202 9.18067C53.2972 9.10636 53.8937 9.06834 54.586 9.0476C55.2614 9.02106 55.9238 8.86459 56.5321 8.58789L56.6775 8.51876C57.0384 8.33211 57.7123 8.00029 58.2351 8.00029ZM14 41H50C51.6569 41 53 42.3431 53 44V56C53 57.6569 51.6569 59 50 59H14C12.3431 59 11 57.6569 11 56V44C11 42.3431 12.3431 41 14 41ZM35 47H47V53H35V47Z" fill="white"/>
</svg>
