<svg width="64" height="64" viewBox="0 0 64 64" fill="none" xmlns="http://www.w3.org/2000/svg">
<rect width="64" height="64" fill="#125DE6"/>
<path fill-rule="evenodd" clip-rule="evenodd" d="M11 44C11 42.3431 12.3431 41 14 41H50C51.6569 41 53 42.3431 53 44V56C53 57.6569 51.6569 59 50 59H14C12.3431 59 11 57.6569 11 56V44ZM35 53V47H47V53H35Z" fill="white"/>
<path fill-rule="evenodd" clip-rule="evenodd" d="M30.6503 8.09682C34.0494 9.73667 37.9996 9.90711 38.2063 9.90711L38.3354 9.89708C43.1934 9.13384 46.7217 9.9652 48.8211 12.3696C57.6667 20.0205 49.7271 30.3984 49.6847 30.5277L49.6477 30.7124L48.5 41H41V38.7996C41.0009 38.0021 41.4549 37.3408 42.231 37.2157L42.496 37.1944H43.313C43.6998 37.1944 44.0238 36.9304 44.1085 36.5759L44.1301 36.3919V33.9842C44.13 33.741 44.018 33.5144 43.8314 33.364L43.6781 33.2664C42.6682 32.7703 41.3616 30.7617 40.7751 29.6124C40.5978 29.263 40.1901 29.0902 39.8095 29.2027L38.8369 29.4912C37.3852 29.915 36.6382 30.0444 34.4683 29.7336C33.2213 29.4129 32.4821 28.937 32.1897 28.7186L32.044 28.6012C31.8908 28.4507 31.683 28.3662 31.4662 28.3662C31.0795 28.3662 30.7554 28.6302 30.6707 28.9847L30.6492 29.1687L27.6615 41H21.0476V39.3949C21.0485 38.5974 21.6408 37.3408 22.4168 37.2157L22.6817 37.1944C23.0685 37.1944 23.3925 36.9304 23.4772 36.5759L23.4988 36.3919L23.498 32.1411L23.1797 32.0178L22.8421 31.1538C28.9483 26.7097 32.0688 22.3023 32.0688 17.8502C32.0688 12.5513 28.6323 10.1243 22.5683 10.8158L21.9316 10.8985L20.5284 11.1023L20.9434 13.859L22.3466 13.6552L22.8979 13.5823C27.3859 13.0491 29.2318 14.3909 29.2318 17.8502C29.2318 21.1183 26.7842 24.6773 21.7721 28.4567L21.5851 27.9909C21.1127 28.1197 20.6318 28.2169 20.146 28.282L19.4137 28.3552V21.9456C19.4137 21.4847 19.0182 21.1146 18.5422 21.1448C18.17 21.1684 17.8756 21.4461 17.7991 21.7941L17.7796 21.9731V23.8474C17.7796 24.1429 17.6002 24.4032 17.3348 24.5182L17.166 24.5689L13.8183 25.1639C11.1174 30.7124 14.8861 36.3919 14.8861 36.3919L12.1218 38.0234C4.98278 29.1687 8.05146 14.9474 14.2418 10.9324C16.7752 9.28926 19.2507 8.75372 21.1982 8.75372C22.1724 8.74439 23.1441 8.85183 24.0918 9.07364C24.2883 9.12892 24.4989 9.10976 24.6816 9.01977C27.3818 7.69363 30.3253 8.00773 30.6503 8.09682ZM17.8836 15.4425C16.5299 15.4425 15.4324 16.5206 15.4324 17.8503C15.4324 19.1799 16.5299 20.258 17.8836 20.258C19.2373 20.258 20.3348 19.1799 20.3348 17.8503C20.3348 16.5206 19.2373 15.4425 17.8836 15.4425Z" fill="white"/>
</svg>
