<svg width="64" height="64" viewBox="0 0 64 64" fill="none" xmlns="http://www.w3.org/2000/svg">
<rect width="64" height="64" fill="#125DE6"/>
<path d="M61.7311 11.2046C61.5694 11.0672 61.3624 10.9944 61.1502 11.0003C60.5692 11.0003 59.8204 11.3925 59.4195 11.6131L59.2579 11.6948C58.5819 12.0218 57.846 12.2067 57.0955 12.2381C56.3263 12.2626 55.6635 12.3075 54.8002 12.3953C49.6859 12.9223 47.4049 16.8357 45.2078 20.6204C44.0131 22.6792 42.7775 24.8074 41.0836 26.4557C40.732 26.7945 40.3589 27.1104 39.9666 27.4013C38.2135 28.7065 36.0123 29.6276 34.2918 30.2853C32.6409 30.9144 30.8427 31.4801 29.1018 32.0275C27.5102 32.5279 26.0046 32.9997 24.6217 33.5144C23.9977 33.7452 23.4679 33.9229 22.9994 34.0782C21.7413 34.4867 20.8309 34.7992 19.5053 35.7121C18.9877 36.0655 18.4681 36.4474 18.1142 36.7334C17.0604 37.5724 16.1282 38.5533 15.3443 39.648C14.6693 40.6589 13.8897 41.5961 13.0183 42.4441C12.7401 42.7178 12.2409 42.8526 11.4983 42.8526C10.6248 42.8526 9.56919 42.6729 8.44813 42.4829C7.32707 42.293 6.10373 42.0744 5.08087 42.0744C4.24825 42.0744 3.61408 42.2092 3.13742 42.4829C3.13742 42.4829 2.33959 42.9486 2 43.5511L2.33141 43.7002C2.84563 43.9789 3.32205 44.3221 3.7491 44.7215C4.19132 45.133 4.68586 45.4846 5.21997 45.7672C5.39195 45.8325 5.54812 45.9334 5.67822 46.0634C5.53706 46.2676 5.33249 46.5311 5.11769 46.8129C3.9373 48.355 3.24994 49.3293 3.64476 49.8603C3.83377 49.9591 4.0453 50.0069 4.25848 49.9992C6.83405 49.9992 8.21492 49.3313 9.96606 48.4857C10.4714 48.2406 10.9889 47.9874 11.6026 47.73C12.6255 47.2868 13.7261 46.5801 14.8922 45.8326C16.4367 44.842 18.0344 43.8166 19.581 43.3203C20.8554 42.9323 22.1828 42.7463 23.5149 42.7689C25.1515 42.7689 26.874 42.9874 28.5351 43.1998C29.7748 43.3591 31.0555 43.5225 32.3136 43.6083C32.8025 43.6369 33.2546 43.6512 33.6965 43.6512C34.2849 43.6528 34.8729 43.6221 35.4579 43.5593L35.597 43.5103C36.4807 42.969 36.894 41.8069 37.2929 40.6835C37.5506 39.9605 37.7675 39.311 38.1112 38.8984C38.1317 38.8777 38.1543 38.8592 38.1787 38.8432C38.1948 38.8343 38.2135 38.831 38.2317 38.834C38.2498 38.837 38.2665 38.846 38.2789 38.8596C38.2825 38.8702 38.2825 38.8817 38.2789 38.8923C38.0744 43.2856 36.3007 46.0736 34.5107 48.5531L33.2955 49.8256C33.2955 49.8256 34.9689 49.8256 35.9222 49.4579C39.4 48.4204 42.0267 46.1328 43.9374 42.485C44.4084 41.5487 44.829 40.5881 45.1976 39.6071C45.2303 39.5254 45.5331 39.3743 45.5024 39.7971C45.5024 39.9217 45.486 40.0605 45.4758 40.2056C45.4758 40.2913 45.4635 40.3792 45.4594 40.467C45.4083 41.0797 45.2549 42.3747 45.2549 42.3747L46.3289 41.8007C48.9188 40.1668 50.9154 36.8702 52.4292 31.7416C53.0613 29.6052 53.5216 27.483 53.9287 25.6142C54.4156 23.3675 54.835 21.4414 55.3157 20.6939C56.0706 19.5215 57.2224 18.729 58.3373 17.959C58.4907 17.8549 58.6421 17.7548 58.7914 17.6445C60.1948 16.6621 61.5879 15.5285 61.8928 13.4145V13.3676C62.126 11.7908 61.9357 11.3986 61.7311 11.2046Z" fill="white"/>
</svg>
