<svg width="64" height="64" viewBox="0 0 64 64" fill="none" xmlns="http://www.w3.org/2000/svg">
<rect width="64" height="64" fill="#125DE6"/>
<path d="M47.7548 19.2478C46.8339 19.2983 45.9583 19.2695 45.1101 19.4069C42.399 19.8463 41.0316 21.7191 41.2897 24.4928C41.463 26.3567 42.0288 28.1097 42.8525 29.7635C44.0093 32.0858 45.2564 34.363 46.4881 36.6467C46.7235 37.0834 47.0649 37.4625 47.3726 37.889C47.0366 38.0988 46.7111 38.2579 46.4376 38.4809C45.651 39.1229 45.4112 40.0052 45.2981 40.9828C44.833 45.005 44.7111 48.383 43.8204 53.0397C42.9297 57.6964 39.5654 57.8511 37.6785 57.8626C35.7915 57.8741 34.8063 57.0863 33.9937 55.3616C33.4315 54.1681 33.3206 52.8934 33.286 51.6263C33.1938 48.2695 33.134 44.9097 33.1632 41.5526C33.1774 39.9427 32.163 37.8895 30.0016 37.8642C29.9564 37.8638 29.9116 37.8429 29.7861 37.8115C30.1572 36.8476 30.4498 35.8615 30.9012 34.9549C32.566 31.6114 32.7088 28.1115 32.0624 24.5247C31.901 23.6304 31.7289 22.714 31.3805 21.8836C30.7562 20.3965 29.5117 19.6849 27.928 19.5599C26.1962 19.4233 24.5903 19.8995 23.0346 20.6009C22.9352 20.6457 22.8359 20.6905 22.5876 20.8022C22.8718 19.4748 23.0864 18.2431 23.4052 17.0389C23.8433 15.3838 24.5385 13.8316 25.5706 12.4523C27.3006 10.1411 29.6633 8.98166 32.5053 8.86771C37.3991 8.6713 41.4271 10.5161 44.6566 14.1828C45.8767 15.5678 46.8286 17.1085 47.5739 18.7867C47.6431 18.9418 47.6985 19.1032 47.7544 19.2473L47.7548 19.2478Z" fill="white"/>
<path d="M24.9206 9.97711C22.075 12.9853 20.9892 16.6817 20.6412 20.6245C20.474 22.5155 20.6403 24.4343 20.6 26.339C20.5729 27.6133 20.4838 28.8893 20.361 30.1586C20.1012 32.8494 20.6886 35.2587 22.5951 37.2587C22.7671 37.4391 22.9653 37.5939 23.1688 37.7761C22.3725 38.6717 21.6073 39.5238 20.8518 40.3839C20.165 41.1656 19.5133 41.9796 18.8026 42.7382C17.7292 43.8843 16.7649 43.9012 15.6174 42.8318C14.4758 41.7677 13.7531 40.4168 13.1084 39.0281C11.3771 35.2981 10.2381 31.3699 9.33229 27.3739C8.86986 25.333 8.43048 23.2781 8.15826 21.2062C7.83992 18.7832 7.9747 16.3585 8.81887 14.0228C9.81422 11.2691 11.7947 9.64326 14.6207 9.01678C17.8963 8.29055 21.786 8.92501 24.9206 9.97711Z" fill="white"/>
<path d="M49.3184 35.8381C49.3561 35.6657 49.3694 35.483 49.435 35.3216C50.1449 33.5734 50.1888 31.7454 49.9662 29.9214C49.6838 27.6084 49.5321 25.31 50.0198 23.0107C50.5785 20.3758 49.7946 18.0433 48.449 15.8211C46.9447 13.3365 45.0754 11.1955 42.6449 9.5812C41.9688 9.13207 41.239 8.76496 40.4556 8.31539C41.0847 8.23603 41.6429 8.14824 42.2046 8.0977C45.2341 7.82547 48.1843 8.07775 50.9567 9.46193C52.5457 10.2551 53.8709 11.3715 55.0352 12.7069C55.7734 13.5529 55.9441 14.5575 55.9862 15.6061C56.0718 17.7338 55.7259 19.8158 55.2342 21.8753C54.062 26.782 52.0934 31.3628 49.5352 35.6994C49.4993 35.7601 49.4506 35.8138 49.408 35.8705C49.3778 35.8599 49.3481 35.8492 49.318 35.8381H49.3184Z" fill="white"/>
<path d="M30.3837 28.9156C30.4426 30.3552 29.7825 32.1837 29.0221 33.9953C28.5907 35.0239 28.2067 36.0737 27.8436 37.129C27.7244 37.4757 27.582 37.5515 27.2358 37.4863C24.3184 36.9343 22.1193 34.1243 22.3681 31.1355C22.5498 28.9506 22.7361 26.7702 22.6248 24.576C22.6208 24.4975 22.6239 24.4181 22.6186 24.3397C22.5668 23.5907 22.8776 23.0465 23.551 22.7072C24.6545 22.1485 25.8033 21.742 27.0425 21.6165C28.3761 21.4813 29.3706 22.1171 29.7111 23.3979C30.1416 25.0176 30.35 26.6718 30.3837 28.9165V28.9156ZM27.2792 22.3161C26.8296 22.2988 26.4812 22.4048 26.2151 22.5822C25.9491 22.7595 25.9509 23.0787 26.0821 23.4245C26.4754 24.4629 27.8463 24.7533 28.6093 23.9566C29.0004 23.5482 28.9308 22.9878 28.4763 22.7152C28.0937 22.4855 27.7288 22.3334 27.2792 22.3161Z" fill="white"/>
<path d="M47.5389 34.2434C46.2518 31.7264 44.7598 29.3606 43.8904 26.6965C43.5636 25.6953 43.2622 24.6853 43.3477 23.6044C43.4351 22.5036 44.0314 21.8474 45.0658 21.553C46.0523 21.2723 47.0507 21.3322 48.1268 21.4186C48.0039 22.3896 47.9122 23.3109 47.7672 24.2234C47.4967 25.9259 47.6457 27.6155 47.8417 29.3101C48.0119 30.7816 48.1857 32.2576 47.7667 33.7211C47.7322 33.8422 47.6994 33.9641 47.6577 34.0825C47.643 34.1237 47.6045 34.1565 47.5389 34.2434ZM45.7228 24.0008C46.2996 23.9804 46.7146 23.7077 47.0086 23.2471C47.2338 22.8942 47.1221 22.4849 46.7222 22.3581C46.0221 22.1369 45.3571 22.3231 44.9691 22.5377C44.5812 22.7523 44.379 23.2475 44.6144 23.5131C44.8498 23.7787 45.146 24.0212 45.7228 24.0008Z" fill="white"/>
<path d="M23.161 43.5579C23.7617 43.4053 24.3567 43.2178 24.965 43.1065C26.5438 42.8174 27.8145 42.0695 28.7261 40.7283C28.9194 40.4437 29.1717 40.198 29.4049 39.9418C29.7006 39.6163 30.0415 39.5999 30.4339 39.7737C31.1987 40.1129 31.6057 41.3614 30.9952 42.0992C29.298 44.1497 27.1459 44.7009 24.6343 44.1857C24.1284 44.0819 23.6393 43.8957 23.1423 43.7476C23.1485 43.6842 23.1547 43.6208 23.161 43.5574V43.5579Z" fill="white"/>
<path d="M55.7521 39.9367C54.8042 40.7064 53.8376 41.3284 52.7243 41.6396C51.1699 42.0741 49.5818 42.2821 47.9599 42.0569C47.1339 41.942 47.0036 41.8024 47.1109 40.9821C47.2559 39.8737 47.7555 39.7004 48.5957 39.4751C48.6848 39.4512 48.8139 39.4849 48.8959 39.5372C49.9715 40.2209 51.1765 40.3326 52.3954 40.2696C53.4918 40.2129 54.5829 40.0568 55.7525 39.9367H55.7521Z" fill="white"/>
</svg>
