<svg width="64" height="64" viewBox="0 0 64 64" fill="none" xmlns="http://www.w3.org/2000/svg">
<rect width="64" height="64" fill="#125DE6"/>
<path fill-rule="evenodd" clip-rule="evenodd" d="M20.2727 7.89087L32.8182 4.54541C31.9818 5.66056 31.9818 7.0545 32.8182 8.72723L20.2727 7.89087ZM19.256 10.027C43.5413 10.9594 51.6364 18.4189 51.6364 18.4189C35.4462 19.3513 16.9431 27.7432 16.9431 27.7432C25.0382 22.1486 26.1946 19.3513 26.1946 16.554C26.1946 13.7567 19.256 10.027 19.256 10.027ZM36.6026 24.0135C25.0382 27.1216 17.714 29.2973 14.6302 30.5405C11.1609 36.1351 22.7253 38 31.9768 38C35.0607 32.4054 36.6026 27.7432 36.6026 24.0135ZM14 41C12.3431 41 11 42.3431 11 44V56C11 57.6568 12.3431 59 14 59H50C51.6569 59 53 57.6568 53 56V44C53 42.3431 51.6569 41 50 41H14ZM35 53V47H47V53H35Z" fill="white"/>
</svg>
