<svg width="64" height="64" viewBox="0 0 64 64" fill="none" xmlns="http://www.w3.org/2000/svg">
<rect width="64" height="64" fill="#125DE6"/>
<path fill-rule="evenodd" clip-rule="evenodd" d="M36.7101 10.8261C43.0939 14.6564 47 21.5552 47 29V40L48.0077 40.6718C51.1266 42.7511 53 46.2515 53 50H47H44H41L38 56H26L23 50H20H17H11C11 46.2515 12.8734 42.7511 15.9923 40.6718L17 40V29C17 21.5552 20.9061 14.6564 27.2899 10.8261L32 8L36.7101 10.8261ZM32 35C35.3137 35 38 32.3137 38 29C38 25.6863 35.3137 23 32 23C28.6863 23 26 25.6863 26 29C26 32.3137 28.6863 35 32 35Z" fill="white"/>
</svg>
