<svg width="64" height="64" viewBox="0 0 64 64" fill="none" xmlns="http://www.w3.org/2000/svg">
<rect width="64" height="64" fill="#125DE6"/>
<path fill-rule="evenodd" clip-rule="evenodd" d="M23 8V29H8V56H23H41H56V29H41V8H23ZM17 44V47H23V50H14V44C14 42.335 15.35 41 17 41H20V38H14V35H20C21.65 35 23 36.335 23 38V41C23 42.665 21.65 44 20 44H17ZM32 29H35V14H29V17H32V29ZM50 44.75V47C50 48.665 48.65 50 47 50H41V47H47V44H44V41H47V38H41V35H47C48.65 35 50 36.335 50 38V40.25C50 41.495 48.995 42.5 47.75 42.5C48.995 42.5 50 43.505 50 44.75Z" fill="white"/>
</svg>
