<svg width="64" height="64" viewBox="0 0 64 64" fill="none" xmlns="http://www.w3.org/2000/svg">
<rect width="64" height="64" fill="#125DE6"/>
<path fill-rule="evenodd" clip-rule="evenodd" d="M35 11H29V23H35V11ZM45.8938 50C53.1343 50 59 43.952 59 36.5C59 29.2145 53.3885 23.2767 46.373 23.0157L18.1063 23C10.868 23 5 29.048 5 36.5C5 43.952 10.868 50 18.1063 50C21.4587 50 24.5165 48.6973 26.834 46.5643C29.696 43.9318 34.1217 43.7135 37.0715 46.4788C39.4002 48.6613 42.494 50 45.8938 50ZM20 32H17V35H14V38H17V41H20V38H23V35H20V32ZM45.5 32C47.9853 32 50 34.0147 50 36.5C50 38.9853 47.9853 41 45.5 41C43.0147 41 41 38.9853 41 36.5C41 34.0147 43.0147 32 45.5 32ZM47 35H44V38H47V35Z" fill="white"/>
</svg>
