<svg width="64" height="64" viewBox="0 0 64 64" fill="none" xmlns="http://www.w3.org/2000/svg">
<rect width="64" height="64" fill="#125DE6"/>
<path fill-rule="evenodd" clip-rule="evenodd" d="M55.1429 8H8.85714C6.7269 8 5 9.67893 5 11.75V46.25C5 48.3211 6.7269 50 8.85714 50H29V53H23V56H29H35H41V53H35V50H55.1429C57.2731 50 59 48.3211 59 46.25V11.75C59 9.67893 57.2731 8 55.1429 8ZM14 26C14 21.0294 18.0294 17 23 17H41C45.9706 17 50 21.0294 50 26V38C50 39.6569 48.6569 41 47 41H45.6939C44.6399 41 43.6632 40.4468 43.1211 39.5428L40.3969 35H23.6031L20.8789 39.5428C20.3368 40.4468 19.3601 41 18.3061 41H17C15.3431 41 14 39.6569 14 38V26ZM26 23H23V26H20V29H23V32H26V29H29V26H26V23ZM39.5 32C41.9853 32 44 29.9853 44 27.5C44 25.0147 41.9853 23 39.5 23C37.0147 23 35 25.0147 35 27.5C35 29.9853 37.0147 32 39.5 32ZM38 26H41V29H38V26Z" fill="white"/>
</svg>
