<svg width="64" height="64" viewBox="0 0 64 64" fill="none" xmlns="http://www.w3.org/2000/svg">
<rect width="64" height="64" fill="#125DE6"/>
<circle cx="12.5" cy="21.5" r="4.5" fill="white"/>
<circle cx="51.5" cy="21.5" r="4.5" fill="white"/>
<circle cx="32" cy="9.5" r="4.5" fill="white"/>
<circle cx="32" cy="54.5" r="4.5" fill="white"/>
<circle cx="12.5" cy="42.5" r="4.5" fill="white"/>
<circle cx="51.5" cy="42.5" r="4.5" fill="white"/>
<path d="M12.5 20.8705L32 9.72763L51.5 20.8705V43.1295L32 54.2724L12.5 43.1295V20.8705Z" stroke="white" stroke-width="3"/>
<path fill-rule="evenodd" clip-rule="evenodd" d="M44 31.4942L40.8681 33.2163C40.8308 33.5311 40.7765 33.8398 40.7079 34.1432L43.07 36.849L41.5797 39.47L38.0872 38.7444C37.8621 38.957 37.6267 39.1575 37.3808 39.3459L37.4784 42.9649L34.6773 44L32.4598 41.1626C32.4069 41.1652 32.3543 41.1688 32.3018 41.1724C32.2017 41.1792 32.1016 41.186 32 41.186C31.8979 41.186 31.798 41.1792 31.698 41.1724C31.6456 41.1688 31.5931 41.1652 31.5402 41.1626L29.3227 44L26.5216 42.9649L26.6192 39.3459C26.3733 39.1575 26.1379 38.957 25.9128 38.7444L22.4203 39.47L20.93 36.849L23.2921 34.1432C23.2235 33.8398 23.1692 33.5311 23.1319 33.2163L20 31.4942L20.5171 28.5138L24.0402 27.9834C24.1811 27.7026 24.3346 27.4295 24.503 27.1669L23.1945 23.8052L25.4784 21.8591L28.5045 23.7477C28.7906 23.6236 29.0849 23.5161 29.386 23.4231L30.5097 20H33.4903L34.614 23.4231C34.9151 23.5161 35.2094 23.6236 35.4955 23.7477L38.5216 21.8591L40.8048 23.8052L39.497 27.1669C39.6654 27.4295 39.8182 27.7026 39.9598 27.9834L43.4829 28.5138L44 31.4942ZM32 35C30.3431 35 29 33.6569 29 32C29 30.3431 30.3431 29 32 29C33.6569 29 35 30.3431 35 32C35 33.6569 33.6569 35 32 35Z" fill="white"/>
</svg>
