<svg width="64" height="64" viewBox="0 0 64 64" fill="none" xmlns="http://www.w3.org/2000/svg">
<rect width="64" height="64" fill="#125DE6"/>
<path fill-rule="evenodd" clip-rule="evenodd" d="M11.6072 34.9975C11.5583 34.9983 11.5093 34.9987 11.4603 34.9987C10.2837 34.9987 9.15724 34.7839 8.11803 34.3914C9.31818 46.5235 19.5526 56 32.0004 56C33.0164 56 34.0176 55.9369 35.0004 55.8143V51.2707C34.0225 51.4217 33.0206 51.5 32.0004 51.5C22.2502 51.5 14.1713 44.344 12.7293 34.9975H11.6072ZM50.5599 26H55.2443C52.58 15.6486 43.1834 8 32.0004 8C30.8914 8 29.8 8.07522 28.7309 8.22083C30.1565 9.39965 31.3458 10.8538 32.2174 12.5012C40.7989 12.5948 48.0503 18.2316 50.5599 26ZM8.02051 31.008C8.43782 20.7442 15.301 12.1417 24.6706 9.1399C26.3549 9.97263 27.797 11.221 28.8629 12.7511C19.5858 14.2516 12.5016 22.2972 12.5004 31.9975H11.5821C11.5416 31.9983 11.501 31.9987 11.4603 31.9987C10.196 31.9987 9.01657 31.6356 8.02051 31.008Z" fill="white"/>
<path fill-rule="evenodd" clip-rule="evenodd" d="M11.5832 31.999C11.5427 31.9998 11.5021 32.0001 11.4614 32.0001C7.89286 32.0001 5 29.1073 5 25.5387C5 22.9546 6.51699 20.7248 8.70901 19.6912C8.69789 19.4878 8.69225 19.2829 8.69225 19.0767C8.69225 12.9592 13.6514 8 19.7689 8C24.5938 8 28.6981 11.0849 30.2172 15.3898C34.6688 15.545 38.23 19.2027 38.23 23.6922C38.23 28.2803 34.5106 31.9997 29.9225 31.9997C29.8868 31.9997 29.8511 31.9995 29.8155 31.999H11.5832Z" fill="white"/>
<path fill-rule="evenodd" clip-rule="evenodd" d="M41 29C39.3431 29 38 30.3431 38 32V56C38 57.6569 39.3431 59 41 59H56C57.6569 59 59 57.6569 59 56V32C59 30.3431 57.6569 29 56 29H41ZM56 32H41V35H56V32ZM41 38H56V41H41V38ZM44 53H41V56H44V53ZM47 53H50V56H47V53ZM56 53H53V56H56V53Z" fill="white"/>
</svg>
