<svg width="64" height="64" viewBox="0 0 64 64" fill="none" xmlns="http://www.w3.org/2000/svg">
<rect width="64" height="64" fill="#125DE6"/>
<path fill-rule="evenodd" clip-rule="evenodd" d="M35 50H15.5C9.70101 50 5 45.299 5 39.5C5 35.3007 7.46511 31.6772 11.0272 29.9976C11.0091 29.6673 11 29.3347 11 29C11 19.0589 19.0589 11 29 11C36.8404 11 43.51 16.0128 45.9787 23.0083C49.0077 23.1139 51.783 24.2173 53.986 26H37C35.8954 26 35 26.8954 35 28V50Z" fill="white"/>
<path fill-rule="evenodd" clip-rule="evenodd" d="M39 29C38.4477 29 38 29.4477 38 30V58C38 58.5523 38.4477 59 39 59H58C58.5523 59 59 58.5523 59 58V30C59 29.4477 58.5523 29 58 29H39ZM56 32H41V35H56V32ZM41 38H56V41H41V38ZM44 53H41V56H44V53ZM47 53H50V56H47V53ZM56 53H53V56H56V53Z" fill="white"/>
</svg>
