<svg width="64" height="64" viewBox="0 0 64 64" fill="none" xmlns="http://www.w3.org/2000/svg">
<path fill-rule="evenodd" clip-rule="evenodd" d="M14 8H50V53H56V56H50H14H8V53H14V8ZM22.2 29.7391C22.2 32.7944 23.1994 35.299 25.226 37.2531C27.2528 39.1797 29.779 40.1429 32.7494 40.1429C36.5528 40.1429 39.912 38.3815 41.8 35.8218L38.9681 33.2623C37.3858 35.2437 35.3869 36.2348 32.9993 36.2348C31.1395 36.2348 29.5846 35.6291 28.3352 34.3907C27.0861 33.1521 26.4754 31.6108 26.4754 29.7391C26.4754 27.8125 27.1138 26.2164 28.3631 24.9778C29.6123 23.7117 31.1671 23.0786 33.027 23.0786C35.3314 23.0786 37.2747 24.0694 38.8849 26.0237L41.6333 23.3538C39.8288 20.8217 36.4975 19.1429 32.805 19.1429C29.8622 19.1429 27.3637 20.1337 25.2816 22.1428C23.2271 24.1245 22.2 26.6566 22.2 29.7391Z" fill="white"/>
</svg>
