<svg width="64" height="64" viewBox="0 0 64 64" fill="none" xmlns="http://www.w3.org/2000/svg">
<rect width="64" height="64" fill="#125DE6"/>
<path fill-rule="evenodd" clip-rule="evenodd" d="M18.3931 33.5C21.7068 33.5 24.3931 30.8137 24.3931 27.5C24.3931 24.1863 21.7068 21.5 18.3931 21.5C15.0794 21.5 12.3931 24.1863 12.3931 27.5C12.3931 30.8137 15.0794 33.5 18.3931 33.5ZM30.5 44C30.5 39.8579 25.1274 36.5 18.5 36.5C11.8726 36.5 6.5 39.8579 6.5 44V47.75H30.5V44Z" fill="white"/>
<path fill-rule="evenodd" clip-rule="evenodd" d="M25.3571 12.5C24.0553 12.5 23 13.5074 23 14.75V19.7669C25.631 21.3377 27.3931 24.2131 27.3931 27.5C27.3931 30.2093 26.1959 32.6391 24.3017 34.289C25.8672 34.7356 27.3129 35.3637 28.5753 36.1527C29.9477 37.0105 31.2074 38.137 32.1091 39.5H53.6429C54.9447 39.5 56 38.4926 56 37.25V14.75C56 13.5074 54.9447 12.5 53.6429 12.5H25.3571ZM28.1009 39.5C26.799 38.4167 25.0387 37.5609 23 37.0452V37.25C23 38.4926 24.0553 39.5 25.3571 39.5H28.1009ZM23 31.3442C23.8697 30.3031 24.3931 28.9627 24.3931 27.5C24.3931 26.0373 23.8697 24.6969 23 23.6558V31.3442ZM31.214 32L36.369 27.1101L40.5437 31.0701L50 22.1001L47.786 20L40.5437 26.8699L36.369 22.9099L29 29.8999L31.214 32Z" fill="white"/>
</svg>
