<svg width="64" height="64" viewBox="0 0 64 64" fill="none" xmlns="http://www.w3.org/2000/svg">
<rect width="64" height="64" fill="#125DE6"/>
<path fill-rule="evenodd" clip-rule="evenodd" d="M52.5714 14H11.4286C9.53502 14 8 15.1513 8 16.5714V47.4286C8 48.8487 9.53502 50 11.4286 50H52.5714C54.465 50 56 48.8487 56 47.4286V16.5714C56 15.1513 54.465 14 52.5714 14ZM29 23H14V26H29V23ZM14 29H29V32H14V29ZM23 35H14V38H23V35ZM47 36.9896C45.6361 37.6375 44.1104 38 42.5 38C40.8896 38 39.3639 37.6375 38 36.9896V45.5L42.5 42.5L47 45.5V36.9896ZM42.5 35C46.6421 35 50 31.6421 50 27.5C50 23.3579 46.6421 20 42.5 20C38.3579 20 35 23.3579 35 27.5C35 31.6421 38.3579 35 42.5 35Z" fill="white"/>
</svg>
