<svg width="64" height="64" viewBox="0 0 64 64" fill="none" xmlns="http://www.w3.org/2000/svg">
<rect width="64" height="64" fill="#125DE6"/>
<path fill-rule="evenodd" clip-rule="evenodd" d="M24.4964 24.08C25.4659 24.08 26.4137 23.7844 27.2199 23.2306C28.026 22.6768 28.6543 21.8897 29.0254 20.9687C29.3964 20.0478 29.4935 19.0344 29.3043 18.0567C29.1152 17.0791 28.6483 16.181 27.9627 15.4762C27.2771 14.7713 26.4037 14.2913 25.4527 14.0968C24.5018 13.9024 23.5162 14.0022 22.6204 14.3837C21.7247 14.7651 20.9591 15.4111 20.4204 16.2399C19.8818 17.0688 19.5942 18.0432 19.5942 19.04C19.5942 20.232 20.0049 21.3804 20.7457 22.2853L18.0739 27.048C17.1368 26.8656 16.1678 26.9681 15.2859 27.3437C14.3902 27.7251 13.6246 28.3711 13.0859 29.2C12.5473 30.0288 12.2598 31.0032 12.2598 32C12.2598 33.3367 12.7762 34.6186 13.6956 35.5638C14.6149 36.509 15.8618 37.04 17.1619 37.04C18.1315 37.04 19.0792 36.7444 19.8854 36.1906C20.6915 35.6368 21.3199 34.8497 21.6909 33.9288C21.7253 33.8434 21.7573 33.7572 21.787 33.6703H27.147C27.3882 34.3762 27.7815 35.0248 28.3058 35.5638C29.2251 36.509 30.472 37.04 31.7721 37.04C32.0769 37.04 32.3795 37.0108 32.6763 36.9536L35.3514 41.7099C35.2349 41.8518 35.1257 42.0008 35.0246 42.1561C34.4844 42.9857 34.196 43.9616 34.1959 44.9599C34.1913 45.6201 34.3138 46.2746 34.5563 46.8859C34.7988 47.4972 35.1566 48.053 35.609 48.5215C36.0614 48.99 36.5995 49.3619 37.1923 49.6156C37.7851 49.8693 38.4209 49.9999 39.063 49.9999C40.034 50.007 40.9852 49.7175 41.796 49.168C42.6067 48.6186 43.2405 47.834 43.6169 46.9137C43.9933 45.9934 44.0954 44.9789 43.9102 43.9989C43.725 43.0189 43.2609 42.1175 42.5768 41.409C41.8926 40.7006 41.0192 40.217 40.0674 40.0196C39.4283 39.887 38.7733 39.8875 38.14 40.0172L35.4831 35.2932C35.823 34.8883 36.0999 34.4282 36.3011 33.9288C36.6722 33.0078 36.7692 31.9944 36.5801 31.0168C36.3909 30.0391 35.924 29.141 35.2385 28.4362C34.5529 27.7313 33.6794 27.2513 32.7285 27.0569C31.7776 26.8624 30.7919 26.9622 29.8962 27.3437C29.0004 27.7251 28.2348 28.3711 27.6962 29.2C27.4666 29.5532 27.2826 29.9329 27.1471 30.3295H21.787C21.5849 29.7382 21.277 29.1898 20.8782 28.7132L23.5386 23.9829C23.8517 24.047 24.1724 24.08 24.4964 24.08ZM24.4964 17.3576C24.8203 17.3561 25.1374 17.4536 25.4074 17.6376C25.6775 17.8216 25.8883 18.0838 26.0132 18.3911C26.1382 18.6984 26.1716 19.0369 26.1092 19.3637C26.0469 19.6906 25.8916 19.991 25.663 20.227C25.4345 20.4631 25.1429 20.624 24.8253 20.6895C24.5077 20.755 24.1783 20.7222 23.8789 20.595C23.5794 20.4679 23.3234 20.2523 23.1433 19.9754C22.9632 19.6986 22.867 19.3731 22.867 19.04C22.867 18.5951 23.0385 18.1682 23.3438 17.8529C23.6492 17.5376 24.0636 17.3595 24.4964 17.3576ZM57.301 23.2306C56.4722 23.7844 55.4978 24.08 54.5009 24.08C53.1642 24.08 51.8823 23.549 50.9371 22.6038C49.9919 21.6586 49.4609 20.3767 49.4609 19.04C49.4609 18.0432 49.7565 17.0688 50.3103 16.2399C50.8641 15.4111 51.6513 14.7651 52.5722 14.3837C53.4932 14.0022 54.5065 13.9024 55.4842 14.0968C56.4619 14.2913 57.3599 14.7713 58.0648 15.4762C58.7696 16.181 59.2496 17.0791 59.4441 18.0567C59.6386 19.0344 59.5388 20.0478 59.1573 20.9687C58.7758 21.8897 58.1298 22.6768 57.301 23.2306ZM55.4376 17.6282C55.1589 17.4475 54.833 17.3534 54.5009 17.3576C54.2788 17.3604 54.0593 17.4072 53.8553 17.4953C53.6513 17.5834 53.4668 17.711 53.3124 17.8708C53.158 18.0306 53.0368 18.2194 52.9558 18.4263C52.8747 18.6332 52.8355 18.8541 52.8403 19.0763C52.8475 19.4083 52.9528 19.7308 53.1429 20.003C53.333 20.2753 53.5995 20.4853 53.9087 20.6064C54.218 20.7275 54.5561 20.7544 54.8806 20.6837C55.2051 20.6129 55.5014 20.4477 55.7322 20.2089C55.963 19.9701 56.1179 19.6683 56.1775 19.3416C56.237 19.0148 56.1985 18.6778 56.0669 18.3729C55.9352 18.068 55.7162 17.8089 55.4376 17.6282ZM50.9371 35.5638C51.4723 36.099 52.1155 36.5014 52.8154 36.7498V40.2103C52.7366 40.2383 52.6583 40.2682 52.5807 40.3002C51.6577 40.6806 50.8684 41.3265 50.313 42.1561C49.7576 42.9857 49.4611 43.9616 49.4611 44.9599C49.4563 45.6201 49.5822 46.2746 49.8316 46.8859C50.0809 47.4972 50.4488 48.053 50.9139 48.5215C51.3791 48.99 51.9323 49.3619 52.5418 49.6156C53.1512 49.8693 53.8049 49.9999 54.465 49.9999C55.4634 50.007 56.4413 49.7175 57.2749 49.168C58.1084 48.6186 58.76 47.834 59.147 46.9137C59.534 45.9934 59.6389 44.9789 59.4485 43.9989C59.2582 43.0189 58.781 42.1175 58.0776 41.409C57.53 40.8574 56.8644 40.4422 56.1346 40.1921V36.7679C56.5446 36.6274 56.9368 36.4339 57.301 36.1906C58.1298 35.6368 58.7758 34.8497 59.1573 33.9288C59.5388 33.0078 59.6386 31.9944 59.4441 31.0168C59.2496 30.0391 58.7696 29.141 58.0648 28.4362C57.3599 27.7313 56.4619 27.2513 55.4842 27.0569C54.5065 26.8624 53.4932 26.9622 52.5722 27.3437C51.6513 27.7251 50.8641 28.3711 50.3103 29.2C49.7565 30.0288 49.4609 31.0032 49.4609 32C49.4609 33.3367 49.9919 34.6186 50.9371 35.5638ZM54.5009 30.3176C54.833 30.3134 55.1589 30.4075 55.4376 30.5882C55.7162 30.7689 55.9352 31.028 56.0669 31.3329C56.1985 31.6378 56.237 31.9749 56.1775 32.3016C56.1179 32.6283 55.963 32.9301 55.7322 33.1689C55.5014 33.4078 55.2051 33.5729 54.8806 33.6437C54.5561 33.7144 54.218 33.6876 53.9087 33.5664C53.5995 33.4453 53.333 33.2354 53.1429 32.9631C52.9528 32.6908 52.8475 32.3683 52.8403 32.0363C52.8355 31.8141 52.8747 31.5932 52.9558 31.3863C53.0368 31.1794 53.158 30.9906 53.3124 30.8308C53.4668 30.671 53.6513 30.5434 53.8553 30.4553C54.0593 30.3672 54.2788 30.3204 54.5009 30.3176ZM55.3938 43.6147C55.119 43.4309 54.7957 43.3327 54.465 43.3327C54.246 43.3318 54.029 43.3741 53.8264 43.4572C53.6237 43.5404 53.4395 43.6628 53.2843 43.8173C53.1291 43.9718 53.006 44.1555 52.9219 44.3578C52.8379 44.56 52.7947 44.7769 52.7947 44.9959C52.7932 45.3266 52.89 45.6502 53.0727 45.9259C53.2553 46.2015 53.5157 46.4167 53.8208 46.5443C54.1259 46.6718 54.462 46.7059 54.7865 46.6423C55.111 46.5786 55.4093 46.4201 55.6436 46.1868C55.878 45.9535 56.0378 45.6559 56.1028 45.3316C56.1678 45.0074 56.1352 44.6712 56.009 44.3656C55.8828 44.0599 55.6687 43.7986 55.3938 43.6147ZM18.073 30.5976C17.8029 30.4136 17.4859 30.3162 17.1619 30.3176C16.7291 30.3195 16.3147 30.4976 16.0094 30.8129C15.704 31.1282 15.5326 31.5551 15.5326 32C15.5326 32.3331 15.6287 32.6586 15.8088 32.9354C15.989 33.2123 16.245 33.4279 16.5444 33.5551C16.8438 33.6822 17.1732 33.7151 17.4908 33.6496C17.8084 33.5841 18.1 33.4231 18.3286 33.1871C18.5571 32.9511 18.7124 32.6506 18.7748 32.3238C18.8371 31.9969 18.8037 31.6584 18.6788 31.3512C18.5538 31.0439 18.343 30.7816 18.073 30.5976ZM31.7721 30.3176C32.0961 30.3162 32.4132 30.4136 32.6832 30.5976C32.9532 30.7816 33.1641 31.0439 33.289 31.3512C33.4139 31.6584 33.4473 31.9969 33.385 32.3238C33.3227 32.6506 33.1674 32.9511 32.9388 33.1871C32.7102 33.4231 32.4187 33.5841 32.101 33.6496C31.7834 33.7151 31.454 33.6822 31.1546 33.5551C30.8552 33.4279 30.5992 33.2123 30.4191 32.9354C30.239 32.6586 30.1428 32.3331 30.1428 32C30.1428 31.5551 30.3142 31.1282 30.6196 30.8129C30.925 30.4976 31.3394 30.3195 31.7721 30.3176ZM39.9664 43.6147C39.6991 43.4309 39.3847 43.3327 39.063 43.3327C38.8497 43.3308 38.6382 43.3725 38.4407 43.4553C38.2432 43.5381 38.0637 43.6604 37.9125 43.8151C37.7614 43.9699 37.6416 44.1539 37.5602 44.3566C37.4788 44.5593 37.4374 44.7766 37.4383 44.9959C37.4369 45.3266 37.531 45.6502 37.7087 45.9259C37.8864 46.2015 38.1397 46.4167 38.4364 46.5443C38.7332 46.6718 39.0601 46.7059 39.3757 46.6423C39.6913 46.5786 39.9814 46.4201 40.2094 46.1868C40.4373 45.9535 40.5927 45.6559 40.656 45.3316C40.7192 45.0074 40.6875 44.6712 40.5647 44.3656C40.442 44.0599 40.2337 43.7986 39.9664 43.6147ZM24.4615 49.9999C25.4325 50.007 26.3837 49.7175 27.1944 49.168C28.0052 48.6186 28.6389 47.834 29.0153 46.9137C29.3917 45.9934 29.4938 44.9789 29.3087 43.9989C29.1235 43.0189 28.6594 42.1175 27.9752 41.409C27.2911 40.7006 26.4177 40.217 25.4658 40.0196C24.5139 39.8221 23.5265 39.9198 22.6287 40.3002C21.7309 40.6806 20.9632 41.3265 20.423 42.1561C20.184 42.5232 19.9942 42.919 19.8569 43.3327H14.5418C14.3027 42.6121 13.9068 41.9535 13.381 41.409C12.6968 40.7006 11.8234 40.217 10.8716 40.0196C9.91969 39.8221 8.93226 39.9198 8.03447 40.3002C7.13668 40.6806 6.36899 41.3265 5.82878 42.1561C5.28856 42.9857 5.00015 43.9616 5.00013 44.9599C4.99551 45.6201 5.11799 46.2746 5.36051 46.8859C5.60304 47.4972 5.96082 48.053 6.41323 48.5215C6.86565 48.99 7.40375 49.3619 7.99655 49.6156C8.58934 49.8693 9.22511 49.9999 9.86723 49.9999C10.8382 50.007 11.7894 49.7175 12.6002 49.168C13.4109 48.6186 14.0447 47.834 14.4211 46.9137C14.4536 46.8343 14.484 46.7542 14.5124 46.6735H19.8759C19.9006 46.7448 19.9269 46.8156 19.9548 46.8859C20.1973 47.4972 20.5551 48.053 21.0075 48.5215C21.4599 48.99 21.998 49.3619 22.5908 49.6156C23.1836 49.8693 23.8194 49.9999 24.4615 49.9999ZM24.4615 43.3327C24.7834 43.3313 25.0985 43.4282 25.3667 43.6112C25.635 43.7942 25.8443 44.055 25.9682 44.3605C26.092 44.6661 26.1247 45.0025 26.0623 45.3272C25.9998 45.6519 25.8449 45.9502 25.6173 46.1842C25.3897 46.4183 25.0995 46.5775 24.7837 46.6417C24.4679 46.706 24.1406 46.6723 23.8435 46.545C23.5463 46.4176 23.2927 46.2024 23.1147 45.9266C22.9367 45.6508 22.8424 45.3269 22.8438 44.9959C22.8438 44.5548 23.0142 44.1317 23.3176 43.8198C23.621 43.5079 24.0324 43.3327 24.4615 43.3327ZM10.7706 43.6147C10.5033 43.4309 10.1889 43.3327 9.86723 43.3327C9.65394 43.3308 9.44242 43.3725 9.24492 43.4553C9.04742 43.5381 8.86788 43.6604 8.71673 43.8151C8.56559 43.9699 8.44584 44.1539 8.36444 44.3566C8.28303 44.5593 8.2416 44.7766 8.24253 44.9959C8.24115 45.3266 8.33526 45.6502 8.51294 45.9259C8.69062 46.2015 8.94386 46.4167 9.24062 46.5443C9.53737 46.6718 9.86426 46.7059 10.1799 46.6423C10.4955 46.5786 10.7856 46.4201 11.0136 46.1868C11.2415 45.9535 11.3969 45.6559 11.4602 45.3316C11.5234 45.0074 11.4917 44.6712 11.3689 44.3656C11.2462 44.0599 11.0379 43.7986 10.7706 43.6147Z" fill="white"/>
</svg>
