<svg width="64" height="64" viewBox="0 0 64 64" fill="none" xmlns="http://www.w3.org/2000/svg">
<rect width="64" height="64" fill="#125DE6"/>
<path fill-rule="evenodd" clip-rule="evenodd" d="M55.9886 28.2525C55.5936 15.3435 45.0047 5 32 5C18.7452 5 8 15.7452 8 29V35V35.0056V41C8 42.6569 9.34315 44 11 44H53C54.6569 44 56 42.6569 56 41V35.0056V35V29L55.9886 28.2525ZM53 32V29C53 27.9814 52.9275 26.9798 52.7873 26H46.811C46.1449 28.5878 43.7958 30.5 41 30.5C37.6863 30.5 35 27.8137 35 24.5C35 21.1863 37.6863 18.5 41 18.5C43.7958 18.5 46.1449 20.4122 46.811 23H52.1304C49.8251 15.2543 43.1713 9.38148 35 8.21267V14.6095L28.1728 21.4469C28.6985 22.3388 29 23.3786 29 24.4888C29 27.8025 26.3137 30.4888 23 30.4888C19.6863 30.4888 17 27.8025 17 24.4888C17 21.1751 19.6863 18.4888 23 18.4888C24.115 18.4888 25.159 18.793 26.0535 19.3228L31.997 13.367L31.9993 8C20.6433 8.00035 11.3927 17.0146 11.0122 28.2781L11 29V32H53ZM23 21.4888C21.3431 21.4888 20 22.832 20 24.4888C20 26.1457 21.3431 27.4888 23 27.4888C24.6569 27.4888 26 26.1457 26 24.4888C26 22.832 24.6569 21.4888 23 21.4888ZM41 21.5C42.6569 21.5 44 22.8431 44 24.5C44 26.1569 42.6569 27.5 41 27.5C39.3431 27.5 38 26.1569 38 24.5C38 22.8431 39.3431 21.5 41 21.5ZM44 35H50V41H44V35ZM11 47C9.34315 47 8 48.3431 8 50V56C8 57.6569 9.34315 59 11 59H53C54.6569 59 56 57.6569 56 56V50C56 48.3431 54.6569 47 53 47H11ZM50 50H44V56H50V50Z" fill="white"/>
</svg>
