<svg width="64" height="64" viewBox="0 0 64 64" fill="none" xmlns="http://www.w3.org/2000/svg">
<rect width="64" height="64" fill="#125DE6"/>
<path fill-rule="evenodd" clip-rule="evenodd" d="M11 14C11 12.3431 12.3431 11 14 11H50C51.6569 11 53 12.3431 53 14V50C53 51.6569 51.6569 53 50 53H14C12.3431 53 11 51.6569 11 50V14ZM32 32C28.6863 32 26 29.3137 26 26C26 22.6863 28.6863 20 32 20C35.3137 20 38 22.6863 38 26C38 29.3137 35.3137 32 32 32ZM20 39.5V44H32H44V39.5C44 37.0147 38.6274 35 32 35C25.3726 35 20 37.0147 20 39.5Z" fill="white"/>
</svg>
