<svg width="64" height="64" viewBox="0 0 64 64" fill="none" xmlns="http://www.w3.org/2000/svg">
<rect width="64" height="64" fill="#125DE6"/>
<path fill-rule="evenodd" clip-rule="evenodd" d="M50 11H14C12.3431 11 11 12.3431 11 14V44C11 45.6569 12.3431 47 14 47H29V50H23V53H29H35H36.1367C35.5499 52.1234 35.163 51.1016 35.0412 50H35V49.25V47H35.3841C36.1037 44.9639 37.7725 43.3762 39.8588 42.7685C41.061 38.2939 45.1458 35 50 35C51.0427 35 52.0496 35.1519 53 35.4346V14C53 12.3431 51.6569 11 50 11ZM24.3856 32.0833L27.3426 26.2163L33.6094 38.75H36.6073L42.3073 28.75H47V24.25H39.6927L35.2701 32.009L28.8906 19.25H25.8144L21.6144 27.5833H17V32.0833H24.3856ZM57.5 53C59.9853 53 62 50.9853 62 48.5C62 46.0147 59.9853 44 57.5 44C57.45 44 57.4001 44.0008 57.3505 44.0024C56.6565 40.5779 53.6293 38 50 38C45.8579 38 42.5 41.3579 42.5 45.5L42.5004 45.5751C42.2579 45.5258 42.007 45.5 41.75 45.5C39.6789 45.5 38 47.1789 38 49.25C38 51.3211 39.6789 53 41.75 53H50H57.5Z" fill="white"/>
</svg>
