<svg width="64" height="64" viewBox="0 0 64 64" fill="none" xmlns="http://www.w3.org/2000/svg">
<rect width="64" height="64" fill="#125DE6"/>
<path fill-rule="evenodd" clip-rule="evenodd" d="M14 11H50C51.6569 11 53 12.3431 53 14V44C53 45.6569 51.6569 47 50 47H35V50H41V53H35H29H23V50H29V47H14C12.3431 47 11 45.6569 11 44V14C11 12.3431 12.3431 11 14 11ZM16.4081 29C19.5204 23.6198 25.3375 20 32 20C38.6625 20 44.4796 23.6198 47.5919 29C44.4796 34.3802 38.6625 38 32 38C25.3375 38 19.5204 34.3802 16.4081 29ZM32 35C35.3137 35 38 32.3137 38 29C38 25.6863 35.3137 23 32 23C28.6863 23 26 25.6863 26 29C26 32.3137 28.6863 35 32 35Z" fill="white"/>
</svg>
