<svg width="64" height="64" viewBox="0 0 64 64" fill="none" xmlns="http://www.w3.org/2000/svg">
<rect width="64" height="64" fill="#125DE6"/>
<path fill-rule="evenodd" clip-rule="evenodd" d="M5 9.5C5 7.01472 7.01472 5 9.5 5C11.9853 5 14 7.01472 14 9.5C14 10.1946 13.8426 10.8525 13.5616 11.4398L16.1233 14.0016C20.3543 10.2664 25.9125 8 32 8C38.0859 8 43.6427 10.2653 47.8734 13.9986L50.4364 11.4356C50.1566 10.8493 50 10.1929 50 9.5C50 7.01472 52.0147 5 54.5 5C56.9853 5 59 7.01472 59 9.5C59 11.9853 56.9853 14 54.5 14C53.8035 14 53.1439 13.8418 52.5553 13.5593L49.9951 16.1195C53.7322 20.351 56 25.9107 56 32C56 38.0888 53.7326 43.6481 49.996 47.8794L52.5567 50.4401C53.1449 50.158 53.804 50 54.5 50C56.9853 50 59 52.0147 59 54.5C59 56.9853 56.9853 59 54.5 59C52.0147 59 50 56.9853 50 54.5C50 53.8065 50.1569 53.1497 50.437 52.5631L47.8744 50.0005C43.6437 53.7344 38.0864 56 32 56C25.9102 56 20.3501 53.7318 16.1185 49.9942L13.5587 52.5541C13.8415 53.143 14 53.803 14 54.5C14 56.9853 11.9853 59 9.5 59C7.01472 59 5 56.9853 5 54.5C5 52.0147 7.01472 50 9.5 50C10.1924 50 10.8483 50.1564 11.4343 50.4358L13.9977 47.8724C10.2649 43.6419 8 38.0854 8 32C8 25.9123 10.2666 20.3539 14.0019 16.1229L11.4404 13.5613C10.8529 13.8425 10.1948 14 9.5 14C7.01472 14 5 11.9853 5 9.5ZM31.9999 12.8003C21.3961 12.8003 12.7999 21.3964 12.7999 32.0003C12.7999 42.6042 21.3961 51.2003 31.9999 51.2003C42.6038 51.2003 51.1999 42.6042 51.1999 32.0003C51.1999 21.3964 42.6038 12.8003 31.9999 12.8003ZM38 25C38 21.4101 35.3137 18.5 32 18.5C28.6863 18.5 26 21.4101 26 25V29.7002H23.75C22.9216 29.7002 22.25 30.3718 22.25 31.2002V41.0002C22.25 41.8286 22.9216 42.5002 23.75 42.5002H40.25C41.0784 42.5002 41.75 41.8286 41.75 41.0002V31.2002C41.75 30.3718 41.0784 29.7002 40.25 29.7002H38V25ZM29 24.875V29.7002H35V24.875C35 23.011 33.6569 21.5 32 21.5C30.4185 21.5 29.1228 22.8768 29.0082 24.6231L29 24.875Z" fill="white"/>
</svg>
