<svg width="64" height="64" viewBox="0 0 64 64" fill="none" xmlns="http://www.w3.org/2000/svg">
<rect width="64" height="64" fill="#125DE6"/>
<path fill-rule="evenodd" clip-rule="evenodd" d="M13.4762 22.1224C13.2043 21.8893 12.8581 21.7613 12.5 21.7613C11.6716 21.7613 11 22.4328 11 23.2613L11 46.9999C11 48.6568 12.3431 49.9999 14 49.9999H50C51.6569 49.9999 53 48.6568 53 46.9999V23.2613C53 22.9032 52.8719 22.5569 52.6389 22.2851C52.0998 21.6561 51.1528 21.5832 50.5238 22.1224L32.9762 37.1632C32.4145 37.6447 31.5855 37.6447 31.0238 37.1632L13.4762 22.1224Z" fill="white"/>
<path fill-rule="evenodd" clip-rule="evenodd" d="M13.433 14C13.1702 14 12.9206 14.1148 12.7496 14.3143C12.4262 14.6917 12.4699 15.2599 12.8473 15.5833L31.0239 31.1633C31.5856 31.6448 32.4145 31.6448 32.9762 31.1633L51.1528 15.5833C51.3523 15.4123 51.4671 15.1627 51.4671 14.9C51.4671 14.4029 51.0642 14 50.5671 14L13.433 14Z" fill="white"/>
</svg>
