<svg width="64" height="64" viewBox="0 0 64 64" fill="none" xmlns="http://www.w3.org/2000/svg">
<rect width="64" height="64" fill="#125DE6"/>
<path fill-rule="evenodd" clip-rule="evenodd" d="M5 9.5C5 7.01472 7.01472 5 9.5 5C11.9853 5 14 7.01472 14 9.5C14 10.1946 13.8426 10.8525 13.5616 11.4398L16.1233 14.0016C20.3543 10.2665 25.9125 8 32 8C38.0859 8 43.6428 10.2653 47.8734 13.9986L50.4364 11.4356C50.1566 10.8493 50 10.1929 50 9.5C50 7.01472 52.0147 5 54.5 5C56.9853 5 59 7.01472 59 9.5C59 11.9853 56.9853 14 54.5 14C53.8035 14 53.1439 13.8418 52.5553 13.5593L49.9951 16.1195C53.7322 20.351 56 25.9107 56 32C56 38.0888 53.7326 43.6481 49.996 47.8794L52.5567 50.4401C53.145 50.158 53.804 50 54.5 50C56.9853 50 59 52.0147 59 54.5C59 56.9853 56.9853 59 54.5 59C52.0147 59 50 56.9853 50 54.5C50 53.8065 50.1569 53.1497 50.437 52.5631L47.8744 50.0005C43.6437 53.7344 38.0864 56 32 56C25.9102 56 20.3501 53.7319 16.1185 49.9942L13.5587 52.5541C13.8415 53.143 14 53.803 14 54.5C14 56.9853 11.9853 59 9.5 59C7.01472 59 5 56.9853 5 54.5C5 52.0147 7.01472 50 9.5 50C10.1924 50 10.8483 50.1564 11.4343 50.4358L13.9977 47.8724C10.2649 43.6419 8 38.0854 8 32C8 25.9123 10.2666 20.3539 14.0019 16.1229L11.4404 13.5613C10.8529 13.8425 10.1948 14 9.5 14C7.01472 14 5 11.9853 5 9.5ZM12.7999 32.0003C12.7999 21.3964 21.3961 12.8003 31.9999 12.8003C42.6038 12.8003 51.1999 21.3964 51.1999 32.0003C51.1999 42.6042 42.6038 51.2003 31.9999 51.2003C21.3961 51.2003 12.7999 42.6042 12.7999 32.0003Z" fill="white"/>
<rect x="38.75" y="28.25" width="7.5" height="7.5" rx="3.75" stroke="white" stroke-width="3"/>
<path d="M33.5 32.0591C34.805 32.0197 37.125 31.9803 38.43 31.9409" stroke="white" stroke-width="3"/>
<rect x="20" y="22.25" width="7.5" height="7.5" rx="3.75" stroke="white" stroke-width="3"/>
<rect x="20" y="34.25" width="7.5" height="7.5" rx="3.75" stroke="white" stroke-width="3"/>
<mask id="mask0_4954_56743" style="mask-type:luminance" maskUnits="userSpaceOnUse" x="27" y="21" width="10" height="20">
<rect x="27.5" y="21.5" width="9" height="19.5" fill="white"/>
</mask>
<g mask="url(#mask0_4954_56743)">
<rect x="20" y="26" width="13.5" height="12" rx="1.5" stroke="white" stroke-width="3"/>
</g>
</svg>
