<svg width="64" height="64" viewBox="0 0 64 64" fill="none" xmlns="http://www.w3.org/2000/svg">
<rect width="64" height="64" fill="#125DE6"/>
<path fill-rule="evenodd" clip-rule="evenodd" d="M32.0117 56C23.8034 56 16.5576 51.8794 12.23 45.5939L14.0117 45L16.7173 44.0981C20.289 48.6073 25.8125 51.5 32.0117 51.5C38.2108 51.5 43.7343 48.6073 47.306 44.0981L50.0117 45L51.7933 45.5939C47.4657 51.8794 40.2199 56 32.0117 56ZM32.0117 12.5C38.2108 12.5 43.7343 15.3927 47.306 19.9019L50.0117 19L51.7933 18.4061C47.4657 12.1206 40.2199 8 32.0117 8C23.8034 8 16.5576 12.1206 12.23 18.4061L14.0117 19L16.7173 19.9019C20.289 15.3927 25.8125 12.5 32.0117 12.5ZM20.0117 23H14.0117V41H20.0117C21.6685 41 23.0117 39.6569 23.0117 38V26C23.0117 24.3431 21.6685 23 20.0117 23ZM17.0117 38V26H20.0117V38H17.0117ZM53.0117 23H50.0117V26H47.0117V23H41.0117C39.3548 23 38.0117 24.3431 38.0117 26V30.5C38.0117 32.1569 39.3548 33.5 41.0117 33.5H44.0117V38H38.0117V41H44.0117C45.6685 41 47.0117 39.6569 47.0117 38V33.5C47.0117 31.8431 45.6685 30.5 44.0117 30.5H41.0117V26H47.0117V29H50.0117V32H53.0117V29H56.0117V26H53.0117V23ZM26.0117 41V23H29.0117L32.0117 32V23H35.0117V41H32.0117L29.0117 32V41H26.0117Z" fill="white"/>
</svg>
