<svg width="64" height="64" viewBox="0 0 64 64" fill="none" xmlns="http://www.w3.org/2000/svg">
<rect width="64" height="64" fill="#125DE6"/>
<path fill-rule="evenodd" clip-rule="evenodd" d="M16.1973 35C15.1599 36.7934 13.2208 38 11 38C7.68629 38 5 35.3137 5 32C5 28.6863 7.68629 26 11 26C13.2208 26 15.1599 27.2066 16.1973 29H23V35H16.1973ZM47.8027 35C48.8401 36.7934 50.7792 38 53 38C56.3137 38 59 35.3137 59 32C59 28.6863 56.3137 26 53 26C50.7792 26 48.8401 27.2066 47.8027 29H41V35H47.8027Z" fill="white"/>
<path fill-rule="evenodd" clip-rule="evenodd" d="M29 16.1973C27.2066 15.1599 26 13.2208 26 11C26 7.68629 28.6863 5 32 5C35.3137 5 38 7.68629 38 11C38 13.2208 36.7934 15.1599 35 16.1973V23H29L29 16.1973ZM29 47.8027C27.2066 48.8401 26 50.7792 26 53C26 56.3137 28.6863 59 32 59C35.3137 59 38 56.3137 38 53C38 50.7792 36.7934 48.8401 35 47.8027V41H29V47.8027Z" fill="white"/>
<path fill-rule="evenodd" clip-rule="evenodd" d="M32 44C38.6274 44 44 38.6274 44 32C44 25.3726 38.6274 20 32 20C25.3726 20 20 25.3726 20 32C20 38.6274 25.3726 44 32 44ZM36.5 30.5C36.5 32.4593 35.2478 34.1262 33.5 34.7439V38H30.5V34.7439C28.7522 34.1262 27.5 32.4593 27.5 30.5C27.5 28.0147 29.5147 26 32 26C34.4853 26 36.5 28.0147 36.5 30.5Z" fill="white"/>
</svg>
