<svg width="64" height="64" viewBox="0 0 64 64" fill="none" xmlns="http://www.w3.org/2000/svg">
<rect width="64" height="64" fill="#125DE6"/>
<path fill-rule="evenodd" clip-rule="evenodd" d="M35 44H29V47.8027C28.0891 48.3296 27.3296 49.0891 26.8027 50H11V56H26.8027C27.8401 57.7934 29.7792 59 32 59C34.2208 59 36.1599 57.7934 37.1973 56H53V50H37.1973C36.6704 49.0891 35.9109 48.3296 35 47.8027V44ZM32 50C33.6569 50 35 51.3431 35 53C35 54.6569 33.6569 56 32 56C30.3431 56 29 54.6569 29 53C29 51.3431 30.3431 50 32 50Z" fill="white"/>
<path fill-rule="evenodd" clip-rule="evenodd" d="M59 30.5C59 37.9558 52.9558 44 45.5 44H15.5C9.70101 44 5 39.299 5 33.5C5 29.3007 7.46511 25.6772 11.0272 23.9976C11.0091 23.6673 11 23.3347 11 23C11 13.0589 19.0589 5 29 5C36.8404 5 43.51 10.0128 45.9787 17.0083C53.2128 17.2604 59 23.2044 59 30.5ZM33.5 14H30.5V20H27.5L32 26L36.5 20H33.5V14ZM30.5 41V35H27.5L32 29L36.5 35H33.5V41H30.5ZM23 29H29V26H23V23L17 27.5L23 32V29ZM35 29H41V32L47 27.5L41 23V26H35V29Z" fill="white"/>
</svg>
