<svg width="64" height="64" viewBox="0 0 64 64" fill="none" xmlns="http://www.w3.org/2000/svg">
<rect width="64" height="64" fill="#125DE6"/>
<path fill-rule="evenodd" clip-rule="evenodd" d="M32 11C43.598 11 53 20.402 53 32V53L46.8492 46.8492C43.049 50.6495 37.799 53 32 53C20.402 53 11 43.598 11 32C11 20.402 20.402 11 32 11ZM22.1138 35.1826C22.1138 34.6611 21.979 34.2685 21.7095 34.0048C21.4458 33.7353 20.9624 33.457 20.2593 33.1699C18.9761 32.6835 18.0532 32.1152 17.4907 31.4648C16.9282 30.8085 16.647 30.0351 16.647 29.1445C16.647 28.0663 17.0278 27.2021 17.7896 26.5517C18.5571 25.8954 19.5298 25.5673 20.7075 25.5673C21.4927 25.5673 22.1929 25.7343 22.8081 26.0683C23.4233 26.3964 23.895 26.8622 24.2231 27.4658C24.5571 28.0693 24.7241 28.7548 24.7241 29.5224H22.1489C22.1489 28.9247 22.02 28.4706 21.7622 28.1601C21.5103 27.8437 21.144 27.6855 20.6636 27.6855C20.2124 27.6855 19.8608 27.8203 19.6089 28.0898C19.3569 28.3535 19.231 28.7109 19.231 29.162C19.231 29.5136 19.3716 29.8329 19.6528 30.1201C19.9341 30.4013 20.4321 30.6943 21.147 30.999C22.395 31.4501 23.3003 32.0038 23.8628 32.6601C24.4312 33.3163 24.7153 34.1513 24.7153 35.165C24.7153 36.2783 24.3608 37.1484 23.6519 37.7753C22.9429 38.4023 21.979 38.7158 20.7603 38.7158C19.9341 38.7158 19.1812 38.5458 18.5015 38.206C17.8218 37.8661 17.2886 37.3798 16.9019 36.747C16.521 36.1142 16.3306 35.3671 16.3306 34.5058H18.9233C18.9233 35.2441 19.0669 35.7802 19.354 36.1142C19.6411 36.4482 20.1099 36.6152 20.7603 36.6152C21.6626 36.6152 22.1138 36.1376 22.1138 35.1826ZM29.375 25.7431L31.792 34.998L34.2002 25.7431H37.5752V38.54H34.9824V35.0771L35.2197 29.7421L32.6621 38.54H30.9043L28.3467 29.7421L28.584 35.0771V38.54H26V25.7431H29.375ZM44.0592 34.0048C44.3287 34.2685 44.4635 34.6611 44.4635 35.1826C44.4635 36.1376 44.0123 36.6152 43.11 36.6152C42.4596 36.6152 41.9908 36.4482 41.7037 36.1142C41.4166 35.7802 41.273 35.2441 41.273 34.5058H38.6803C38.6803 35.3671 38.8707 36.1142 39.2516 36.747C39.6383 37.3798 40.1715 37.8661 40.8512 38.206C41.5309 38.5458 42.2838 38.7158 43.11 38.7158C44.3287 38.7158 45.2926 38.4023 46.0016 37.7753C46.7105 37.1484 47.065 36.2783 47.065 35.165C47.065 34.1513 46.7809 33.3163 46.2125 32.6601C45.65 32.0038 44.7447 31.4501 43.4967 30.999C42.7818 30.6943 42.2838 30.4013 42.0025 30.1201C41.7213 29.8329 41.5807 29.5136 41.5807 29.162C41.5807 28.7109 41.7066 28.3535 41.9586 28.0898C42.2105 27.8203 42.5621 27.6855 43.0133 27.6855C43.4938 27.6855 43.86 27.8437 44.1119 28.1601C44.3697 28.4706 44.4986 28.9247 44.4986 29.5224H47.0738C47.0738 28.7548 46.9068 28.0693 46.5729 27.4658C46.2447 26.8622 45.773 26.3964 45.1578 26.0683C44.5426 25.7343 43.8424 25.5673 43.0572 25.5673C41.8795 25.5673 40.9068 25.8954 40.1393 26.5517C39.3775 27.2021 38.9967 28.0663 38.9967 29.1445C38.9967 30.0351 39.2779 30.8085 39.8404 31.4648C40.4029 32.1152 41.3258 32.6835 42.609 33.1699C43.3121 33.457 43.7955 33.7353 44.0592 34.0048Z" fill="white"/>
</svg>
