<svg width="64" height="64" viewBox="0 0 64 64" fill="none" xmlns="http://www.w3.org/2000/svg">
<rect width="64" height="64" fill="#125DE6"/>
<path fill-rule="evenodd" clip-rule="evenodd" d="M5 9.5C5 7.01472 7.01472 5 9.5 5C11.9853 5 14 7.01472 14 9.5C14 10.1947 13.8426 10.8526 13.5615 11.44L16.1232 14.0016C20.3542 10.2665 25.9124 8 32 8C38.0859 8 43.6427 10.2653 47.8734 13.9986L50.4364 11.4356C50.1566 10.8493 50 10.1929 50 9.5C50 7.01472 52.0147 5 54.5 5C56.9853 5 59 7.01472 59 9.5C59 11.9853 56.9853 14 54.5 14C53.8035 14 53.1439 13.8418 52.5553 13.5593L49.9951 16.1195C53.7322 20.351 56 25.9107 56 32C56 38.0889 53.7325 43.6482 49.996 47.8795L52.5566 50.4401C53.1449 50.158 53.804 50 54.5 50C56.9853 50 59 52.0147 59 54.5C59 56.9853 56.9853 59 54.5 59C52.0147 59 50 56.9853 50 54.5C50 53.8066 50.1568 53.1498 50.437 52.5632L47.8743 50.0005C43.6436 53.7344 38.0864 56 32 56C25.9102 56 20.3501 53.7318 16.1185 49.9942L13.5587 52.5541C13.8415 53.143 14 53.803 14 54.5C14 56.9853 11.9853 59 9.5 59C7.01472 59 5 56.9853 5 54.5C5 52.0147 7.01472 50 9.5 50C10.1924 50 10.8483 50.1564 11.4343 50.4358L13.9977 47.8724C10.2649 43.6419 8 38.0854 8 32C8 25.9123 10.2666 20.354 14.0019 16.1229L11.4403 13.5614C10.8528 13.8425 10.1948 14 9.5 14C7.01472 14 5 11.9853 5 9.5ZM12.7999 32.0003C12.7999 21.3964 21.3961 12.8003 31.9999 12.8003C42.6038 12.8003 51.1999 21.3964 51.1999 32.0003C51.1999 42.6042 42.6038 51.2003 31.9999 51.2003C21.3961 51.2003 12.7999 42.6042 12.7999 32.0003ZM45.5 32C45.5 24.5442 39.4558 18.5 32 18.5C24.5442 18.5 18.5 24.5442 18.5 32C18.5 39.4558 24.5442 45.5 32 45.5C39.4558 45.5 45.5 39.4558 45.5 32ZM42.2584 34.25C42.4166 33.5251 42.5 32.7723 42.5 32C42.5 31.2277 42.4166 30.4749 42.2584 29.75H38.6567C38.718 30.4817 38.75 31.2334 38.75 32C38.75 32.7666 38.718 33.5183 38.6567 34.25H42.2584ZM41.0953 37.25H38.2206C37.9025 38.7558 37.4517 40.1221 36.8975 41.2903C38.6483 40.3654 40.106 38.9602 41.0953 37.25ZM35.6394 34.25C35.7121 33.5197 35.75 32.7669 35.75 32C35.75 31.2331 35.7121 30.4803 35.6394 29.75H28.3606C28.2879 30.4803 28.25 31.2331 28.25 32C28.25 32.7669 28.2879 33.5197 28.3606 34.25H35.6394ZM28.8846 37.25H35.1154C34.8175 38.4057 34.4229 39.45 33.9492 40.3342C33.1213 41.8797 32.3356 42.5 32 42.5C31.6644 42.5 30.8787 41.8797 30.0508 40.3342C29.5771 39.45 29.1825 38.4057 28.8846 37.25ZM25.3433 34.25C25.2819 33.5183 25.25 32.7666 25.25 32C25.25 31.2334 25.2819 30.4817 25.3433 29.75H21.7416C21.5834 30.4749 21.5 31.2277 21.5 32C21.5 32.7723 21.5834 33.5251 21.7416 34.25H25.3433ZM22.9047 37.25H25.7794C26.0975 38.7558 26.5483 40.1221 27.1025 41.2903C25.3517 40.3654 23.894 38.9602 22.9047 37.25ZM36.8975 22.7097C38.6483 23.6346 40.106 25.0398 41.0953 26.75H38.2206C37.9025 25.2442 37.4517 23.8779 36.8975 22.7097ZM33.9492 23.6658C34.4229 24.55 34.8175 25.5943 35.1154 26.75H28.8846C29.1825 25.5943 29.5771 24.55 30.0508 23.6658C30.8787 22.1203 31.6644 21.5 32 21.5C32.3356 21.5 33.1213 22.1203 33.9492 23.6658ZM27.1025 22.7097C26.5483 23.8779 26.0975 25.2442 25.7794 26.75H22.9047C23.894 25.0398 25.3517 23.6346 27.1025 22.7097Z" fill="white"/>
</svg>
