<svg width="64" height="64" viewBox="0 0 64 64" fill="none" xmlns="http://www.w3.org/2000/svg">
<rect width="64" height="64" fill="#125DE6"/>
<path fill-rule="evenodd" clip-rule="evenodd" d="M26 8C24.3431 8 23 9.34315 23 11V23C23 24.6569 24.3431 26 26 26H29V32H11V38V41.8027C9.2066 42.8401 8 44.7792 8 47C8 50.3137 10.6863 53 14 53C17.3137 53 20 50.3137 20 47C20 44.7792 18.7934 42.8401 17 41.8027V38H29V41.8027C27.2066 42.8401 26 44.7792 26 47C26 50.3137 28.6863 53 32 53C35.3137 53 38 50.3137 38 47C38 44.7792 36.7934 42.8401 35 41.8027V38H47V41.8027C45.2066 42.8401 44 44.7792 44 47C44 50.3137 46.6863 53 50 53C53.3137 53 56 50.3137 56 47C56 44.7792 54.7934 42.8401 53 41.8027V38V32H35V26H38C39.6569 26 41 24.6569 41 23V11C41 9.34315 39.6569 8 38 8H26Z" fill="white"/>
</svg>
