<svg width="64" height="64" viewBox="0 0 64 64" fill="none" xmlns="http://www.w3.org/2000/svg">
<rect width="64" height="64" fill="#125DE6"/>
<path fill-rule="evenodd" clip-rule="evenodd" d="M35 44H56V59H35V44Z" fill="white"/>
<path fill-rule="evenodd" clip-rule="evenodd" d="M44 35C40.6863 35 38 37.6863 38 41V47H41V41C41 39.3431 42.3431 38 44 38H47C48.6569 38 50 39.3431 50 41V47H53V41C53 37.6863 50.3137 35 47 35H44Z" fill="white"/>
<path fill-rule="evenodd" clip-rule="evenodd" d="M9.2301 42.5939C13.5577 48.8794 20.8035 53 29.0118 53C30.0237 53 31.021 52.9374 32 52.8158V48.2725C31.0258 48.4223 30.0279 48.5 29.0118 48.5C22.8126 48.5 17.2891 45.6073 13.7174 41.0981L9.2301 42.5939ZM41.0117 32.508V30.5C41.0117 28.8431 39.6686 27.5 38.0117 27.5H35.0117V23H41.0117V20H35.0117C33.3549 20 32.0117 21.3431 32.0117 23V27.5C32.0117 29.1569 33.3549 30.5 35.0117 30.5H38.0117V34.2812C38.8778 33.5087 39.8943 32.9012 41.0117 32.508ZM37.2917 35C36.5169 35.8656 35.9072 36.8821 35.5121 38H32.0117V35H37.2917ZM44.3061 16.9019C40.7344 12.3927 35.2109 9.5 29.0118 9.5C22.8126 9.5 17.2891 12.3927 13.7174 16.9019L9.2301 15.4061C13.5577 9.12062 20.8035 5 29.0118 5C37.22 5 44.4658 9.12062 48.7934 15.4061L44.3061 16.9019ZM14.0117 20H8.01172V38H14.0117C15.6686 38 17.0117 36.6569 17.0117 35V23C17.0117 21.3431 15.6686 20 14.0117 20ZM11.0117 35V23H14.0117V35H11.0117ZM20.0117 20V38H23.0117V29L26.0117 38H29.0117V20H26.0117V29L23.0117 20H20.0117Z" fill="white"/>
</svg>
