<svg width="64" height="64" viewBox="0 0 64 64" fill="none" xmlns="http://www.w3.org/2000/svg">
<rect width="64" height="64" fill="#125DE6"/>
<path fill-rule="evenodd" clip-rule="evenodd" d="M5 9.5C5 7.01472 7.01472 5 9.5 5C11.9853 5 14 7.01472 14 9.5C14 10.1947 13.8426 10.8526 13.5615 11.44L16.1232 14.0016C20.3542 10.2665 25.9124 8 32 8C38.0859 8 43.6427 10.2653 47.8734 13.9986L50.4364 11.4356C50.1566 10.8493 50 10.1929 50 9.5C50 7.01472 52.0147 5 54.5 5C56.9853 5 59 7.01472 59 9.5C59 11.9853 56.9853 14 54.5 14C53.8035 14 53.1439 13.8418 52.5553 13.5593L49.9951 16.1195C53.7322 20.351 56 25.9107 56 32C56 38.0889 53.7325 43.6482 49.996 47.8795L52.5566 50.4401C53.1449 50.158 53.804 50 54.5 50C56.9853 50 59 52.0147 59 54.5C59 56.9853 56.9853 59 54.5 59C52.0147 59 50 56.9853 50 54.5C50 53.8066 50.1568 53.1498 50.437 52.5632L47.8743 50.0005C43.6436 53.7344 38.0864 56 32 56C25.9102 56 20.3501 53.7318 16.1185 49.9942L13.5587 52.5541C13.8415 53.143 14 53.803 14 54.5C14 56.9853 11.9853 59 9.5 59C7.01472 59 5 56.9853 5 54.5C5 52.0147 7.01472 50 9.5 50C10.1924 50 10.8483 50.1564 11.4343 50.4358L13.9977 47.8724C10.2649 43.6419 8 38.0854 8 32C8 25.9123 10.2666 20.354 14.0019 16.1229L11.4403 13.5614C10.8528 13.8425 10.1948 14 9.5 14C7.01472 14 5 11.9853 5 9.5ZM31.9999 12.8003C21.3961 12.8003 12.7999 21.3964 12.7999 32.0003C12.7999 42.6042 21.3961 51.2003 31.9999 51.2003C42.6038 51.2003 51.1999 42.6042 51.1999 32.0003C51.1999 21.3964 42.6038 12.8003 31.9999 12.8003ZM36.0394 23.671C35.4536 23.0852 35.4536 22.1355 36.0394 21.5497C36.6252 20.9639 37.575 20.9639 38.1607 21.5497L42.4034 25.7923C42.6952 26.0842 42.8416 26.4663 42.8427 26.8488C42.8439 27.2342 42.6975 27.6201 42.4034 27.9142L38.1607 32.1569C37.575 32.7426 36.6252 32.7426 36.0394 32.1569C35.4536 31.5711 35.4536 30.6213 36.0394 30.0355L37.7224 28.3525H23C22.1716 28.3525 21.5 27.681 21.5 26.8525C21.5 26.0241 22.1716 25.3525 23 25.3525H37.7209L36.0394 23.671ZM28.3034 42.4459C28.8891 41.8601 28.8891 40.9104 28.3034 40.3246L26.6218 38.6431H41.3428C42.1712 38.6431 42.8428 37.9715 42.8428 37.1431C42.8428 36.3146 42.1712 35.6431 41.3428 35.6431H26.6204L28.3034 33.9601C28.8891 33.3743 28.8891 32.4245 28.3034 31.8388C27.7176 31.253 26.7678 31.253 26.182 31.8388L21.9394 36.0814C21.6453 36.3755 21.4988 36.7614 21.5001 37.1468C21.5011 37.5293 21.6476 37.9115 21.9394 38.2033L26.182 42.4459C26.7678 43.0317 27.7176 43.0317 28.3034 42.4459Z" fill="white"/>
</svg>
