<svg width="64" height="64" viewBox="0 0 64 64" fill="none" xmlns="http://www.w3.org/2000/svg">
<rect width="64" height="64" fill="#125DE6"/>
<path fill-rule="evenodd" clip-rule="evenodd" d="M5 9.5C5 7.01472 7.01472 5 9.5 5C11.9853 5 14 7.01472 14 9.5C14 10.1947 13.8426 10.8526 13.5615 11.44L16.1232 14.0016C20.3542 10.2665 25.9124 8 32 8C38.0859 8 43.6428 10.2653 47.8734 13.9986L50.4364 11.4356C50.1566 10.8493 50 10.1929 50 9.5C50 7.01472 52.0147 5 54.5 5C56.9853 5 59 7.01472 59 9.5C59 11.9853 56.9853 14 54.5 14C53.8035 14 53.1439 13.8418 52.5553 13.5593L49.9951 16.1195C53.7322 20.351 56 25.9107 56 32C56 38.0889 53.7325 43.6482 49.996 47.8795L52.5566 50.4401C53.1449 50.158 53.804 50 54.5 50C56.9853 50 59 52.0147 59 54.5C59 56.9853 56.9853 59 54.5 59C52.0147 59 50 56.9853 50 54.5C50 53.8066 50.1568 53.1498 50.437 52.5632L47.8743 50.0005C43.6436 53.7344 38.0864 56 32 56C25.9102 56 20.3501 53.7319 16.1185 49.9942L13.5587 52.5541C13.8415 53.143 14 53.803 14 54.5C14 56.9853 11.9853 59 9.5 59C7.01472 59 5 56.9853 5 54.5C5 52.0147 7.01472 50 9.5 50C10.1924 50 10.8483 50.1564 11.4343 50.4358L13.9977 47.8724C10.2649 43.6419 8 38.0854 8 32C8 25.9123 10.2666 20.354 14.0019 16.123L11.4403 13.5614C10.8528 13.8425 10.1948 14 9.5 14C7.01472 14 5 11.9853 5 9.5ZM12.7999 32.0003C12.7999 21.3964 21.3961 12.8003 31.9999 12.8003C42.6038 12.8003 51.1999 21.3964 51.1999 32.0003C51.1999 42.6042 42.6038 51.2003 31.9999 51.2003C21.3961 51.2003 12.7999 42.6042 12.7999 32.0003ZM17 32C17 27.0294 21.0294 23 26 23C28.4213 23 30.6193 23.9562 32.2369 25.5115L37.4107 22.4589C37.6196 22.3196 37.8286 22.25 38.1071 22.25C38.3161 22.25 38.4858 22.2892 38.6458 22.3675L45.7679 26.5679C46.1335 26.7507 46.3925 27.1468 46.4515 27.5695L46.4643 27.7518V36.2482C46.4643 36.6748 46.251 37.048 45.9178 37.3213L45.7679 37.4321L38.8036 41.5411C38.5946 41.6804 38.3161 41.75 38.1071 41.75C37.9504 41.75 37.7546 41.7108 37.5783 41.6325L37.4107 41.5411L32.2369 38.4885C30.6193 40.0439 28.4213 41 26 41C21.0294 41 17 36.9706 17 32ZM34.1427 35.8385L38.1057 38.1762L43.213 35.1634V28.834L38.1057 25.8213L34.1418 28.1595C34.6922 29.3243 35 30.6262 35 32C35 33.373 34.6926 34.6742 34.1427 35.8385Z" fill="white"/>
</svg>
