<svg width="64" height="64" viewBox="0 0 64 64" fill="none" xmlns="http://www.w3.org/2000/svg">
<rect width="64" height="64" fill="#125DE6"/>
<path fill-rule="evenodd" clip-rule="evenodd" d="M5 9.5C5 7.01472 7.01472 5 9.5 5C11.9853 5 14 7.01472 14 9.5C14 10.1946 13.8426 10.8525 13.5615 11.4399L16.1232 14.0016C20.3543 10.2665 25.9125 8 32 8C38.0859 8 43.6427 10.2653 47.8734 13.9986L50.4364 11.4356C50.1566 10.8493 50 10.1929 50 9.5C50 7.01472 52.0147 5 54.5 5C56.9853 5 59 7.01472 59 9.5C59 11.9853 56.9853 14 54.5 14C53.8035 14 53.1439 13.8418 52.5553 13.5593L49.9951 16.1195C53.7322 20.351 56 25.9107 56 32C56 38.0889 53.7326 43.6481 49.996 47.8795L52.5566 50.4401C53.1449 50.158 53.804 50 54.5 50C56.9853 50 59 52.0147 59 54.5C59 56.9853 56.9853 59 54.5 59C52.0147 59 50 56.9853 50 54.5C50 53.8066 50.1568 53.1498 50.437 52.5631L47.8744 50.0005C43.6436 53.7344 38.0864 56 32 56C25.9102 56 20.3502 53.7319 16.1186 49.9943L13.5587 52.5541C13.8415 53.1431 14 53.803 14 54.5C14 56.9853 11.9853 59 9.5 59C7.01472 59 5 56.9853 5 54.5C5 52.0147 7.01472 50 9.5 50C10.1925 50 10.8484 50.1564 11.4344 50.4358L13.9978 47.8724C10.2649 43.6419 8 38.0855 8 32C8 25.9123 10.2666 20.354 14.0019 16.1229L11.4403 13.5613C10.8528 13.8425 10.1948 14 9.5 14C7.01472 14 5 11.9853 5 9.5ZM32 12.8003C21.3962 12.8003 12.8 21.3964 12.8 32.0003C12.8 42.6042 21.3962 51.2003 32 51.2003C42.6039 51.2003 51.2 42.6042 51.2 32.0003C51.2 21.3964 42.6039 12.8003 32 12.8003ZM41.9163 22.0836C39.1384 19.3057 34.6183 19.3053 31.84 22.0836L28.69 25.2336C28.6844 25.2392 28.6783 25.2453 28.6732 25.2509C25.9279 28.0115 25.8894 32.5063 28.69 35.3098C28.9864 35.6062 29.3083 35.8759 29.652 36.1159C29.9521 36.3253 30.3581 36.2935 30.6168 36.0347L31.6037 35.0478C31.9951 34.6564 32.1706 34.146 32.1521 33.6506C32.143 33.4133 32.0222 33.1942 31.8264 33.0597C31.6899 32.9657 31.5152 32.8312 31.3417 32.6581C30.0258 31.3421 30.0203 29.2062 31.3417 27.8848L34.4917 24.7352C35.8154 23.4115 37.9745 23.4195 39.2882 24.7591C40.589 26.0857 40.5478 28.2248 39.2341 29.5385L38.6206 30.152C38.4167 30.3559 38.3502 30.6578 38.4433 30.9307C38.7181 31.7366 38.8671 32.5712 38.8975 33.402C38.9213 34.0538 39.7156 34.3604 40.1769 33.8991L41.9162 32.1598C44.6946 29.382 44.6946 24.8614 41.9163 22.0836ZM35.31 28.6898C38.1106 31.4933 38.0722 35.9881 35.3268 38.7487L35.3193 38.7566L35.31 38.766L32.16 41.916C29.3817 44.6943 24.8616 44.6939 22.0837 41.916C19.3054 39.1382 19.3054 34.6176 22.0837 31.8398L23.8231 30.1004C24.2843 29.6392 25.0786 29.9457 25.1025 30.5976C25.1328 31.4283 25.2818 32.2629 25.5567 33.0689C25.6498 33.3418 25.5833 33.6437 25.3794 33.8476L24.7659 34.461C23.4522 35.7747 23.411 37.9138 24.7118 39.2404C26.0254 40.58 28.1845 40.588 29.5082 39.2643L32.6582 36.1148C33.9797 34.7933 33.9742 32.6574 32.6582 31.3415C32.4848 31.1683 32.31 31.0338 32.1735 30.9398C31.9777 30.8054 31.857 30.5863 31.8479 30.3489C31.8293 29.8536 32.0048 29.3432 32.3962 28.9518L33.3831 27.9648C33.6419 27.706 34.0479 27.6742 34.348 27.8837C34.6917 28.1236 35.0136 28.3934 35.31 28.6898Z" fill="white"/>
</svg>
