<svg width="64" height="64" viewBox="0 0 64 64" fill="none" xmlns="http://www.w3.org/2000/svg">
<rect width="64" height="64" fill="#125DE6"/>
<path fill-rule="evenodd" clip-rule="evenodd" d="M11 8V56H53V8H11ZM20 20V17H44V20H20ZM20 26V23H35V26H20ZM24.5 29C26.4593 29 28.1262 30.2522 28.7439 32H36.5C38.9853 32 41 34.0147 41 36.5V41H44V44V47V50H41H38H35L35 47H27.5C25.0147 47 23 44.9853 23 42.5V37.7439C21.2522 37.1262 20 35.4593 20 33.5C20 31.0147 22.0147 29 24.5 29ZM27.5 44H35L35 41H38V36.5C38 35.6716 37.3284 35 36.5 35H28.7439C28.292 36.2786 27.2786 37.292 26 37.7439V42.5C26 43.3284 26.6716 44 27.5 44ZM23 33.5C23 34.3284 23.6716 35 24.5 35C25.3284 35 26 34.3284 26 33.5C26 32.6716 25.3284 32 24.5 32C23.6716 32 23 32.6716 23 33.5ZM38 44V47H41V44H38Z" fill="white"/>
</svg>
