<svg width="64" height="64" viewBox="0 0 64 64" fill="none" xmlns="http://www.w3.org/2000/svg">
<rect width="64" height="64" fill="#125DE6"/>
<path fill-rule="evenodd" clip-rule="evenodd" d="M54 5C51.7909 5 50 6.79086 50 9V10C50 12.2091 51.7909 14 54 14H55C57.2091 14 59 12.2091 59 10V9C59 6.79086 57.2091 5 55 5H54ZM9 50C6.79086 50 5 51.7909 5 54V55C5 57.2091 6.79086 59 9 59H10C12.2091 59 14 57.2091 14 55V54C14 51.7909 12.2091 50 10 50H9Z" fill="white"/>
<path fill-rule="evenodd" clip-rule="evenodd" d="M59 54C59 51.7909 57.2091 50 55 50L54 50C51.7909 50 50 51.7909 50 54L50 55C50 57.2091 51.7909 59 54 59L55 59C57.2091 59 59 57.2091 59 55L59 54ZM14 9C14 6.79086 12.2091 5 10 5L9 5C6.79086 5 5 6.79086 5 9L5 10C5 12.2091 6.79086 14 9 14L10 14C12.2091 14 14 12.2091 14 10L14 9Z" fill="white"/>
<path fill-rule="evenodd" clip-rule="evenodd" d="M42.5 32C42.5 37.799 37.799 42.5 32 42.5C26.201 42.5 21.5 37.799 21.5 32C21.5 26.201 26.201 21.5 32 21.5C37.799 21.5 42.5 26.201 42.5 32ZM32 39.5C36.1421 39.5 39.5 36.1421 39.5 32C39.5 27.8579 36.1421 24.5 32 24.5C27.8579 24.5 24.5 27.8579 24.5 32C24.5 36.1421 27.8579 39.5 32 39.5Z" fill="white"/>
<path fill-rule="evenodd" clip-rule="evenodd" d="M53.1835 55.3086L55.3048 53.1872L38.2576 36.1362C37.7003 36.9777 36.9778 37.7002 36.1364 38.2576L53.1835 55.3086ZM25.7437 27.8626C26.3012 27.0213 27.024 26.299 27.8656 25.7419L10.1213 7.99365L8 10.115L25.7437 27.8626Z" fill="white"/>
<path fill-rule="evenodd" clip-rule="evenodd" d="M55.3083 10.8161L53.187 8.69482L36.1359 25.7421C36.9774 26.2994 37.7 27.0219 38.2574 27.8633L55.3083 10.8161ZM27.8624 38.256C27.0211 37.6984 26.2987 36.9757 25.7416 36.1341L7.99341 53.8783L10.1147 55.9997L27.8624 38.256Z" fill="white"/>
<path fill-rule="evenodd" clip-rule="evenodd" d="M56 32C56 18.7452 45.2548 8 32 8C18.7452 8 8 18.7452 8 32C8 45.2548 18.7452 56 32 56C45.2548 56 56 45.2548 56 32ZM12.8 32C12.8 21.3961 21.3961 12.8 32 12.8C42.6039 12.8 51.2 21.3961 51.2 32C51.2 42.6039 42.6039 51.2 32 51.2C21.3961 51.2 12.8 42.6039 12.8 32Z" fill="white"/>
</svg>
