<svg width="64" height="64" viewBox="0 0 64 64" fill="none" xmlns="http://www.w3.org/2000/svg">
<rect width="64" height="64" fill="#125DE6"/>
<path fill-rule="evenodd" clip-rule="evenodd" d="M8 11V14V50H11V46.7273H20V50H55C55.5523 50 56 49.5523 56 49V15C56 14.4477 55.5523 14 55 14H11V8H5V11H8ZM32 22.25H27.5V26.75H32V22.25ZM32 29.75H27.5V34.25H32V29.75ZM27.5 37.25H32V41.75H27.5V37.25ZM39.5 22.25H35V26.75H39.5V22.25ZM42.5 22.25H47V26.75H42.5V22.25ZM39.5 29.75H35V34.25H39.5V29.75ZM42.5 29.75H47V34.25H42.5V29.75ZM39.5 37.25H35V41.75H39.5V37.25ZM42.5 37.25H47V41.75H42.5V37.25Z" fill="white"/>
</svg>
