<svg width="64" height="64" viewBox="0 0 64 64" fill="none" xmlns="http://www.w3.org/2000/svg">
<rect width="64" height="64" fill="#125DE6"/>
<path fill-rule="evenodd" clip-rule="evenodd" d="M32 11C43.598 11 53 20.402 53 32V53L46.8492 46.8492C43.049 50.6495 37.799 53 32 53C20.402 53 11 43.598 11 32C11 20.402 20.402 11 32 11ZM34.1033 34.1398H36.6605C36.6254 35.1006 36.432 35.912 36.0805 36.574C35.729 37.2302 35.2281 37.7282 34.5778 38.068C33.9334 38.4078 33.1542 38.5776 32.2403 38.5776C31.5314 38.5776 30.9016 38.4605 30.3509 38.2261C29.8002 37.9859 29.3315 37.6344 28.9448 37.1716C28.5582 36.7088 28.2653 36.1376 28.0661 35.458C27.8727 34.7725 27.7761 33.9846 27.7761 33.0941V30.9235C27.7761 30.033 27.8786 29.245 28.0836 28.5596C28.2946 27.8741 28.5933 27.3 28.98 26.8372C29.3725 26.3685 29.8441 26.017 30.3948 25.7826C30.9514 25.5425 31.5783 25.4224 32.2754 25.4224C33.2069 25.4224 33.9861 25.5981 34.613 25.9496C35.2398 26.3011 35.7232 26.8137 36.063 27.4875C36.4086 28.1553 36.6166 28.9726 36.6869 29.9393H34.1121C34.1003 29.33 34.033 28.8525 33.9099 28.5069C33.7928 28.1553 33.6053 27.9093 33.3475 27.7687C33.0898 27.6222 32.7324 27.549 32.2754 27.549C31.9356 27.549 31.6427 27.6105 31.3966 27.7335C31.1506 27.8507 30.9485 28.0411 30.7903 28.3047C30.6321 28.5684 30.5149 28.914 30.4388 29.3417C30.3685 29.7694 30.3333 30.2908 30.3333 30.9059V33.0941C30.3333 33.6975 30.3655 34.2131 30.43 34.6407C30.4944 35.0625 30.597 35.4082 30.7376 35.6777C30.8782 35.9472 31.0686 36.1434 31.3088 36.2665C31.5548 36.3895 31.8653 36.451 32.2403 36.451C32.6738 36.451 33.0224 36.3866 33.286 36.2577C33.5555 36.1288 33.7547 35.8974 33.8836 35.5634C34.0125 35.2295 34.0857 34.755 34.1033 34.1398ZM18.048 25.6069H22.1519C23.0072 25.6069 23.7366 25.7534 24.34 26.0463C24.9435 26.3392 25.4063 26.7727 25.7285 27.3469C26.0507 27.921 26.2118 28.6299 26.2118 29.4735C26.2118 30.1648 26.1181 30.7565 25.9306 31.2486C25.7432 31.7349 25.4766 32.1421 25.131 32.4701C24.9013 32.6842 24.642 32.8698 24.3529 33.027L26.6073 38.2789V38.4019H23.8567L21.9261 33.7092H20.6228V38.4019H18.048V25.6069ZM22.0816 31.5738H20.6228V27.7423H22.1519C22.5034 27.7423 22.7875 27.8214 23.0043 27.9796C23.2269 28.1319 23.388 28.3545 23.4876 28.6475C23.5931 28.9345 23.6458 29.2802 23.6458 29.6844C23.6458 30.0652 23.5872 30.3992 23.4701 30.6862C23.3587 30.9674 23.1859 31.1871 22.9516 31.3453C22.7231 31.4976 22.4331 31.5738 22.0816 31.5738ZM43.6204 34.4122C43.6615 34.5997 43.682 34.8077 43.682 35.0362C43.682 35.3115 43.638 35.5576 43.5501 35.7743C43.4623 35.9911 43.3158 36.1639 43.1108 36.2928C42.9116 36.4217 42.6421 36.4862 42.3023 36.4862C42.0035 36.4862 41.7369 36.4481 41.5026 36.3719C41.2741 36.2899 41.0808 36.1698 40.9226 36.0116C40.7644 35.8476 40.6472 35.6308 40.5711 35.3613C40.4949 35.086 40.4568 34.755 40.4568 34.3683H37.882C37.882 35.0948 37.9963 35.7246 38.2247 36.2577C38.4532 36.7849 38.7667 37.2214 39.165 37.5671C39.5693 37.9068 40.035 38.1617 40.5623 38.3316C41.0896 38.4956 41.6491 38.5776 42.2408 38.5776C42.8501 38.5776 43.4008 38.4927 43.8929 38.3228C44.3908 38.1529 44.8156 37.9127 45.1671 37.6022C45.5186 37.2858 45.7852 36.9109 45.9668 36.4774C46.1543 36.038 46.248 35.5517 46.248 35.0186C46.248 34.4796 46.1718 33.9992 46.0195 33.5774C45.8672 33.1556 45.6416 32.7777 45.3429 32.4438C45.0441 32.104 44.6721 31.7993 44.2268 31.5299C43.7816 31.2545 43.2689 31.0026 42.6889 30.7741C42.3902 30.6569 42.1148 30.5368 41.8629 30.4138C41.6168 30.2908 41.403 30.1648 41.2214 30.0359C41.0398 29.9012 40.8962 29.7518 40.7908 29.5878C40.6912 29.4179 40.6414 29.2275 40.6414 29.0166C40.6414 28.7353 40.6912 28.4834 40.7908 28.2608C40.8962 28.0323 41.0544 27.8536 41.2653 27.7247C41.4821 27.59 41.7545 27.5226 42.0826 27.5226C42.4341 27.5226 42.7212 27.6017 42.9438 27.7599C43.1664 27.9181 43.3275 28.1378 43.4271 28.419C43.5326 28.6943 43.5853 29.0136 43.5853 29.3769H46.1513C46.1513 28.6094 45.9844 27.9298 45.6504 27.3381C45.3223 26.7464 44.8566 26.2806 44.2532 25.9408C43.6556 25.601 42.9467 25.4311 42.1265 25.4311C41.5231 25.4311 40.9753 25.5161 40.4832 25.686C39.997 25.8559 39.5722 26.099 39.209 26.4154C38.8458 26.7259 38.5645 27.1008 38.3654 27.5402C38.172 27.9796 38.0754 28.4688 38.0754 29.0078C38.0754 29.5585 38.1779 30.0389 38.3829 30.449C38.5938 30.8532 38.878 31.2047 39.2353 31.5035C39.5927 31.8023 39.994 32.0659 40.4393 32.2944C40.8845 32.517 41.3444 32.7279 41.819 32.9271C42.2173 33.097 42.5396 33.261 42.7856 33.4192C43.0375 33.5774 43.2279 33.7356 43.3568 33.8938C43.4916 34.0519 43.5794 34.2248 43.6204 34.4122Z" fill="white"/>
</svg>
