<svg width="64" height="64" viewBox="0 0 64 64" fill="none" xmlns="http://www.w3.org/2000/svg">
<rect width="64" height="64" fill="#125DE6"/>
<path fill-rule="evenodd" clip-rule="evenodd" d="M29 11C36.8411 11 43.5111 16.0136 45.9793 23.01L45.5 23C52.9558 23 59 29.0442 59 36.5C59 43.9558 52.9558 50 45.5 50H15.5C9.70101 50 5 45.299 5 39.5C5 35.2996 7.46644 31.6752 11.0301 29.9962C11.0092 29.6686 11 29.3354 11 29C11 19.0589 19.0589 11 29 11ZM38 26V31.4853L25.9987 31.484L26 26L17.5147 34.4853L26 42.9706L25.9987 37.484L38 37.4853V42.9706L46.4853 34.4853L38 26Z" fill="white"/>
</svg>
