<svg width="64" height="64" viewBox="0 0 64 64" fill="none" xmlns="http://www.w3.org/2000/svg">
<rect width="64" height="64" fill="#125DE6"/>
<path fill-rule="evenodd" clip-rule="evenodd" d="M32.0002 5.75C39.5997 5.75 46.6728 9.00166 51.6111 14.5502L52.1933 15.227L53.6318 16.9571L53.5803 17H47.7507C43.6868 12.7309 38.0481 10.25 32.0002 10.25C25.9507 10.25 20.3117 12.7326 16.2496 17H10.3551L11.6765 15.3853C16.6306 9.33186 24.0245 5.75 32.0002 5.75ZM10.252 44L11.6765 45.7407C16.6306 51.7941 24.0245 55.376 32.0002 55.376C39.5997 55.376 46.6728 52.1243 51.6111 46.5757L52.1933 45.8989L53.6318 44.1689L53.4288 44H47.8697C43.7972 48.3462 38.1074 50.876 32.0002 50.876C25.8914 50.876 20.2012 48.3445 16.1306 44H10.252Z" fill="white"/>
<path fill-rule="evenodd" clip-rule="evenodd" d="M50 23C48.3431 23 47 24.3431 47 26V29C47 30.6569 48.3431 32 50 32V35H47V38H50C51.6569 38 53 36.6569 53 35V32C53 30.3431 51.6569 29 50 29V26H53V23H50Z" fill="white"/>
<path fill-rule="evenodd" clip-rule="evenodd" d="M39.5 38C41.9853 38 44 35.9853 44 33.5V30.5C44 28.0147 41.9853 26 39.5 26C37.0147 26 35 28.0147 35 30.5V33.5C35 34.8327 35.5794 36.0302 36.5 36.8542C37.2961 37.5667 38.3475 38 39.5 38ZM41 33.5V30.5C41 29.6716 40.3284 29 39.5 29C38.6716 29 38 29.6716 38 30.5V33.5C38 34.3284 38.6716 35 39.5 35C40.3284 35 41 34.3284 41 33.5Z" fill="white"/>
<path fill-rule="evenodd" clip-rule="evenodd" d="M15.5 26H14V35H15.5C16.3284 35 17 34.3284 17 33.5V27.5C17 26.6716 16.3284 26 15.5 26ZM11 23V38H15.5C17.9853 38 20 35.9853 20 33.5V27.5C20 25.0147 17.9853 23 15.5 23H11Z" fill="white"/>
<path fill-rule="evenodd" clip-rule="evenodd" d="M27.5 26H26V35H27.5C28.3284 35 29 34.3284 29 33.5V27.5C29 26.6716 28.3284 26 27.5 26ZM23 23V38H27.5C29.9853 38 32 35.9853 32 33.5V27.5C32 25.0147 29.9853 23 27.5 23H23Z" fill="white"/>
</svg>
