<svg width="64" height="64" viewBox="0 0 64 64" fill="none" xmlns="http://www.w3.org/2000/svg">
<rect width="64" height="64" fill="#125DE6"/>
<path fill-rule="evenodd" clip-rule="evenodd" d="M44 27.5C44 36.6127 36.6127 44 27.5 44C18.3873 44 11 36.6127 11 27.5C11 18.3873 18.3873 11 27.5 11C36.6127 11 44 18.3873 44 27.5ZM17 27.5C17 33.299 21.701 38 27.5 38C33.299 38 38 33.299 38 27.5C38 21.701 33.299 17 27.5 17C21.701 17 17 21.701 17 27.5Z" fill="white"/>
<path fill-rule="evenodd" clip-rule="evenodd" d="M35.8787 40.1215L50.8787 55.1215L55.1213 50.8789L40.1213 35.8789L35.8787 40.1215Z" fill="white"/>
</svg>
