<svg width="64" height="64" viewBox="0 0 64 64" fill="none" xmlns="http://www.w3.org/2000/svg">
<rect width="64" height="64" fill="#125DE6"/>
<path fill-rule="evenodd" clip-rule="evenodd" d="M30.851 42.0106L21.1706 32.5014L25.3164 28.1524L30.8332 33.5698L39.1665 25.3075L43.3301 29.6414L30.851 42.0106ZM49.7351 34.4323L56 30.9882L54.9628 25.026L47.92 23.9667C47.6369 23.4038 47.3299 22.859 46.9931 22.3324L49.6099 15.6106L45.0439 11.7186L38.9906 15.4956C38.4184 15.2474 37.8312 15.0326 37.2292 14.8449L34.9819 7.99902H29.021L26.7738 14.8449C26.1717 15.0326 25.5816 15.2474 25.0094 15.4956L18.9561 11.7186L14.393 15.6106L17.0069 22.3324C16.6701 22.859 16.3661 23.4038 16.08 23.9667L9.03719 25.026L8 30.9882L14.2649 34.4323C14.3394 35.0618 14.4497 35.6792 14.5868 36.2845L9.86278 41.6959L12.8432 46.9377L19.8264 45.4881C20.2764 45.9148 20.7473 46.3143 21.2391 46.6896L21.0454 53.9289L26.6456 55.999L31.0805 50.3244C31.3875 50.3395 31.6915 50.3698 32.0015 50.3698C32.3115 50.3698 32.6125 50.3395 32.9195 50.3244L37.3544 55.999L42.9576 53.9289L42.7609 46.6896C43.2527 46.3143 43.7236 45.9148 44.1736 45.4881L51.1598 46.9377L54.1402 41.6959L49.4162 36.2845C49.5533 35.6792 49.6606 35.0618 49.7351 34.4323Z" fill="white"/>
</svg>
