<svg width="64" height="64" viewBox="0 0 64 64" fill="none" xmlns="http://www.w3.org/2000/svg">
<rect width="64" height="64" fill="#125DE6"/>
<path fill-rule="evenodd" clip-rule="evenodd" d="M14 11C14 9.34315 15.3431 8 17 8H47C48.6569 8 50 9.34315 50 11V53C50 54.6569 48.6569 56 47 56H17C15.3431 56 14 54.6569 14 53V11ZM23 50C21.3431 50 20 48.6569 20 47C20 45.3431 21.3431 44 23 44C24.6569 44 26 45.3431 26 47C26 48.6569 24.6569 50 23 50ZM23 14C21.3431 14 20 15.3431 20 17V20H44V17C44 15.3431 42.6569 14 41 14H23ZM20 29V26H44V29C44 30.6569 42.6569 32 41 32H23C21.3431 32 20 30.6569 20 29Z" fill="white"/>
</svg>
