<svg width="64" height="64" viewBox="0 0 64 64" fill="none" xmlns="http://www.w3.org/2000/svg">
<rect width="64" height="64" fill="#125DE6"/>
<path fill-rule="evenodd" clip-rule="evenodd" d="M44 9.5L47 6.5L57.5 17L54.5 20L51.5 17L48.5 20L50 21.5L47.4286 24.9286L53 30.5L50 33.5L30.5 14L33.5 11L39.0714 16.5714L42.5 14L44 15.5L47 12.5L44 9.5ZM11.7071 37.2929L29.7929 19.2071C30.1834 18.8166 30.8166 18.8166 31.2071 19.2071L44.7929 32.7929C45.1834 33.1834 45.1834 33.8166 44.7929 34.2071L26.7071 52.2929C26.3166 52.6834 25.6834 52.6834 25.2929 52.2929L11.7071 38.7071C11.3166 38.3166 11.3166 37.6834 11.7071 37.2929ZM19.7071 35.2929C19.8946 35.1054 20.149 35 20.4142 35H35.5858C36.4767 35 36.9229 36.0771 36.2929 36.7071L26.7071 46.2929C26.3166 46.6834 25.6834 46.6834 25.2929 46.2929L17.7071 38.7071C17.3166 38.3166 17.3166 37.6834 17.7071 37.2929L19.7071 35.2929ZM17 54.5L14.7 52.2L3.5 62L2 60.5L11.8 49.3L9.5 47L12.5 44L20 51.5L17 54.5Z" fill="white"/>
</svg>
