<svg width="64" height="64" viewBox="0 0 64 64" fill="none" xmlns="http://www.w3.org/2000/svg">
<rect width="64" height="64" fill="#125DE6"/>
<path fill-rule="evenodd" clip-rule="evenodd" d="M12 8C11.4477 8 11 8.44772 11 9V55C11 55.5523 11.4477 56 12 56H44H52C52.5523 56 53 55.5523 53 55V9C53 8.44771 52.5523 8 52 8H12ZM21.5 44H42.5V41H21.5M21.5 50H42.5V47H21.5M21.5 17.375L32 14L42.5 17.375C42.5 19.125 42.5 22.25 42.5 26.75C42.5 31.25 39 35 32 38C25 34.8953 21.5 31.1453 21.5 26.75C21.5 22.3547 21.5 19.2297 21.5 17.375ZM31.2513 26.3035L36.1823 22L38.3 23.8482L31.2513 30L25.7 25.1552L27.8177 23.3069L31.2513 26.3035Z" fill="white"/>
</svg>
