<svg width="64" height="64" viewBox="0 0 64 64" fill="none" xmlns="http://www.w3.org/2000/svg">
<rect width="64" height="64" fill="#125DE6"/>
<path fill-rule="evenodd" clip-rule="evenodd" d="M8 10C8 8.89543 8.89543 8 10 8H54C55.1046 8 56 8.89543 56 10V31.5236L47 28.4L31.7 33.7102V47.4223C31.7 50.5548 33.0299 53.3942 35.6898 56H10C8.89543 56 8 55.1046 8 54V10ZM32 18.6666H50V23.1666H32V18.6666ZM14 33.7676L17.179 30.5886L20.0895 33.4991L26.2552 27.3334L29.4342 30.5123L20.0894 39.857L14 33.7676ZM17.179 17.2552L14 20.4342L20.0894 26.5237L29.4342 17.1789L26.2552 14L20.0895 20.1657L17.179 17.2552Z" fill="white"/>
<path fill-rule="evenodd" clip-rule="evenodd" d="M35 35.8571L47 32L59 35.8571C59 37.8571 59 41.4286 59 46.5714C59 51.7143 55 55.5714 47 59C39 55.4517 35 51.5946 35 46.5714C35 41.5483 35 37.9768 35 35.8571Z" fill="white"/>
</svg>
