<svg width="64" height="64" viewBox="0 0 64 64" fill="none" xmlns="http://www.w3.org/2000/svg">
<rect width="64" height="64" fill="#125DE6"/>
<path fill-rule="evenodd" clip-rule="evenodd" d="M55.9989 31.7704C55.8757 18.6213 45.1782 8 32 8C18.7452 8 8 18.7452 8 32C8 45.2548 18.7452 56 32 56C33.0868 56 34.1566 55.9278 35.2051 55.7878C33.5588 53.9465 32.4924 52.0046 32.006 49.9911C32.004 49.994 32.002 49.997 32 50C30 47 28.5 44 27.5 41H31.7V35H26.1667C26.0556 34 26 33 26 32C26 31 26.0556 30 26.1667 29H37.8333C37.936 29.9237 37.9912 30.8474 37.999 31.771L43.922 29.9476C43.898 29.6317 43.8684 29.3159 43.8333 29H47H49.7511C49.8003 29.2929 49.8423 29.5882 49.8771 29.8858L55.9989 31.7704ZM47.5919 23C45.6163 19.5848 42.5509 16.8789 38.8712 15.358C40.4413 17.9053 41.6509 20.4527 42.5 23H47.5919ZM25.1288 15.358C21.4491 16.8789 18.3837 19.5848 16.4081 23H21.5C22.3491 20.4527 23.5587 17.9053 25.1288 15.358ZM20.1667 29H14.2489C14.0852 29.9756 14 30.9779 14 32C14 33.0221 14.0852 34.0244 14.2489 35H20.1667C20.0556 34 20 33 20 32C20 31 20.0556 30 20.1667 29ZM25.1288 48.642C21.4491 47.1211 18.3837 44.4152 16.4081 41H21.5C22.3491 43.5473 23.5587 46.0947 25.1288 48.642ZM32 14C34 17 35.5 20 36.5 23H27.5C28.5 20 30 17 32 14Z" fill="white"/>
<path fill-rule="evenodd" clip-rule="evenodd" d="M35 35.8571L47 32L59 35.8571C59 37.8571 59 41.4286 59 46.5714C59 51.7143 55 55.5714 47 59C39 55.4517 35 51.5946 35 46.5714C35 41.5483 35 37.9768 35 35.8571ZM46.1851 46.3071L51.5521 41.1429L53.8571 43.3608L46.1851 50.7429L40.1429 44.9291L42.4479 42.7112L46.1851 46.3071Z" fill="white"/>
</svg>
