<svg width="64" height="64" viewBox="0 0 64 64" fill="none" xmlns="http://www.w3.org/2000/svg">
<rect width="64" height="64" fill="#125DE6"/>
<path fill-rule="evenodd" clip-rule="evenodd" d="M17 44C15.4706 44 14.2085 43.2132 14.0234 42.1962L14 41.9375V10.0625C14 9.01103 15.1445 8.14334 16.6237 8.01607L17 8H47C48.5294 8 49.7915 8.78681 49.9766 9.80378L50 10.0625V41.9375C50 42.989 48.8555 43.8567 47.3763 43.9839L47 44H35L35.0032 47.8046C35.9126 48.3314 36.6709 49.0901 37.1972 49.9998L53 50V56L37.1954 56.0032C36.1575 57.7949 34.2195 59 32 59C29.7805 59 27.8425 57.7949 26.8046 56.0032L11 56V50L26.8028 49.9998C27.3297 49.0891 28.0891 48.3297 28.9998 47.8028L29 44H17ZM32 50C30.3431 50 29 51.3431 29 53C29 54.6569 30.3431 56 32 56C33.6569 56 35 54.6569 35 53C35 51.3431 33.6569 50 32 50ZM23 32C21.3431 32 20 33.3431 20 35C20 36.6569 21.3431 38 23 38C24.6569 38 26 36.6569 26 35C26 33.3431 24.6569 32 23 32ZM44 23H20V27.5C20 28.2364 20.5306 28.8488 21.2304 28.9758L21.5 29H42.5C43.2364 29 43.8488 28.4694 43.9758 27.7696L44 27.5V23ZM42.5 14H21.5C20.7636 14 20.1512 14.5306 20.0242 15.2304L20 15.5V20H44V15.5C44 14.6716 43.3284 14 42.5 14Z" fill="white"/>
</svg>
