<svg width="64" height="64" viewBox="0 0 64 64" fill="none" xmlns="http://www.w3.org/2000/svg">
<rect width="64" height="64" fill="#125DE6"/>
<path fill-rule="evenodd" clip-rule="evenodd" d="M11 14V34.1597C11 47.0872 19.5698 52.4485 32 56C33.0273 55.7065 34.0281 55.4006 35 55.0792V44.0015C33.1163 41.4942 32 38.3775 32 35C32 26.7157 38.7157 20 47 20C49.1333 20 51.1626 20.4453 53 21.2481V14L32 8L11 14Z" fill="white"/>
<path fill-rule="evenodd" clip-rule="evenodd" d="M59 35C59 41.6274 53.6274 47 47 47C40.3726 47 35 41.6274 35 35C35 28.3726 40.3726 23 47 23C53.6274 23 59 28.3726 59 35ZM53 35C53 38.3137 50.3137 41 47 41C43.6863 41 41 38.3137 41 35C41 31.6863 43.6863 29 47 29C50.3137 29 53 31.6863 53 35ZM38 59V47.0011C40.507 48.8842 43.6232 50 47 50C50.3768 50 53.493 48.8842 56 47.0011V59L47 56L38 59Z" fill="white"/>
</svg>
