<svg width="64" height="64" viewBox="0 0 64 64" fill="none" xmlns="http://www.w3.org/2000/svg">
<rect width="64" height="64" fill="#125DE6"/>
<path fill-rule="evenodd" clip-rule="evenodd" d="M23.0002 33.5V38.6428H34.5714V33.5H23.0002ZM23 39.9289V45.0716H40.9996V39.9289H23ZM35.8572 38.6428V33.5H41V38.6428H35.8572ZM23 46.3572V51.5H28.1428V46.3572H23ZM29.4288 51.4998V46.357H41V51.4998H29.4288Z" fill="white"/>
<path fill-rule="evenodd" clip-rule="evenodd" d="M17.3333 45.5001C17.3698 45.5001 17.4061 45.4999 17.4425 45.4995H21.0502L21.0503 37.9783V31.5495H42.9501L42.9498 40.5923L42.9501 44.4065V45.4995H43.8399C43.8932 45.5002 43.9465 45.5006 44 45.5006C50.6274 45.5006 56 40.1538 56 33.5582C56 27.1047 50.8563 21.8467 44.4263 21.6233C42.2321 15.4347 36.3034 11 29.334 11C20.4974 11 13.334 18.129 13.334 26.9231C13.334 27.2192 13.3421 27.5133 13.3581 27.8054C10.1915 29.291 8 32.4967 8 36.2117C8 41.3416 12.1787 45.5001 17.3333 45.5001ZM34.5715 38.6423H23.0003V33.4995H34.5715V38.6423ZM40.9998 38.6423H35.8574V33.4995H41.0001L40.9998 38.6423ZM23.0001 45.0711L23.0003 39.9283H40.9998V45.0711H23.0001Z" fill="white"/>
</svg>
