<svg width="64" height="64" viewBox="0 0 64 64" fill="none" xmlns="http://www.w3.org/2000/svg">
<rect width="64" height="64" fill="#125DE6"/>
<path fill-rule="evenodd" clip-rule="evenodd" d="M14 11C12.3431 11 11 12.3431 11 14V26C11 27.6569 12.3431 29 14 29H28.9998L28.4998 26H53V14C53 12.3431 51.6569 11 50 11H14ZM29.9998 35L30.9998 41H33.4999V44V44.8039C32.4974 45.3828 31.6816 46.2406 31.154 47.2761C30.7391 48.0903 30.6069 48.8995 30.5509 49.5853C30.4998 50.2098 30.4999 50.9472 30.5 51.7043V51.7043L30.5 51.8V53H14C12.3431 53 11 51.6569 11 50V38C11 36.3431 12.3431 35 14 35H29.9998ZM35 17V23H47V17H35Z" fill="white"/>
<path fill-rule="evenodd" clip-rule="evenodd" d="M32 29L33.5 38H36.5V47.0288C35.9117 47.0647 35.4943 47.1455 35.138 47.327C34.5735 47.6146 34.1146 48.0735 33.827 48.638C33.5 49.2798 33.5 50.1198 33.5 51.8V53H54.5V51.8C54.5 50.1198 54.5 49.2798 54.173 48.638C53.8854 48.0735 53.4265 47.6146 52.862 47.327C52.5057 47.1455 52.0883 47.0647 51.5 47.0288V38H54.5L56 29H50L49.5 32H47V29H41V32H38.5L38 29H32Z" fill="white"/>
</svg>
