<svg width="64" height="64" viewBox="0 0 64 64" fill="none" xmlns="http://www.w3.org/2000/svg">
<rect width="64" height="64" fill="#125DE6"/>
<path fill-rule="evenodd" clip-rule="evenodd" d="M32 8L11 15.9459V34.1081C11 46.5946 17.8108 52.9595 32 57.5C46.1892 52.9595 53 46.5946 53 34.1081V15.9459L32 8ZM36.5405 23.3243C36.5405 24.4749 36.1126 25.5256 35.4071 26.3257L39.765 33.7342C40.1816 33.6082 40.6234 33.5405 41.0811 33.5405C43.5888 33.5405 45.6216 35.5734 45.6216 38.0811C45.6216 40.5888 43.5888 42.6216 41.0811 42.6216C39.2858 42.6216 37.7339 41.5797 36.997 40.0676H27.003C26.2661 41.5797 24.7142 42.6216 22.9189 42.6216C20.4112 42.6216 18.3784 40.5888 18.3784 38.0811C18.3784 35.5734 20.4112 33.5405 22.9189 33.5405C23.3766 33.5405 23.8184 33.6082 24.235 33.7342L28.5929 26.3257C27.8874 25.5256 27.4595 24.4749 27.4595 23.3243C27.4595 20.8167 29.4923 18.7838 32 18.7838C34.5077 18.7838 36.5405 20.8167 36.5405 23.3243ZM37.0932 35.9083C36.9627 36.1474 36.853 36.3995 36.7666 36.6622H27.2334C27.147 36.3993 27.0372 36.147 26.9066 35.9078L31.6461 27.8513C31.7629 27.8603 31.8809 27.8649 32 27.8649C32.1191 27.8649 32.2371 27.8603 32.3539 27.8513L37.0932 35.9083Z" fill="white"/>
</svg>
