<svg width="60" height="60" viewBox="0 0 60 60" fill="none" xmlns="http://www.w3.org/2000/svg">
<path fill-rule="evenodd" clip-rule="evenodd" d="M15 7.03125C15 5.63328 16.1193 4.5 17.5 4.5H42.5C43.8807 4.5 45 5.63328 45 7.03125V42.4688C45 43.8667 43.8807 45 42.5 45H34.5V41.9997C36.3201 40.6328 37.5 38.4564 37.5 36C37.5 31.8579 34.1421 28.5 30 28.5C25.8579 28.5 22.5 31.8579 22.5 36C22.5 38.4564 23.6799 40.6328 25.5 41.9997V45H17.5C16.1193 45 15 43.8667 15 42.4688V7.03125ZM31.5 45H28.5V40.2439C26.7522 39.6262 25.5 37.9593 25.5 36C25.5 33.5147 27.5147 31.5 30 31.5C32.4853 31.5 34.5 33.5147 34.5 36C34.5 37.9593 33.2478 39.6262 31.5 40.2439V45ZM20 12.0938C20 10.6958 21.1193 9.5625 22.5 9.5625H37.5C38.8807 9.5625 40 10.6958 40 12.0938V14.625H20V12.0938ZM20 19.6875V22.2188C20 23.6167 21.1193 24.75 22.5 24.75H37.5C38.8807 24.75 40 23.6167 40 22.2188V19.6875H20Z" fill="#125DE6"/>
<path fill-rule="evenodd" clip-rule="evenodd" d="M31.5 40.2439C33.2478 39.6262 34.5 37.9593 34.5 36C34.5 33.5147 32.4853 31.5 30 31.5C27.5147 31.5 25.5 33.5147 25.5 36C25.5 37.9593 26.7522 39.6262 28.5 40.2439V51H16.2439C15.6262 49.2522 13.9593 48 12 48C9.51472 48 7.5 50.0147 7.5 52.5C7.5 54.9853 9.51472 57 12 57C13.9593 57 15.6262 55.7478 16.2439 54H28.5H31.5H43.7561C44.3738 55.7478 46.0407 57 48 57C50.4853 57 52.5 54.9853 52.5 52.5C52.5 50.0147 50.4853 48 48 48C46.0407 48 44.3738 49.2522 43.7561 51H31.5V40.2439Z" fill="#125DE6"/>
</svg>
