<svg width="60" height="60" viewBox="0 0 60 60" fill="none" xmlns="http://www.w3.org/2000/svg">
<path fill-rule="evenodd" clip-rule="evenodd" d="M9 9V51H21V45H15V15H21V9H9ZM21 27V21H27V27H21ZM21 39V33H27V39H21ZM33 27V21H39V27H33ZM51 27V9H39V15H45V27H51Z" fill="#125DE6"/>
<path fill-rule="evenodd" clip-rule="evenodd" d="M54 41.4942L50.8681 43.2163C50.8308 43.5311 50.7765 43.8398 50.7079 44.1432L53.07 46.849L51.5797 49.47L48.0872 48.7444C47.8621 48.957 47.6267 49.1575 47.3808 49.3459L47.4784 52.9649L44.6773 54L42.4598 51.1626C42.4069 51.1652 42.3543 51.1688 42.3018 51.1724C42.2017 51.1792 42.1016 51.186 42 51.186C41.8979 51.186 41.798 51.1792 41.698 51.1724C41.6456 51.1688 41.5931 51.1652 41.5402 51.1626L39.3227 54L36.5216 52.9649L36.6192 49.3459C36.3733 49.1575 36.1379 48.957 35.9128 48.7444L32.4203 49.47L30.93 46.849L33.2921 44.1432C33.2235 43.8398 33.1692 43.5311 33.1319 43.2163L30 41.4942L30.5171 38.5138L34.0402 37.9834C34.1811 37.7026 34.3346 37.4295 34.503 37.1669L33.1945 33.8052L35.4784 31.8591L38.5045 33.7477C38.7906 33.6236 39.0849 33.5161 39.386 33.4231L40.5097 30H43.4903L44.614 33.4231C44.9151 33.5161 45.2094 33.6236 45.4955 33.7477L48.5216 31.8591L50.8048 33.8052L49.497 37.1669C49.6654 37.4295 49.8182 37.7026 49.9598 37.9834L53.4829 38.5138L54 41.4942ZM42 45C40.3431 45 39 43.6569 39 42C39 40.3431 40.3431 39 42 39C43.6569 39 45 40.3431 45 42C45 43.6569 43.6569 45 42 45Z" fill="#125DE6"/>
</svg>
