<svg width="60" height="60" viewBox="0 0 60 60" fill="none" xmlns="http://www.w3.org/2000/svg">
<path d="M45 33C51.6274 33 57 38.3726 57 45C57 51.6274 51.6274 57 45 57C38.3726 57 33 51.6274 33 45C33 38.3726 38.3726 33 45 33ZM48 6C51.3137 6 53.9999 8.68635 54 12V32.999C51.493 31.116 48.3768 30 45 30C36.7158 30 30.0001 36.7158 30 45C30 48.3768 31.116 51.4931 32.999 54H12C8.68633 54 6.00007 51.3136 6 48V12C6.00007 8.68635 8.68633 6 12 6H48ZM40.5 51L51 45L40.5 39V51ZM35.9229 24.1035C32.8274 24.0325 29.7589 25.1413 27.4521 27.4473C25.1434 29.7553 24.0342 32.8257 24.1074 35.9229L27.4355 36C27.3822 33.7542 28.1863 31.5281 29.8604 29.8545C31.5325 28.1829 33.7562 27.3785 36 27.4297L35.9229 24.1035ZM35.7812 18.0547C31.1375 17.9478 26.5348 19.6119 23.0742 23.0713C19.6117 26.5328 17.9484 31.1373 18.0576 35.7822L21.3848 35.8594C21.2953 32.0656 22.6543 28.3047 25.4824 25.4775C28.3085 22.6526 32.0672 21.2946 35.8594 21.3818L35.7812 18.0547ZM35.6406 12.0068C29.4483 11.8638 23.3109 14.0813 18.6963 18.6943C14.0798 23.3093 11.8616 29.4478 12.0068 35.6406L15.334 35.7188C15.2085 30.3771 17.1225 25.0822 21.1045 21.1016C25.0844 17.1231 30.3772 15.2099 35.7178 15.333L35.6406 12.0068Z" fill="#125DE6"/>
</svg>
