<svg width="60" height="60" viewBox="0 0 60 60" fill="none" xmlns="http://www.w3.org/2000/svg">
<path fill-rule="evenodd" clip-rule="evenodd" d="M12.6667 14C11.1939 14 10 15.1939 10 16.6667V22H13V17H47V26H50V16.6667C50 15.1939 48.8061 14 47.3333 14H12.6667ZM44 46V43.8302C43.6938 43.5848 43.4152 43.3062 43.1698 43H22V45C22 45.3453 21.9562 45.6804 21.874 46H44ZM47 29H52V32.126C51.6804 32.0438 51.3453 32 51 32H48C47.6547 32 47.3196 32.0438 47 32.126V29ZM51 43C51.3453 43 51.6804 42.9562 52 42.874V46H47V42.874C47.3196 42.9562 47.6547 43 48 43H51ZM47.6667 33C46.1939 33 45 34.1939 45 35.6667V39.3333C45 40.8061 46.1939 42 47.6667 42H51.3333C52.8061 42 54 40.8061 54 39.3333V35.6667C54 34.1939 52.8061 33 51.3333 33H47.6667ZM7.08333 25C6.48502 25 6 25.5223 6 26.1667V44.8333C6 45.4777 6.48502 46 7.08333 46H17.9167C18.515 46 19 45.4777 19 44.8333V26.1667C19 25.5223 18.515 25 17.9167 25H7.08333ZM14 42.5C14 43.3284 13.3284 44 12.5 44C11.6716 44 11 43.3284 11 42.5C11 41.6716 11.6716 41 12.5 41C13.3284 41 14 41.6716 14 42.5Z" fill="#222222"/>
</svg>
