<svg width="60" height="60" viewBox="0 0 60 60" fill="none" xmlns="http://www.w3.org/2000/svg">
<path fill-rule="evenodd" clip-rule="evenodd" d="M8.26453 19.1748L5.92996 21.849L7.42027 24.47L10.9128 23.7443C11.1379 23.957 11.3733 24.1575 11.6192 24.3459L11.5216 27.9649L14.3227 29L16.5402 26.1626C16.5931 26.1652 16.6456 26.1688 16.698 26.1724H16.698H16.6981C16.798 26.1792 16.8979 26.186 17 26.186C17.1016 26.186 17.2016 26.1792 17.3017 26.1724L17.3018 26.1724L17.3019 26.1724C17.3544 26.1688 17.4069 26.1652 17.4598 26.1626L19.6773 29L22.4784 27.9649L22.3808 24.3459C22.6267 24.1575 22.8621 23.957 23.0872 23.7443L26.5797 24.47L28.07 21.849L25.7355 19.1748C25.8156 18.8519 25.8783 18.522 25.9225 18.1864L29 16.4942L28.4829 13.5138L25.064 12.999C24.9051 12.6794 24.7277 12.3704 24.5333 12.0737L25.8048 8.80516L23.5216 6.85907L20.5371 8.7217C20.2331 8.59163 19.9205 8.47781 19.6003 8.38135L18.4903 5H15.5097L14.3997 8.38135C14.0795 8.47781 13.7669 8.59163 13.4629 8.7217L10.4784 6.85907L8.19449 8.80516L9.46671 12.0737C9.27228 12.3705 9.09491 12.6794 8.93599 12.999L5.51714 13.5138L5 16.4942L8.0775 18.1864C8.1217 18.522 8.18439 18.8519 8.26453 19.1748ZM33 32C31.8954 32 31 32.8954 31 34V50C31 51.1046 31.8954 52 33 52H52C53.1046 52 54 51.1046 54 50V34C54 32.8954 53.1046 32 52 32H33ZM51 39H34V49H51V39ZM13 13H15V22H13V13ZM19 13H17V19V22H19V19H20C21.6569 19 23 17.6569 23 16C23 14.3431 21.6569 13 20 13H19ZM19 15H20C20.5523 15 21 15.4477 21 16C21 16.5523 20.5523 17 20 17H19V15ZM16 32H12V45C12 46.1046 12.8954 47 14 47H28V43H16V32ZM44 29H48V15C48 13.8954 47.1046 13 46 13H32V17H44V29Z" fill="#222222"/>
</svg>
