<svg width="60" height="60" viewBox="0 0 60 60" fill="none" xmlns="http://www.w3.org/2000/svg">
<path fill-rule="evenodd" clip-rule="evenodd" d="M19.3934 22.3934L17.2721 20.2721C20.5294 17.0147 25.0294 15 30 15C34.9706 15 39.4706 17.0147 42.7279 20.2721L40.6066 22.3934C37.8921 19.6789 34.1421 18 30 18C25.8579 18 22.1079 19.6789 19.3934 22.3934ZM22.9289 25.9289L20.8076 23.8076C23.1601 21.4551 26.4101 20 30 20C33.5899 20 36.8399 21.4551 39.1924 23.8076L37.0711 25.9289C35.2614 24.1193 32.7614 23 30 23C27.2386 23 24.7386 24.1193 22.9289 25.9289ZM30 25C32.2091 25 34.2091 25.8954 35.6569 27.3431L33.5355 29.4645C32.6307 28.5596 31.3807 28 30 28C28.6193 28 27.3693 28.5596 26.4645 29.4645L24.3431 27.3431C25.7909 25.8954 27.7909 25 30 25ZM8 34.6667C8 33.1939 9.19391 32 10.6667 32H49.3333C50.8061 32 52 33.1939 52 34.6667V42.3333C52 43.8061 50.8061 45 49.3333 45H10.6667C9.19391 45 8 43.8061 8 42.3333V34.6667ZM43 37V40H46V37H43ZM38 40V37H41V40H38ZM33 37V40H36V37H33Z" fill="#222222"/>
</svg>
