<svg width="60" height="60" viewBox="0 0 60 60" fill="none" xmlns="http://www.w3.org/2000/svg">
<path fill-rule="evenodd" clip-rule="evenodd" d="M12 9C10.3431 9 9 10.3431 9 12V24C9 25.6569 10.3431 27 12 27H48C49.6569 27 51 25.6569 51 24V12C51 10.3431 49.6569 9 48 9H12ZM33 15V21H45V15H33Z" fill="#222222"/>
<path fill-rule="evenodd" clip-rule="evenodd" d="M36.0346 33L32.625 35.9053L33.618 38.463L30.9312 38.8693L29.6781 46.0912L32.076 47.409L30.2693 49.4804L31.1334 51H12C10.3431 51 9 49.6569 9 48V36C9 34.3431 10.3431 33 12 33H36.0346Z" fill="#222222"/>
<path fill-rule="evenodd" clip-rule="evenodd" d="M57 44.4942L53.8681 46.2163C53.8308 46.5311 53.7765 46.8398 53.7079 47.1432L56.07 49.849L54.5797 52.47L51.0872 51.7444C50.8621 51.957 50.6267 52.1575 50.3808 52.3459L50.4784 55.9649L47.6773 57L45.4598 54.1626C45.4069 54.1652 45.3543 54.1688 45.3018 54.1724C45.2017 54.1792 45.1016 54.186 45 54.186C44.8979 54.186 44.798 54.1792 44.698 54.1724C44.6456 54.1688 44.5931 54.1652 44.5402 54.1626L42.3227 57L39.5216 55.9649L39.6192 52.3459C39.3733 52.1575 39.1379 51.957 38.9128 51.7444L35.4203 52.47L33.93 49.849L36.2921 47.1432C36.2235 46.8398 36.1692 46.5311 36.1319 46.2163L33 44.4942L33.5171 41.5138L37.0402 40.9834C37.1811 40.7026 37.3346 40.4295 37.503 40.1669L36.1945 36.8052L38.4784 34.8591L41.5045 36.7477C41.7906 36.6236 42.0849 36.5161 42.386 36.4231L43.5097 33H46.4903L47.614 36.4231C47.9151 36.5161 48.2094 36.6236 48.4955 36.7477L51.5216 34.8591L53.8048 36.8052L52.497 40.1669C52.6654 40.4295 52.8182 40.7026 52.9598 40.9834L56.4829 41.5138L57 44.4942ZM45 48C43.3431 48 42 46.6569 42 45C42 43.3431 43.3431 42 45 42C46.6569 42 48 43.3431 48 45C48 46.6569 46.6569 48 45 48Z" fill="#222222"/>
</svg>
