<svg width="60" height="60" viewBox="0 0 60 60" fill="none" xmlns="http://www.w3.org/2000/svg">
<path fill-rule="evenodd" clip-rule="evenodd" d="M9 12C9 10.3431 10.3431 9 12 9H24C25.6569 9 27 10.3431 27 12V24C27 25.6569 25.6569 27 24 27H12C10.3431 27 9 25.6569 9 24V12ZM9 36C9 34.3431 10.3431 33 12 33H24C25.6569 33 27 34.3431 27 36V48C27 49.6569 25.6569 51 24 51H12C10.3431 51 9 49.6569 9 48V36ZM36 9C34.3431 9 33 10.3431 33 12V24C33 25.6569 34.3431 27 36 27H48C49.6569 27 51 25.6569 51 24V12C51 10.3431 49.6569 9 48 9H36ZM33 36C33 34.3431 34.3431 33 36 33H48C49.6569 33 51 34.3431 51 36V48C51 49.6569 49.6569 51 48 51H36C34.3431 51 33 49.6569 33 48V36ZM15 39H21V45H15V39ZM45 15H39V21H45V15Z" fill="#222222"/>
</svg>
