<svg width="60" height="60" viewBox="0 0 60 60" fill="none" xmlns="http://www.w3.org/2000/svg">
<path fill-rule="evenodd" clip-rule="evenodd" d="M42 31.4077H36V38.1973V40.4077V42.6973C36 43.5257 36.6716 44.1973 37.5 44.1973H45V38.1973H42V31.4077ZM18 31.4077H24V38.1973V40.4077V42.6973C24 43.5257 23.3284 44.1973 22.5 44.1973H15V38.1973H18V31.4077ZM27 33.1377H33V45.1377H27V33.1377Z" fill="#222222"/>
<circle cx="6.75" cy="6.75" r="4.5" transform="matrix(-1 0 0 1 57.0117 34.4487)" stroke="#222222" stroke-width="4.5"/>
<circle cx="6.75" cy="6.75" r="4.5" transform="matrix(-1 0 0 1 16.5 34.4487)" stroke="#222222" stroke-width="4.5"/>
<circle cx="30.0352" cy="49.582" r="4.5" stroke="#222222" stroke-width="4.5"/>
<path fill-rule="evenodd" clip-rule="evenodd" d="M9 24.8501C9 29.6822 12.6557 33.5994 17.1655 33.6001L17.1657 33.6011H41.6657V33.5113C42.0471 33.5698 42.4371 33.6001 42.8337 33.6001C47.344 33.6001 51.0003 29.6826 51.0003 24.8501C51.0003 20.3735 47.8627 16.682 43.815 16.1626C42.7281 9.03784 36.9562 3.60059 29.999 3.60059C23.0417 3.60059 17.2697 9.038 16.183 16.1629C12.1365 16.6834 9 20.3743 9 24.8501ZM29.8945 13.5C33.2867 13.5 36.4373 14.9763 38.6052 17.4769L39 17.9576L36.9899 19.5203C35.2974 17.3433 32.7044 16.0461 29.8945 16.0461C27.3583 16.0461 24.9971 17.1023 23.3138 18.9149L22.9637 19.3148L21 17.6942C23.1757 15.058 26.4091 13.5 29.8945 13.5ZM35.3106 20.7005C33.9557 19.1887 32.0166 18.2988 29.9325 18.2988C27.7493 18.2988 25.723 19.2752 24.3604 20.9263L26.324 22.5469L26.6017 22.239C27.471 21.3559 28.6589 20.8449 29.9325 20.8449C31.3959 20.8449 32.7452 21.5199 33.6268 22.654L35.6369 21.0912L35.3106 20.7005ZM29.9351 26.9156C31.0303 26.9156 31.9181 26.0278 31.9181 24.9327C31.9181 23.8375 31.0303 22.9497 29.9351 22.9497C28.8399 22.9497 27.9521 23.8375 27.9521 24.9327C27.9521 26.0278 28.8399 26.9156 29.9351 26.9156Z" fill="#222222"/>
</svg>
