<svg width="60" height="60" viewBox="0 0 60 60" fill="none" xmlns="http://www.w3.org/2000/svg">
<path fill-rule="evenodd" clip-rule="evenodd" d="M6 25.2C6 32.7524 9.77133 39.424 15.5335 43.4342L17.9403 56.6716C17.9749 56.8618 18.1405 57 18.3338 57H43.4C43.6209 57 43.8 56.8209 43.8 56.6V48.4C43.8 48.1791 43.9791 48 44.2 48H49.4242C49.6354 48 49.8103 47.8358 49.8234 47.625L50.3766 38.7751C50.3897 38.5642 50.5646 38.4 50.7758 38.4H56.3767C56.6681 38.4 56.8617 38.0983 56.7403 37.8333L50.4 24H50.3681C49.7448 12.2973 40.0581 3 28.2 3C15.9393 3 6 12.9393 6 25.2ZM24 12H27V15H30V12H33V15H36.375C37.8247 15 39 16.1753 39 17.625V21H42V24H39V27H42V30H39V33.375C39 34.8247 37.8247 36 36.375 36H33V39H30V36H27V39H24V36H20.625C19.1753 36 18 34.8247 18 33.375V30H15V27H18V24H15V21H18V17.625C18 16.1753 19.1753 15 20.625 15H24V12ZM36 18V33H21V18H36Z" fill="#222222"/>
</svg>
