<svg width="60" height="60" viewBox="0 0 60 60" fill="none" xmlns="http://www.w3.org/2000/svg">
<path fill-rule="evenodd" clip-rule="evenodd" d="M33.2164 11.3784C32.4877 12.3623 31.3183 13 30 13C28.6817 13 27.5123 12.3623 26.7836 11.3784L19.1206 14.6626C19.2649 15.8423 18.8843 17.0739 17.9788 17.9794C17.0734 18.8849 15.8419 19.2655 14.6623 19.1213L11.3784 26.7836C12.3623 27.5123 13 28.6817 13 30C13 31.3183 12.3623 32.4877 11.3784 33.2164L14.6625 40.8792C15.842 40.735 17.0734 41.1157 17.9788 42.0211C18.8842 42.9265 19.2648 44.1579 19.1207 45.3374L26.7836 48.6216C27.5123 47.6377 28.6817 47 30 47C31.3183 47 32.4877 47.6377 33.2164 48.6216L40.8793 45.3374C40.7352 44.1579 41.1158 42.9265 42.0212 42.0211C42.9266 41.1157 44.158 40.735 45.3375 40.8792L48.6216 33.2164C47.6377 32.4877 47 31.3183 47 30C47 28.6817 47.6377 27.5123 48.6216 26.7836L45.3377 19.1213C44.1581 19.2655 42.9266 18.8849 42.0212 17.9794C41.1157 17.0739 40.7351 15.8423 40.8794 14.6626L33.2164 11.3784ZM8.66076 33.9858L12.1061 42.2545C10.7635 43.8261 10.8355 46.1914 12.322 47.6779C13.8084 49.1644 16.1737 49.2363 17.7453 47.8939L26.0142 51.3392C26.1864 53.3896 27.9051 55 30 55C32.0949 55 33.8136 53.3896 33.9858 51.3392L42.2547 47.8939C43.8263 49.2363 46.1916 49.1644 47.678 47.6779C49.1645 46.1914 49.2365 43.8261 47.8939 42.2545L51.3392 33.9858C53.3896 33.8136 55 32.0949 55 30C55 27.9051 53.3896 26.1864 51.3392 26.0142L47.8941 17.7458C49.2365 16.1742 49.1645 13.809 47.678 12.3226C46.1917 10.8362 43.8267 10.7641 42.2551 12.1063L33.9858 8.66076C33.8136 6.61039 32.0949 5 30 5C27.9051 5 26.1864 6.61039 26.0142 8.66076L17.7449 12.1063C16.1733 10.7641 13.8083 10.8362 12.322 12.3226C10.8355 13.809 10.7635 16.1742 12.1059 17.7458L8.66076 26.0142C6.61039 26.1864 5 27.9051 5 30C5 32.0949 6.61039 33.8136 8.66076 33.9858ZM24 24.5C24 20.9101 26.9101 18 30.5 18C34.0899 18 37 20.9101 37 24.5V26H38.6667C39.403 26 40 26.597 40 27.3333V38.6667C40 39.403 39.403 40 38.6667 40H22.3333C21.597 40 21 39.403 21 38.6667V27.3333C21 26.597 21.597 26 22.3333 26H24V24.5ZM30.5 21C28.567 21 27 22.567 27 24.5V26H34V24.5C34 22.567 32.433 21 30.5 21ZM29 31.5C29 30.6716 29.6716 30 30.5 30C31.3284 30 32 30.6716 32 31.5V34.5C32 35.3284 31.3284 36 30.5 36C29.6716 36 29 35.3284 29 34.5V31.5Z" fill="#222222"/>
</svg>
