<svg width="60" height="60" viewBox="0 0 60 60" fill="none" xmlns="http://www.w3.org/2000/svg">
<path d="M51 31.249C49.1625 30.4461 47.1334 30 45 30C38.8492 30 33.5638 33.7025 31.249 39H24V54H9V6H51V31.249ZM15 30H21V24H15V30ZM27 30H33V24H27V30ZM39 30H45V24H39V30ZM15 18H21V12H15V18ZM27 18H33V12H27V18ZM39 18H45V12H39V18Z" fill="#125DE6"/>
<path d="M45 33C51.6274 33 57 38.3726 57 45C57 51.6274 51.6274 57 45 57C38.3726 57 33 51.6274 33 45C33 38.3726 38.3726 33 45 33ZM45 37.875C41.8934 37.875 39.375 40.3934 39.375 43.5V43.5566C39.1932 43.5197 39.0052 43.5 38.8125 43.5C37.2592 43.5 36 44.7592 36 46.3125C36 47.8658 37.2592 49.125 38.8125 49.125H50.625C52.489 49.125 54 47.614 54 45.75C54 43.886 52.489 42.375 50.625 42.375C50.5875 42.375 50.5499 42.3757 50.5127 42.377C49.9922 39.8085 47.722 37.875 45 37.875Z" fill="#125DE6"/>
</svg>
