<svg width="60" height="60" viewBox="0 0 60 60" fill="none" xmlns="http://www.w3.org/2000/svg">
<path fill-rule="evenodd" clip-rule="evenodd" d="M9.60719 32.9975C9.55831 32.9983 9.50935 32.9987 9.4603 32.9987C8.28369 32.9987 7.15724 32.7839 6.11803 32.3914C7.31818 44.5235 17.5526 54 30.0004 54C31.0164 54 32.0176 53.9369 33.0004 53.8143V49.2707C32.0225 49.4217 31.0206 49.5 30.0004 49.5C20.2502 49.5 12.1713 42.344 10.7293 32.9975H9.60719ZM48.5599 24H53.2443C50.58 13.6486 41.1834 6 30.0004 6C28.8914 6 27.8 6.07522 26.7309 6.22083C28.1565 7.39965 29.3458 8.85377 30.2174 10.5012C38.7989 10.5948 46.0503 16.2316 48.5599 24ZM6.02051 29.008C6.43782 18.7442 13.301 10.1417 22.6706 7.1399C24.3549 7.97263 25.797 9.22103 26.8629 10.7511C17.5858 12.2516 10.5016 20.2972 10.5004 29.9975H9.58207C9.54157 29.9983 9.50098 29.9987 9.4603 29.9987C8.19603 29.9987 7.01657 29.6356 6.02051 29.008Z" fill="#125DE6"/>
<path fill-rule="evenodd" clip-rule="evenodd" d="M9.58316 29.999C9.54266 29.9998 9.50207 30.0001 9.46139 30.0001C5.89286 30.0001 3 27.1073 3 23.5387C3 20.9546 4.51699 18.7248 6.70901 17.6912C6.69789 17.4878 6.69225 17.2829 6.69225 17.0767C6.69225 10.9592 11.6514 6 17.7689 6C22.5938 6 26.6981 9.08486 28.2172 13.3898C32.6688 13.545 36.23 17.2027 36.23 21.6922C36.23 26.2803 32.5106 29.9997 27.9225 29.9997C27.8868 29.9997 27.8511 29.9995 27.8155 29.999H9.58316Z" fill="#125DE6"/>
<path fill-rule="evenodd" clip-rule="evenodd" d="M39 27C37.3431 27 36 28.3431 36 30V54C36 55.6569 37.3431 57 39 57H54C55.6569 57 57 55.6569 57 54V30C57 28.3431 55.6569 27 54 27H39ZM54 30H39V33H54V30ZM39 36H54V39H39V36ZM42 51H39V54H42V51ZM45 51H48V54H45V51ZM54 51H51V54H54V51Z" fill="#125DE6"/>
</svg>
