<svg width="60" height="60" viewBox="0 0 60 60" fill="none" xmlns="http://www.w3.org/2000/svg">
<path d="M51 40.8838C49.2996 39.6972 47.2322 39 45 39C41.1801 39 37.8372 41.0401 36 44.0898V39H24V54H9V6H51V40.8838ZM15 30H21V24H15V30ZM27 30H33V24H27V30ZM39 30H45V24H39V30ZM15 18H21V12H15V18ZM27 18H33V12H27V18ZM39 18H45V12H39V18Z" fill="#125DE6"/>
<path fill-rule="evenodd" clip-rule="evenodd" d="M57 52.5C57 54.9853 54.9853 57 52.5 57H45H36.75C34.6789 57 33 55.3211 33 53.25C33 51.1789 34.6789 49.5 36.75 49.5C37.007 49.5 37.2579 49.5258 37.5004 49.5751L37.5 49.5C37.5 45.3579 40.8579 42 45 42C48.6293 42 51.6565 44.5779 52.3505 48.0024C52.4001 48.0008 52.45 48 52.5 48C54.9853 48 57 50.0147 57 52.5Z" fill="#125DE6"/>
</svg>
