<svg width="60" height="60" viewBox="0 0 60 60" fill="none" xmlns="http://www.w3.org/2000/svg">
<path fill-rule="evenodd" clip-rule="evenodd" d="M22.4964 22.08C23.4659 22.08 24.4137 21.7844 25.2199 21.2306C26.026 20.6768 26.6543 19.8897 27.0254 18.9687C27.3964 18.0478 27.4935 17.0344 27.3043 16.0567C27.1152 15.0791 26.6483 14.181 25.9627 13.4762C25.2771 12.7713 24.4037 12.2913 23.4527 12.0968C22.5018 11.9024 21.5162 12.0022 20.6204 12.3837C19.7247 12.7651 18.9591 13.4111 18.4204 14.2399C17.8818 15.0688 17.5942 16.0432 17.5942 17.04C17.5942 18.232 18.0049 19.3804 18.7457 20.2853L16.0739 25.048C15.1368 24.8656 14.1678 24.9681 13.2859 25.3437C12.3902 25.7251 11.6246 26.3711 11.0859 27.2C10.5473 28.0288 10.2598 29.0032 10.2598 30C10.2598 31.3367 10.7762 32.6186 11.6956 33.5638C12.6149 34.509 13.8618 35.04 15.1619 35.04C16.1315 35.04 17.0792 34.7444 17.8854 34.1906C18.6915 33.6368 19.3199 32.8497 19.6909 31.9288C19.7253 31.8434 19.7573 31.7572 19.787 31.6703H25.147C25.3882 32.3762 25.7815 33.0248 26.3058 33.5638C27.2251 34.509 28.472 35.04 29.7721 35.04C30.0769 35.04 30.3795 35.0108 30.6763 34.9536L33.3514 39.7099C33.2349 39.8518 33.1257 40.0008 33.0246 40.1561C32.4844 40.9857 32.196 41.9616 32.1959 42.9599C32.1913 43.6201 32.3138 44.2746 32.5563 44.8859C32.7988 45.4972 33.1566 46.053 33.609 46.5215C34.0614 46.99 34.5995 47.3619 35.1923 47.6156C35.7851 47.8693 36.4209 47.9999 37.063 47.9999C38.034 48.007 38.9852 47.7175 39.796 47.168C40.6067 46.6186 41.2405 45.834 41.6169 44.9137C41.9933 43.9934 42.0954 42.9789 41.9102 41.9989C41.725 41.0189 41.2609 40.1175 40.5768 39.409C39.8926 38.7006 39.0192 38.217 38.0674 38.0196C37.4283 37.887 36.7733 37.8875 36.14 38.0172L33.4831 33.2932C33.823 32.8883 34.0999 32.4282 34.3011 31.9288C34.6722 31.0078 34.7692 29.9944 34.5801 29.0168C34.3909 28.0391 33.924 27.141 33.2385 26.4362C32.5529 25.7313 31.6794 25.2513 30.7285 25.0569C29.7776 24.8624 28.7919 24.9622 27.8962 25.3437C27.0004 25.7251 26.2348 26.3711 25.6962 27.2C25.4666 27.5532 25.2826 27.9329 25.1471 28.3295H19.787C19.5849 27.7382 19.277 27.1898 18.8782 26.7132L21.5386 21.9829C21.8517 22.047 22.1724 22.08 22.4964 22.08ZM22.4964 15.3576C22.8203 15.3561 23.1374 15.4536 23.4074 15.6376C23.6775 15.8216 23.8883 16.0838 24.0132 16.3911C24.1382 16.6984 24.1716 17.0369 24.1092 17.3637C24.0469 17.6906 23.8916 17.991 23.663 18.227C23.4345 18.4631 23.1429 18.624 22.8253 18.6895C22.5077 18.755 22.1783 18.7222 21.8789 18.595C21.5794 18.4679 21.3234 18.2523 21.1433 17.9754C20.9632 17.6986 20.867 17.3731 20.867 17.04C20.867 16.5951 21.0385 16.1682 21.3438 15.8529C21.6492 15.5376 22.0636 15.3595 22.4964 15.3576ZM55.301 21.2306C54.4722 21.7844 53.4978 22.08 52.5009 22.08C51.1642 22.08 49.8823 21.549 48.9371 20.6038C47.9919 19.6586 47.4609 18.3767 47.4609 17.04C47.4609 16.0432 47.7565 15.0688 48.3103 14.2399C48.8641 13.4111 49.6513 12.7651 50.5722 12.3837C51.4932 12.0022 52.5065 11.9024 53.4842 12.0968C54.4619 12.2913 55.3599 12.7713 56.0648 13.4762C56.7696 14.181 57.2496 15.0791 57.4441 16.0567C57.6386 17.0344 57.5388 18.0478 57.1573 18.9687C56.7758 19.8897 56.1298 20.6768 55.301 21.2306ZM53.4376 15.6282C53.1589 15.4475 52.833 15.3534 52.5009 15.3576C52.2788 15.3604 52.0593 15.4072 51.8553 15.4953C51.6513 15.5834 51.4668 15.711 51.3124 15.8708C51.158 16.0306 51.0368 16.2194 50.9558 16.4263C50.8747 16.6332 50.8355 16.8541 50.8403 17.0763C50.8475 17.4083 50.9528 17.7308 51.1429 18.003C51.333 18.2753 51.5995 18.4853 51.9087 18.6064C52.218 18.7275 52.5561 18.7544 52.8806 18.6837C53.2051 18.6129 53.5014 18.4477 53.7322 18.2089C53.963 17.9701 54.1179 17.6683 54.1775 17.3416C54.237 17.0148 54.1985 16.6778 54.0669 16.3729C53.9352 16.068 53.7162 15.8089 53.4376 15.6282ZM48.9371 33.5638C49.4723 34.099 50.1155 34.5014 50.8154 34.7498V38.2103C50.7366 38.2383 50.6583 38.2682 50.5807 38.3002C49.6577 38.6806 48.8684 39.3265 48.313 40.1561C47.7576 40.9857 47.4611 41.9616 47.4611 42.9599C47.4563 43.6201 47.5822 44.2746 47.8316 44.8859C48.0809 45.4972 48.4488 46.053 48.9139 46.5215C49.3791 46.99 49.9323 47.3619 50.5418 47.6156C51.1512 47.8693 51.8049 47.9999 52.465 47.9999C53.4634 48.007 54.4413 47.7175 55.2749 47.168C56.1084 46.6186 56.76 45.834 57.147 44.9137C57.534 43.9934 57.6389 42.9789 57.4485 41.9989C57.2582 41.0189 56.781 40.1175 56.0776 39.409C55.53 38.8574 54.8644 38.4422 54.1346 38.1921V34.7679C54.5446 34.6274 54.9368 34.4339 55.301 34.1906C56.1298 33.6368 56.7758 32.8497 57.1573 31.9288C57.5388 31.0078 57.6386 29.9944 57.4441 29.0168C57.2496 28.0391 56.7696 27.141 56.0648 26.4362C55.3599 25.7313 54.4619 25.2513 53.4842 25.0569C52.5065 24.8624 51.4932 24.9622 50.5722 25.3437C49.6513 25.7251 48.8641 26.3711 48.3103 27.2C47.7565 28.0288 47.4609 29.0032 47.4609 30C47.4609 31.3367 47.9919 32.6186 48.9371 33.5638ZM52.5009 28.3176C52.833 28.3134 53.1589 28.4075 53.4376 28.5882C53.7162 28.7689 53.9352 29.028 54.0669 29.3329C54.1985 29.6378 54.237 29.9749 54.1775 30.3016C54.1179 30.6283 53.963 30.9301 53.7322 31.1689C53.5014 31.4078 53.2051 31.5729 52.8806 31.6437C52.5561 31.7144 52.218 31.6876 51.9087 31.5664C51.5995 31.4453 51.333 31.2354 51.1429 30.9631C50.9528 30.6908 50.8475 30.3683 50.8403 30.0363C50.8355 29.8141 50.8747 29.5932 50.9558 29.3863C51.0368 29.1794 51.158 28.9906 51.3124 28.8308C51.4668 28.671 51.6513 28.5434 51.8553 28.4553C52.0593 28.3672 52.2788 28.3204 52.5009 28.3176ZM53.3938 41.6147C53.119 41.4309 52.7957 41.3327 52.465 41.3327C52.246 41.3318 52.029 41.3741 51.8264 41.4572C51.6237 41.5404 51.4395 41.6628 51.2843 41.8173C51.1291 41.9718 51.006 42.1555 50.9219 42.3578C50.8379 42.56 50.7947 42.7769 50.7947 42.9959C50.7932 43.3266 50.89 43.6502 51.0727 43.9259C51.2553 44.2015 51.5157 44.4167 51.8208 44.5443C52.1259 44.6718 52.462 44.7059 52.7865 44.6423C53.111 44.5786 53.4093 44.4201 53.6436 44.1868C53.878 43.9535 54.0378 43.6559 54.1028 43.3316C54.1678 43.0074 54.1352 42.6712 54.009 42.3656C53.8828 42.0599 53.6687 41.7986 53.3938 41.6147ZM16.073 28.5976C15.8029 28.4136 15.4859 28.3162 15.1619 28.3176C14.7291 28.3195 14.3147 28.4976 14.0094 28.8129C13.704 29.1282 13.5326 29.5551 13.5326 30C13.5326 30.3331 13.6287 30.6586 13.8088 30.9354C13.989 31.2123 14.245 31.4279 14.5444 31.5551C14.8438 31.6822 15.1732 31.7151 15.4908 31.6496C15.8084 31.5841 16.1 31.4231 16.3286 31.1871C16.5571 30.9511 16.7124 30.6506 16.7748 30.3238C16.8371 29.9969 16.8037 29.6584 16.6788 29.3512C16.5538 29.0439 16.343 28.7816 16.073 28.5976ZM29.7721 28.3176C30.0961 28.3162 30.4132 28.4136 30.6832 28.5976C30.9532 28.7816 31.1641 29.0439 31.289 29.3512C31.4139 29.6584 31.4473 29.9969 31.385 30.3238C31.3227 30.6506 31.1674 30.9511 30.9388 31.1871C30.7102 31.4231 30.4187 31.5841 30.101 31.6496C29.7834 31.7151 29.454 31.6822 29.1546 31.5551C28.8552 31.4279 28.5992 31.2123 28.4191 30.9354C28.239 30.6586 28.1428 30.3331 28.1428 30C28.1428 29.5551 28.3142 29.1282 28.6196 28.8129C28.925 28.4976 29.3394 28.3195 29.7721 28.3176ZM37.9664 41.6147C37.6991 41.4309 37.3847 41.3327 37.063 41.3327C36.8497 41.3308 36.6382 41.3725 36.4407 41.4553C36.2432 41.5381 36.0637 41.6604 35.9125 41.8151C35.7614 41.9699 35.6416 42.1539 35.5602 42.3566C35.4788 42.5593 35.4374 42.7766 35.4383 42.9959C35.4369 43.3266 35.531 43.6502 35.7087 43.9259C35.8864 44.2015 36.1397 44.4167 36.4364 44.5443C36.7332 44.6718 37.0601 44.7059 37.3757 44.6423C37.6913 44.5786 37.9814 44.4201 38.2094 44.1868C38.4373 43.9535 38.5927 43.6559 38.656 43.3316C38.7192 43.0074 38.6875 42.6712 38.5647 42.3656C38.442 42.0599 38.2337 41.7986 37.9664 41.6147ZM22.4615 47.9999C23.4325 48.007 24.3837 47.7175 25.1944 47.168C26.0052 46.6186 26.6389 45.834 27.0153 44.9137C27.3917 43.9934 27.4938 42.9789 27.3087 41.9989C27.1235 41.0189 26.6594 40.1175 25.9752 39.409C25.2911 38.7006 24.4177 38.217 23.4658 38.0196C22.5139 37.8221 21.5265 37.9198 20.6287 38.3002C19.7309 38.6806 18.9632 39.3265 18.423 40.1561C18.184 40.5232 17.9942 40.919 17.8569 41.3327H12.5418C12.3027 40.6121 11.9068 39.9535 11.381 39.409C10.6968 38.7006 9.82342 38.217 8.87155 38.0196C7.91969 37.8221 6.93226 37.9198 6.03447 38.3002C5.13668 38.6806 4.36899 39.3265 3.82878 40.1561C3.28856 40.9857 3.00015 41.9616 3.00013 42.9599C2.99551 43.6201 3.11799 44.2746 3.36051 44.8859C3.60304 45.4972 3.96082 46.053 4.41323 46.5215C4.86565 46.99 5.40375 47.3619 5.99655 47.6156C6.58934 47.8693 7.22511 47.9999 7.86723 47.9999C8.83824 48.007 9.78944 47.7175 10.6002 47.168C11.4109 46.6186 12.0447 45.834 12.4211 44.9137C12.4536 44.8343 12.484 44.7542 12.5124 44.6735H17.8759C17.9006 44.7448 17.9269 44.8156 17.9548 44.8859C18.1973 45.4972 18.5551 46.053 19.0075 46.5215C19.4599 46.99 19.998 47.3619 20.5908 47.6156C21.1836 47.8693 21.8194 47.9999 22.4615 47.9999ZM22.4615 41.3327C22.7834 41.3313 23.0985 41.4282 23.3667 41.6112C23.635 41.7942 23.8443 42.055 23.9682 42.3605C24.092 42.6661 24.1247 43.0025 24.0623 43.3272C23.9998 43.6519 23.8449 43.9502 23.6173 44.1842C23.3897 44.4183 23.0995 44.5775 22.7837 44.6417C22.4679 44.706 22.1406 44.6723 21.8435 44.545C21.5463 44.4176 21.2927 44.2024 21.1147 43.9266C20.9367 43.6508 20.8424 43.3269 20.8438 42.9959C20.8438 42.5548 21.0142 42.1317 21.3176 41.8198C21.621 41.5079 22.0324 41.3327 22.4615 41.3327ZM8.77059 41.6147C8.50326 41.4309 8.18886 41.3327 7.86723 41.3327C7.65394 41.3308 7.44242 41.3725 7.24492 41.4553C7.04742 41.5381 6.86788 41.6604 6.71673 41.8151C6.56559 41.9699 6.44584 42.1539 6.36444 42.3566C6.28303 42.5593 6.2416 42.7766 6.24253 42.9959C6.24115 43.3266 6.33526 43.6502 6.51294 43.9259C6.69062 44.2015 6.94386 44.4167 7.24062 44.5443C7.53737 44.6718 7.86426 44.7059 8.17988 44.6423C8.49551 44.5786 8.78565 44.4201 9.01357 44.1868C9.24149 43.9535 9.39693 43.6559 9.46019 43.3316C9.52345 43.0074 9.49168 42.6712 9.36892 42.3656C9.24616 42.0599 9.03793 41.7986 8.77059 41.6147Z" fill="#125DE6"/>
</svg>
