<svg width="60" height="60" viewBox="0 0 60 60" fill="none" xmlns="http://www.w3.org/2000/svg">
<path fill-rule="evenodd" clip-rule="evenodd" d="M53.9886 26.2525C53.5936 13.3435 43.0047 3 30 3C16.7452 3 6 13.7452 6 27V33V33.0056V39C6 40.6569 7.34315 42 9 42H51C52.6569 42 54 40.6569 54 39V33.0056V33V27L53.9886 26.2525ZM51 30V27C51 25.9814 50.9275 24.9798 50.7873 24H44.811C44.1449 26.5878 41.7958 28.5 39 28.5C35.6863 28.5 33 25.8137 33 22.5C33 19.1863 35.6863 16.5 39 16.5C41.7958 16.5 44.1449 18.4122 44.811 21H50.1304C47.8251 13.2543 41.1713 7.38148 33 6.21267V12.6095L26.1728 19.4469C26.6985 20.3388 27 21.3786 27 22.4888C27 25.8025 24.3137 28.4888 21 28.4888C17.6863 28.4888 15 25.8025 15 22.4888C15 19.1751 17.6863 16.4888 21 16.4888C22.115 16.4888 23.159 16.793 24.0535 17.3228L29.997 11.367L29.9993 6C18.6433 6.00035 9.3927 15.0146 9.01218 26.2781L9 27V30H51ZM21 19.4888C19.3431 19.4888 18 20.832 18 22.4888C18 24.1457 19.3431 25.4888 21 25.4888C22.6569 25.4888 24 24.1457 24 22.4888C24 20.832 22.6569 19.4888 21 19.4888ZM39 19.5C40.6569 19.5 42 20.8431 42 22.5C42 24.1569 40.6569 25.5 39 25.5C37.3431 25.5 36 24.1569 36 22.5C36 20.8431 37.3431 19.5 39 19.5ZM42 33H48V39H42V33ZM9 45C7.34315 45 6 46.3431 6 48V54C6 55.6569 7.34315 57 9 57H51C52.6569 57 54 55.6569 54 54V48C54 46.3431 52.6569 45 51 45H9ZM48 48H42V54H48V48Z" fill="#125DE6"/>
</svg>
