<svg width="60" height="60" viewBox="0 0 60 60" fill="none" xmlns="http://www.w3.org/2000/svg">
<path fill-rule="evenodd" clip-rule="evenodd" d="M12 9H48C49.6569 9 51 10.3431 51 12V42C51 43.6569 49.6569 45 48 45H33V48H39V51H33H27H21V48H27V45H12C10.3431 45 9 43.6569 9 42V12C9 10.3431 10.3431 9 12 9ZM14.4081 27C17.5204 21.6198 23.3375 18 30 18C36.6625 18 42.4796 21.6198 45.5919 27C42.4796 32.3802 36.6625 36 30 36C23.3375 36 17.5204 32.3802 14.4081 27ZM30 33C33.3137 33 36 30.3137 36 27C36 23.6863 33.3137 21 30 21C26.6863 21 24 23.6863 24 27C24 30.3137 26.6863 33 30 33Z" fill="#222222"/>
</svg>
