<svg width="60" height="60" viewBox="0 0 60 60" fill="none" xmlns="http://www.w3.org/2000/svg">
<path fill-rule="evenodd" clip-rule="evenodd" d="M33 48H13.5C7.70101 48 3 43.299 3 37.5C3 33.3007 5.46511 29.6772 9.02718 27.9976C9.00914 27.6673 9 27.3347 9 27C9 17.0589 17.0589 9 27 9C34.8404 9 41.51 14.0128 43.9787 21.0083C47.0077 21.1139 49.783 22.2173 51.986 24H35C33.8954 24 33 24.8954 33 26V48Z" fill="#222222"/>
<path fill-rule="evenodd" clip-rule="evenodd" d="M37 27C36.4477 27 36 27.4477 36 28V56C36 56.5523 36.4477 57 37 57H56C56.5523 57 57 56.5523 57 56V28C57 27.4477 56.5523 27 56 27H37ZM54 30H39V33H54V30ZM39 36H54V39H39V36ZM42 51H39V54H42V51ZM45 51H48V54H45V51ZM54 51H51V54H54V51Z" fill="#222222"/>
</svg>
