<svg width="60" height="60" viewBox="0 0 60 60" fill="none" xmlns="http://www.w3.org/2000/svg">
<path fill-rule="evenodd" clip-rule="evenodd" d="M9 6H51V40.882C49.2998 39.6957 47.2318 39 45 39C41.1805 39 37.8373 41.0394 36 44.0886V39H24V54H9V6ZM15 12H21V18H15V12ZM21 24H15V30H21V24ZM27 12H33V18H27V12ZM33 24H27V30H33V24ZM45 12H39V18H45V12ZM39 24H45V30H39V24Z" fill="#222222"/>
<path fill-rule="evenodd" clip-rule="evenodd" d="M57 52.5C57 54.9853 54.9853 57 52.5 57H45H36.75C34.6789 57 33 55.3211 33 53.25C33 51.1789 34.6789 49.5 36.75 49.5C37.007 49.5 37.2579 49.5258 37.5004 49.5751L37.5 49.5C37.5 45.3579 40.8579 42 45 42C48.6293 42 51.6565 44.5779 52.3505 48.0024C52.4001 48.0008 52.45 48 52.5 48C54.9853 48 57 50.0147 57 52.5Z" fill="#222222"/>
</svg>
