<svg width="60" height="60" viewBox="0 0 60 60" fill="none" xmlns="http://www.w3.org/2000/svg">
<path fill-rule="evenodd" clip-rule="evenodd" d="M9.60862 32.9975C9.55974 32.9983 9.51077 32.9987 9.46173 32.9987C8.28455 32.9987 7.15757 32.7837 6.11793 32.3908C7.31782 44.5232 17.5524 54 30.0003 54C31.0163 54 32.0176 53.9369 33.0003 53.8143V49.2707C32.0224 49.4217 31.0205 49.5 30.0003 49.5C20.2501 49.5 12.1713 42.344 10.7293 32.9975H9.60862ZM48.5598 24H53.2442C50.58 13.6486 41.1834 6 30.0003 6C28.8918 6 27.8008 6.07516 26.7321 6.22066C28.1578 7.39951 29.3471 8.8537 30.2189 10.5012C38.7997 10.5954 46.0504 16.2321 48.5598 24ZM6.02051 29.0071C6.43819 18.7434 13.3016 10.1411 22.6714 7.13961C24.3559 7.9723 25.7982 9.22074 26.8642 10.7509C17.5864 12.2508 10.5015 20.2967 10.5003 29.9975H9.5835C9.543 29.9983 9.50241 29.9987 9.46173 29.9987C8.19686 29.9987 7.01687 29.6352 6.02051 29.0071Z" fill="#222222"/>
<path fill-rule="evenodd" clip-rule="evenodd" d="M9.58316 29.999C9.54266 29.9998 9.50207 30.0001 9.46139 30.0001C5.89286 30.0001 3 27.1073 3 23.5387C3 20.9546 4.51699 18.7248 6.70901 17.6912C6.69789 17.4878 6.69225 17.2829 6.69225 17.0767C6.69225 10.9592 11.6514 6 17.7689 6C22.5938 6 26.6981 9.08486 28.2172 13.3898C32.6688 13.545 36.23 17.2027 36.23 21.6922C36.23 26.2803 32.5106 29.9997 27.9225 29.9997C27.8868 29.9997 27.8511 29.9995 27.8155 29.999H9.58316Z" fill="#222222"/>
<path fill-rule="evenodd" clip-rule="evenodd" d="M39 27C37.3431 27 36 28.3431 36 30V54C36 55.6569 37.3431 57 39 57H54C55.6569 57 57 55.6569 57 54V30C57 28.3431 55.6569 27 54 27H39ZM54 30H39V33H54V30ZM39 36H54V39H39V36ZM42 51H39V54H42V51ZM45 51H48V54H45V51ZM54 51H51V54H54V51Z" fill="#222222"/>
</svg>
