<svg width="60" height="60" viewBox="0 0 60 60" fill="none" xmlns="http://www.w3.org/2000/svg">
<circle cx="10.5" cy="19.5" r="4.5" fill="#222222"/>
<circle cx="49.5" cy="19.5" r="4.5" fill="#222222"/>
<circle cx="30" cy="7.5" r="4.5" fill="#222222"/>
<circle cx="30" cy="52.5" r="4.5" fill="#222222"/>
<circle cx="10.5" cy="40.5" r="4.5" fill="#222222"/>
<circle cx="49.5" cy="40.5" r="4.5" fill="#222222"/>
<path d="M10.5 18.8705L30 7.72763L49.5 18.8705V41.1295L30 52.2724L10.5 41.1295V18.8705Z" stroke="#222222" stroke-width="3"/>
<path fill-rule="evenodd" clip-rule="evenodd" d="M42 29.4942L38.8681 31.2163C38.8308 31.5311 38.7765 31.8398 38.7079 32.1432L41.07 34.849L39.5797 37.47L36.0872 36.7444C35.8621 36.957 35.6267 37.1575 35.3808 37.3459L35.4784 40.9649L32.6773 42L30.4598 39.1626C30.4069 39.1652 30.3543 39.1688 30.3018 39.1724C30.2017 39.1792 30.1016 39.186 30 39.186C29.8979 39.186 29.798 39.1792 29.698 39.1724C29.6456 39.1688 29.5931 39.1652 29.5402 39.1626L27.3227 42L24.5216 40.9649L24.6192 37.3459C24.3733 37.1575 24.1379 36.957 23.9128 36.7444L20.4203 37.47L18.93 34.849L21.2921 32.1432C21.2235 31.8398 21.1692 31.5311 21.1319 31.2163L18 29.4942L18.5171 26.5138L22.0402 25.9834C22.1811 25.7026 22.3346 25.4295 22.503 25.1669L21.1945 21.8052L23.4784 19.8591L26.5045 21.7477C26.7906 21.6236 27.0849 21.5161 27.386 21.4231L28.5097 18H31.4903L32.614 21.4231C32.9151 21.5161 33.2094 21.6236 33.4955 21.7477L36.5216 19.8591L38.8048 21.8052L37.497 25.1669C37.6654 25.4295 37.8182 25.7026 37.9598 25.9834L41.4829 26.5138L42 29.4942ZM30 33C28.3431 33 27 31.6569 27 30C27 28.3431 28.3431 27 30 27C31.6569 27 33 28.3431 33 30C33 31.6569 31.6569 33 30 33Z" fill="#222222"/>
</svg>
