<svg width="60" height="60" viewBox="0 0 60 60" fill="none" xmlns="http://www.w3.org/2000/svg">
<path fill-rule="evenodd" clip-rule="evenodd" d="M54 30C54 43.2548 43.2548 54 30 54V48C39.9411 48 48 39.9411 48 30C48 20.0589 39.9411 12 30 12C21.081 12 13.6771 18.4869 12.2489 27H6.18567C7.66196 15.1611 17.7611 6 30 6C43.2548 6 54 16.7452 54 30Z" fill="#125DE6"/>
<path fill-rule="evenodd" clip-rule="evenodd" d="M9 39L0 27H18L9 39Z" fill="#125DE6"/>
<path fill-rule="evenodd" clip-rule="evenodd" d="M27 31.5V18H33V29.0147L40.0919 36.1066L35.8492 40.3492L27 31.5Z" fill="#125DE6"/>
</svg>
