<svg width="60" height="60" viewBox="0 0 60 60" fill="none" xmlns="http://www.w3.org/2000/svg">
<path fill-rule="evenodd" clip-rule="evenodd" d="M15 42C13.4706 42 12.2085 41.2132 12.0234 40.1962L12 39.9375V8.0625C12 7.01103 13.1445 6.14334 14.6237 6.01607L15 6H45C46.5294 6 47.7915 6.78681 47.9766 7.80378L48 8.0625V39.9375C48 40.989 46.8555 41.8567 45.3763 41.9839L45 42H33L33.0032 45.8046C33.9126 46.3314 34.6709 47.0901 35.1972 47.9998L51 48V54L35.1954 54.0032C34.1575 55.7949 32.2195 57 30 57C27.7805 57 25.8425 55.7949 24.8046 54.0032L9 54V48L24.8028 47.9998C25.3297 47.0891 26.0891 46.3297 26.9998 45.8028L27 42H15ZM30 48C28.3431 48 27 49.3431 27 51C27 52.6569 28.3431 54 30 54C31.6569 54 33 52.6569 33 51C33 49.3431 31.6569 48 30 48ZM21 30C19.3431 30 18 31.3431 18 33C18 34.6569 19.3431 36 21 36C22.6569 36 24 34.6569 24 33C24 31.3431 22.6569 30 21 30ZM42 21H18V25.5C18 26.2364 18.5306 26.8488 19.2304 26.9758L19.5 27H40.5C41.2364 27 41.8488 26.4694 41.9758 25.7696L42 25.5V21ZM40.5 12H19.5C18.7636 12 18.1512 12.5306 18.0242 13.2304L18 13.5V18H42V13.5C42 12.6716 41.3284 12 40.5 12Z" fill="#125DE6"/>
</svg>
