<svg width="60" height="60" viewBox="0 0 60 60" fill="none" xmlns="http://www.w3.org/2000/svg">
<path fill-rule="evenodd" clip-rule="evenodd" d="M21 12C21 10.3431 22.3431 9 24 9H48C49.6569 9 51 10.3431 51 12V36C51 37.6569 49.6569 39 48 39H45V18C45 16.3431 43.6569 15 42 15H21V12Z" fill="#125DE6"/>
<path fill-rule="evenodd" clip-rule="evenodd" d="M12 21C10.3431 21 9 22.3431 9 24V48C9 49.6569 10.3431 51 12 51H36C37.6569 51 39 49.6569 39 48V24C39 22.3431 37.6569 21 36 21H12Z" fill="#125DE6"/>
</svg>
