<svg width="60" height="60" viewBox="0 0 60 60" fill="none" xmlns="http://www.w3.org/2000/svg">
<path fill-rule="evenodd" clip-rule="evenodd" d="M8 16.6667C8 15.1939 9.19391 14 10.6667 14H43.3333C44.8061 14 46 15.1939 46 16.6667V20.5815C45.0736 20.2065 44.0609 20 43 20V17H11V38H30.5714C30.1999 38.7904 30 39.6299 30 40.5V41V43V46H24H16C16 44.3431 17.3431 43 19 43H24V41H10.6667C9.19391 41 8 39.8061 8 38.3333V16.6667ZM38 28C38 30.7614 40.2386 33 43 33C45.7614 33 48 30.7614 48 28C48 25.2386 45.7614 23 43 23C40.2386 23 38 25.2386 38 28ZM33 40.6667V46H43H53V40.6667C53 37.7211 48.5228 35.3333 43 35.3333C37.4772 35.3333 33 37.7211 33 40.6667ZM32.9121 28.1442L35 26.9961L34.6552 25.0092L32.3065 24.6556C32.2121 24.4684 32.1103 24.2863 31.998 24.1113L32.8698 21.8701L31.3477 20.5727L29.3304 21.8318C29.1396 21.749 28.9434 21.6774 28.7427 21.6154L27.9935 19.3333H26.0065L25.2573 21.6154C25.0566 21.6774 24.8604 21.749 24.6696 21.8318L22.6523 20.5727L21.1297 21.8701L22.002 24.1113C21.8897 24.2863 21.7874 24.4684 21.6935 24.6556L19.3448 25.0092L19 26.9961L21.0879 28.1442C21.1128 28.354 21.149 28.5599 21.1947 28.7621L19.62 30.566L20.6135 32.3133L22.9419 31.8296C23.0919 31.9713 23.2489 32.105 23.4128 32.2306L23.3477 34.6433L25.2151 35.3333L26.6935 33.4417C26.7287 33.4435 26.7637 33.4459 26.7987 33.4482C26.8653 33.4528 26.9319 33.4574 27 33.4574C27.0677 33.4574 27.1344 33.4528 27.2011 33.4483L27.2012 33.4482L27.2013 33.4482C27.2363 33.4458 27.2713 33.4435 27.3065 33.4417L28.7849 35.3333L30.6523 34.6433L30.5872 32.2306C30.7511 32.105 30.9081 31.9713 31.0581 31.8296L33.3865 32.3133L34.38 30.566L32.8053 28.7621C32.851 28.5599 32.8872 28.354 32.9121 28.1442ZM30 27.3333C30 28.9902 28.6569 30.3333 27 30.3333C25.3431 30.3333 24 28.9902 24 27.3333C24 25.6765 25.3431 24.3333 27 24.3333C28.6569 24.3333 30 25.6765 30 27.3333Z" fill="#555555"/>
</svg>
