<svg width="60" height="60" viewBox="0 0 60 60" fill="none" xmlns="http://www.w3.org/2000/svg">
<path fill-rule="evenodd" clip-rule="evenodd" d="M10.6667 13C9.19391 13 8 14.1939 8 15.6667V42.3333C8 43.8061 9.19391 45 10.6667 45H27V48H21C19.3431 48 18 49.3431 18 51H38V48H33V45H38V41H12V17H48V26H52V15.6667C52 14.1939 50.8061 13 49.3333 13H10.6667ZM42.0833 29C41.485 29 41 29.5472 41 30.2222V49.7778C41 50.4528 41.485 51 42.0833 51H52.9167C53.515 51 54 50.4528 54 49.7778V30.2222C54 29.5472 53.515 29 52.9167 29H42.0833ZM49 47.5C49 48.3284 48.3284 49 47.5 49C46.6716 49 46 48.3284 46 47.5C46 46.6716 46.6716 46 47.5 46C48.3284 46 49 46.6716 49 47.5Z" fill="#555555"/>
</svg>
