<svg width="60" height="60" viewBox="0 0 60 60" fill="none" xmlns="http://www.w3.org/2000/svg">
<path fill-rule="evenodd" clip-rule="evenodd" d="M57 34.5C57 41.4488 51.7499 47.1714 45 47.9176V48H43.5H15C8.37258 48 3 42.6274 3 36C3 30.3378 6.92155 25.5916 12.1968 24.3292C13.4871 15.6546 20.9664 9 30 9C38.0219 9 44.8182 14.2476 47.1434 21.4974C47.7184 21.6581 48.2779 21.856 48.8191 22.0883C48.2954 23.1118 48 24.2714 48 25.5C48 25.9198 48.0345 26.3315 48.1008 26.7324L47.7207 27.0988C47.3234 27.0338 46.9157 27 46.5 27C45.242 27 44.0562 27.3097 43.015 27.8571L40.235 26.5168C39.3654 23.3371 36.4556 21 33 21C28.8579 21 25.5 24.3579 25.5 28.5C25.5 28.6196 25.5028 28.7385 25.5083 28.8567L23.9963 30.1493C23.5128 30.0514 23.0124 30 22.5 30C18.3579 30 15 33.3579 15 37.5C15 41.6421 18.3579 45 22.5 45C26.6421 45 30 41.6421 30 37.5C30 37.2909 29.9914 37.0837 29.9747 36.8789L31.2445 35.7934C31.8076 35.9285 32.3955 36 33 36C34.4312 36 35.7688 35.5991 36.9066 34.9035L39.1467 35.9835C39.8352 39.4151 42.8657 42 46.5 42C50.6421 42 54 38.6421 54 34.5C54 34.1948 53.9818 33.8939 53.9463 33.5982L54.6199 32.9489C54.9086 32.9827 55.2023 33 55.5 33C55.9793 33 56.4482 32.955 56.9025 32.8691C56.9669 33.4037 57 33.948 57 34.5Z" fill="#222222"/>
<path fill-rule="evenodd" clip-rule="evenodd" d="M32.1389 31.082L25.6019 36.67L23.6526 34.3896L30.1896 28.8016L32.1389 31.082Z" fill="#222222"/>
<path fill-rule="evenodd" clip-rule="evenodd" d="M43.3238 34.6665L34.4672 30.3965L35.7701 27.6941L44.6267 31.9642L43.3238 34.6665Z" fill="#222222"/>
<path fill-rule="evenodd" clip-rule="evenodd" d="M55.085 28.3329L49.2333 33.9737L47.1512 31.8138L53.0029 26.173L55.085 28.3329Z" fill="#222222"/>
<path fill-rule="evenodd" clip-rule="evenodd" d="M22.5 39C23.3284 39 24 38.3284 24 37.5C24 36.6716 23.3284 36 22.5 36C21.6716 36 21 36.6716 21 37.5C21 38.3284 21.6716 39 22.5 39ZM22.5 42C24.9853 42 27 39.9853 27 37.5C27 35.0147 24.9853 33 22.5 33C20.0147 33 18 35.0147 18 37.5C18 39.9853 20.0147 42 22.5 42Z" fill="#222222"/>
<path fill-rule="evenodd" clip-rule="evenodd" d="M33 30C33.8284 30 34.5 29.3284 34.5 28.5C34.5 27.6716 33.8284 27 33 27C32.1716 27 31.5 27.6716 31.5 28.5C31.5 29.3284 32.1716 30 33 30ZM33 33C35.4853 33 37.5 30.9853 37.5 28.5C37.5 26.0147 35.4853 24 33 24C30.5147 24 28.5 26.0147 28.5 28.5C28.5 30.9853 30.5147 33 33 33Z" fill="#222222"/>
<path fill-rule="evenodd" clip-rule="evenodd" d="M55.5 27C56.3284 27 57 26.3284 57 25.5C57 24.6716 56.3284 24 55.5 24C54.6716 24 54 24.6716 54 25.5C54 26.3284 54.6716 27 55.5 27ZM55.5 30C57.9853 30 60 27.9853 60 25.5C60 23.0147 57.9853 21 55.5 21C53.0147 21 51 23.0147 51 25.5C51 27.9853 53.0147 30 55.5 30Z" fill="#222222"/>
<path fill-rule="evenodd" clip-rule="evenodd" d="M46.5 36C47.3284 36 48 35.3284 48 34.5C48 33.6716 47.3284 33 46.5 33C45.6716 33 45 33.6716 45 34.5C45 35.3284 45.6716 36 46.5 36ZM46.5 39C48.9853 39 51 36.9853 51 34.5C51 32.0147 48.9853 30 46.5 30C44.0147 30 42 32.0147 42 34.5C42 36.9853 44.0147 39 46.5 39Z" fill="#222222"/>
</svg>
