<svg width="60" height="60" viewBox="0 0 60 60" fill="none" xmlns="http://www.w3.org/2000/svg">
<path fill-rule="evenodd" clip-rule="evenodd" d="M42 31.4077H36V38.1973V40.4077V42.6973C36 43.5257 36.6716 44.1973 37.5 44.1973H45V38.1973H42V31.4077ZM18 31.4077H24V38.1973V40.4077V42.6973C24 43.5257 23.3284 44.1973 22.5 44.1973H15V38.1973H18V31.4077ZM27 33.1377H33V45.1377H27V33.1377Z" fill="#555555"/>
<circle cx="6.75" cy="6.75" r="4.5" transform="matrix(-1 0 0 1 57.0132 34.4487)" stroke="#555555" stroke-width="4.5"/>
<circle cx="6.75" cy="6.75" r="4.5" transform="matrix(-1 0 0 1 16.5 34.4487)" stroke="#555555" stroke-width="4.5"/>
<circle cx="30.0341" cy="49.582" r="4.5" stroke="#555555" stroke-width="4.5"/>
<path fill-rule="evenodd" clip-rule="evenodd" d="M9 24.8501C9 29.6826 12.6563 33.6 17.1666 33.6001L17.1668 33.6011H41.6668V33.5115C42.0478 33.5699 42.4372 33.6001 42.8333 33.6001C47.3436 33.6001 51 29.6826 51 24.8501C51 20.374 47.8631 16.6829 43.8162 16.1628C42.7294 9.03794 36.9574 3.60059 30.0001 3.60059C23.0429 3.60059 17.2709 9.03792 16.1841 16.1628C12.1371 16.6828 9 20.3739 9 24.8501ZM29.8945 13.5C33.2867 13.5 36.4373 14.9763 38.6052 17.4769L39 17.9576L36.9899 19.5203C35.2974 17.3433 32.7044 16.0461 29.8945 16.0461C27.3583 16.0461 24.9971 17.1023 23.3138 18.9149L22.9637 19.3148L21 17.6942C23.1757 15.058 26.4091 13.5 29.8945 13.5ZM35.3121 20.7005C33.9572 19.1887 32.018 18.2988 29.934 18.2988C27.7508 18.2988 25.7245 19.2752 24.3618 20.9263L26.3255 22.5469L26.6031 22.239C27.4724 21.3559 28.6603 20.8449 29.934 20.8449C31.3973 20.8449 32.7466 21.5199 33.6283 22.654L35.6384 21.0912L35.3121 20.7005ZM29.934 26.9156C31.0292 26.9156 31.917 26.0278 31.917 24.9327C31.917 23.8375 31.0292 22.9497 29.934 22.9497C28.8389 22.9497 27.951 23.8375 27.951 24.9327C27.951 26.0278 28.8389 26.9156 29.934 26.9156Z" fill="#555555"/>
</svg>
