<svg width="60" height="60" viewBox="0 0 60 60" fill="none" xmlns="http://www.w3.org/2000/svg">
<path fill-rule="evenodd" clip-rule="evenodd" d="M54 28.9884L47.7362 32.4326C47.6617 33.0621 47.5529 33.6796 47.4158 34.2864L52.1401 39.6979L49.9368 43.5728L39.8924 33.5285C40.2858 32.4257 40.5 31.2379 40.5 30C40.5 24.201 35.799 19.5 30 19.5C28.7621 19.5 27.5743 19.7142 26.4715 20.1076L34.5312 28.1673C35.117 28.753 35.117 29.7028 34.5312 30.2886L30.2886 34.5312C29.7028 35.117 28.753 35.117 28.1673 34.5312L20.1076 26.4715C19.7142 27.5743 19.5 28.7621 19.5 30C19.5 35.799 24.201 40.5 30 40.5C31.2379 40.5 32.4257 40.2858 33.5285 39.8924L40.829 47.193L40.9568 51.9298L35.3547 54L30.9195 48.3252C30.8139 48.3304 30.7088 48.3376 30.6037 48.3447L30.6035 48.3447C30.4033 48.3584 30.2033 48.3721 30 48.3721C29.7958 48.3721 29.5961 48.3584 29.3962 48.3447H29.3961H29.396L29.3959 48.3447L29.3957 48.3447C29.2909 48.3375 29.186 48.3304 29.0805 48.3252L24.6453 54L19.0432 51.9298L19.2384 44.6918C18.7466 44.315 18.2757 43.9139 17.8256 43.4887L10.8405 44.9399L7.85991 39.6979L12.5842 34.2864C12.4471 33.6796 12.3383 33.0621 12.2638 32.4326L6 28.9884L7.03428 23.0275L14.0805 21.9667C14.3621 21.4053 14.6692 20.859 15.006 20.3339L12.389 13.6103L16.9568 9.71815L23.0089 13.4953C23.5812 13.2471 24.1699 13.0323 24.772 12.8461L27.0194 6H32.9806L35.228 12.8461C35.8301 13.0323 36.4188 13.2471 36.9911 13.4953L43.0432 9.71815L47.6095 13.6103L44.994 20.3339C45.3308 20.859 45.6364 21.4053 45.9195 21.9667L52.9657 23.0275L54 28.9884Z" fill="#555555"/>
</svg>
