<svg width="60" height="60" viewBox="0 0 60 60" fill="none" xmlns="http://www.w3.org/2000/svg">
<path fill-rule="evenodd" clip-rule="evenodd" d="M12 9C10.3431 9 9 10.3431 9 12V18C9 19.6569 10.3431 21 12 21H48C49.6569 21 51 19.6569 51 18V12C51 10.3431 49.6569 9 48 9H12ZM9 27C9 25.3431 10.3431 24 12 24H48C49.6569 24 51 25.3431 51 27V33C51 34.6569 49.6569 36 48 36H12C10.3431 36 9 34.6569 9 33V27ZM9 42C9 40.3431 10.3431 39 12 39H48C49.6569 39 51 40.3431 51 42V48C51 49.6569 49.6569 51 48 51H12C10.3431 51 9 49.6569 9 48V42ZM39 48V42H45V48H39ZM39 27V33H45V27H39ZM39 18V12H45V18H39Z" fill="#555555"/>
</svg>
