<svg width="60" height="60" viewBox="0 0 60 60" fill="none" xmlns="http://www.w3.org/2000/svg">
<path fill-rule="evenodd" clip-rule="evenodd" d="M10.8611 27H24.75C28.2018 27 31 24.2104 31 20.7692C31 17.4019 28.3205 14.6584 24.9712 14.5423C23.8283 11.3136 20.7405 9 17.1107 9C12.5083 9 8.77734 12.7195 8.77734 17.3077C8.77734 17.4623 8.78158 17.6158 8.78994 17.7683C7.14106 18.5436 6 20.2159 6 22.1538C6 24.8303 8.17639 27 10.8611 27ZM16 44V36H12L17.5 29L23 36H19V44H33V47H16V44Z" fill="#555555"/>
<path fill-rule="evenodd" clip-rule="evenodd" d="M22 13H44V16V24H48L42.5 31L37 24H41V16H22V13ZM33.8611 51H47.75C51.2018 51 54 48.2104 54 44.7692C54 41.4019 51.3205 38.6584 47.9712 38.5423C46.8283 35.3136 43.7405 33 40.1107 33C35.5083 33 31.7773 36.7195 31.7773 41.3077C31.7773 41.4623 31.7816 41.6158 31.7899 41.7683C30.1411 42.5436 29 44.2159 29 46.1538C29 48.8303 31.1764 51 33.8611 51Z" fill="#555555"/>
</svg>
