<svg width="60" height="60" viewBox="0 0 60 60" fill="none" xmlns="http://www.w3.org/2000/svg">
<path fill-rule="evenodd" clip-rule="evenodd" d="M6 31.5C6 36.1944 10.0294 40 15 40H25V36.5005C23.1783 35.1322 22 32.9537 22 30.5C22 26.3579 25.3579 23 29.5 23C33.6421 23 37 26.3579 37 30.5C37 32.9537 35.8217 35.1322 34 36.5005V40H41V39.9893C41.1658 39.9964 41.3325 40 41.5 40C47.8513 40 53 34.8513 53 28.5C53 22.1739 47.892 17.0408 41.5755 17.0002C39.1176 11.6865 33.7393 8 27.5 8C18.945 8 12.0088 14.9308 12 23.4837C8.50443 24.6505 6 27.799 6 31.5ZM34 30.5C34 32.4593 32.7478 34.1262 31 34.7439V46H44.2561C44.8738 44.2522 46.5407 43 48.5 43C50.9853 43 53 45.0147 53 47.5C53 49.9853 50.9853 52 48.5 52C46.5407 52 44.8738 50.7478 44.2561 49H14.7439C14.1262 50.7478 12.4593 52 10.5 52C8.01472 52 6 49.9853 6 47.5C6 45.0147 8.01472 43 10.5 43C12.4593 43 14.1262 44.2522 14.7439 46H28V34.7439C26.2522 34.1262 25 32.4593 25 30.5C25 28.0147 27.0147 26 29.5 26C31.9853 26 34 28.0147 34 30.5Z" fill="#555555"/>
</svg>
